M48
; DRILL file {KiCad (6.0.10-0)} date Thursday, February 23, 2023 at 08:38:22 PM
; FORMAT={-:-/ absolute / metric / decimal}
; #@! TF.CreationDate,2023-02-23T20:38:22-08:00
; #@! TF.GenerationSoftware,Kicad,Pcbnew,(6.0.10-0)
; #@! TF.FileFunction,MixedPlating,1,4
FMAT,2
METRIC
; #@! TA.AperFunction,Plated,PTH,ViaDrill
T1C0.350
; #@! TA.AperFunction,Plated,PTH,ViaDrill
T2C0.400
; #@! TA.AperFunction,Plated,PTH,ComponentDrill
T3C0.600
; #@! TA.AperFunction,Plated,PTH,ComponentDrill
T4C0.900
; #@! TA.AperFunction,Plated,PTH,ViaDrill
T5C1.000
; #@! TA.AperFunction,Plated,PTH,ComponentDrill
T6C1.000
; #@! TA.AperFunction,Plated,PTH,ViaDrill
T7C1.500
; #@! TA.AperFunction,Plated,PTH,ComponentDrill
T8C2.000
; #@! TA.AperFunction,Plated,PTH,ComponentDrill
T9C2.700
; #@! TA.AperFunction,Plated,PTH,ComponentDrill
T10C3.900
; #@! TA.AperFunction,NonPlated,NPTH,ComponentDrill
T11C1.000
; #@! TA.AperFunction,NonPlated,NPTH,ComponentDrill
T12C3.250
%
G90
G05
T1
X158.825Y-149.65
X158.829Y-151.341
X160.725Y-142.675
X173.275Y-129.124
X179.15Y-128.5
X184.675Y-127.225
T2
X151.654Y-131.769
X151.71Y-116.66
X151.77Y-114.54
X151.78Y-118.78
X151.88Y-120.93
X152.34Y-128.67
X153.7Y-140.15
X154.225Y-154.725
X154.8Y-152.8
X155.375Y-136.5
X155.375Y-137.5
X155.638Y-140.287
X156.4Y-149.5
X156.65Y-144.7
X157.275Y-147.076
X157.326Y-143.2
X157.375Y-125.276
X157.85Y-139.5
X157.9Y-142.25
X158.124Y-125.273
X159.05Y-148.925
X159.125Y-155.4
X159.475Y-142.775
X160.018Y-142.259
X160.75Y-140.7
X160.9Y-139.05
X162.149Y-141.975
X162.724Y-141.125
X162.73Y-150.921
X162.775Y-153.325
X162.8Y-154.089
X163.349Y-151.344
X163.825Y-139.525
X163.874Y-141.125
X163.874Y-141.954
X164.85Y-139.7
X164.874Y-151.7
X165.588Y-151.471
X165.85Y-155.875
X165.877Y-150.78
X166.8Y-151.78
X167.426Y-151.366
X167.625Y-125.05
X168.425Y-146.275
X168.437Y-147.697
X168.45Y-143.875
X169.175Y-144.55
X169.4Y-149.55
X169.525Y-145.7
X169.575Y-154.95
X169.75Y-143.35
X171.325Y-149.525
X171.334Y-142.909
X172.05Y-144.7
X172.225Y-157.15
X172.425Y-147.775
X172.6Y-155.3
X173.4Y-151.5
X174.071Y-127.761
X174.169Y-121.505
X174.325Y-143.35
X174.64Y-133.91
X174.719Y-140.819
X175.05Y-151.0
X175.475Y-140.875
X177.025Y-133.975
X178.225Y-145.775
X179.45Y-148.675
X179.65Y-145.025
X180.1Y-169.35
X180.175Y-114.325
X180.2Y-130.275
X181.275Y-140.0
X181.275Y-176.325
X181.65Y-120.6
X182.0Y-138.95
X182.0Y-141.125
X182.105Y-152.895
X182.125Y-140.0
X186.475Y-140.025
X186.6Y-138.9
X186.6Y-141.075
X186.625Y-160.825
X186.8Y-104.825
X187.325Y-140.025
X191.025Y-122.8
X202.85Y-139.175
X203.64Y-164.975
X203.83Y-155.2
X204.3Y-116.825
X205.55Y-145.3
X205.93Y-160.9
X206.725Y-136.3
X207.71Y-160.88
X208.42Y-155.23
X211.18Y-158.45
X211.71Y-157.98
X212.475Y-164.935
X213.3Y-117.375
X214.01Y-155.32
X215.4Y-160.9
X217.17Y-160.91
X218.71Y-155.3
X220.4Y-136.35
X221.41Y-164.94
X221.43Y-158.44
X222.04Y-157.99
X222.25Y-117.0
X223.18Y-155.29
X223.7Y-139.65
X224.58Y-160.94
X226.36Y-160.93
X227.93Y-155.3
X230.59Y-158.26
X231.26Y-157.91
X232.96Y-135.71
X233.55Y-115.35
X234.47Y-142.11
X234.55Y-156.56
X238.03Y-153.27
X242.15Y-131.64
X242.475Y-115.45
X249.91Y-149.47
T4
X174.8Y-130.6
X177.775Y-130.6
T5
X188.425Y-113.3
X189.272Y-169.447
X191.115Y-102.351
X192.034Y-157.895
X192.41Y-113.249
X193.635Y-169.465
X195.072Y-102.309
X196.021Y-157.879
X196.388Y-113.202
X197.65Y-169.475
X199.175Y-102.475
X200.232Y-157.882
X203.75Y-140.7
X205.575Y-150.475
X212.3Y-136.375
X226.175Y-136.35
X234.5Y-147.19
X234.67Y-161.32
X244.48Y-134.42
T6
X188.55Y-135.55
X188.55Y-143.15
T7
X198.536Y-117.154
X198.536Y-120.939
X199.35Y-177.4
X200.46Y-172.672
X258.79Y-147.81
X258.82Y-132.73
X270.43Y-147.81
X270.45Y-132.95
X282.47Y-132.82
X282.71Y-147.68
X294.16Y-132.68
X294.16Y-147.73
X306.1Y-132.49
X306.24Y-147.64
X317.78Y-132.69
X317.82Y-147.65
X329.52Y-147.79
X329.56Y-132.5
X341.11Y-132.78
X341.16Y-147.74
T8
X195.75Y-125.84
X195.8Y-130.84
X196.79Y-147.53
X196.84Y-152.53
X258.89Y-161.995
X258.91Y-118.705
X264.59Y-161.995
X264.61Y-118.705
X270.29Y-161.995
X270.31Y-118.705
X276.175Y-147.6
X276.225Y-152.6
X276.3Y-127.7
X276.35Y-132.7
X282.709Y-161.85
X282.785Y-118.655
X288.409Y-161.85
X288.485Y-118.655
X294.109Y-161.85
X294.185Y-118.655
X306.23Y-161.95
X306.4Y-118.43
X311.93Y-161.95
X312.1Y-118.43
X317.63Y-161.95
X317.8Y-118.43
X329.616Y-118.25
X329.69Y-161.895
X335.316Y-118.25
X335.39Y-161.895
X341.016Y-118.25
X341.09Y-161.895
T9
X205.2Y-106.15
X205.2Y-111.15
X205.2Y-169.15
X205.2Y-174.15
X214.2Y-106.15
X214.2Y-111.15
X214.2Y-169.15
X214.2Y-174.15
X223.2Y-106.15
X223.2Y-111.15
X223.2Y-169.15
X223.2Y-174.15
X235.4Y-106.15
X235.4Y-111.15
X235.4Y-169.2
X235.4Y-174.2
X244.4Y-106.15
X244.4Y-111.15
T10
X176.29Y-106.56
X176.29Y-117.46
X176.35Y-162.5
X176.35Y-173.4
T11
X171.545Y-136.06
X175.355Y-136.06
T12
X258.89Y-169.295
X258.91Y-111.405
X270.29Y-169.295
X270.31Y-111.405
X282.709Y-169.15
X282.785Y-111.355
X294.109Y-169.15
X294.185Y-111.355
X306.23Y-169.25
X306.4Y-111.13
X317.63Y-169.25
X317.8Y-111.13
X329.616Y-110.95
X329.69Y-169.195
X341.016Y-110.95
X341.09Y-169.195
T3
G00X167.39Y-102.56
M15
G01X166.39Y-102.56
M16
G05
G00X167.39Y-121.46
M15
G01X166.39Y-121.46
M16
G05
G00X167.45Y-158.5
M15
G01X166.45Y-158.5
M16
G05
G00X167.45Y-177.4
M15
G01X166.45Y-177.4
M16
G05
T0
M30
