%TF.GenerationSoftware,KiCad,Pcbnew,7.0.1-0*%
%TF.CreationDate,2023-04-01T19:34:20-07:00*%
%TF.ProjectId,1.0,312e302e-6b69-4636-9164-5f7063625858,rev?*%
%TF.SameCoordinates,Original*%
%TF.FileFunction,Soldermask,Top*%
%TF.FilePolarity,Negative*%
%FSLAX46Y46*%
G04 Gerber Fmt 4.6, Leading zero omitted, Abs format (unit mm)*
G04 Created by KiCad (PCBNEW 7.0.1-0) date 2023-04-01 19:34:20*
%MOMM*%
%LPD*%
G01*
G04 APERTURE LIST*
G04 Aperture macros list*
%AMRoundRect*
0 Rectangle with rounded corners*
0 $1 Rounding radius*
0 $2 $3 $4 $5 $6 $7 $8 $9 X,Y pos of 4 corners*
0 Add a 4 corners polygon primitive as box body*
4,1,4,$2,$3,$4,$5,$6,$7,$8,$9,$2,$3,0*
0 Add four circle primitives for the rounded corners*
1,1,$1+$1,$2,$3*
1,1,$1+$1,$4,$5*
1,1,$1+$1,$6,$7*
1,1,$1+$1,$8,$9*
0 Add four rect primitives between the rounded corners*
20,1,$1+$1,$2,$3,$4,$5,0*
20,1,$1+$1,$4,$5,$6,$7,0*
20,1,$1+$1,$6,$7,$8,$9,0*
20,1,$1+$1,$8,$9,$2,$3,0*%
G04 Aperture macros list end*
%ADD10C,0.010000*%
%ADD11C,3.600000*%
%ADD12RoundRect,0.150000X0.150000X0.250000X-0.150000X0.250000X-0.150000X-0.250000X0.150000X-0.250000X0*%
%ADD13R,0.800000X0.600000*%
%ADD14R,3.800000X3.800000*%
%ADD15C,4.000000*%
%ADD16R,1.300000X0.900000*%
%ADD17R,2.000000X2.000000*%
%ADD18RoundRect,0.175000X0.175000X0.425000X-0.175000X0.425000X-0.175000X-0.425000X0.175000X-0.425000X0*%
%ADD19RoundRect,0.150000X0.250000X-0.150000X0.250000X0.150000X-0.250000X0.150000X-0.250000X-0.150000X0*%
%ADD20R,0.600000X0.800000*%
%ADD21R,0.300000X0.750000*%
%ADD22R,0.750000X0.300000*%
%ADD23R,3.700000X2.700000*%
%ADD24R,1.000000X1.000000*%
%ADD25R,0.830000X0.520000*%
%ADD26R,0.700000X1.200000*%
%ADD27R,1.100000X1.100000*%
%ADD28R,0.600000X2.500000*%
%ADD29RoundRect,0.175000X-0.175000X-0.425000X0.175000X-0.425000X0.175000X0.425000X-0.175000X0.425000X0*%
%ADD30R,1.000000X1.700000*%
%ADD31R,5.500000X1.430000*%
%ADD32R,0.600000X0.500000*%
%ADD33RoundRect,0.150000X-0.150000X-0.250000X0.150000X-0.250000X0.150000X0.250000X-0.150000X0.250000X0*%
%ADD34R,1.200000X0.700000*%
%ADD35RoundRect,0.150000X-0.250000X0.150000X-0.250000X-0.150000X0.250000X-0.150000X0.250000X0.150000X0*%
%ADD36R,1.800000X1.200000*%
%ADD37R,1.550000X0.600000*%
%ADD38R,0.500000X0.630000*%
%ADD39R,0.500000X1.600000*%
%ADD40R,0.900000X0.600000*%
%ADD41R,1.800000X1.700000*%
%ADD42C,3.000000*%
%ADD43C,1.000000*%
%ADD44RoundRect,0.050800X0.380000X1.300000X-0.380000X1.300000X-0.380000X-1.300000X0.380000X-1.300000X0*%
%ADD45R,1.000000X0.900000*%
%ADD46R,0.550000X1.700000*%
%ADD47O,2.600000X1.300000*%
%ADD48R,4.916000X4.916000*%
%ADD49C,4.916000*%
%ADD50RoundRect,0.175000X-0.425000X0.175000X-0.425000X-0.175000X0.425000X-0.175000X0.425000X0.175000X0*%
%ADD51R,0.850000X0.300000*%
%ADD52R,0.300000X0.850000*%
%ADD53R,5.250000X5.250000*%
%ADD54R,0.254800X0.757199*%
%ADD55R,1.600200X1.600200*%
%ADD56RoundRect,0.150000X0.825000X0.150000X-0.825000X0.150000X-0.825000X-0.150000X0.825000X-0.150000X0*%
%ADD57R,0.250000X0.800000*%
%ADD58R,0.250000X1.100000*%
%ADD59R,0.250000X0.700000*%
%ADD60R,1.950000X0.600000*%
%ADD61R,0.700000X0.250000*%
%ADD62R,1.100000X0.250000*%
%ADD63R,2.500000X0.950000*%
%ADD64R,2.200000X1.150000*%
%ADD65R,1.150000X1.500000*%
%ADD66R,1.240000X0.800000*%
%ADD67R,1.250000X1.250000*%
%ADD68R,1.200000X1.200000*%
%ADD69R,0.757199X0.254800*%
%ADD70C,0.650000*%
%ADD71R,1.150000X0.300000*%
%ADD72O,2.100000X1.000000*%
%ADD73O,1.600000X1.000000*%
%ADD74C,2.000000*%
%ADD75RoundRect,0.150000X-0.150000X0.825000X-0.150000X-0.825000X0.150000X-0.825000X0.150000X0.825000X0*%
G04 APERTURE END LIST*
%TO.C,Q10*%
D10*
X191550000Y-109297500D02*
X188900000Y-109297500D01*
X188900000Y-106787500D01*
X191550000Y-106787500D01*
X191550000Y-109297500D01*
G36*
X191550000Y-109297500D02*
G01*
X188900000Y-109297500D01*
X188900000Y-106787500D01*
X191550000Y-106787500D01*
X191550000Y-109297500D01*
G37*
%TO.C,Q12*%
X195500000Y-106312500D02*
X192850000Y-106312500D01*
X192850000Y-103802500D01*
X195500000Y-103802500D01*
X195500000Y-106312500D01*
G36*
X195500000Y-106312500D02*
G01*
X192850000Y-106312500D01*
X192850000Y-103802500D01*
X195500000Y-103802500D01*
X195500000Y-106312500D01*
G37*
%TO.C,Q3*%
X195625000Y-162125000D02*
X192975000Y-162125000D01*
X192975000Y-159615000D01*
X195625000Y-159615000D01*
X195625000Y-162125000D01*
G36*
X195625000Y-162125000D02*
G01*
X192975000Y-162125000D01*
X192975000Y-159615000D01*
X195625000Y-159615000D01*
X195625000Y-162125000D01*
G37*
%TO.C,Q4*%
X191675000Y-162125000D02*
X189025000Y-162125000D01*
X189025000Y-159615000D01*
X191675000Y-159615000D01*
X191675000Y-162125000D01*
G36*
X191675000Y-162125000D02*
G01*
X189025000Y-162125000D01*
X189025000Y-159615000D01*
X191675000Y-159615000D01*
X191675000Y-162125000D01*
G37*
%TO.C,Q6*%
X195625000Y-165100000D02*
X192975000Y-165100000D01*
X192975000Y-162590000D01*
X195625000Y-162590000D01*
X195625000Y-165100000D01*
G36*
X195625000Y-165100000D02*
G01*
X192975000Y-165100000D01*
X192975000Y-162590000D01*
X195625000Y-162590000D01*
X195625000Y-165100000D01*
G37*
%TO.C,Q9*%
X195500000Y-109297500D02*
X192850000Y-109297500D01*
X192850000Y-106787500D01*
X195500000Y-106787500D01*
X195500000Y-109297500D01*
G36*
X195500000Y-109297500D02*
G01*
X192850000Y-109297500D01*
X192850000Y-106787500D01*
X195500000Y-106787500D01*
X195500000Y-109297500D01*
G37*
%TO.C,Q11*%
X191575000Y-106325000D02*
X188925000Y-106325000D01*
X188925000Y-103815000D01*
X191575000Y-103815000D01*
X191575000Y-106325000D01*
G36*
X191575000Y-106325000D02*
G01*
X188925000Y-106325000D01*
X188925000Y-103815000D01*
X191575000Y-103815000D01*
X191575000Y-106325000D01*
G37*
%TO.C,Q5*%
X191675000Y-165112500D02*
X189025000Y-165112500D01*
X189025000Y-162602500D01*
X191675000Y-162602500D01*
X191675000Y-165112500D01*
G36*
X191675000Y-165112500D02*
G01*
X189025000Y-165112500D01*
X189025000Y-162602500D01*
X191675000Y-162602500D01*
X191675000Y-165112500D01*
G37*
%TD*%
D11*
%TO.C,U28*%
X245900000Y-108565000D03*
%TD*%
D12*
%TO.C,R84*%
X234237500Y-145355000D03*
X232537500Y-145355000D03*
%TD*%
D13*
%TO.C,C65*%
X220250000Y-130095000D03*
X220250000Y-128395000D03*
%TD*%
D14*
%TO.C,U22*%
X225975000Y-106150000D03*
D15*
X225975000Y-111150000D03*
%TD*%
D16*
%TO.C,F4*%
X210400000Y-111075000D03*
X210400000Y-113275000D03*
%TD*%
D17*
%TO.C,TP17*%
X167020000Y-162670000D03*
%TD*%
D13*
%TO.C,R85*%
X239840000Y-145100000D03*
X239840000Y-146800000D03*
%TD*%
D18*
%TO.C,C26*%
X220730000Y-123730000D03*
X218730000Y-123730000D03*
%TD*%
D19*
%TO.C,R18*%
X175400000Y-145125000D03*
X175400000Y-143425000D03*
%TD*%
D20*
%TO.C,C29*%
X232945000Y-157860000D03*
X234645000Y-157860000D03*
%TD*%
D21*
%TO.C,U9*%
X203867500Y-133230001D03*
X204367499Y-133230001D03*
X204867501Y-133230001D03*
X205367500Y-133230001D03*
X205867499Y-133230001D03*
X206367501Y-133230001D03*
X206867500Y-133230001D03*
D22*
X207807500Y-132290002D03*
X207807500Y-131790000D03*
X207807500Y-131290001D03*
X207807500Y-130790002D03*
X207807500Y-130290000D03*
D21*
X206867500Y-129350001D03*
X206367501Y-129350001D03*
X205867499Y-129350001D03*
X205367500Y-129350001D03*
X204867501Y-129350001D03*
X204367499Y-129350001D03*
X203867500Y-129350001D03*
D22*
X202927500Y-130290000D03*
X202927500Y-130790002D03*
X202927500Y-131290001D03*
X202927500Y-131790000D03*
X202927500Y-132290002D03*
D23*
X205367500Y-131290001D03*
%TD*%
D13*
%TO.C,D16*%
X241625000Y-175925000D03*
X241625000Y-174225000D03*
%TD*%
D24*
%TO.C,TP1*%
X171950000Y-141625000D03*
%TD*%
D13*
%TO.C,D15*%
X241300000Y-104435000D03*
X241300000Y-106135000D03*
%TD*%
D16*
%TO.C,F1*%
X231025000Y-169225000D03*
X231025000Y-167025000D03*
%TD*%
D25*
%TO.C,Q1*%
X189165000Y-169150000D03*
X189165000Y-170450000D03*
X190635000Y-169800000D03*
%TD*%
D13*
%TO.C,R81*%
X221680000Y-128050000D03*
X221680000Y-126350000D03*
%TD*%
%TO.C,C31*%
X198122500Y-145025000D03*
X198122500Y-146725000D03*
%TD*%
D26*
%TO.C,R51*%
X191300000Y-136720000D03*
X189300000Y-136720000D03*
%TD*%
D27*
%TO.C,D2*%
X176825000Y-153425000D03*
X174025000Y-153425000D03*
%TD*%
D12*
%TO.C,R1*%
X172375000Y-156175000D03*
X170675000Y-156175000D03*
%TD*%
D17*
%TO.C,TP20*%
X166890000Y-117540000D03*
%TD*%
D19*
%TO.C,R45*%
X211100000Y-109450000D03*
X211100000Y-107750000D03*
%TD*%
D13*
%TO.C,C35*%
X203822500Y-142800000D03*
X203822500Y-144500000D03*
%TD*%
D28*
%TO.C,C58*%
X246460000Y-147000000D03*
X243260000Y-147000000D03*
%TD*%
D29*
%TO.C,C74*%
X240960000Y-149460000D03*
X242960000Y-149460000D03*
%TD*%
D13*
%TO.C,C69*%
X238650000Y-133200000D03*
X238650000Y-131500000D03*
%TD*%
%TO.C,C68*%
X220250000Y-133095000D03*
X220250000Y-131395000D03*
%TD*%
D30*
%TO.C,C55*%
X235560000Y-137790000D03*
X238860000Y-137790000D03*
%TD*%
D21*
%TO.C,U29*%
X222935000Y-133209999D03*
X223434999Y-133209999D03*
X223935001Y-133209999D03*
X224435000Y-133209999D03*
X224934999Y-133209999D03*
X225435001Y-133209999D03*
X225935000Y-133209999D03*
D22*
X226875000Y-132270000D03*
X226875000Y-131769998D03*
X226875000Y-131269999D03*
X226875000Y-130770000D03*
X226875000Y-130269998D03*
D21*
X225935000Y-129329999D03*
X225435001Y-129329999D03*
X224934999Y-129329999D03*
X224435000Y-129329999D03*
X223935001Y-129329999D03*
X223434999Y-129329999D03*
X222935000Y-129329999D03*
D22*
X221995000Y-130269998D03*
X221995000Y-130770000D03*
X221995000Y-131269999D03*
X221995000Y-131769998D03*
X221995000Y-132270000D03*
D23*
X224435000Y-131269999D03*
%TD*%
D31*
%TO.C,L2*%
X207647500Y-140205000D03*
X207647500Y-144245000D03*
%TD*%
D28*
%TO.C,C6*%
X209175000Y-146800000D03*
X205975000Y-146800000D03*
%TD*%
D32*
%TO.C,C73*%
X237187500Y-146180000D03*
X237187500Y-145080000D03*
%TD*%
D12*
%TO.C,R25*%
X190730000Y-173350000D03*
X189030000Y-173350000D03*
%TD*%
D19*
%TO.C,R77*%
X200872500Y-146825000D03*
X200872500Y-145125000D03*
%TD*%
D21*
%TO.C,U12*%
X220100000Y-139795000D03*
X219600001Y-139795000D03*
X219099999Y-139795000D03*
X218600000Y-139795000D03*
X218100001Y-139795000D03*
X217599999Y-139795000D03*
X217100000Y-139795000D03*
D22*
X216160000Y-140734999D03*
X216160000Y-141235001D03*
X216160000Y-141735000D03*
X216160000Y-142234999D03*
X216160000Y-142735001D03*
D21*
X217100000Y-143675000D03*
X217599999Y-143675000D03*
X218100001Y-143675000D03*
X218600000Y-143675000D03*
X219099999Y-143675000D03*
X219600001Y-143675000D03*
X220100000Y-143675000D03*
D22*
X221040000Y-142735001D03*
X221040000Y-142234999D03*
X221040000Y-141735000D03*
X221040000Y-141235001D03*
X221040000Y-140734999D03*
D23*
X218600000Y-141735000D03*
%TD*%
D33*
%TO.C,R62*%
X188950000Y-117150000D03*
X190650000Y-117150000D03*
%TD*%
D13*
%TO.C,C59*%
X228300000Y-129070000D03*
X228300000Y-130770000D03*
%TD*%
D14*
%TO.C,U17*%
X225975000Y-174150000D03*
D15*
X225975000Y-169150000D03*
%TD*%
D34*
%TO.C,R69*%
X241262500Y-107450000D03*
X241262500Y-109450000D03*
%TD*%
D35*
%TO.C,R59*%
X209625000Y-170850000D03*
X209625000Y-172550000D03*
%TD*%
D12*
%TO.C,R4*%
X196847500Y-145250000D03*
X195147500Y-145250000D03*
%TD*%
D28*
%TO.C,C21*%
X215090000Y-126310000D03*
X218290000Y-126310000D03*
%TD*%
D36*
%TO.C,J1*%
X171377500Y-130425000D03*
X171377500Y-124825000D03*
D37*
X168852500Y-129125000D03*
X168852500Y-128125000D03*
X168852500Y-127125000D03*
X168852500Y-126125000D03*
%TD*%
D13*
%TO.C,C28*%
X214750000Y-143935000D03*
X214750000Y-142235000D03*
%TD*%
D29*
%TO.C,C50*%
X195475000Y-123775000D03*
X197475000Y-123775000D03*
%TD*%
D13*
%TO.C,R83*%
X240060000Y-128030000D03*
X240060000Y-126330000D03*
%TD*%
D32*
%TO.C,C71*%
X224425000Y-126920000D03*
X224425000Y-128020000D03*
%TD*%
D14*
%TO.C,U20*%
X205200000Y-106150000D03*
D15*
X205200000Y-111150000D03*
%TD*%
D38*
%TO.C,Q10*%
X189250000Y-110072500D03*
X189900000Y-110072500D03*
X190550000Y-110072500D03*
X191200000Y-110072500D03*
%TD*%
D32*
%TO.C,C70*%
X242675000Y-126925000D03*
X242675000Y-128025000D03*
%TD*%
D35*
%TO.C,R28*%
X191975000Y-112800000D03*
X191975000Y-114500000D03*
%TD*%
D13*
%TO.C,R73*%
X221300000Y-144990000D03*
X221300000Y-146690000D03*
%TD*%
D28*
%TO.C,C52*%
X233410000Y-126230000D03*
X236610000Y-126230000D03*
%TD*%
D19*
%TO.C,R44*%
X209700000Y-109450000D03*
X209700000Y-107750000D03*
%TD*%
%TO.C,R8*%
X160250000Y-155125000D03*
X160250000Y-153425000D03*
%TD*%
D35*
%TO.C,R74*%
X204067500Y-126340000D03*
X204067500Y-128040000D03*
%TD*%
%TO.C,R55*%
X193400000Y-112800000D03*
X193400000Y-114500000D03*
%TD*%
D39*
%TO.C,U2*%
X182425000Y-173300000D03*
X184025000Y-173300000D03*
X185625000Y-173300000D03*
D40*
X186825000Y-170800000D03*
D41*
X185525000Y-168450000D03*
X182525000Y-168450000D03*
D40*
X181225000Y-170800000D03*
%TD*%
D20*
%TO.C,C81*%
X161800000Y-124125000D03*
X160100000Y-124125000D03*
%TD*%
D33*
%TO.C,R7*%
X180250000Y-175950000D03*
X181950000Y-175950000D03*
%TD*%
D13*
%TO.C,D9*%
X210375000Y-104825000D03*
X210375000Y-106525000D03*
%TD*%
D35*
%TO.C,R12*%
X192125000Y-169000000D03*
X192125000Y-170700000D03*
%TD*%
D13*
%TO.C,C62*%
X226000000Y-128045000D03*
X226000000Y-126345000D03*
%TD*%
D35*
%TO.C,R76*%
X199497500Y-147375000D03*
X199497500Y-149075000D03*
%TD*%
%TO.C,R19*%
X174000000Y-143425000D03*
X174000000Y-145125000D03*
%TD*%
D29*
%TO.C,C49*%
X222330000Y-149180000D03*
X224330000Y-149180000D03*
%TD*%
D20*
%TO.C,C2*%
X170700000Y-154350000D03*
X172400000Y-154350000D03*
%TD*%
%TO.C,C33*%
X181825000Y-157075000D03*
X180125000Y-157075000D03*
%TD*%
D13*
%TO.C,C34*%
X178700000Y-148220000D03*
X178700000Y-146520000D03*
%TD*%
D26*
%TO.C,R68*%
X242475000Y-162375000D03*
X244475000Y-162375000D03*
%TD*%
D29*
%TO.C,C56*%
X232510000Y-123540000D03*
X234510000Y-123540000D03*
%TD*%
D35*
%TO.C,R93*%
X237037500Y-147255000D03*
X237037500Y-148955000D03*
%TD*%
D19*
%TO.C,R10*%
X160200000Y-150375000D03*
X160200000Y-148675000D03*
%TD*%
D20*
%TO.C,C9*%
X172400000Y-152925000D03*
X170700000Y-152925000D03*
%TD*%
%TO.C,D14*%
X244125000Y-164150000D03*
X242425000Y-164150000D03*
%TD*%
D28*
%TO.C,C42*%
X195925000Y-126350000D03*
X199125000Y-126350000D03*
%TD*%
D19*
%TO.C,R79*%
X219925000Y-146685000D03*
X219925000Y-144985000D03*
%TD*%
D31*
%TO.C,L3*%
X226475000Y-140190000D03*
X226475000Y-144230000D03*
%TD*%
D14*
%TO.C,U23*%
X246450000Y-174175000D03*
D15*
X246450000Y-169175000D03*
%TD*%
D31*
%TO.C,L4*%
X216600000Y-132885000D03*
X216600000Y-128845000D03*
%TD*%
D33*
%TO.C,R2*%
X208097500Y-127740000D03*
X209797500Y-127740000D03*
%TD*%
D35*
%TO.C,R94*%
X238412500Y-145105000D03*
X238412500Y-146805000D03*
%TD*%
%TO.C,R57*%
X197625000Y-112800000D03*
X197625000Y-114500000D03*
%TD*%
D33*
%TO.C,R82*%
X245975000Y-127725000D03*
X247675000Y-127725000D03*
%TD*%
D19*
%TO.C,R71*%
X203820000Y-147460000D03*
X203820000Y-145760000D03*
%TD*%
%TO.C,R98*%
X157750000Y-142775000D03*
X157750000Y-141075000D03*
%TD*%
%TO.C,R60*%
X230425000Y-109425000D03*
X230425000Y-107725000D03*
%TD*%
D42*
%TO.C,C5*%
X189900000Y-148500000D03*
X189950000Y-153500000D03*
%TD*%
D13*
%TO.C,R3*%
X202680000Y-128040000D03*
X202680000Y-126340000D03*
%TD*%
D31*
%TO.C,L1*%
X197577500Y-132970000D03*
X197577500Y-128930000D03*
%TD*%
D18*
%TO.C,C48*%
X209750000Y-149300000D03*
X207750000Y-149300000D03*
%TD*%
D14*
%TO.C,U18*%
X215525000Y-174150000D03*
D15*
X215525000Y-169150000D03*
%TD*%
D13*
%TO.C,C64*%
X235512500Y-145105000D03*
X235512500Y-146805000D03*
%TD*%
D19*
%TO.C,R20*%
X172475000Y-145125000D03*
X172475000Y-143425000D03*
%TD*%
D43*
%TO.C,U1*%
X176380000Y-137400000D03*
X172570000Y-137400000D03*
D44*
X177015000Y-135250000D03*
X177015000Y-139550000D03*
X175745000Y-135250000D03*
X175745000Y-139550000D03*
X174475000Y-135250000D03*
X174475000Y-139550000D03*
X173205000Y-135250000D03*
X173205000Y-139550000D03*
X171935000Y-135250000D03*
X171935000Y-139550000D03*
%TD*%
D16*
%TO.C,F8*%
X241537500Y-111100000D03*
X241537500Y-113300000D03*
%TD*%
D12*
%TO.C,R32*%
X227811625Y-152223250D03*
X226111625Y-152223250D03*
%TD*%
D35*
%TO.C,R54*%
X196225000Y-112800000D03*
X196225000Y-114500000D03*
%TD*%
D13*
%TO.C,C36*%
X217150000Y-144960000D03*
X217150000Y-146660000D03*
%TD*%
%TO.C,C27*%
X206827500Y-128040000D03*
X206827500Y-126340000D03*
%TD*%
D12*
%TO.C,R15*%
X186050000Y-143950000D03*
X184350000Y-143950000D03*
%TD*%
D35*
%TO.C,R78*%
X218525000Y-147185000D03*
X218525000Y-148885000D03*
%TD*%
D31*
%TO.C,L5*%
X234875000Y-132845000D03*
X234875000Y-128805000D03*
%TD*%
D19*
%TO.C,R61*%
X231875000Y-109425000D03*
X231875000Y-107725000D03*
%TD*%
D20*
%TO.C,C4*%
X186050000Y-175950000D03*
X187750000Y-175950000D03*
%TD*%
D13*
%TO.C,C63*%
X244275000Y-128000000D03*
X244275000Y-126300000D03*
%TD*%
D16*
%TO.C,F7*%
X246375000Y-164175000D03*
X246375000Y-161975000D03*
%TD*%
D18*
%TO.C,C57*%
X239380000Y-123540000D03*
X237380000Y-123540000D03*
%TD*%
D20*
%TO.C,C14*%
X173430000Y-147810000D03*
X171730000Y-147810000D03*
%TD*%
D39*
%TO.C,U3*%
X182275000Y-117575000D03*
X183875000Y-117575000D03*
X185475000Y-117575000D03*
D40*
X186675000Y-115075000D03*
D41*
X185375000Y-112725000D03*
X182375000Y-112725000D03*
D40*
X181075000Y-115075000D03*
%TD*%
D12*
%TO.C,R63*%
X176070000Y-123910000D03*
X174370000Y-123910000D03*
%TD*%
D32*
%TO.C,C45*%
X218675000Y-146085000D03*
X218675000Y-144985000D03*
%TD*%
D12*
%TO.C,R35*%
X216000000Y-152175000D03*
X214300000Y-152175000D03*
%TD*%
D25*
%TO.C,Q7*%
X175905000Y-125400000D03*
X175905000Y-126700000D03*
X177375000Y-126050000D03*
%TD*%
D32*
%TO.C,C40*%
X199647500Y-146275000D03*
X199647500Y-145175000D03*
%TD*%
D35*
%TO.C,R87*%
X238640000Y-125670000D03*
X238640000Y-127370000D03*
%TD*%
D12*
%TO.C,R31*%
X210900000Y-153575000D03*
X209200000Y-153575000D03*
%TD*%
D45*
%TO.C,SW1*%
X176825000Y-146875000D03*
D46*
X177450000Y-148925000D03*
D45*
X175225000Y-146875000D03*
X176825000Y-150975000D03*
X175225000Y-150975000D03*
%TD*%
D47*
%TO.C,U16*%
X165770000Y-121460000D03*
X165770000Y-102560000D03*
D48*
X175170000Y-117460000D03*
D49*
X175170000Y-106560000D03*
%TD*%
D18*
%TO.C,C46*%
X202160000Y-123850000D03*
X200160000Y-123850000D03*
%TD*%
D13*
%TO.C,C25*%
X195897500Y-143950000D03*
X195897500Y-142250000D03*
%TD*%
D19*
%TO.C,R46*%
X221575000Y-109450000D03*
X221575000Y-107750000D03*
%TD*%
D35*
%TO.C,R48*%
X231845000Y-152575000D03*
X231845000Y-154275000D03*
%TD*%
D20*
%TO.C,C7*%
X184725000Y-120150000D03*
X183025000Y-120150000D03*
%TD*%
D25*
%TO.C,Q2*%
X189080000Y-113050000D03*
X189080000Y-114350000D03*
X190550000Y-113700000D03*
%TD*%
D12*
%TO.C,R37*%
X207050000Y-152125000D03*
X205350000Y-152125000D03*
%TD*%
D30*
%TO.C,C18*%
X206910000Y-135310000D03*
X203610000Y-135310000D03*
%TD*%
D18*
%TO.C,C22*%
X205750000Y-158000000D03*
X203750000Y-158000000D03*
%TD*%
D16*
%TO.C,F6*%
X231125000Y-111050000D03*
X231125000Y-113250000D03*
%TD*%
D11*
%TO.C,U27*%
X245900000Y-156825000D03*
%TD*%
D18*
%TO.C,C16*%
X214800000Y-158000000D03*
X212800000Y-158000000D03*
%TD*%
D35*
%TO.C,R56*%
X194825000Y-112800000D03*
X194825000Y-114500000D03*
%TD*%
D50*
%TO.C,C80*%
X180300000Y-146175000D03*
X180300000Y-148175000D03*
%TD*%
D16*
%TO.C,F5*%
X220800000Y-111075000D03*
X220800000Y-113275000D03*
%TD*%
%TO.C,F2*%
X220700000Y-169200000D03*
X220700000Y-167000000D03*
%TD*%
D35*
%TO.C,R21*%
X193525000Y-169000000D03*
X193525000Y-170700000D03*
%TD*%
D12*
%TO.C,R29*%
X228761625Y-153623250D03*
X227061625Y-153623250D03*
%TD*%
D51*
%TO.C,IC2*%
X169599239Y-149150761D03*
X169599239Y-148650761D03*
X169599239Y-148150761D03*
X169599239Y-147650761D03*
X169599239Y-147150761D03*
X169599239Y-146650761D03*
X169599239Y-146150761D03*
X169599239Y-145650761D03*
X169599239Y-145150761D03*
X169599239Y-144650761D03*
X169599239Y-144150761D03*
X169599239Y-143650761D03*
D52*
X168899239Y-142950761D03*
X168399239Y-142950761D03*
X167899239Y-142950761D03*
X167399239Y-142950761D03*
X166899239Y-142950761D03*
X166399239Y-142950761D03*
X165899239Y-142950761D03*
X165399239Y-142950761D03*
X164899239Y-142950761D03*
X164399239Y-142950761D03*
X163899239Y-142950761D03*
X163399239Y-142950761D03*
D51*
X162699239Y-143650761D03*
X162699239Y-144150761D03*
X162699239Y-144650761D03*
X162699239Y-145150761D03*
X162699239Y-145650761D03*
X162699239Y-146150761D03*
X162699239Y-146650761D03*
X162699239Y-147150761D03*
X162699239Y-147650761D03*
X162699239Y-148150761D03*
X162699239Y-148650761D03*
X162699239Y-149150761D03*
D52*
X163399239Y-149850761D03*
X163899239Y-149850761D03*
X164399239Y-149850761D03*
X164899239Y-149850761D03*
X165399239Y-149850761D03*
X165899239Y-149850761D03*
X166399239Y-149850761D03*
X166899239Y-149850761D03*
X167399239Y-149850761D03*
X167899239Y-149850761D03*
X168399239Y-149850761D03*
X168899239Y-149850761D03*
D53*
X166149239Y-146400761D03*
%TD*%
D16*
%TO.C,F9*%
X241600000Y-169175000D03*
X241600000Y-166975000D03*
%TD*%
D13*
%TO.C,C32*%
X201272500Y-130340000D03*
X201272500Y-128640000D03*
%TD*%
%TO.C,C37*%
X201272500Y-133200000D03*
X201272500Y-131500000D03*
%TD*%
D35*
%TO.C,R66*%
X201280000Y-125590000D03*
X201280000Y-127290000D03*
%TD*%
%TO.C,R14*%
X194925000Y-169000000D03*
X194925000Y-170700000D03*
%TD*%
D13*
%TO.C,C23*%
X209222500Y-129065000D03*
X209222500Y-130765000D03*
%TD*%
D38*
%TO.C,Q12*%
X195150000Y-103027500D03*
X194500000Y-103027500D03*
X193850000Y-103027500D03*
X193200000Y-103027500D03*
%TD*%
D30*
%TO.C,C53*%
X225830000Y-135300000D03*
X222530000Y-135300000D03*
%TD*%
D54*
%TO.C,U13*%
X234620001Y-153459200D03*
X234120000Y-153459200D03*
X233620000Y-153459200D03*
X233119999Y-153459200D03*
X233119999Y-156400800D03*
X233620000Y-156400800D03*
X234120000Y-156400800D03*
X234620001Y-156400800D03*
D55*
X233870000Y-154930000D03*
%TD*%
D13*
%TO.C,C1*%
X167125000Y-137475000D03*
X167125000Y-139175000D03*
%TD*%
D56*
%TO.C,IC1*%
X168575000Y-156030000D03*
X168575000Y-154760000D03*
X168575000Y-153490000D03*
X168575000Y-152220000D03*
X163625000Y-152220000D03*
X163625000Y-153490000D03*
X163625000Y-154760000D03*
X163625000Y-156030000D03*
%TD*%
D35*
%TO.C,R43*%
X219950000Y-170825000D03*
X219950000Y-172525000D03*
%TD*%
D50*
%TO.C,C13*%
X209500000Y-154925000D03*
X209500000Y-156925000D03*
%TD*%
D13*
%TO.C,C67*%
X241312500Y-142905000D03*
X241312500Y-144605000D03*
%TD*%
D12*
%TO.C,R67*%
X215675000Y-145285000D03*
X213975000Y-145285000D03*
%TD*%
D35*
%TO.C,R42*%
X221400000Y-170825000D03*
X221400000Y-172525000D03*
%TD*%
D30*
%TO.C,C54*%
X244360000Y-135300000D03*
X241060000Y-135300000D03*
%TD*%
D35*
%TO.C,R86*%
X220250000Y-125495000D03*
X220250000Y-127195000D03*
%TD*%
D16*
%TO.C,F3*%
X210350000Y-169200000D03*
X210350000Y-167000000D03*
%TD*%
D12*
%TO.C,R23*%
X190670000Y-115750000D03*
X188970000Y-115750000D03*
%TD*%
D35*
%TO.C,R13*%
X197725000Y-169000000D03*
X197725000Y-170700000D03*
%TD*%
D19*
%TO.C,R47*%
X220150000Y-109450000D03*
X220150000Y-107750000D03*
%TD*%
D38*
%TO.C,Q3*%
X195275000Y-158840000D03*
X194625000Y-158840000D03*
X193975000Y-158840000D03*
X193325000Y-158840000D03*
%TD*%
D57*
%TO.C,U4*%
X224936625Y-153600000D03*
D58*
X224286625Y-153750000D03*
X223636625Y-153750000D03*
D59*
X222986625Y-153550000D03*
X222136625Y-153550000D03*
X221286625Y-153550000D03*
D60*
X222136625Y-154000000D03*
X222136625Y-156000000D03*
D59*
X222986625Y-156450000D03*
X222136625Y-156450000D03*
X221286625Y-156450000D03*
D58*
X223636625Y-156250000D03*
X224286625Y-156250000D03*
D59*
X224936625Y-156450000D03*
D61*
X225836625Y-156250000D03*
X225836625Y-155750000D03*
D62*
X225636625Y-155250000D03*
X225636625Y-154750000D03*
D61*
X225836625Y-154250000D03*
X225836625Y-153750000D03*
%TD*%
D30*
%TO.C,C24*%
X217110000Y-137690000D03*
X220410000Y-137690000D03*
%TD*%
D14*
%TO.C,U24*%
X236727500Y-106150000D03*
D15*
X236727500Y-111150000D03*
%TD*%
D13*
%TO.C,D10*%
X220825000Y-104800000D03*
X220825000Y-106500000D03*
%TD*%
D12*
%TO.C,R36*%
X209925000Y-152125000D03*
X208225000Y-152125000D03*
%TD*%
D19*
%TO.C,R72*%
X205447500Y-125870000D03*
X205447500Y-124170000D03*
%TD*%
D21*
%TO.C,U31*%
X238612500Y-139905000D03*
X238112501Y-139905000D03*
X237612499Y-139905000D03*
X237112500Y-139905000D03*
X236612501Y-139905000D03*
X236112499Y-139905000D03*
X235612500Y-139905000D03*
D22*
X234672500Y-140844999D03*
X234672500Y-141345001D03*
X234672500Y-141845000D03*
X234672500Y-142344999D03*
X234672500Y-142845001D03*
D21*
X235612500Y-143785000D03*
X236112499Y-143785000D03*
X236612501Y-143785000D03*
X237112500Y-143785000D03*
X237612499Y-143785000D03*
X238112501Y-143785000D03*
X238612500Y-143785000D03*
D22*
X239552500Y-142845001D03*
X239552500Y-142344999D03*
X239552500Y-141845000D03*
X239552500Y-141345001D03*
X239552500Y-140844999D03*
D23*
X237112500Y-141845000D03*
%TD*%
D13*
%TO.C,C17*%
X161650000Y-153375000D03*
X161650000Y-151675000D03*
%TD*%
%TO.C,D6*%
X211150000Y-175525000D03*
X211150000Y-173825000D03*
%TD*%
D14*
%TO.C,U25*%
X236725000Y-174125000D03*
D15*
X236725000Y-169125000D03*
%TD*%
D27*
%TO.C,D1*%
X176800000Y-155900000D03*
X174000000Y-155900000D03*
%TD*%
D13*
%TO.C,C43*%
X222725000Y-139910000D03*
X222725000Y-141610000D03*
%TD*%
%TO.C,C38*%
X203847500Y-139900000D03*
X203847500Y-141600000D03*
%TD*%
D20*
%TO.C,D3*%
X185300000Y-158450000D03*
X183600000Y-158450000D03*
%TD*%
D17*
%TO.C,TP18*%
X166890000Y-106750000D03*
%TD*%
D35*
%TO.C,R40*%
X230350000Y-170850000D03*
X230350000Y-172550000D03*
%TD*%
D29*
%TO.C,C44*%
X203540000Y-149300000D03*
X205540000Y-149300000D03*
%TD*%
D57*
%TO.C,U6*%
X207050000Y-153576750D03*
D58*
X206400000Y-153726750D03*
X205750000Y-153726750D03*
D59*
X205100000Y-153526750D03*
X204250000Y-153526750D03*
X203400000Y-153526750D03*
D60*
X204250000Y-153976750D03*
X204250000Y-155976750D03*
D59*
X205100000Y-156426750D03*
X204250000Y-156426750D03*
X203400000Y-156426750D03*
D58*
X205750000Y-156226750D03*
X206400000Y-156226750D03*
D59*
X207050000Y-156426750D03*
D61*
X207950000Y-156226750D03*
X207950000Y-155726750D03*
D62*
X207750000Y-155226750D03*
X207750000Y-154726750D03*
D61*
X207950000Y-154226750D03*
X207950000Y-153726750D03*
%TD*%
D29*
%TO.C,C20*%
X214180000Y-123740000D03*
X216180000Y-123740000D03*
%TD*%
D19*
%TO.C,R90*%
X223200000Y-128045000D03*
X223200000Y-126345000D03*
%TD*%
D35*
%TO.C,R17*%
X176775000Y-143425000D03*
X176775000Y-145125000D03*
%TD*%
D21*
%TO.C,U11*%
X201247500Y-139834999D03*
X200747501Y-139834999D03*
X200247499Y-139834999D03*
X199747500Y-139834999D03*
X199247501Y-139834999D03*
X198747499Y-139834999D03*
X198247500Y-139834999D03*
D22*
X197307500Y-140774998D03*
X197307500Y-141275000D03*
X197307500Y-141774999D03*
X197307500Y-142274998D03*
X197307500Y-142775000D03*
D21*
X198247500Y-143714999D03*
X198747499Y-143714999D03*
X199247501Y-143714999D03*
X199747500Y-143714999D03*
X200247499Y-143714999D03*
X200747501Y-143714999D03*
X201247500Y-143714999D03*
D22*
X202187500Y-142775000D03*
X202187500Y-142274998D03*
X202187500Y-141774999D03*
X202187500Y-141275000D03*
X202187500Y-140774998D03*
D23*
X199747500Y-141774999D03*
%TD*%
D17*
%TO.C,TP19*%
X167030000Y-173410000D03*
%TD*%
D18*
%TO.C,C15*%
X223711625Y-157973250D03*
X221711625Y-157973250D03*
%TD*%
D34*
%TO.C,R70*%
X241625000Y-172875000D03*
X241625000Y-170875000D03*
%TD*%
D63*
%TO.C,J7*%
X153344600Y-139675000D03*
D64*
X164680000Y-139575000D03*
D65*
X165475000Y-135270000D03*
X165475000Y-127490000D03*
D64*
X153200000Y-124885000D03*
D66*
X152724600Y-135330000D03*
X152724600Y-134230000D03*
X152724600Y-133130000D03*
X152724600Y-132030000D03*
X152724600Y-130930000D03*
X152724600Y-129830000D03*
X152724600Y-128730000D03*
X152724600Y-127610000D03*
D67*
X155450000Y-125735000D03*
D68*
X164350000Y-125710000D03*
%TD*%
D13*
%TO.C,C60*%
X246575000Y-129050000D03*
X246575000Y-130750000D03*
%TD*%
%TO.C,D7*%
X231875000Y-175525000D03*
X231875000Y-173825000D03*
%TD*%
D69*
%TO.C,U14*%
X153004200Y-143974999D03*
X153004200Y-144475000D03*
X153004200Y-144975000D03*
X153004200Y-145475001D03*
X155945800Y-145475001D03*
X155945800Y-144975000D03*
X155945800Y-144475000D03*
X155945800Y-143974999D03*
D55*
X154475000Y-144725000D03*
%TD*%
D38*
%TO.C,Q4*%
X191325000Y-158840000D03*
X190675000Y-158840000D03*
X190025000Y-158840000D03*
X189375000Y-158840000D03*
%TD*%
D13*
%TO.C,D11*%
X231075000Y-104775000D03*
X231075000Y-106475000D03*
%TD*%
D70*
%TO.C,U10*%
X157305000Y-148760000D03*
X157305000Y-154540000D03*
D71*
X158370000Y-148300000D03*
X158370000Y-149100000D03*
X158370000Y-150400000D03*
X158370000Y-151400000D03*
X158370000Y-151900000D03*
X158370000Y-152900000D03*
X158370000Y-154200000D03*
X158370000Y-155000000D03*
X158370000Y-154700000D03*
X158370000Y-153900000D03*
X158370000Y-153400000D03*
X158370000Y-152400000D03*
X158370000Y-150900000D03*
X158370000Y-149900000D03*
X158370000Y-149400000D03*
X158370000Y-148600000D03*
D72*
X157805000Y-147330000D03*
D73*
X153625000Y-147330000D03*
D72*
X157805000Y-155970000D03*
D73*
X153625000Y-155970000D03*
%TD*%
D13*
%TO.C,C61*%
X233262500Y-144055000D03*
X233262500Y-142355000D03*
%TD*%
%TO.C,C10*%
X161650000Y-156275000D03*
X161650000Y-154575000D03*
%TD*%
%TO.C,C41*%
X222725000Y-142860000D03*
X222725000Y-144560000D03*
%TD*%
D38*
%TO.C,Q6*%
X193325000Y-165875000D03*
X193975000Y-165875000D03*
X194625000Y-165875000D03*
X195275000Y-165875000D03*
%TD*%
D19*
%TO.C,R91*%
X242875000Y-125825000D03*
X242875000Y-124125000D03*
%TD*%
D13*
%TO.C,C30*%
X157350000Y-145650000D03*
X157350000Y-143950000D03*
%TD*%
D35*
%TO.C,R22*%
X196325000Y-169000000D03*
X196325000Y-170700000D03*
%TD*%
D33*
%TO.C,R24*%
X180125000Y-120162500D03*
X181825000Y-120162500D03*
%TD*%
%TO.C,R53*%
X152925000Y-142675000D03*
X154625000Y-142675000D03*
%TD*%
D20*
%TO.C,D5*%
X186050000Y-142450000D03*
X184350000Y-142450000D03*
%TD*%
D12*
%TO.C,R30*%
X219875000Y-153575000D03*
X218175000Y-153575000D03*
%TD*%
D47*
%TO.C,U15*%
X165770000Y-177390000D03*
X165770000Y-158490000D03*
D48*
X175170000Y-173390000D03*
D49*
X175170000Y-162490000D03*
%TD*%
D19*
%TO.C,R49*%
X174465000Y-126900000D03*
X174465000Y-125200000D03*
%TD*%
D20*
%TO.C,C8*%
X185925000Y-120150000D03*
X187625000Y-120150000D03*
%TD*%
%TO.C,C3*%
X184850000Y-175950000D03*
X183150000Y-175950000D03*
%TD*%
D50*
%TO.C,C12*%
X218475000Y-154950000D03*
X218475000Y-156950000D03*
%TD*%
D12*
%TO.C,R34*%
X218900000Y-152175000D03*
X217200000Y-152175000D03*
%TD*%
D17*
%TO.C,TP2*%
X174025000Y-130475000D03*
%TD*%
D20*
%TO.C,D4*%
X185175000Y-102675000D03*
X183475000Y-102675000D03*
%TD*%
D14*
%TO.C,U19*%
X205200000Y-174150000D03*
D15*
X205200000Y-169150000D03*
%TD*%
D11*
%TO.C,U7*%
X194525000Y-175600000D03*
%TD*%
D19*
%TO.C,R88*%
X241312500Y-147480000D03*
X241312500Y-145780000D03*
%TD*%
D14*
%TO.C,U21*%
X215525000Y-106150000D03*
D15*
X215525000Y-111150000D03*
%TD*%
D13*
%TO.C,C72*%
X241312500Y-140005000D03*
X241312500Y-141705000D03*
%TD*%
D17*
%TO.C,SP1*%
X189300000Y-128550000D03*
D74*
X181700000Y-128550000D03*
%TD*%
D19*
%TO.C,R92*%
X241450000Y-128025000D03*
X241450000Y-126325000D03*
%TD*%
D12*
%TO.C,R33*%
X224936625Y-152223250D03*
X223236625Y-152223250D03*
%TD*%
D33*
%TO.C,R80*%
X227325000Y-127745000D03*
X229025000Y-127745000D03*
%TD*%
D19*
%TO.C,R38*%
X230325000Y-175475000D03*
X230325000Y-173775000D03*
%TD*%
D13*
%TO.C,R52*%
X202372500Y-145110000D03*
X202372500Y-146810000D03*
%TD*%
D75*
%TO.C,U34*%
X182704239Y-150100761D03*
X181434239Y-150100761D03*
X180164239Y-150100761D03*
X178894239Y-150100761D03*
X178894239Y-155050761D03*
X180164239Y-155050761D03*
X181434239Y-155050761D03*
X182704239Y-155050761D03*
%TD*%
D19*
%TO.C,R41*%
X219910000Y-175480000D03*
X219910000Y-173780000D03*
%TD*%
%TO.C,R75*%
X222700000Y-147510000D03*
X222700000Y-145810000D03*
%TD*%
D57*
%TO.C,U5*%
X216025000Y-153575000D03*
D58*
X215375000Y-153725000D03*
X214725000Y-153725000D03*
D59*
X214075000Y-153525000D03*
X213225000Y-153525000D03*
X212375000Y-153525000D03*
D60*
X213225000Y-153975000D03*
X213225000Y-155975000D03*
D59*
X214075000Y-156425000D03*
X213225000Y-156425000D03*
X212375000Y-156425000D03*
D58*
X214725000Y-156225000D03*
X215375000Y-156225000D03*
D59*
X216025000Y-156425000D03*
D61*
X216925000Y-156225000D03*
X216925000Y-155725000D03*
D62*
X216725000Y-155225000D03*
X216725000Y-154725000D03*
D61*
X216925000Y-154225000D03*
X216925000Y-153725000D03*
%TD*%
D13*
%TO.C,D8*%
X221450000Y-175475000D03*
X221450000Y-173775000D03*
%TD*%
D12*
%TO.C,R6*%
X190750000Y-171960000D03*
X189050000Y-171960000D03*
%TD*%
D38*
%TO.C,Q9*%
X193200000Y-110072500D03*
X193850000Y-110072500D03*
X194500000Y-110072500D03*
X195150000Y-110072500D03*
%TD*%
D18*
%TO.C,C51*%
X228575000Y-149200000D03*
X226575000Y-149200000D03*
%TD*%
D19*
%TO.C,R9*%
X182192500Y-104200000D03*
X182192500Y-102500000D03*
%TD*%
D21*
%TO.C,U30*%
X241235000Y-133215001D03*
X241734999Y-133215001D03*
X242235001Y-133215001D03*
X242735000Y-133215001D03*
X243234999Y-133215001D03*
X243735001Y-133215001D03*
X244235000Y-133215001D03*
D22*
X245175000Y-132275002D03*
X245175000Y-131775000D03*
X245175000Y-131275001D03*
X245175000Y-130775002D03*
X245175000Y-130275000D03*
D21*
X244235000Y-129335001D03*
X243735001Y-129335001D03*
X243234999Y-129335001D03*
X242735000Y-129335001D03*
X242235001Y-129335001D03*
X241734999Y-129335001D03*
X241235000Y-129335001D03*
D22*
X240295000Y-130275000D03*
X240295000Y-130775002D03*
X240295000Y-131275001D03*
X240295000Y-131775000D03*
X240295000Y-132275002D03*
D23*
X242735000Y-131275001D03*
%TD*%
D19*
%TO.C,R97*%
X160125000Y-142775000D03*
X160125000Y-141075000D03*
%TD*%
%TO.C,R89*%
X224575000Y-125845000D03*
X224575000Y-124145000D03*
%TD*%
D35*
%TO.C,R58*%
X211025000Y-170850000D03*
X211025000Y-172550000D03*
%TD*%
D28*
%TO.C,C47*%
X227950000Y-146725000D03*
X224750000Y-146725000D03*
%TD*%
D38*
%TO.C,Q11*%
X191225000Y-103040000D03*
X190575000Y-103040000D03*
X189925000Y-103040000D03*
X189275000Y-103040000D03*
%TD*%
D19*
%TO.C,R16*%
X209610000Y-175520000D03*
X209610000Y-173820000D03*
%TD*%
D30*
%TO.C,C19*%
X198160000Y-137740000D03*
X201460000Y-137740000D03*
%TD*%
D18*
%TO.C,C75*%
X247030000Y-149440000D03*
X245030000Y-149440000D03*
%TD*%
D11*
%TO.C,U8*%
X194525000Y-118450000D03*
%TD*%
D38*
%TO.C,Q5*%
X189375000Y-165887500D03*
X190025000Y-165887500D03*
X190675000Y-165887500D03*
X191325000Y-165887500D03*
%TD*%
D32*
%TO.C,C39*%
X205322500Y-126965000D03*
X205322500Y-128065000D03*
%TD*%
D13*
%TO.C,C66*%
X238650000Y-130325000D03*
X238650000Y-128625000D03*
%TD*%
D35*
%TO.C,R39*%
X231800000Y-170850000D03*
X231800000Y-172550000D03*
%TD*%
D19*
%TO.C,R5*%
X182300000Y-160150000D03*
X182300000Y-158450000D03*
%TD*%
D31*
%TO.C,L6*%
X244987500Y-140310000D03*
X244987500Y-144350000D03*
%TD*%
D50*
%TO.C,C11*%
X227361625Y-154973250D03*
X227361625Y-156973250D03*
%TD*%
D27*
%TO.C,D12*%
X182425000Y-147950000D03*
X182425000Y-145150000D03*
%TD*%
M02*
