%TF.GenerationSoftware,KiCad,Pcbnew,7.0.1-0*%
%TF.CreationDate,2023-04-01T19:34:19-07:00*%
%TF.ProjectId,1.0,312e302e-6b69-4636-9164-5f7063625858,rev?*%
%TF.SameCoordinates,Original*%
%TF.FileFunction,Copper,L4,Bot*%
%TF.FilePolarity,Positive*%
%FSLAX46Y46*%
G04 Gerber Fmt 4.6, Leading zero omitted, Abs format (unit mm)*
G04 Created by KiCad (PCBNEW 7.0.1-0) date 2023-04-01 19:34:19*
%MOMM*%
%LPD*%
G01*
G04 APERTURE LIST*
G04 Aperture macros list*
%AMRoundRect*
0 Rectangle with rounded corners*
0 $1 Rounding radius*
0 $2 $3 $4 $5 $6 $7 $8 $9 X,Y pos of 4 corners*
0 Add a 4 corners polygon primitive as box body*
4,1,4,$2,$3,$4,$5,$6,$7,$8,$9,$2,$3,0*
0 Add four circle primitives for the rounded corners*
1,1,$1+$1,$2,$3*
1,1,$1+$1,$4,$5*
1,1,$1+$1,$6,$7*
1,1,$1+$1,$8,$9*
0 Add four rect primitives between the rounded corners*
20,1,$1+$1,$2,$3,$4,$5,0*
20,1,$1+$1,$4,$5,$6,$7,0*
20,1,$1+$1,$6,$7,$8,$9,0*
20,1,$1+$1,$8,$9,$2,$3,0*%
%AMFreePoly0*
4,1,19,0.550000,-0.750000,0.000000,-0.750000,0.000000,-0.744911,-0.071157,-0.744911,-0.207708,-0.704816,-0.327430,-0.627875,-0.420627,-0.520320,-0.479746,-0.390866,-0.500000,-0.250000,-0.500000,0.250000,-0.479746,0.390866,-0.420627,0.520320,-0.327430,0.627875,-0.207708,0.704816,-0.071157,0.744911,0.000000,0.744911,0.000000,0.750000,0.550000,0.750000,0.550000,-0.750000,0.550000,-0.750000,
$1*%
%AMFreePoly1*
4,1,19,0.000000,0.744911,0.071157,0.744911,0.207708,0.704816,0.327430,0.627875,0.420627,0.520320,0.479746,0.390866,0.500000,0.250000,0.500000,-0.250000,0.479746,-0.390866,0.420627,-0.520320,0.327430,-0.627875,0.207708,-0.704816,0.071157,-0.744911,0.000000,-0.744911,0.000000,-0.750000,-0.550000,-0.750000,-0.550000,0.750000,0.000000,0.750000,0.000000,0.744911,0.000000,0.744911,
$1*%
G04 Aperture macros list end*
%TA.AperFunction,EtchedComponent*%
%ADD10C,0.010000*%
%TD*%
%TA.AperFunction,ComponentPad*%
%ADD11C,3.600000*%
%TD*%
%TA.AperFunction,ComponentPad*%
%ADD12R,3.800000X3.800000*%
%TD*%
%TA.AperFunction,ComponentPad*%
%ADD13C,4.000000*%
%TD*%
%TA.AperFunction,ComponentPad*%
%ADD14C,3.000000*%
%TD*%
%TA.AperFunction,ComponentPad*%
%ADD15O,2.600000X1.300000*%
%TD*%
%TA.AperFunction,ComponentPad*%
%ADD16R,4.916000X4.916000*%
%TD*%
%TA.AperFunction,ComponentPad*%
%ADD17C,4.916000*%
%TD*%
%TA.AperFunction,ComponentPad*%
%ADD18O,2.100000X1.000000*%
%TD*%
%TA.AperFunction,ComponentPad*%
%ADD19O,1.600000X1.000000*%
%TD*%
%TA.AperFunction,ComponentPad*%
%ADD20R,2.000000X2.000000*%
%TD*%
%TA.AperFunction,ComponentPad*%
%ADD21C,2.000000*%
%TD*%
%TA.AperFunction,SMDPad,CuDef*%
%ADD22RoundRect,0.150000X-0.250000X0.150000X-0.250000X-0.150000X0.250000X-0.150000X0.250000X0.150000X0*%
%TD*%
%TA.AperFunction,SMDPad,CuDef*%
%ADD23R,2.000000X2.000000*%
%TD*%
%TA.AperFunction,SMDPad,CuDef*%
%ADD24R,1.800000X1.200000*%
%TD*%
%TA.AperFunction,SMDPad,CuDef*%
%ADD25R,1.550000X0.600000*%
%TD*%
%TA.AperFunction,SMDPad,CuDef*%
%ADD26R,3.500000X6.000000*%
%TD*%
%TA.AperFunction,SMDPad,CuDef*%
%ADD27R,0.600000X0.800000*%
%TD*%
%TA.AperFunction,SMDPad,CuDef*%
%ADD28RoundRect,0.150000X0.150000X-0.825000X0.150000X0.825000X-0.150000X0.825000X-0.150000X-0.825000X0*%
%TD*%
%TA.AperFunction,SMDPad,CuDef*%
%ADD29FreePoly0,90.000000*%
%TD*%
%TA.AperFunction,SMDPad,CuDef*%
%ADD30R,1.500000X1.000000*%
%TD*%
%TA.AperFunction,SMDPad,CuDef*%
%ADD31FreePoly1,90.000000*%
%TD*%
%TA.AperFunction,SMDPad,CuDef*%
%ADD32C,2.000000*%
%TD*%
%TA.AperFunction,SMDPad,CuDef*%
%ADD33RoundRect,0.150000X0.250000X-0.150000X0.250000X0.150000X-0.250000X0.150000X-0.250000X-0.150000X0*%
%TD*%
%TA.AperFunction,ViaPad*%
%ADD34C,1.000000*%
%TD*%
%TA.AperFunction,ViaPad*%
%ADD35C,0.600000*%
%TD*%
%TA.AperFunction,ViaPad*%
%ADD36C,0.700000*%
%TD*%
%TA.AperFunction,ViaPad*%
%ADD37C,1.500000*%
%TD*%
%TA.AperFunction,Conductor*%
%ADD38C,0.500000*%
%TD*%
%TA.AperFunction,Conductor*%
%ADD39C,0.250000*%
%TD*%
%TA.AperFunction,Conductor*%
%ADD40C,1.000000*%
%TD*%
%TA.AperFunction,Conductor*%
%ADD41C,0.350000*%
%TD*%
G04 APERTURE END LIST*
%TO.C,P7*%
D10*
X157912128Y-167353945D02*
X157942954Y-167363568D01*
X157980916Y-167379563D01*
X157999296Y-167388159D01*
X158012561Y-167389713D01*
X158015495Y-167377798D01*
X158015498Y-167377461D01*
X158021709Y-167366087D01*
X158043131Y-167360256D01*
X158084653Y-167358614D01*
X158153812Y-167358614D01*
X158153812Y-167962179D01*
X158015495Y-167962179D01*
X158015495Y-167546027D01*
X157981110Y-167514161D01*
X157970368Y-167505104D01*
X157938370Y-167489630D01*
X157898965Y-167489010D01*
X157845312Y-167502664D01*
X157827225Y-167503529D01*
X157806008Y-167490283D01*
X157777768Y-167458800D01*
X157764069Y-167441385D01*
X157747868Y-167416797D01*
X157745371Y-167401145D01*
X157754442Y-167387941D01*
X157782289Y-167371245D01*
X157825540Y-167358030D01*
X157872464Y-167351478D01*
X157912128Y-167353945D01*
%TA.AperFunction,EtchedComponent*%
G36*
X157912128Y-167353945D02*
G01*
X157942954Y-167363568D01*
X157980916Y-167379563D01*
X157999296Y-167388159D01*
X158012561Y-167389713D01*
X158015495Y-167377798D01*
X158015498Y-167377461D01*
X158021709Y-167366087D01*
X158043131Y-167360256D01*
X158084653Y-167358614D01*
X158153812Y-167358614D01*
X158153812Y-167962179D01*
X158015495Y-167962179D01*
X158015495Y-167546027D01*
X157981110Y-167514161D01*
X157970368Y-167505104D01*
X157938370Y-167489630D01*
X157898965Y-167489010D01*
X157845312Y-167502664D01*
X157827225Y-167503529D01*
X157806008Y-167490283D01*
X157777768Y-167458800D01*
X157764069Y-167441385D01*
X157747868Y-167416797D01*
X157745371Y-167401145D01*
X157754442Y-167387941D01*
X157782289Y-167371245D01*
X157825540Y-167358030D01*
X157872464Y-167351478D01*
X157912128Y-167353945D01*
G37*
%TD.AperFunction*%
X158095265Y-168309965D02*
X158133255Y-168327745D01*
X158166386Y-168353806D01*
X158166386Y-168327745D01*
X158167211Y-168317849D01*
X158174893Y-168307358D01*
X158195667Y-168302725D01*
X158235544Y-168301683D01*
X158304703Y-168301683D01*
X158304703Y-168917822D01*
X158166386Y-168917822D01*
X158166386Y-168717226D01*
X158166369Y-168705710D01*
X158165189Y-168624758D01*
X158162294Y-168558817D01*
X158157888Y-168511258D01*
X158152181Y-168485452D01*
X158146940Y-168475710D01*
X158114676Y-168445156D01*
X158070730Y-168431631D01*
X158022743Y-168437941D01*
X158010973Y-168442217D01*
X157985898Y-168449776D01*
X157968762Y-168447428D01*
X157951518Y-168432064D01*
X157926124Y-168400571D01*
X157884936Y-168348568D01*
X157913886Y-168325125D01*
X157941405Y-168311015D01*
X157989745Y-168301486D01*
X158044230Y-168301174D01*
X158095265Y-168309965D01*
%TA.AperFunction,EtchedComponent*%
G36*
X158095265Y-168309965D02*
G01*
X158133255Y-168327745D01*
X158166386Y-168353806D01*
X158166386Y-168327745D01*
X158167211Y-168317849D01*
X158174893Y-168307358D01*
X158195667Y-168302725D01*
X158235544Y-168301683D01*
X158304703Y-168301683D01*
X158304703Y-168917822D01*
X158166386Y-168917822D01*
X158166386Y-168717226D01*
X158166369Y-168705710D01*
X158165189Y-168624758D01*
X158162294Y-168558817D01*
X158157888Y-168511258D01*
X158152181Y-168485452D01*
X158146940Y-168475710D01*
X158114676Y-168445156D01*
X158070730Y-168431631D01*
X158022743Y-168437941D01*
X158010973Y-168442217D01*
X157985898Y-168449776D01*
X157968762Y-168447428D01*
X157951518Y-168432064D01*
X157926124Y-168400571D01*
X157884936Y-168348568D01*
X157913886Y-168325125D01*
X157941405Y-168311015D01*
X157989745Y-168301486D01*
X158044230Y-168301174D01*
X158095265Y-168309965D01*
G37*
%TD.AperFunction*%
X160718960Y-168917822D02*
X160593218Y-168917822D01*
X160593218Y-168723740D01*
X160593078Y-168678594D01*
X160591649Y-168603823D01*
X160588029Y-168548467D01*
X160581434Y-168508702D01*
X160571079Y-168480700D01*
X160556178Y-168460635D01*
X160535946Y-168444681D01*
X160513859Y-168432792D01*
X160487705Y-168429421D01*
X160450508Y-168436917D01*
X160438555Y-168440038D01*
X160408718Y-168444735D01*
X160387383Y-168438005D01*
X160362655Y-168417177D01*
X160357963Y-168412647D01*
X160332020Y-168384626D01*
X160315291Y-168361843D01*
X160312996Y-168356355D01*
X160317543Y-168336088D01*
X160340602Y-168319884D01*
X160376995Y-168308513D01*
X160421544Y-168302740D01*
X160469072Y-168303334D01*
X160514400Y-168311063D01*
X160552351Y-168326694D01*
X160564381Y-168333993D01*
X160584632Y-168344676D01*
X160592129Y-168342230D01*
X160593218Y-168326647D01*
X160593473Y-168321053D01*
X160599539Y-168308660D01*
X160618356Y-168303020D01*
X160656089Y-168301683D01*
X160718960Y-168301683D01*
X160718960Y-168917822D01*
%TA.AperFunction,EtchedComponent*%
G36*
X160718960Y-168917822D02*
G01*
X160593218Y-168917822D01*
X160593218Y-168723740D01*
X160593078Y-168678594D01*
X160591649Y-168603823D01*
X160588029Y-168548467D01*
X160581434Y-168508702D01*
X160571079Y-168480700D01*
X160556178Y-168460635D01*
X160535946Y-168444681D01*
X160513859Y-168432792D01*
X160487705Y-168429421D01*
X160450508Y-168436917D01*
X160438555Y-168440038D01*
X160408718Y-168444735D01*
X160387383Y-168438005D01*
X160362655Y-168417177D01*
X160357963Y-168412647D01*
X160332020Y-168384626D01*
X160315291Y-168361843D01*
X160312996Y-168356355D01*
X160317543Y-168336088D01*
X160340602Y-168319884D01*
X160376995Y-168308513D01*
X160421544Y-168302740D01*
X160469072Y-168303334D01*
X160514400Y-168311063D01*
X160552351Y-168326694D01*
X160564381Y-168333993D01*
X160584632Y-168344676D01*
X160592129Y-168342230D01*
X160593218Y-168326647D01*
X160593473Y-168321053D01*
X160599539Y-168308660D01*
X160618356Y-168303020D01*
X160656089Y-168301683D01*
X160718960Y-168301683D01*
X160718960Y-168917822D01*
G37*
%TD.AperFunction*%
X158405297Y-167554342D02*
X158406357Y-167642394D01*
X158410509Y-167713510D01*
X158418921Y-167765199D01*
X158432757Y-167800360D01*
X158453182Y-167821889D01*
X158481364Y-167832682D01*
X158518465Y-167835636D01*
X158553890Y-167833000D01*
X158582500Y-167822679D01*
X158603296Y-167801772D01*
X158617442Y-167767381D01*
X158626103Y-167716610D01*
X158630445Y-167646563D01*
X158631633Y-167554342D01*
X158631633Y-167358614D01*
X158757376Y-167358614D01*
X158757376Y-167594578D01*
X158757160Y-167657561D01*
X158755484Y-167739007D01*
X158751277Y-167801121D01*
X158743521Y-167847458D01*
X158731196Y-167881573D01*
X158713285Y-167907022D01*
X158688767Y-167927362D01*
X158656623Y-167946147D01*
X158589125Y-167969928D01*
X158518681Y-167971480D01*
X158452264Y-167949580D01*
X158423286Y-167935383D01*
X158408909Y-167933261D01*
X158405297Y-167943293D01*
X158399299Y-167954556D01*
X158377830Y-167960489D01*
X158336138Y-167962179D01*
X158266980Y-167962179D01*
X158266980Y-167358614D01*
X158405297Y-167358614D01*
X158405297Y-167554342D01*
%TA.AperFunction,EtchedComponent*%
G36*
X158405297Y-167554342D02*
G01*
X158406357Y-167642394D01*
X158410509Y-167713510D01*
X158418921Y-167765199D01*
X158432757Y-167800360D01*
X158453182Y-167821889D01*
X158481364Y-167832682D01*
X158518465Y-167835636D01*
X158553890Y-167833000D01*
X158582500Y-167822679D01*
X158603296Y-167801772D01*
X158617442Y-167767381D01*
X158626103Y-167716610D01*
X158630445Y-167646563D01*
X158631633Y-167554342D01*
X158631633Y-167358614D01*
X158757376Y-167358614D01*
X158757376Y-167594578D01*
X158757160Y-167657561D01*
X158755484Y-167739007D01*
X158751277Y-167801121D01*
X158743521Y-167847458D01*
X158731196Y-167881573D01*
X158713285Y-167907022D01*
X158688767Y-167927362D01*
X158656623Y-167946147D01*
X158589125Y-167969928D01*
X158518681Y-167971480D01*
X158452264Y-167949580D01*
X158423286Y-167935383D01*
X158408909Y-167933261D01*
X158405297Y-167943293D01*
X158399299Y-167954556D01*
X158377830Y-167960489D01*
X158336138Y-167962179D01*
X158266980Y-167962179D01*
X158266980Y-167358614D01*
X158405297Y-167358614D01*
X158405297Y-167554342D01*
G37*
%TD.AperFunction*%
X160507605Y-167357424D02*
X160564926Y-167375434D01*
X160590199Y-167387674D01*
X160602910Y-167388938D01*
X160605792Y-167377798D01*
X160605795Y-167377461D01*
X160612006Y-167366087D01*
X160633428Y-167360256D01*
X160674950Y-167358614D01*
X160744109Y-167358614D01*
X160744109Y-167962179D01*
X160605792Y-167962179D01*
X160605792Y-167754132D01*
X160605697Y-167683879D01*
X160605051Y-167626170D01*
X160603320Y-167585787D01*
X160599974Y-167558615D01*
X160594481Y-167540540D01*
X160586310Y-167527447D01*
X160574928Y-167515221D01*
X160559424Y-167502217D01*
X160514843Y-167484745D01*
X160468047Y-167489873D01*
X160425180Y-167517507D01*
X160412927Y-167530368D01*
X160404132Y-167543384D01*
X160398233Y-167560706D01*
X160394651Y-167586501D01*
X160392809Y-167624939D01*
X160392128Y-167680189D01*
X160392030Y-167756418D01*
X160392030Y-167962179D01*
X160253713Y-167962179D01*
X160253989Y-167738985D01*
X160254008Y-167729044D01*
X160255207Y-167634106D01*
X160258891Y-167560358D01*
X160266006Y-167504214D01*
X160277500Y-167462087D01*
X160294318Y-167430391D01*
X160317409Y-167405541D01*
X160347717Y-167383950D01*
X160379012Y-167369002D01*
X160442037Y-167355421D01*
X160507605Y-167357424D01*
%TA.AperFunction,EtchedComponent*%
G36*
X160507605Y-167357424D02*
G01*
X160564926Y-167375434D01*
X160590199Y-167387674D01*
X160602910Y-167388938D01*
X160605792Y-167377798D01*
X160605795Y-167377461D01*
X160612006Y-167366087D01*
X160633428Y-167360256D01*
X160674950Y-167358614D01*
X160744109Y-167358614D01*
X160744109Y-167962179D01*
X160605792Y-167962179D01*
X160605792Y-167754132D01*
X160605697Y-167683879D01*
X160605051Y-167626170D01*
X160603320Y-167585787D01*
X160599974Y-167558615D01*
X160594481Y-167540540D01*
X160586310Y-167527447D01*
X160574928Y-167515221D01*
X160559424Y-167502217D01*
X160514843Y-167484745D01*
X160468047Y-167489873D01*
X160425180Y-167517507D01*
X160412927Y-167530368D01*
X160404132Y-167543384D01*
X160398233Y-167560706D01*
X160394651Y-167586501D01*
X160392809Y-167624939D01*
X160392128Y-167680189D01*
X160392030Y-167756418D01*
X160392030Y-167962179D01*
X160253713Y-167962179D01*
X160253989Y-167738985D01*
X160254008Y-167729044D01*
X160255207Y-167634106D01*
X160258891Y-167560358D01*
X160266006Y-167504214D01*
X160277500Y-167462087D01*
X160294318Y-167430391D01*
X160317409Y-167405541D01*
X160347717Y-167383950D01*
X160379012Y-167369002D01*
X160442037Y-167355421D01*
X160507605Y-167357424D01*
G37*
%TD.AperFunction*%
X157558409Y-167361493D02*
X157627021Y-167388224D01*
X157685048Y-167432351D01*
X157727907Y-167492958D01*
X157730801Y-167499137D01*
X157749176Y-167559409D01*
X157758357Y-167631407D01*
X157758285Y-167706369D01*
X157748901Y-167775536D01*
X157730149Y-167830149D01*
X157706995Y-167868212D01*
X157656030Y-167922135D01*
X157592306Y-167956411D01*
X157537785Y-167970272D01*
X157454767Y-167971785D01*
X157375326Y-167950882D01*
X157304879Y-167908464D01*
X157259284Y-167870880D01*
X157300351Y-167828510D01*
X157326296Y-167803409D01*
X157349764Y-167789434D01*
X157371524Y-167792511D01*
X157399356Y-167811287D01*
X157410454Y-167818638D01*
X157457337Y-167833683D01*
X157511224Y-167833673D01*
X157561675Y-167818168D01*
X157580672Y-167805716D01*
X157608537Y-167768946D01*
X157622506Y-167714939D01*
X157623405Y-167641331D01*
X157623403Y-167641289D01*
X157613009Y-167575433D01*
X157590114Y-167529772D01*
X157552439Y-167501528D01*
X157497708Y-167487920D01*
X157463241Y-167486090D01*
X157433126Y-167493584D01*
X157402240Y-167515295D01*
X157362272Y-167548926D01*
X157311656Y-167508250D01*
X157293163Y-167492667D01*
X157270065Y-167470340D01*
X157261039Y-167457183D01*
X157264236Y-167451253D01*
X157282646Y-167433048D01*
X157311973Y-167409895D01*
X157334920Y-167394830D01*
X157407774Y-167363880D01*
X157483799Y-167353073D01*
X157558409Y-167361493D01*
%TA.AperFunction,EtchedComponent*%
G36*
X157558409Y-167361493D02*
G01*
X157627021Y-167388224D01*
X157685048Y-167432351D01*
X157727907Y-167492958D01*
X157730801Y-167499137D01*
X157749176Y-167559409D01*
X157758357Y-167631407D01*
X157758285Y-167706369D01*
X157748901Y-167775536D01*
X157730149Y-167830149D01*
X157706995Y-167868212D01*
X157656030Y-167922135D01*
X157592306Y-167956411D01*
X157537785Y-167970272D01*
X157454767Y-167971785D01*
X157375326Y-167950882D01*
X157304879Y-167908464D01*
X157259284Y-167870880D01*
X157300351Y-167828510D01*
X157326296Y-167803409D01*
X157349764Y-167789434D01*
X157371524Y-167792511D01*
X157399356Y-167811287D01*
X157410454Y-167818638D01*
X157457337Y-167833683D01*
X157511224Y-167833673D01*
X157561675Y-167818168D01*
X157580672Y-167805716D01*
X157608537Y-167768946D01*
X157622506Y-167714939D01*
X157623405Y-167641331D01*
X157623403Y-167641289D01*
X157613009Y-167575433D01*
X157590114Y-167529772D01*
X157552439Y-167501528D01*
X157497708Y-167487920D01*
X157463241Y-167486090D01*
X157433126Y-167493584D01*
X157402240Y-167515295D01*
X157362272Y-167548926D01*
X157311656Y-167508250D01*
X157293163Y-167492667D01*
X157270065Y-167470340D01*
X157261039Y-167457183D01*
X157264236Y-167451253D01*
X157282646Y-167433048D01*
X157311973Y-167409895D01*
X157334920Y-167394830D01*
X157407774Y-167363880D01*
X157483799Y-167353073D01*
X157558409Y-167361493D01*
G37*
%TD.AperFunction*%
X159357410Y-167653766D02*
X159357857Y-167703771D01*
X159354349Y-167743565D01*
X159338844Y-167819538D01*
X159311110Y-167877511D01*
X159268898Y-167921300D01*
X159209960Y-167954722D01*
X159187076Y-167962676D01*
X159127812Y-167972601D01*
X159065447Y-167972331D01*
X159012823Y-167961430D01*
X159011789Y-167961034D01*
X158969381Y-167936087D01*
X158926537Y-167897468D01*
X158890986Y-167853306D01*
X158870459Y-167811727D01*
X158864374Y-167781334D01*
X158859164Y-167724429D01*
X158858291Y-167673705D01*
X158984976Y-167673705D01*
X158992549Y-167734545D01*
X159010341Y-167784538D01*
X159037296Y-167817204D01*
X159047513Y-167822812D01*
X159086473Y-167833007D01*
X159131536Y-167835104D01*
X159169448Y-167828020D01*
X159184244Y-167817861D01*
X159205014Y-167782334D01*
X159218083Y-167726732D01*
X159222624Y-167653766D01*
X159222551Y-167632762D01*
X159220974Y-167590203D01*
X159215728Y-167562439D01*
X159204723Y-167541925D01*
X159185868Y-167521112D01*
X159149989Y-167495887D01*
X159103280Y-167485573D01*
X159058151Y-167495396D01*
X159020680Y-167523805D01*
X158996943Y-167569253D01*
X158988675Y-167608497D01*
X158984976Y-167673705D01*
X158858291Y-167673705D01*
X158858049Y-167659621D01*
X158860844Y-167595116D01*
X158867366Y-167539121D01*
X158877432Y-167499842D01*
X158900877Y-167455372D01*
X158950637Y-167400692D01*
X159014238Y-167366055D01*
X159089790Y-167352345D01*
X159175399Y-167360448D01*
X159189644Y-167363899D01*
X159255982Y-167393664D01*
X159305971Y-167442530D01*
X159339612Y-167510501D01*
X159356906Y-167597580D01*
X159357410Y-167653766D01*
%TA.AperFunction,EtchedComponent*%
G36*
X159357410Y-167653766D02*
G01*
X159357857Y-167703771D01*
X159354349Y-167743565D01*
X159338844Y-167819538D01*
X159311110Y-167877511D01*
X159268898Y-167921300D01*
X159209960Y-167954722D01*
X159187076Y-167962676D01*
X159127812Y-167972601D01*
X159065447Y-167972331D01*
X159012823Y-167961430D01*
X159011789Y-167961034D01*
X158969381Y-167936087D01*
X158926537Y-167897468D01*
X158890986Y-167853306D01*
X158870459Y-167811727D01*
X158864374Y-167781334D01*
X158859164Y-167724429D01*
X158858291Y-167673705D01*
X158984976Y-167673705D01*
X158992549Y-167734545D01*
X159010341Y-167784538D01*
X159037296Y-167817204D01*
X159047513Y-167822812D01*
X159086473Y-167833007D01*
X159131536Y-167835104D01*
X159169448Y-167828020D01*
X159184244Y-167817861D01*
X159205014Y-167782334D01*
X159218083Y-167726732D01*
X159222624Y-167653766D01*
X159222551Y-167632762D01*
X159220974Y-167590203D01*
X159215728Y-167562439D01*
X159204723Y-167541925D01*
X159185868Y-167521112D01*
X159149989Y-167495887D01*
X159103280Y-167485573D01*
X159058151Y-167495396D01*
X159020680Y-167523805D01*
X158996943Y-167569253D01*
X158988675Y-167608497D01*
X158984976Y-167673705D01*
X158858291Y-167673705D01*
X158858049Y-167659621D01*
X158860844Y-167595116D01*
X158867366Y-167539121D01*
X158877432Y-167499842D01*
X158900877Y-167455372D01*
X158950637Y-167400692D01*
X159014238Y-167366055D01*
X159089790Y-167352345D01*
X159175399Y-167360448D01*
X159189644Y-167363899D01*
X159255982Y-167393664D01*
X159305971Y-167442530D01*
X159339612Y-167510501D01*
X159356906Y-167597580D01*
X159357410Y-167653766D01*
G37*
%TD.AperFunction*%
X159457997Y-168499130D02*
X159474997Y-168549850D01*
X159495107Y-168605997D01*
X159511899Y-168648532D01*
X159523986Y-168673990D01*
X159529980Y-168678903D01*
X159531426Y-168674630D01*
X159539254Y-168648422D01*
X159551723Y-168604649D01*
X159567447Y-168548211D01*
X159585043Y-168484010D01*
X159632914Y-168307971D01*
X159706007Y-168304152D01*
X159712177Y-168303846D01*
X159751592Y-168303441D01*
X159770533Y-168307487D01*
X159772945Y-168316726D01*
X159769898Y-168325749D01*
X159759874Y-168356632D01*
X159744180Y-168405544D01*
X159723934Y-168468987D01*
X159700256Y-168543462D01*
X159674263Y-168625471D01*
X159581736Y-168917822D01*
X159465993Y-168917822D01*
X159411457Y-168732352D01*
X159401386Y-168698294D01*
X159382775Y-168636378D01*
X159366872Y-168584787D01*
X159355109Y-168548130D01*
X159348918Y-168531018D01*
X159347154Y-168529741D01*
X159338571Y-168540779D01*
X159326316Y-168569969D01*
X159312426Y-168612750D01*
X159311692Y-168615263D01*
X159293096Y-168678400D01*
X159271818Y-168749889D01*
X159252321Y-168814734D01*
X159220705Y-168919122D01*
X159162402Y-168915328D01*
X159104098Y-168911535D01*
X159050098Y-168741782D01*
X159026390Y-168667193D01*
X158999833Y-168583539D01*
X158974404Y-168503342D01*
X158953354Y-168436857D01*
X158910609Y-168301683D01*
X159053612Y-168301683D01*
X159088274Y-168430570D01*
X159097488Y-168464625D01*
X159114915Y-168528115D01*
X159131054Y-168585874D01*
X159143322Y-168628614D01*
X159163709Y-168697773D01*
X159293745Y-168307971D01*
X159343476Y-168304237D01*
X159393206Y-168300504D01*
X159457997Y-168499130D01*
%TA.AperFunction,EtchedComponent*%
G36*
X159457997Y-168499130D02*
G01*
X159474997Y-168549850D01*
X159495107Y-168605997D01*
X159511899Y-168648532D01*
X159523986Y-168673990D01*
X159529980Y-168678903D01*
X159531426Y-168674630D01*
X159539254Y-168648422D01*
X159551723Y-168604649D01*
X159567447Y-168548211D01*
X159585043Y-168484010D01*
X159632914Y-168307971D01*
X159706007Y-168304152D01*
X159712177Y-168303846D01*
X159751592Y-168303441D01*
X159770533Y-168307487D01*
X159772945Y-168316726D01*
X159769898Y-168325749D01*
X159759874Y-168356632D01*
X159744180Y-168405544D01*
X159723934Y-168468987D01*
X159700256Y-168543462D01*
X159674263Y-168625471D01*
X159581736Y-168917822D01*
X159465993Y-168917822D01*
X159411457Y-168732352D01*
X159401386Y-168698294D01*
X159382775Y-168636378D01*
X159366872Y-168584787D01*
X159355109Y-168548130D01*
X159348918Y-168531018D01*
X159347154Y-168529741D01*
X159338571Y-168540779D01*
X159326316Y-168569969D01*
X159312426Y-168612750D01*
X159311692Y-168615263D01*
X159293096Y-168678400D01*
X159271818Y-168749889D01*
X159252321Y-168814734D01*
X159220705Y-168919122D01*
X159162402Y-168915328D01*
X159104098Y-168911535D01*
X159050098Y-168741782D01*
X159026390Y-168667193D01*
X158999833Y-168583539D01*
X158974404Y-168503342D01*
X158953354Y-168436857D01*
X158910609Y-168301683D01*
X159053612Y-168301683D01*
X159088274Y-168430570D01*
X159097488Y-168464625D01*
X159114915Y-168528115D01*
X159131054Y-168585874D01*
X159143322Y-168628614D01*
X159163709Y-168697773D01*
X159293745Y-168307971D01*
X159343476Y-168304237D01*
X159393206Y-168300504D01*
X159457997Y-168499130D01*
G37*
%TD.AperFunction*%
X162490672Y-167659219D02*
X162489997Y-167694931D01*
X162488373Y-167734310D01*
X162484688Y-167782332D01*
X162478410Y-167816368D01*
X162468044Y-167843338D01*
X162452092Y-167870158D01*
X162451412Y-167871175D01*
X162412132Y-167914629D01*
X162364072Y-167947772D01*
X162308185Y-167967439D01*
X162234666Y-167973824D01*
X162162609Y-167961268D01*
X162098201Y-167931011D01*
X162047627Y-167884294D01*
X162033108Y-167862221D01*
X162005993Y-167793602D01*
X161992546Y-167708939D01*
X161992776Y-167687523D01*
X162127920Y-167687523D01*
X162128174Y-167727574D01*
X162132421Y-167754313D01*
X162142096Y-167774859D01*
X162158638Y-167796331D01*
X162181593Y-167817639D01*
X162227505Y-167836653D01*
X162276802Y-167833122D01*
X162323917Y-167806694D01*
X162337207Y-167794072D01*
X162351397Y-167772465D01*
X162359266Y-167742094D01*
X162363726Y-167694770D01*
X162364955Y-167659219D01*
X162358224Y-167586620D01*
X162337567Y-167534642D01*
X162302894Y-167502999D01*
X162262249Y-167487847D01*
X162213777Y-167489123D01*
X162168845Y-167514703D01*
X162158103Y-167524442D01*
X162144548Y-167541480D01*
X162136505Y-167563772D01*
X162132043Y-167597947D01*
X162129228Y-167650638D01*
X162127920Y-167687523D01*
X161992776Y-167687523D01*
X161993583Y-167612351D01*
X161994907Y-167598651D01*
X162013374Y-167510908D01*
X162047540Y-167442793D01*
X162097479Y-167394231D01*
X162163261Y-167365148D01*
X162244961Y-167355471D01*
X162275828Y-167356379D01*
X162339128Y-167367493D01*
X162390889Y-167394021D01*
X162439147Y-167439436D01*
X162446865Y-167448551D01*
X162467681Y-167479248D01*
X162481362Y-167514007D01*
X162488948Y-167558056D01*
X162491479Y-167616621D01*
X162490672Y-167659219D01*
%TA.AperFunction,EtchedComponent*%
G36*
X162490672Y-167659219D02*
G01*
X162489997Y-167694931D01*
X162488373Y-167734310D01*
X162484688Y-167782332D01*
X162478410Y-167816368D01*
X162468044Y-167843338D01*
X162452092Y-167870158D01*
X162451412Y-167871175D01*
X162412132Y-167914629D01*
X162364072Y-167947772D01*
X162308185Y-167967439D01*
X162234666Y-167973824D01*
X162162609Y-167961268D01*
X162098201Y-167931011D01*
X162047627Y-167884294D01*
X162033108Y-167862221D01*
X162005993Y-167793602D01*
X161992546Y-167708939D01*
X161992776Y-167687523D01*
X162127920Y-167687523D01*
X162128174Y-167727574D01*
X162132421Y-167754313D01*
X162142096Y-167774859D01*
X162158638Y-167796331D01*
X162181593Y-167817639D01*
X162227505Y-167836653D01*
X162276802Y-167833122D01*
X162323917Y-167806694D01*
X162337207Y-167794072D01*
X162351397Y-167772465D01*
X162359266Y-167742094D01*
X162363726Y-167694770D01*
X162364955Y-167659219D01*
X162358224Y-167586620D01*
X162337567Y-167534642D01*
X162302894Y-167502999D01*
X162262249Y-167487847D01*
X162213777Y-167489123D01*
X162168845Y-167514703D01*
X162158103Y-167524442D01*
X162144548Y-167541480D01*
X162136505Y-167563772D01*
X162132043Y-167597947D01*
X162129228Y-167650638D01*
X162127920Y-167687523D01*
X161992776Y-167687523D01*
X161993583Y-167612351D01*
X161994907Y-167598651D01*
X162013374Y-167510908D01*
X162047540Y-167442793D01*
X162097479Y-167394231D01*
X162163261Y-167365148D01*
X162244961Y-167355471D01*
X162275828Y-167356379D01*
X162339128Y-167367493D01*
X162390889Y-167394021D01*
X162439147Y-167439436D01*
X162446865Y-167448551D01*
X162467681Y-167479248D01*
X162481362Y-167514007D01*
X162488948Y-167558056D01*
X162491479Y-167616621D01*
X162490672Y-167659219D01*
G37*
%TD.AperFunction*%
X160315633Y-168616155D02*
X160315761Y-168656813D01*
X160314167Y-168710571D01*
X160310962Y-168748018D01*
X160310413Y-168751450D01*
X160288838Y-168812835D01*
X160249438Y-168864877D01*
X160197752Y-168900135D01*
X160142248Y-168914729D01*
X160073977Y-168913597D01*
X160011173Y-168894029D01*
X159994815Y-168885771D01*
X159973779Y-168876923D01*
X159965774Y-168879676D01*
X159964505Y-168894029D01*
X159963922Y-168901186D01*
X159956394Y-168911772D01*
X159935488Y-168916645D01*
X159895346Y-168917822D01*
X159826188Y-168917822D01*
X159826188Y-168615930D01*
X159964505Y-168615930D01*
X159965496Y-168668230D01*
X159969519Y-168703050D01*
X159978108Y-168726905D01*
X159992797Y-168746895D01*
X160031584Y-168776618D01*
X160076974Y-168786582D01*
X160120989Y-168774260D01*
X160158060Y-168739888D01*
X160167859Y-168714735D01*
X160175097Y-168670194D01*
X160178279Y-168616155D01*
X160177277Y-168560728D01*
X160171961Y-168512022D01*
X160162204Y-168478148D01*
X160159087Y-168472593D01*
X160129038Y-168444674D01*
X160088315Y-168432306D01*
X160044579Y-168435183D01*
X160005491Y-168453000D01*
X159978710Y-168485452D01*
X159977603Y-168488181D01*
X159970963Y-168518634D01*
X159966278Y-168564139D01*
X159964505Y-168615930D01*
X159826188Y-168615930D01*
X159826188Y-168062773D01*
X159964505Y-168062773D01*
X159964505Y-168355878D01*
X159990124Y-168332693D01*
X160014792Y-168318282D01*
X160061480Y-168306236D01*
X160116056Y-168302354D01*
X160169354Y-168307120D01*
X160212207Y-168321014D01*
X160242878Y-168340779D01*
X160274471Y-168374449D01*
X160295733Y-168419730D01*
X160308514Y-168480981D01*
X160314664Y-168562563D01*
X160315568Y-168595540D01*
X160315633Y-168616155D01*
%TA.AperFunction,EtchedComponent*%
G36*
X160315633Y-168616155D02*
G01*
X160315761Y-168656813D01*
X160314167Y-168710571D01*
X160310962Y-168748018D01*
X160310413Y-168751450D01*
X160288838Y-168812835D01*
X160249438Y-168864877D01*
X160197752Y-168900135D01*
X160142248Y-168914729D01*
X160073977Y-168913597D01*
X160011173Y-168894029D01*
X159994815Y-168885771D01*
X159973779Y-168876923D01*
X159965774Y-168879676D01*
X159964505Y-168894029D01*
X159963922Y-168901186D01*
X159956394Y-168911772D01*
X159935488Y-168916645D01*
X159895346Y-168917822D01*
X159826188Y-168917822D01*
X159826188Y-168615930D01*
X159964505Y-168615930D01*
X159965496Y-168668230D01*
X159969519Y-168703050D01*
X159978108Y-168726905D01*
X159992797Y-168746895D01*
X160031584Y-168776618D01*
X160076974Y-168786582D01*
X160120989Y-168774260D01*
X160158060Y-168739888D01*
X160167859Y-168714735D01*
X160175097Y-168670194D01*
X160178279Y-168616155D01*
X160177277Y-168560728D01*
X160171961Y-168512022D01*
X160162204Y-168478148D01*
X160159087Y-168472593D01*
X160129038Y-168444674D01*
X160088315Y-168432306D01*
X160044579Y-168435183D01*
X160005491Y-168453000D01*
X159978710Y-168485452D01*
X159977603Y-168488181D01*
X159970963Y-168518634D01*
X159966278Y-168564139D01*
X159964505Y-168615930D01*
X159826188Y-168615930D01*
X159826188Y-168062773D01*
X159964505Y-168062773D01*
X159964505Y-168355878D01*
X159990124Y-168332693D01*
X160014792Y-168318282D01*
X160061480Y-168306236D01*
X160116056Y-168302354D01*
X160169354Y-168307120D01*
X160212207Y-168321014D01*
X160242878Y-168340779D01*
X160274471Y-168374449D01*
X160295733Y-168419730D01*
X160308514Y-168480981D01*
X160314664Y-168562563D01*
X160315568Y-168595540D01*
X160315633Y-168616155D01*
G37*
%TD.AperFunction*%
X157237900Y-167585542D02*
X157244444Y-167619878D01*
X157242825Y-167716121D01*
X157242615Y-167718014D01*
X157224535Y-167806325D01*
X157191870Y-167874986D01*
X157143601Y-167925506D01*
X157078713Y-167959393D01*
X157066801Y-167963268D01*
X156992971Y-167974688D01*
X156916614Y-167968320D01*
X156845626Y-167945563D01*
X156787904Y-167907819D01*
X156744667Y-167867872D01*
X156790625Y-167831532D01*
X156836583Y-167795193D01*
X156891969Y-167822101D01*
X156956056Y-167843905D01*
X157012632Y-167844558D01*
X157058920Y-167824525D01*
X157092230Y-167784315D01*
X157104171Y-167760222D01*
X157110837Y-167739630D01*
X157106980Y-167725720D01*
X157089675Y-167717181D01*
X157055997Y-167712704D01*
X157003021Y-167710978D01*
X156927822Y-167710693D01*
X156745495Y-167710693D01*
X156745495Y-167623492D01*
X156746857Y-167585210D01*
X156875234Y-167585210D01*
X156881399Y-167592251D01*
X156899654Y-167595916D01*
X156934352Y-167597306D01*
X156989846Y-167597525D01*
X157019603Y-167597176D01*
X157066562Y-167594867D01*
X157098416Y-167590822D01*
X157110148Y-167585542D01*
X157107146Y-167566062D01*
X157085988Y-167528786D01*
X157050731Y-167498164D01*
X157008699Y-167479668D01*
X156967220Y-167478773D01*
X156935997Y-167493604D01*
X156900618Y-167527355D01*
X156878122Y-167569233D01*
X156876805Y-167573690D01*
X156875234Y-167585210D01*
X156746857Y-167585210D01*
X156747136Y-167577371D01*
X156751955Y-167531740D01*
X156758840Y-167500893D01*
X156763859Y-167489117D01*
X156800390Y-167436667D01*
X156853175Y-167392921D01*
X156914904Y-167364279D01*
X156947102Y-167356457D01*
X157023820Y-167352896D01*
X157092179Y-167371009D01*
X157150299Y-167408779D01*
X157196302Y-167464191D01*
X157228310Y-167535229D01*
X157237900Y-167585542D01*
%TA.AperFunction,EtchedComponent*%
G36*
X157237900Y-167585542D02*
G01*
X157244444Y-167619878D01*
X157242825Y-167716121D01*
X157242615Y-167718014D01*
X157224535Y-167806325D01*
X157191870Y-167874986D01*
X157143601Y-167925506D01*
X157078713Y-167959393D01*
X157066801Y-167963268D01*
X156992971Y-167974688D01*
X156916614Y-167968320D01*
X156845626Y-167945563D01*
X156787904Y-167907819D01*
X156744667Y-167867872D01*
X156790625Y-167831532D01*
X156836583Y-167795193D01*
X156891969Y-167822101D01*
X156956056Y-167843905D01*
X157012632Y-167844558D01*
X157058920Y-167824525D01*
X157092230Y-167784315D01*
X157104171Y-167760222D01*
X157110837Y-167739630D01*
X157106980Y-167725720D01*
X157089675Y-167717181D01*
X157055997Y-167712704D01*
X157003021Y-167710978D01*
X156927822Y-167710693D01*
X156745495Y-167710693D01*
X156745495Y-167623492D01*
X156746857Y-167585210D01*
X156875234Y-167585210D01*
X156881399Y-167592251D01*
X156899654Y-167595916D01*
X156934352Y-167597306D01*
X156989846Y-167597525D01*
X157019603Y-167597176D01*
X157066562Y-167594867D01*
X157098416Y-167590822D01*
X157110148Y-167585542D01*
X157107146Y-167566062D01*
X157085988Y-167528786D01*
X157050731Y-167498164D01*
X157008699Y-167479668D01*
X156967220Y-167478773D01*
X156935997Y-167493604D01*
X156900618Y-167527355D01*
X156878122Y-167569233D01*
X156876805Y-167573690D01*
X156875234Y-167585210D01*
X156746857Y-167585210D01*
X156747136Y-167577371D01*
X156751955Y-167531740D01*
X156758840Y-167500893D01*
X156763859Y-167489117D01*
X156800390Y-167436667D01*
X156853175Y-167392921D01*
X156914904Y-167364279D01*
X156947102Y-167356457D01*
X157023820Y-167352896D01*
X157092179Y-167371009D01*
X157150299Y-167408779D01*
X157196302Y-167464191D01*
X157228310Y-167535229D01*
X157237900Y-167585542D01*
G37*
%TD.AperFunction*%
X159723874Y-167358207D02*
X159796495Y-167376408D01*
X159849546Y-167410144D01*
X159883329Y-167459642D01*
X159898147Y-167525126D01*
X159895147Y-167587820D01*
X159873493Y-167640699D01*
X159831967Y-167679796D01*
X159769736Y-167705873D01*
X159685969Y-167719695D01*
X159631540Y-167726940D01*
X159581860Y-167742615D01*
X159556211Y-167765314D01*
X159554662Y-167794998D01*
X159564984Y-167813507D01*
X159596951Y-167835443D01*
X159642395Y-167845818D01*
X159695649Y-167844399D01*
X159751048Y-167830952D01*
X159802928Y-167805243D01*
X159854653Y-167771013D01*
X159900148Y-167817049D01*
X159945643Y-167863084D01*
X159907921Y-167893876D01*
X159893253Y-167904574D01*
X159851983Y-167928880D01*
X159807327Y-167949825D01*
X159771984Y-167961845D01*
X159720234Y-167970552D01*
X159656435Y-167970667D01*
X159578200Y-167961081D01*
X159507722Y-167936783D01*
X159457836Y-167898188D01*
X159428423Y-167845198D01*
X159419365Y-167777718D01*
X159425921Y-167718354D01*
X159446970Y-167669752D01*
X159484864Y-167634946D01*
X159542004Y-167611798D01*
X159620785Y-167598170D01*
X159629834Y-167597183D01*
X159678885Y-167590892D01*
X159718675Y-167584309D01*
X159741312Y-167578708D01*
X159748866Y-167574197D01*
X159761637Y-167550941D01*
X159759563Y-167521171D01*
X159742495Y-167495327D01*
X159733533Y-167489691D01*
X159696188Y-167480660D01*
X159647950Y-167481267D01*
X159597650Y-167490878D01*
X159554115Y-167508858D01*
X159508372Y-167535847D01*
X159472890Y-167494384D01*
X159464280Y-167483850D01*
X159444883Y-167455632D01*
X159436897Y-167436508D01*
X159445283Y-167424781D01*
X159471226Y-167406476D01*
X159508688Y-167386777D01*
X159513966Y-167384370D01*
X159563366Y-167365482D01*
X159610983Y-167356452D01*
X159670072Y-167354639D01*
X159723874Y-167358207D01*
%TA.AperFunction,EtchedComponent*%
G36*
X159723874Y-167358207D02*
G01*
X159796495Y-167376408D01*
X159849546Y-167410144D01*
X159883329Y-167459642D01*
X159898147Y-167525126D01*
X159895147Y-167587820D01*
X159873493Y-167640699D01*
X159831967Y-167679796D01*
X159769736Y-167705873D01*
X159685969Y-167719695D01*
X159631540Y-167726940D01*
X159581860Y-167742615D01*
X159556211Y-167765314D01*
X159554662Y-167794998D01*
X159564984Y-167813507D01*
X159596951Y-167835443D01*
X159642395Y-167845818D01*
X159695649Y-167844399D01*
X159751048Y-167830952D01*
X159802928Y-167805243D01*
X159854653Y-167771013D01*
X159900148Y-167817049D01*
X159945643Y-167863084D01*
X159907921Y-167893876D01*
X159893253Y-167904574D01*
X159851983Y-167928880D01*
X159807327Y-167949825D01*
X159771984Y-167961845D01*
X159720234Y-167970552D01*
X159656435Y-167970667D01*
X159578200Y-167961081D01*
X159507722Y-167936783D01*
X159457836Y-167898188D01*
X159428423Y-167845198D01*
X159419365Y-167777718D01*
X159425921Y-167718354D01*
X159446970Y-167669752D01*
X159484864Y-167634946D01*
X159542004Y-167611798D01*
X159620785Y-167598170D01*
X159629834Y-167597183D01*
X159678885Y-167590892D01*
X159718675Y-167584309D01*
X159741312Y-167578708D01*
X159748866Y-167574197D01*
X159761637Y-167550941D01*
X159759563Y-167521171D01*
X159742495Y-167495327D01*
X159733533Y-167489691D01*
X159696188Y-167480660D01*
X159647950Y-167481267D01*
X159597650Y-167490878D01*
X159554115Y-167508858D01*
X159508372Y-167535847D01*
X159472890Y-167494384D01*
X159464280Y-167483850D01*
X159444883Y-167455632D01*
X159436897Y-167436508D01*
X159445283Y-167424781D01*
X159471226Y-167406476D01*
X159508688Y-167386777D01*
X159513966Y-167384370D01*
X159563366Y-167365482D01*
X159610983Y-167356452D01*
X159670072Y-167354639D01*
X159723874Y-167358207D01*
G37*
%TD.AperFunction*%
X157884579Y-168541413D02*
X157889353Y-168609753D01*
X157887718Y-168656692D01*
X157872827Y-168746459D01*
X157842185Y-168817045D01*
X157795524Y-168868952D01*
X157732574Y-168902686D01*
X157712235Y-168908647D01*
X157639612Y-168916971D01*
X157562928Y-168909946D01*
X157493663Y-168888265D01*
X157469262Y-168875959D01*
X157434275Y-168854879D01*
X157413072Y-168837534D01*
X157409942Y-168833571D01*
X157404085Y-168819077D01*
X157412524Y-168803321D01*
X157438221Y-168779460D01*
X157450622Y-168769072D01*
X157475052Y-168750063D01*
X157487861Y-168742293D01*
X157491530Y-168743094D01*
X157512561Y-168751745D01*
X157543960Y-168766931D01*
X157554197Y-168771926D01*
X157614590Y-168790475D01*
X157667057Y-168785694D01*
X157713065Y-168757500D01*
X157718419Y-168752291D01*
X157744013Y-168719659D01*
X157758637Y-168688342D01*
X157766736Y-168653763D01*
X157386782Y-168653763D01*
X157386852Y-168587748D01*
X157386892Y-168581182D01*
X157392022Y-168528218D01*
X157525099Y-168528218D01*
X157526670Y-168539203D01*
X157534738Y-168546773D01*
X157553967Y-168550975D01*
X157589019Y-168552783D01*
X157644554Y-168553169D01*
X157675429Y-168552768D01*
X157721002Y-168550429D01*
X157752348Y-168546465D01*
X157764010Y-168541413D01*
X157754064Y-168499827D01*
X157724947Y-168461013D01*
X157682952Y-168434086D01*
X157634440Y-168424772D01*
X157598723Y-168435272D01*
X157563020Y-168460940D01*
X157535879Y-168494381D01*
X157525099Y-168528218D01*
X157392022Y-168528218D01*
X157394758Y-168499965D01*
X157417655Y-168433895D01*
X157457607Y-168376940D01*
X157481979Y-168352848D01*
X157532315Y-168320597D01*
X157592419Y-168304970D01*
X157668338Y-168303871D01*
X157705010Y-168308179D01*
X157772703Y-168330549D01*
X157824530Y-168371263D01*
X157860945Y-168430949D01*
X157882401Y-168510236D01*
X157884579Y-168541413D01*
%TA.AperFunction,EtchedComponent*%
G36*
X157884579Y-168541413D02*
G01*
X157889353Y-168609753D01*
X157887718Y-168656692D01*
X157872827Y-168746459D01*
X157842185Y-168817045D01*
X157795524Y-168868952D01*
X157732574Y-168902686D01*
X157712235Y-168908647D01*
X157639612Y-168916971D01*
X157562928Y-168909946D01*
X157493663Y-168888265D01*
X157469262Y-168875959D01*
X157434275Y-168854879D01*
X157413072Y-168837534D01*
X157409942Y-168833571D01*
X157404085Y-168819077D01*
X157412524Y-168803321D01*
X157438221Y-168779460D01*
X157450622Y-168769072D01*
X157475052Y-168750063D01*
X157487861Y-168742293D01*
X157491530Y-168743094D01*
X157512561Y-168751745D01*
X157543960Y-168766931D01*
X157554197Y-168771926D01*
X157614590Y-168790475D01*
X157667057Y-168785694D01*
X157713065Y-168757500D01*
X157718419Y-168752291D01*
X157744013Y-168719659D01*
X157758637Y-168688342D01*
X157766736Y-168653763D01*
X157386782Y-168653763D01*
X157386852Y-168587748D01*
X157386892Y-168581182D01*
X157392022Y-168528218D01*
X157525099Y-168528218D01*
X157526670Y-168539203D01*
X157534738Y-168546773D01*
X157553967Y-168550975D01*
X157589019Y-168552783D01*
X157644554Y-168553169D01*
X157675429Y-168552768D01*
X157721002Y-168550429D01*
X157752348Y-168546465D01*
X157764010Y-168541413D01*
X157754064Y-168499827D01*
X157724947Y-168461013D01*
X157682952Y-168434086D01*
X157634440Y-168424772D01*
X157598723Y-168435272D01*
X157563020Y-168460940D01*
X157535879Y-168494381D01*
X157525099Y-168528218D01*
X157392022Y-168528218D01*
X157394758Y-168499965D01*
X157417655Y-168433895D01*
X157457607Y-168376940D01*
X157481979Y-168352848D01*
X157532315Y-168320597D01*
X157592419Y-168304970D01*
X157668338Y-168303871D01*
X157705010Y-168308179D01*
X157772703Y-168330549D01*
X157824530Y-168371263D01*
X157860945Y-168430949D01*
X157882401Y-168510236D01*
X157884579Y-168541413D01*
G37*
%TD.AperFunction*%
X161331482Y-167582299D02*
X161332022Y-167584861D01*
X161336421Y-167672936D01*
X161335322Y-167711371D01*
X161322926Y-167795367D01*
X161295608Y-167861595D01*
X161251941Y-167912784D01*
X161190495Y-167951663D01*
X161130888Y-167969812D01*
X161056110Y-167973284D01*
X160980664Y-167959930D01*
X160913366Y-167930425D01*
X160888428Y-167914012D01*
X160860951Y-167892973D01*
X160848414Y-167879129D01*
X160849124Y-167873417D01*
X160863158Y-167853955D01*
X160889533Y-167830376D01*
X160935240Y-167795513D01*
X160988799Y-167822262D01*
X161003282Y-167828882D01*
X161045916Y-167843273D01*
X161081649Y-167849010D01*
X161107998Y-167844282D01*
X161149347Y-167821514D01*
X161184104Y-167786170D01*
X161203983Y-167745273D01*
X161212083Y-167710693D01*
X160832129Y-167710693D01*
X160832199Y-167644679D01*
X160832774Y-167623757D01*
X160836972Y-167578862D01*
X160970445Y-167578862D01*
X160970690Y-167581434D01*
X160977604Y-167589443D01*
X160997141Y-167594364D01*
X161033467Y-167596843D01*
X161090748Y-167597525D01*
X161109575Y-167597517D01*
X161158470Y-167597065D01*
X161187863Y-167595113D01*
X161202115Y-167590558D01*
X161205582Y-167582299D01*
X161202625Y-167569233D01*
X161202173Y-167567752D01*
X161176699Y-167522285D01*
X161136539Y-167490981D01*
X161088651Y-167479327D01*
X161070949Y-167480259D01*
X161038094Y-167491408D01*
X161006575Y-167519763D01*
X160998085Y-167529789D01*
X160978336Y-167558423D01*
X160970445Y-167578862D01*
X160836972Y-167578862D01*
X160837512Y-167573091D01*
X160845459Y-167531166D01*
X160854168Y-167507696D01*
X160884790Y-167456646D01*
X160925799Y-167410283D01*
X160969168Y-167378514D01*
X160981699Y-167372614D01*
X161054661Y-167353046D01*
X161129168Y-167355109D01*
X161199217Y-167377931D01*
X161258807Y-167420639D01*
X161291038Y-167460025D01*
X161317392Y-167515510D01*
X161331482Y-167582299D01*
%TA.AperFunction,EtchedComponent*%
G36*
X161331482Y-167582299D02*
G01*
X161332022Y-167584861D01*
X161336421Y-167672936D01*
X161335322Y-167711371D01*
X161322926Y-167795367D01*
X161295608Y-167861595D01*
X161251941Y-167912784D01*
X161190495Y-167951663D01*
X161130888Y-167969812D01*
X161056110Y-167973284D01*
X160980664Y-167959930D01*
X160913366Y-167930425D01*
X160888428Y-167914012D01*
X160860951Y-167892973D01*
X160848414Y-167879129D01*
X160849124Y-167873417D01*
X160863158Y-167853955D01*
X160889533Y-167830376D01*
X160935240Y-167795513D01*
X160988799Y-167822262D01*
X161003282Y-167828882D01*
X161045916Y-167843273D01*
X161081649Y-167849010D01*
X161107998Y-167844282D01*
X161149347Y-167821514D01*
X161184104Y-167786170D01*
X161203983Y-167745273D01*
X161212083Y-167710693D01*
X160832129Y-167710693D01*
X160832199Y-167644679D01*
X160832774Y-167623757D01*
X160836972Y-167578862D01*
X160970445Y-167578862D01*
X160970690Y-167581434D01*
X160977604Y-167589443D01*
X160997141Y-167594364D01*
X161033467Y-167596843D01*
X161090748Y-167597525D01*
X161109575Y-167597517D01*
X161158470Y-167597065D01*
X161187863Y-167595113D01*
X161202115Y-167590558D01*
X161205582Y-167582299D01*
X161202625Y-167569233D01*
X161202173Y-167567752D01*
X161176699Y-167522285D01*
X161136539Y-167490981D01*
X161088651Y-167479327D01*
X161070949Y-167480259D01*
X161038094Y-167491408D01*
X161006575Y-167519763D01*
X160998085Y-167529789D01*
X160978336Y-167558423D01*
X160970445Y-167578862D01*
X160836972Y-167578862D01*
X160837512Y-167573091D01*
X160845459Y-167531166D01*
X160854168Y-167507696D01*
X160884790Y-167456646D01*
X160925799Y-167410283D01*
X160969168Y-167378514D01*
X160981699Y-167372614D01*
X161054661Y-167353046D01*
X161129168Y-167355109D01*
X161199217Y-167377931D01*
X161258807Y-167420639D01*
X161291038Y-167460025D01*
X161317392Y-167515510D01*
X161331482Y-167582299D01*
G37*
%TD.AperFunction*%
X158913254Y-168731824D02*
X158914413Y-168752333D01*
X158899244Y-168809419D01*
X158866277Y-168858255D01*
X158816270Y-168893386D01*
X158811362Y-168895521D01*
X158756646Y-168910903D01*
X158694993Y-168916899D01*
X158636376Y-168913233D01*
X158590767Y-168899629D01*
X158572549Y-168890754D01*
X158559179Y-168888637D01*
X158556188Y-168899706D01*
X158550524Y-168909942D01*
X158528607Y-168916038D01*
X158486068Y-168917822D01*
X158415948Y-168917822D01*
X158419680Y-168697773D01*
X158556188Y-168697773D01*
X158560924Y-168730666D01*
X158581336Y-168766931D01*
X158588871Y-168773597D01*
X158619753Y-168787620D01*
X158666213Y-168791228D01*
X158694090Y-168789819D01*
X158746255Y-168779204D01*
X158778587Y-168759425D01*
X158789492Y-168731824D01*
X158777374Y-168697743D01*
X158770304Y-168688824D01*
X158738724Y-168668818D01*
X158688744Y-168657395D01*
X158617487Y-168653763D01*
X158556188Y-168653763D01*
X158556188Y-168697773D01*
X158419680Y-168697773D01*
X158420053Y-168675768D01*
X158421169Y-168619794D01*
X158424106Y-168535996D01*
X158429058Y-168471920D01*
X158437002Y-168424073D01*
X158448917Y-168388962D01*
X158465780Y-168363093D01*
X158488572Y-168342974D01*
X158518269Y-168325110D01*
X158533589Y-168318290D01*
X158586589Y-168305417D01*
X158650513Y-168300095D01*
X158716602Y-168302227D01*
X158776099Y-168311714D01*
X158820247Y-168328461D01*
X158835604Y-168338185D01*
X158870960Y-168367005D01*
X158882926Y-168391137D01*
X158880020Y-168395800D01*
X158861909Y-168412088D01*
X158832672Y-168433817D01*
X158817725Y-168443987D01*
X158792270Y-168458397D01*
X158775728Y-168459773D01*
X158760370Y-168449827D01*
X158722094Y-168429684D01*
X158670590Y-168421400D01*
X158617957Y-168427742D01*
X158616961Y-168428030D01*
X158579838Y-168444158D01*
X158561463Y-168469405D01*
X158556380Y-168511158D01*
X158556188Y-168550879D01*
X158687423Y-168555168D01*
X158708331Y-168555873D01*
X158761043Y-168558326D01*
X158796381Y-168562180D01*
X158820267Y-168568878D01*
X158838624Y-168579864D01*
X158857376Y-168596580D01*
X158888337Y-168635244D01*
X158911029Y-168692456D01*
X158913254Y-168731824D01*
%TA.AperFunction,EtchedComponent*%
G36*
X158913254Y-168731824D02*
G01*
X158914413Y-168752333D01*
X158899244Y-168809419D01*
X158866277Y-168858255D01*
X158816270Y-168893386D01*
X158811362Y-168895521D01*
X158756646Y-168910903D01*
X158694993Y-168916899D01*
X158636376Y-168913233D01*
X158590767Y-168899629D01*
X158572549Y-168890754D01*
X158559179Y-168888637D01*
X158556188Y-168899706D01*
X158550524Y-168909942D01*
X158528607Y-168916038D01*
X158486068Y-168917822D01*
X158415948Y-168917822D01*
X158419680Y-168697773D01*
X158556188Y-168697773D01*
X158560924Y-168730666D01*
X158581336Y-168766931D01*
X158588871Y-168773597D01*
X158619753Y-168787620D01*
X158666213Y-168791228D01*
X158694090Y-168789819D01*
X158746255Y-168779204D01*
X158778587Y-168759425D01*
X158789492Y-168731824D01*
X158777374Y-168697743D01*
X158770304Y-168688824D01*
X158738724Y-168668818D01*
X158688744Y-168657395D01*
X158617487Y-168653763D01*
X158556188Y-168653763D01*
X158556188Y-168697773D01*
X158419680Y-168697773D01*
X158420053Y-168675768D01*
X158421169Y-168619794D01*
X158424106Y-168535996D01*
X158429058Y-168471920D01*
X158437002Y-168424073D01*
X158448917Y-168388962D01*
X158465780Y-168363093D01*
X158488572Y-168342974D01*
X158518269Y-168325110D01*
X158533589Y-168318290D01*
X158586589Y-168305417D01*
X158650513Y-168300095D01*
X158716602Y-168302227D01*
X158776099Y-168311714D01*
X158820247Y-168328461D01*
X158835604Y-168338185D01*
X158870960Y-168367005D01*
X158882926Y-168391137D01*
X158880020Y-168395800D01*
X158861909Y-168412088D01*
X158832672Y-168433817D01*
X158817725Y-168443987D01*
X158792270Y-168458397D01*
X158775728Y-168459773D01*
X158760370Y-168449827D01*
X158722094Y-168429684D01*
X158670590Y-168421400D01*
X158617957Y-168427742D01*
X158616961Y-168428030D01*
X158579838Y-168444158D01*
X158561463Y-168469405D01*
X158556380Y-168511158D01*
X158556188Y-168550879D01*
X158687423Y-168555168D01*
X158708331Y-168555873D01*
X158761043Y-168558326D01*
X158796381Y-168562180D01*
X158820267Y-168568878D01*
X158838624Y-168579864D01*
X158857376Y-168596580D01*
X158888337Y-168635244D01*
X158911029Y-168692456D01*
X158913254Y-168731824D01*
G37*
%TD.AperFunction*%
X161330955Y-168721566D02*
X161332299Y-168750223D01*
X161332157Y-168751882D01*
X161316835Y-168816479D01*
X161282753Y-168865063D01*
X161228218Y-168900072D01*
X161200036Y-168908589D01*
X161151764Y-168915228D01*
X161098978Y-168916813D01*
X161051353Y-168913160D01*
X161018566Y-168904083D01*
X160998652Y-168896813D01*
X160979155Y-168904083D01*
X160972023Y-168908295D01*
X160943557Y-168915126D01*
X160905059Y-168917822D01*
X160844703Y-168917822D01*
X160844703Y-168702111D01*
X160983020Y-168702111D01*
X160987668Y-168738904D01*
X161006015Y-168771269D01*
X161016514Y-168778274D01*
X161053988Y-168789191D01*
X161100773Y-168791917D01*
X161146652Y-168786379D01*
X161181410Y-168772505D01*
X161198726Y-168754161D01*
X161209356Y-168721566D01*
X161199929Y-168695729D01*
X161168764Y-168673263D01*
X161118667Y-168658850D01*
X161052582Y-168653763D01*
X160983020Y-168653763D01*
X160983020Y-168702111D01*
X160844703Y-168702111D01*
X160844703Y-168674484D01*
X160844707Y-168653440D01*
X160844937Y-168574122D01*
X160845797Y-168515154D01*
X160847679Y-168472616D01*
X160850974Y-168442592D01*
X160856073Y-168421163D01*
X160863366Y-168404411D01*
X160873246Y-168388419D01*
X160905023Y-168350948D01*
X160950055Y-168322339D01*
X161009210Y-168306555D01*
X161087161Y-168301703D01*
X161089695Y-168301708D01*
X161143880Y-168304155D01*
X161192380Y-168310256D01*
X161225478Y-168318809D01*
X161234552Y-168323096D01*
X161263433Y-168341248D01*
X161289568Y-168362822D01*
X161306764Y-168382236D01*
X161308825Y-168393909D01*
X161304803Y-168397063D01*
X161260976Y-168430739D01*
X161231671Y-168450600D01*
X161212294Y-168458613D01*
X161198253Y-168456746D01*
X161184957Y-168446965D01*
X161160418Y-168434756D01*
X161119064Y-168426615D01*
X161072326Y-168424503D01*
X161030034Y-168428800D01*
X161002017Y-168439887D01*
X161000543Y-168441236D01*
X160987953Y-168466581D01*
X160983020Y-168504411D01*
X160983020Y-168553169D01*
X161099331Y-168553216D01*
X161152760Y-168554061D01*
X161197735Y-168557740D01*
X161229907Y-168565309D01*
X161255899Y-168577808D01*
X161261948Y-168581647D01*
X161305710Y-168623845D01*
X161328987Y-168679647D01*
X161330955Y-168721566D01*
%TA.AperFunction,EtchedComponent*%
G36*
X161330955Y-168721566D02*
G01*
X161332299Y-168750223D01*
X161332157Y-168751882D01*
X161316835Y-168816479D01*
X161282753Y-168865063D01*
X161228218Y-168900072D01*
X161200036Y-168908589D01*
X161151764Y-168915228D01*
X161098978Y-168916813D01*
X161051353Y-168913160D01*
X161018566Y-168904083D01*
X160998652Y-168896813D01*
X160979155Y-168904083D01*
X160972023Y-168908295D01*
X160943557Y-168915126D01*
X160905059Y-168917822D01*
X160844703Y-168917822D01*
X160844703Y-168702111D01*
X160983020Y-168702111D01*
X160987668Y-168738904D01*
X161006015Y-168771269D01*
X161016514Y-168778274D01*
X161053988Y-168789191D01*
X161100773Y-168791917D01*
X161146652Y-168786379D01*
X161181410Y-168772505D01*
X161198726Y-168754161D01*
X161209356Y-168721566D01*
X161199929Y-168695729D01*
X161168764Y-168673263D01*
X161118667Y-168658850D01*
X161052582Y-168653763D01*
X160983020Y-168653763D01*
X160983020Y-168702111D01*
X160844703Y-168702111D01*
X160844703Y-168674484D01*
X160844707Y-168653440D01*
X160844937Y-168574122D01*
X160845797Y-168515154D01*
X160847679Y-168472616D01*
X160850974Y-168442592D01*
X160856073Y-168421163D01*
X160863366Y-168404411D01*
X160873246Y-168388419D01*
X160905023Y-168350948D01*
X160950055Y-168322339D01*
X161009210Y-168306555D01*
X161087161Y-168301703D01*
X161089695Y-168301708D01*
X161143880Y-168304155D01*
X161192380Y-168310256D01*
X161225478Y-168318809D01*
X161234552Y-168323096D01*
X161263433Y-168341248D01*
X161289568Y-168362822D01*
X161306764Y-168382236D01*
X161308825Y-168393909D01*
X161304803Y-168397063D01*
X161260976Y-168430739D01*
X161231671Y-168450600D01*
X161212294Y-168458613D01*
X161198253Y-168456746D01*
X161184957Y-168446965D01*
X161160418Y-168434756D01*
X161119064Y-168426615D01*
X161072326Y-168424503D01*
X161030034Y-168428800D01*
X161002017Y-168439887D01*
X161000543Y-168441236D01*
X160987953Y-168466581D01*
X160983020Y-168504411D01*
X160983020Y-168553169D01*
X161099331Y-168553216D01*
X161152760Y-168554061D01*
X161197735Y-168557740D01*
X161229907Y-168565309D01*
X161255899Y-168577808D01*
X161261948Y-168581647D01*
X161305710Y-168623845D01*
X161328987Y-168679647D01*
X161330955Y-168721566D01*
G37*
%TD.AperFunction*%
X161900940Y-167670650D02*
X161900940Y-168919136D01*
X161834926Y-168915336D01*
X161768911Y-168911535D01*
X161765772Y-168710347D01*
X161764844Y-168661425D01*
X161762208Y-168587926D01*
X161757683Y-168533991D01*
X161750438Y-168495995D01*
X161739642Y-168470313D01*
X161724462Y-168453320D01*
X161704066Y-168441389D01*
X161665797Y-168429205D01*
X161627738Y-168433940D01*
X161587549Y-168459979D01*
X161548861Y-168492533D01*
X161548861Y-168917822D01*
X161410544Y-168917822D01*
X161410544Y-168687176D01*
X161410677Y-168614882D01*
X161411413Y-168550641D01*
X161413181Y-168503618D01*
X161416411Y-168469548D01*
X161421530Y-168444170D01*
X161428967Y-168423221D01*
X161439150Y-168402436D01*
X161441564Y-168398024D01*
X161473675Y-168355047D01*
X161511256Y-168325013D01*
X161556564Y-168309243D01*
X161616561Y-168302222D01*
X161676643Y-168306025D01*
X161725525Y-168320868D01*
X161762624Y-168340052D01*
X161762624Y-167924859D01*
X161711792Y-167951354D01*
X161690558Y-167960980D01*
X161623536Y-167974592D01*
X161556930Y-167965184D01*
X161495187Y-167933905D01*
X161442757Y-167881902D01*
X161434543Y-167869680D01*
X161426649Y-167851763D01*
X161421500Y-167827404D01*
X161418527Y-167791927D01*
X161417161Y-167740656D01*
X161416915Y-167687236D01*
X161549749Y-167687236D01*
X161549861Y-167731849D01*
X161553272Y-167761601D01*
X161560937Y-167782835D01*
X161573814Y-167801896D01*
X161590171Y-167819617D01*
X161616329Y-167833028D01*
X161655742Y-167836436D01*
X161690559Y-167833471D01*
X161725020Y-167818631D01*
X161747215Y-167788569D01*
X161759097Y-167740254D01*
X161762624Y-167670650D01*
X161761712Y-167633624D01*
X161752609Y-167563728D01*
X161733828Y-167516464D01*
X161705476Y-167492168D01*
X161676840Y-167485332D01*
X161626970Y-167488537D01*
X161584833Y-167508380D01*
X161574749Y-167517480D01*
X161564063Y-167533223D01*
X161557456Y-167556658D01*
X161553532Y-167593604D01*
X161550897Y-167649880D01*
X161549749Y-167687236D01*
X161416915Y-167687236D01*
X161416831Y-167668917D01*
X161416944Y-167636184D01*
X161418872Y-167560044D01*
X161424240Y-167503166D01*
X161434406Y-167461249D01*
X161450725Y-167429996D01*
X161474553Y-167405106D01*
X161507247Y-167382282D01*
X161533759Y-167369184D01*
X161596615Y-167354739D01*
X161662869Y-167356707D01*
X161721757Y-167375433D01*
X161747030Y-167387673D01*
X161759742Y-167388938D01*
X161762624Y-167377798D01*
X161762626Y-167377461D01*
X161768838Y-167366087D01*
X161790260Y-167360256D01*
X161831782Y-167358614D01*
X161900940Y-167358614D01*
X161900940Y-167670650D01*
%TA.AperFunction,EtchedComponent*%
G36*
X161900940Y-167670650D02*
G01*
X161900940Y-168919136D01*
X161834926Y-168915336D01*
X161768911Y-168911535D01*
X161765772Y-168710347D01*
X161764844Y-168661425D01*
X161762208Y-168587926D01*
X161757683Y-168533991D01*
X161750438Y-168495995D01*
X161739642Y-168470313D01*
X161724462Y-168453320D01*
X161704066Y-168441389D01*
X161665797Y-168429205D01*
X161627738Y-168433940D01*
X161587549Y-168459979D01*
X161548861Y-168492533D01*
X161548861Y-168917822D01*
X161410544Y-168917822D01*
X161410544Y-168687176D01*
X161410677Y-168614882D01*
X161411413Y-168550641D01*
X161413181Y-168503618D01*
X161416411Y-168469548D01*
X161421530Y-168444170D01*
X161428967Y-168423221D01*
X161439150Y-168402436D01*
X161441564Y-168398024D01*
X161473675Y-168355047D01*
X161511256Y-168325013D01*
X161556564Y-168309243D01*
X161616561Y-168302222D01*
X161676643Y-168306025D01*
X161725525Y-168320868D01*
X161762624Y-168340052D01*
X161762624Y-167924859D01*
X161711792Y-167951354D01*
X161690558Y-167960980D01*
X161623536Y-167974592D01*
X161556930Y-167965184D01*
X161495187Y-167933905D01*
X161442757Y-167881902D01*
X161434543Y-167869680D01*
X161426649Y-167851763D01*
X161421500Y-167827404D01*
X161418527Y-167791927D01*
X161417161Y-167740656D01*
X161416915Y-167687236D01*
X161549749Y-167687236D01*
X161549861Y-167731849D01*
X161553272Y-167761601D01*
X161560937Y-167782835D01*
X161573814Y-167801896D01*
X161590171Y-167819617D01*
X161616329Y-167833028D01*
X161655742Y-167836436D01*
X161690559Y-167833471D01*
X161725020Y-167818631D01*
X161747215Y-167788569D01*
X161759097Y-167740254D01*
X161762624Y-167670650D01*
X161761712Y-167633624D01*
X161752609Y-167563728D01*
X161733828Y-167516464D01*
X161705476Y-167492168D01*
X161676840Y-167485332D01*
X161626970Y-167488537D01*
X161584833Y-167508380D01*
X161574749Y-167517480D01*
X161564063Y-167533223D01*
X161557456Y-167556658D01*
X161553532Y-167593604D01*
X161550897Y-167649880D01*
X161549749Y-167687236D01*
X161416915Y-167687236D01*
X161416831Y-167668917D01*
X161416944Y-167636184D01*
X161418872Y-167560044D01*
X161424240Y-167503166D01*
X161434406Y-167461249D01*
X161450725Y-167429996D01*
X161474553Y-167405106D01*
X161507247Y-167382282D01*
X161533759Y-167369184D01*
X161596615Y-167354739D01*
X161662869Y-167356707D01*
X161721757Y-167375433D01*
X161747030Y-167387673D01*
X161759742Y-167388938D01*
X161762624Y-167377798D01*
X161762626Y-167377461D01*
X161768838Y-167366087D01*
X161790260Y-167360256D01*
X161831782Y-167358614D01*
X161900940Y-167358614D01*
X161900940Y-167670650D01*
G37*
%TD.AperFunction*%
X159989389Y-163190018D02*
X160046237Y-163491570D01*
X160256001Y-163578041D01*
X160465764Y-163664512D01*
X160717410Y-163493395D01*
X160767216Y-163459661D01*
X160833244Y-163415381D01*
X160890410Y-163377561D01*
X160935744Y-163348142D01*
X160966280Y-163329067D01*
X160979046Y-163322278D01*
X160986887Y-163327106D01*
X161010325Y-163347339D01*
X161045794Y-163380543D01*
X161090289Y-163423670D01*
X161140805Y-163473670D01*
X161194336Y-163527495D01*
X161247877Y-163582095D01*
X161298423Y-163634423D01*
X161342968Y-163681428D01*
X161378507Y-163720063D01*
X161402034Y-163747278D01*
X161410544Y-163760024D01*
X161408565Y-163765500D01*
X161394857Y-163789927D01*
X161369825Y-163830129D01*
X161335499Y-163882952D01*
X161293907Y-163945247D01*
X161247079Y-164013862D01*
X161221380Y-164051283D01*
X161177173Y-164116432D01*
X161139272Y-164173289D01*
X161109698Y-164218770D01*
X161090472Y-164249793D01*
X161083614Y-164263274D01*
X161083726Y-164264021D01*
X161089776Y-164281110D01*
X161103654Y-164316006D01*
X161123427Y-164364151D01*
X161147160Y-164420986D01*
X161172918Y-164481953D01*
X161198766Y-164542492D01*
X161222771Y-164598047D01*
X161242998Y-164644057D01*
X161257511Y-164675965D01*
X161264377Y-164689212D01*
X161268439Y-164690387D01*
X161293121Y-164695687D01*
X161337111Y-164704467D01*
X161396887Y-164716040D01*
X161468929Y-164729721D01*
X161549716Y-164744823D01*
X161592294Y-164752830D01*
X161670445Y-164768107D01*
X161738775Y-164782215D01*
X161793551Y-164794345D01*
X161831037Y-164803686D01*
X161847500Y-164809427D01*
X161850457Y-164815119D01*
X161855362Y-164842930D01*
X161859216Y-164889250D01*
X161862021Y-164949720D01*
X161863781Y-165019983D01*
X161864499Y-165095680D01*
X161864177Y-165172453D01*
X161862819Y-165245944D01*
X161860428Y-165311794D01*
X161857006Y-165365645D01*
X161852556Y-165403138D01*
X161847082Y-165419916D01*
X161843760Y-165421809D01*
X161818987Y-165429926D01*
X161776011Y-165440666D01*
X161719802Y-165452853D01*
X161655325Y-165465310D01*
X161633570Y-165469277D01*
X161533093Y-165487729D01*
X161454126Y-165502559D01*
X161393934Y-165514380D01*
X161349778Y-165523809D01*
X161318920Y-165531460D01*
X161298625Y-165537948D01*
X161286154Y-165543888D01*
X161278771Y-165549894D01*
X161277913Y-165550902D01*
X161265838Y-165571919D01*
X161247971Y-165610376D01*
X161226042Y-165661761D01*
X161201784Y-165721563D01*
X161176927Y-165785270D01*
X161153205Y-165848371D01*
X161132347Y-165906355D01*
X161116087Y-165954709D01*
X161106156Y-165988922D01*
X161104285Y-166004483D01*
X161105536Y-166006502D01*
X161118486Y-166026028D01*
X161142840Y-166062042D01*
X161176340Y-166111228D01*
X161216727Y-166170267D01*
X161261745Y-166235842D01*
X161274100Y-166253884D01*
X161317545Y-166318599D01*
X161355091Y-166376476D01*
X161384594Y-166424082D01*
X161403914Y-166457985D01*
X161410905Y-166474752D01*
X161409398Y-166479161D01*
X161393695Y-166500882D01*
X161362714Y-166536354D01*
X161318673Y-166583188D01*
X161263790Y-166638996D01*
X161200286Y-166701392D01*
X161163988Y-166736317D01*
X161106595Y-166790711D01*
X161056361Y-166837302D01*
X161015984Y-166873636D01*
X160988161Y-166897261D01*
X160975590Y-166905724D01*
X160966952Y-166902587D01*
X160940360Y-166887747D01*
X160901741Y-166863477D01*
X160856134Y-166832852D01*
X160823707Y-166810503D01*
X160758970Y-166766122D01*
X160689886Y-166718987D01*
X160626787Y-166676155D01*
X160503178Y-166592547D01*
X160399417Y-166648650D01*
X160374984Y-166661599D01*
X160330552Y-166683749D01*
X160296191Y-166699041D01*
X160277828Y-166704743D01*
X160271818Y-166697421D01*
X160256895Y-166669541D01*
X160234852Y-166623575D01*
X160206917Y-166562441D01*
X160174317Y-166489055D01*
X160138276Y-166406335D01*
X160100023Y-166317197D01*
X160060783Y-166224559D01*
X160021783Y-166131337D01*
X159984249Y-166040450D01*
X159949409Y-165954814D01*
X159918488Y-165877345D01*
X159892714Y-165810962D01*
X159873311Y-165758582D01*
X159861508Y-165723121D01*
X159858531Y-165707496D01*
X159858732Y-165707039D01*
X159872601Y-165692595D01*
X159901611Y-165669974D01*
X159939772Y-165643864D01*
X159951817Y-165635892D01*
X160043469Y-165560256D01*
X160119323Y-165470169D01*
X160177581Y-165369381D01*
X160216448Y-165261640D01*
X160234128Y-165150697D01*
X160228826Y-165040303D01*
X160207347Y-164942115D01*
X160168782Y-164842966D01*
X160112562Y-164754512D01*
X160035410Y-164670487D01*
X160005095Y-164643645D01*
X159907094Y-164577510D01*
X159801227Y-164532970D01*
X159690561Y-164509625D01*
X159578164Y-164507078D01*
X159467105Y-164524929D01*
X159360451Y-164562780D01*
X159261270Y-164620232D01*
X159172631Y-164696887D01*
X159097600Y-164792345D01*
X159083175Y-164815985D01*
X159034143Y-164924034D01*
X159008103Y-165036548D01*
X159004372Y-165150614D01*
X159022268Y-165263318D01*
X159061109Y-165371745D01*
X159120214Y-165472982D01*
X159198900Y-165564114D01*
X159296485Y-165642228D01*
X159299654Y-165644333D01*
X159337411Y-165670940D01*
X159365709Y-165693561D01*
X159378634Y-165707496D01*
X159377003Y-165718421D01*
X159366864Y-165750231D01*
X159348884Y-165799534D01*
X159324292Y-165863413D01*
X159294311Y-165938948D01*
X159260170Y-166023223D01*
X159223092Y-166113320D01*
X159184306Y-166206321D01*
X159145036Y-166299308D01*
X159106509Y-166389364D01*
X159069950Y-166473571D01*
X159036586Y-166549010D01*
X159007643Y-166612765D01*
X158984346Y-166661917D01*
X158967923Y-166693549D01*
X158959598Y-166704743D01*
X158952674Y-166703227D01*
X158925477Y-166692331D01*
X158885280Y-166673228D01*
X158838009Y-166648650D01*
X158734248Y-166592547D01*
X158610639Y-166676155D01*
X158574120Y-166700913D01*
X158506194Y-166747171D01*
X158438475Y-166793503D01*
X158381291Y-166832852D01*
X158349732Y-166854297D01*
X158308714Y-166880939D01*
X158278301Y-166899178D01*
X158263446Y-166905941D01*
X158257065Y-166903070D01*
X158233996Y-166885485D01*
X158198433Y-166854523D01*
X158153471Y-166813231D01*
X158102206Y-166764653D01*
X158047733Y-166711835D01*
X157993148Y-166657823D01*
X157941547Y-166605661D01*
X157896024Y-166558396D01*
X157859675Y-166519072D01*
X157835595Y-166490736D01*
X157826881Y-166476432D01*
X157827383Y-166473711D01*
X157837755Y-166451560D01*
X157859912Y-166413235D01*
X157891712Y-166362200D01*
X157931016Y-166301914D01*
X157975681Y-166235842D01*
X157988207Y-166217617D01*
X158032193Y-166153485D01*
X158070937Y-166096789D01*
X158102182Y-166050844D01*
X158123669Y-166018970D01*
X158133140Y-166004483D01*
X158133373Y-166003862D01*
X158130578Y-165986139D01*
X158119903Y-165950235D01*
X158103081Y-165900662D01*
X158081843Y-165841932D01*
X158057921Y-165778556D01*
X158033046Y-165715046D01*
X158008950Y-165655913D01*
X157987365Y-165605669D01*
X157970023Y-165568826D01*
X157958655Y-165549894D01*
X157957516Y-165548719D01*
X157949376Y-165542773D01*
X157935629Y-165536776D01*
X157913537Y-165530114D01*
X157880363Y-165522173D01*
X157833370Y-165512337D01*
X157769820Y-165499991D01*
X157686976Y-165484520D01*
X157582100Y-165465310D01*
X157560348Y-165461267D01*
X157498036Y-165448769D01*
X157445619Y-165436927D01*
X157408066Y-165426917D01*
X157390343Y-165419916D01*
X157387378Y-165414075D01*
X157382435Y-165386016D01*
X157378518Y-165339500D01*
X157375629Y-165278886D01*
X157373773Y-165208532D01*
X157372952Y-165132796D01*
X157373168Y-165056037D01*
X157374426Y-164982612D01*
X157376728Y-164916880D01*
X157380076Y-164863200D01*
X157384474Y-164825930D01*
X157389926Y-164809427D01*
X157395491Y-164806989D01*
X157423178Y-164799305D01*
X157469979Y-164788436D01*
X157532157Y-164775192D01*
X157605979Y-164760384D01*
X157687710Y-164744823D01*
X157732336Y-164736509D01*
X157808824Y-164722092D01*
X157874660Y-164709467D01*
X157926323Y-164699321D01*
X157960293Y-164692341D01*
X157973048Y-164689212D01*
X157973528Y-164688568D01*
X157981651Y-164672181D01*
X157997137Y-164637852D01*
X158018050Y-164590136D01*
X158042455Y-164533586D01*
X158068416Y-164472758D01*
X158093997Y-164412206D01*
X158117262Y-164356485D01*
X158136277Y-164310150D01*
X158149105Y-164277755D01*
X158153812Y-164263855D01*
X158151736Y-164258965D01*
X158137920Y-164235692D01*
X158112860Y-164196519D01*
X158078568Y-164144520D01*
X158037059Y-164082768D01*
X157990346Y-164014336D01*
X157964718Y-163976860D01*
X157920490Y-163911156D01*
X157882570Y-163853492D01*
X157852980Y-163807014D01*
X157833743Y-163774865D01*
X157826881Y-163760190D01*
X157831649Y-163752230D01*
X157851593Y-163728446D01*
X157884313Y-163692451D01*
X157926805Y-163647295D01*
X157976065Y-163596028D01*
X158029091Y-163541701D01*
X158082877Y-163487364D01*
X158134421Y-163436067D01*
X158180720Y-163390859D01*
X158218769Y-163354792D01*
X158245565Y-163330914D01*
X158258105Y-163322278D01*
X158265066Y-163325636D01*
X158290627Y-163341210D01*
X158331874Y-163367715D01*
X158385837Y-163403210D01*
X158449542Y-163445750D01*
X158520016Y-163493395D01*
X158771662Y-163664512D01*
X159191188Y-163491570D01*
X159248036Y-163190018D01*
X159304885Y-162888466D01*
X159932540Y-162888466D01*
X159989389Y-163190018D01*
%TA.AperFunction,EtchedComponent*%
G36*
X159989389Y-163190018D02*
G01*
X160046237Y-163491570D01*
X160256001Y-163578041D01*
X160465764Y-163664512D01*
X160717410Y-163493395D01*
X160767216Y-163459661D01*
X160833244Y-163415381D01*
X160890410Y-163377561D01*
X160935744Y-163348142D01*
X160966280Y-163329067D01*
X160979046Y-163322278D01*
X160986887Y-163327106D01*
X161010325Y-163347339D01*
X161045794Y-163380543D01*
X161090289Y-163423670D01*
X161140805Y-163473670D01*
X161194336Y-163527495D01*
X161247877Y-163582095D01*
X161298423Y-163634423D01*
X161342968Y-163681428D01*
X161378507Y-163720063D01*
X161402034Y-163747278D01*
X161410544Y-163760024D01*
X161408565Y-163765500D01*
X161394857Y-163789927D01*
X161369825Y-163830129D01*
X161335499Y-163882952D01*
X161293907Y-163945247D01*
X161247079Y-164013862D01*
X161221380Y-164051283D01*
X161177173Y-164116432D01*
X161139272Y-164173289D01*
X161109698Y-164218770D01*
X161090472Y-164249793D01*
X161083614Y-164263274D01*
X161083726Y-164264021D01*
X161089776Y-164281110D01*
X161103654Y-164316006D01*
X161123427Y-164364151D01*
X161147160Y-164420986D01*
X161172918Y-164481953D01*
X161198766Y-164542492D01*
X161222771Y-164598047D01*
X161242998Y-164644057D01*
X161257511Y-164675965D01*
X161264377Y-164689212D01*
X161268439Y-164690387D01*
X161293121Y-164695687D01*
X161337111Y-164704467D01*
X161396887Y-164716040D01*
X161468929Y-164729721D01*
X161549716Y-164744823D01*
X161592294Y-164752830D01*
X161670445Y-164768107D01*
X161738775Y-164782215D01*
X161793551Y-164794345D01*
X161831037Y-164803686D01*
X161847500Y-164809427D01*
X161850457Y-164815119D01*
X161855362Y-164842930D01*
X161859216Y-164889250D01*
X161862021Y-164949720D01*
X161863781Y-165019983D01*
X161864499Y-165095680D01*
X161864177Y-165172453D01*
X161862819Y-165245944D01*
X161860428Y-165311794D01*
X161857006Y-165365645D01*
X161852556Y-165403138D01*
X161847082Y-165419916D01*
X161843760Y-165421809D01*
X161818987Y-165429926D01*
X161776011Y-165440666D01*
X161719802Y-165452853D01*
X161655325Y-165465310D01*
X161633570Y-165469277D01*
X161533093Y-165487729D01*
X161454126Y-165502559D01*
X161393934Y-165514380D01*
X161349778Y-165523809D01*
X161318920Y-165531460D01*
X161298625Y-165537948D01*
X161286154Y-165543888D01*
X161278771Y-165549894D01*
X161277913Y-165550902D01*
X161265838Y-165571919D01*
X161247971Y-165610376D01*
X161226042Y-165661761D01*
X161201784Y-165721563D01*
X161176927Y-165785270D01*
X161153205Y-165848371D01*
X161132347Y-165906355D01*
X161116087Y-165954709D01*
X161106156Y-165988922D01*
X161104285Y-166004483D01*
X161105536Y-166006502D01*
X161118486Y-166026028D01*
X161142840Y-166062042D01*
X161176340Y-166111228D01*
X161216727Y-166170267D01*
X161261745Y-166235842D01*
X161274100Y-166253884D01*
X161317545Y-166318599D01*
X161355091Y-166376476D01*
X161384594Y-166424082D01*
X161403914Y-166457985D01*
X161410905Y-166474752D01*
X161409398Y-166479161D01*
X161393695Y-166500882D01*
X161362714Y-166536354D01*
X161318673Y-166583188D01*
X161263790Y-166638996D01*
X161200286Y-166701392D01*
X161163988Y-166736317D01*
X161106595Y-166790711D01*
X161056361Y-166837302D01*
X161015984Y-166873636D01*
X160988161Y-166897261D01*
X160975590Y-166905724D01*
X160966952Y-166902587D01*
X160940360Y-166887747D01*
X160901741Y-166863477D01*
X160856134Y-166832852D01*
X160823707Y-166810503D01*
X160758970Y-166766122D01*
X160689886Y-166718987D01*
X160626787Y-166676155D01*
X160503178Y-166592547D01*
X160399417Y-166648650D01*
X160374984Y-166661599D01*
X160330552Y-166683749D01*
X160296191Y-166699041D01*
X160277828Y-166704743D01*
X160271818Y-166697421D01*
X160256895Y-166669541D01*
X160234852Y-166623575D01*
X160206917Y-166562441D01*
X160174317Y-166489055D01*
X160138276Y-166406335D01*
X160100023Y-166317197D01*
X160060783Y-166224559D01*
X160021783Y-166131337D01*
X159984249Y-166040450D01*
X159949409Y-165954814D01*
X159918488Y-165877345D01*
X159892714Y-165810962D01*
X159873311Y-165758582D01*
X159861508Y-165723121D01*
X159858531Y-165707496D01*
X159858732Y-165707039D01*
X159872601Y-165692595D01*
X159901611Y-165669974D01*
X159939772Y-165643864D01*
X159951817Y-165635892D01*
X160043469Y-165560256D01*
X160119323Y-165470169D01*
X160177581Y-165369381D01*
X160216448Y-165261640D01*
X160234128Y-165150697D01*
X160228826Y-165040303D01*
X160207347Y-164942115D01*
X160168782Y-164842966D01*
X160112562Y-164754512D01*
X160035410Y-164670487D01*
X160005095Y-164643645D01*
X159907094Y-164577510D01*
X159801227Y-164532970D01*
X159690561Y-164509625D01*
X159578164Y-164507078D01*
X159467105Y-164524929D01*
X159360451Y-164562780D01*
X159261270Y-164620232D01*
X159172631Y-164696887D01*
X159097600Y-164792345D01*
X159083175Y-164815985D01*
X159034143Y-164924034D01*
X159008103Y-165036548D01*
X159004372Y-165150614D01*
X159022268Y-165263318D01*
X159061109Y-165371745D01*
X159120214Y-165472982D01*
X159198900Y-165564114D01*
X159296485Y-165642228D01*
X159299654Y-165644333D01*
X159337411Y-165670940D01*
X159365709Y-165693561D01*
X159378634Y-165707496D01*
X159377003Y-165718421D01*
X159366864Y-165750231D01*
X159348884Y-165799534D01*
X159324292Y-165863413D01*
X159294311Y-165938948D01*
X159260170Y-166023223D01*
X159223092Y-166113320D01*
X159184306Y-166206321D01*
X159145036Y-166299308D01*
X159106509Y-166389364D01*
X159069950Y-166473571D01*
X159036586Y-166549010D01*
X159007643Y-166612765D01*
X158984346Y-166661917D01*
X158967923Y-166693549D01*
X158959598Y-166704743D01*
X158952674Y-166703227D01*
X158925477Y-166692331D01*
X158885280Y-166673228D01*
X158838009Y-166648650D01*
X158734248Y-166592547D01*
X158610639Y-166676155D01*
X158574120Y-166700913D01*
X158506194Y-166747171D01*
X158438475Y-166793503D01*
X158381291Y-166832852D01*
X158349732Y-166854297D01*
X158308714Y-166880939D01*
X158278301Y-166899178D01*
X158263446Y-166905941D01*
X158257065Y-166903070D01*
X158233996Y-166885485D01*
X158198433Y-166854523D01*
X158153471Y-166813231D01*
X158102206Y-166764653D01*
X158047733Y-166711835D01*
X157993148Y-166657823D01*
X157941547Y-166605661D01*
X157896024Y-166558396D01*
X157859675Y-166519072D01*
X157835595Y-166490736D01*
X157826881Y-166476432D01*
X157827383Y-166473711D01*
X157837755Y-166451560D01*
X157859912Y-166413235D01*
X157891712Y-166362200D01*
X157931016Y-166301914D01*
X157975681Y-166235842D01*
X157988207Y-166217617D01*
X158032193Y-166153485D01*
X158070937Y-166096789D01*
X158102182Y-166050844D01*
X158123669Y-166018970D01*
X158133140Y-166004483D01*
X158133373Y-166003862D01*
X158130578Y-165986139D01*
X158119903Y-165950235D01*
X158103081Y-165900662D01*
X158081843Y-165841932D01*
X158057921Y-165778556D01*
X158033046Y-165715046D01*
X158008950Y-165655913D01*
X157987365Y-165605669D01*
X157970023Y-165568826D01*
X157958655Y-165549894D01*
X157957516Y-165548719D01*
X157949376Y-165542773D01*
X157935629Y-165536776D01*
X157913537Y-165530114D01*
X157880363Y-165522173D01*
X157833370Y-165512337D01*
X157769820Y-165499991D01*
X157686976Y-165484520D01*
X157582100Y-165465310D01*
X157560348Y-165461267D01*
X157498036Y-165448769D01*
X157445619Y-165436927D01*
X157408066Y-165426917D01*
X157390343Y-165419916D01*
X157387378Y-165414075D01*
X157382435Y-165386016D01*
X157378518Y-165339500D01*
X157375629Y-165278886D01*
X157373773Y-165208532D01*
X157372952Y-165132796D01*
X157373168Y-165056037D01*
X157374426Y-164982612D01*
X157376728Y-164916880D01*
X157380076Y-164863200D01*
X157384474Y-164825930D01*
X157389926Y-164809427D01*
X157395491Y-164806989D01*
X157423178Y-164799305D01*
X157469979Y-164788436D01*
X157532157Y-164775192D01*
X157605979Y-164760384D01*
X157687710Y-164744823D01*
X157732336Y-164736509D01*
X157808824Y-164722092D01*
X157874660Y-164709467D01*
X157926323Y-164699321D01*
X157960293Y-164692341D01*
X157973048Y-164689212D01*
X157973528Y-164688568D01*
X157981651Y-164672181D01*
X157997137Y-164637852D01*
X158018050Y-164590136D01*
X158042455Y-164533586D01*
X158068416Y-164472758D01*
X158093997Y-164412206D01*
X158117262Y-164356485D01*
X158136277Y-164310150D01*
X158149105Y-164277755D01*
X158153812Y-164263855D01*
X158151736Y-164258965D01*
X158137920Y-164235692D01*
X158112860Y-164196519D01*
X158078568Y-164144520D01*
X158037059Y-164082768D01*
X157990346Y-164014336D01*
X157964718Y-163976860D01*
X157920490Y-163911156D01*
X157882570Y-163853492D01*
X157852980Y-163807014D01*
X157833743Y-163774865D01*
X157826881Y-163760190D01*
X157831649Y-163752230D01*
X157851593Y-163728446D01*
X157884313Y-163692451D01*
X157926805Y-163647295D01*
X157976065Y-163596028D01*
X158029091Y-163541701D01*
X158082877Y-163487364D01*
X158134421Y-163436067D01*
X158180720Y-163390859D01*
X158218769Y-163354792D01*
X158245565Y-163330914D01*
X158258105Y-163322278D01*
X158265066Y-163325636D01*
X158290627Y-163341210D01*
X158331874Y-163367715D01*
X158385837Y-163403210D01*
X158449542Y-163445750D01*
X158520016Y-163493395D01*
X158771662Y-163664512D01*
X159191188Y-163491570D01*
X159248036Y-163190018D01*
X159304885Y-162888466D01*
X159932540Y-162888466D01*
X159989389Y-163190018D01*
G37*
%TD.AperFunction*%
%TA.AperFunction,EtchedComponent*%
%TO.C,NT1*%
G36*
X186300000Y-141000000D02*
G01*
X182300000Y-141000000D01*
X182300000Y-139000000D01*
X186300000Y-139000000D01*
X186300000Y-141000000D01*
G37*
%TD.AperFunction*%
%TD*%
D11*
%TO.P,U28,1*%
%TO.N,unconnected-(U28-Pad1)*%
X245900000Y-108565000D03*
%TD*%
D12*
%TO.P,U22,1,-*%
%TO.N,GND*%
X225975000Y-106150000D03*
D13*
%TO.P,U22,2,+*%
%TO.N,Net-(U22-+)*%
X225975000Y-111150000D03*
%TD*%
D12*
%TO.P,U17,1,-*%
%TO.N,GND*%
X225975000Y-174150000D03*
D13*
%TO.P,U17,2,+*%
%TO.N,Net-(U17-+)*%
X225975000Y-169150000D03*
%TD*%
D12*
%TO.P,U20,1,-*%
%TO.N,GND*%
X205200000Y-106150000D03*
D13*
%TO.P,U20,2,+*%
%TO.N,Net-(U20-+)*%
X205200000Y-111150000D03*
%TD*%
D12*
%TO.P,U23,1,-*%
%TO.N,GND*%
X246450000Y-174175000D03*
D13*
%TO.P,U23,2,+*%
%TO.N,Net-(U23-+)*%
X246450000Y-169175000D03*
%TD*%
D14*
%TO.P,C5,1*%
%TO.N,+BATT*%
X189900000Y-148500000D03*
%TO.P,C5,2*%
%TO.N,GND*%
X189950000Y-153500000D03*
%TD*%
D12*
%TO.P,U18,1,-*%
%TO.N,GND*%
X215525000Y-174150000D03*
D13*
%TO.P,U18,2,+*%
%TO.N,Net-(U18-+)*%
X215525000Y-169150000D03*
%TD*%
D15*
%TO.P,U16,*%
%TO.N,*%
X165770000Y-121460000D03*
X165770000Y-102560000D03*
D16*
%TO.P,U16,1,-*%
%TO.N,GND*%
X175170000Y-117460000D03*
D17*
%TO.P,U16,2,+*%
%TO.N,BATT_2_PWR*%
X175170000Y-106560000D03*
%TD*%
D11*
%TO.P,U27,1*%
%TO.N,unconnected-(U27-Pad1)*%
X245900000Y-156825000D03*
%TD*%
D12*
%TO.P,U24,1,-*%
%TO.N,GND*%
X236727500Y-106150000D03*
D13*
%TO.P,U24,2,+*%
%TO.N,Net-(U24-+)*%
X236727500Y-111150000D03*
%TD*%
D12*
%TO.P,U25,1,-*%
%TO.N,GND*%
X236725000Y-174125000D03*
D13*
%TO.P,U25,2,+*%
%TO.N,Net-(U25-+)*%
X236725000Y-169125000D03*
%TD*%
D18*
%TO.P,U10,S1,SHIELD*%
%TO.N,GNDD*%
X157805000Y-147330000D03*
D19*
X153625000Y-147330000D03*
D18*
X157805000Y-155970000D03*
D19*
X153625000Y-155970000D03*
%TD*%
D15*
%TO.P,U15,*%
%TO.N,*%
X165770000Y-177390000D03*
X165770000Y-158490000D03*
D16*
%TO.P,U15,1,-*%
%TO.N,GND*%
X175170000Y-173390000D03*
D17*
%TO.P,U15,2,+*%
%TO.N,BATT_1_PWR*%
X175170000Y-162490000D03*
%TD*%
D12*
%TO.P,U19,1,-*%
%TO.N,GND*%
X205200000Y-174150000D03*
D13*
%TO.P,U19,2,+*%
%TO.N,Net-(U19-+)*%
X205200000Y-169150000D03*
%TD*%
D11*
%TO.P,U7,1*%
%TO.N,unconnected-(U7-Pad1)*%
X194525000Y-175600000D03*
%TD*%
D12*
%TO.P,U21,1,-*%
%TO.N,GND*%
X215525000Y-106150000D03*
D13*
%TO.P,U21,2,+*%
%TO.N,Net-(U21-+)*%
X215525000Y-111150000D03*
%TD*%
D20*
%TO.P,SP1,1,+*%
%TO.N,Net-(SP1-+)*%
X189300000Y-128550000D03*
D21*
%TO.P,SP1,2,-*%
%TO.N,Net-(Q7-D)*%
X181700000Y-128550000D03*
%TD*%
D11*
%TO.P,U8,1*%
%TO.N,unconnected-(U8-Pad1)*%
X194525000Y-118450000D03*
%TD*%
D22*
%TO.P,R50,1*%
%TO.N,Net-(U42-A+)*%
X176770000Y-149010000D03*
%TO.P,R50,2*%
%TO.N,GNDD*%
X176770000Y-150710000D03*
%TD*%
D23*
%TO.P,TP11,1*%
%TO.N,/batt_ctl/BATT_1_CTL*%
X165299239Y-146400761D03*
%TD*%
D24*
%TO.P,J4,*%
%TO.N,*%
X152262500Y-154475000D03*
X152262500Y-148875000D03*
D25*
%TO.P,J4,1*%
%TO.N,Net-(J4-Pad1)*%
X156137500Y-153175000D03*
%TO.P,J4,2*%
%TO.N,GNDD*%
X156137500Y-152175000D03*
%TO.P,J4,3*%
%TO.N,/A0_SENSE*%
X156137500Y-151175000D03*
%TO.P,J4,4*%
%TO.N,unconnected-(J4-Pad4)*%
X156137500Y-150175000D03*
%TD*%
D26*
%TO.P,U32,1,-*%
%TO.N,GND*%
X207750000Y-161875000D03*
%TO.P,U32,2,+*%
%TO.N,+BATT*%
X202750000Y-161875000D03*
%TD*%
D27*
%TO.P,R99,1*%
%TO.N,Net-(U42-A-)*%
X176890000Y-147730000D03*
%TO.P,R99,2*%
%TO.N,GNDD*%
X175190000Y-147730000D03*
%TD*%
D26*
%TO.P,U26,1,-*%
%TO.N,GND*%
X218150000Y-118325000D03*
%TO.P,U26,2,+*%
%TO.N,+BATT*%
X213150000Y-118325000D03*
%TD*%
%TO.P,U38,1,-*%
%TO.N,GND*%
X228475000Y-118350000D03*
%TO.P,U38,2,+*%
%TO.N,+BATT*%
X223475000Y-118350000D03*
%TD*%
D28*
%TO.P,U42,1,A*%
%TO.N,/batt_ctl/BATT_1_INT*%
X182142500Y-150190000D03*
%TO.P,U42,2,A-*%
%TO.N,Net-(U42-A-)*%
X180872500Y-150190000D03*
%TO.P,U42,3,A+*%
%TO.N,Net-(U42-A+)*%
X179602500Y-150190000D03*
%TO.P,U42,4,V-*%
%TO.N,GNDD*%
X178332500Y-150190000D03*
%TO.P,U42,5,B+*%
%TO.N,Net-(U42-B+)*%
X178332500Y-145240000D03*
%TO.P,U42,6,B-*%
%TO.N,Net-(U42-A-)*%
X179602500Y-145240000D03*
%TO.P,U42,7,B*%
%TO.N,/batt_ctl/BATT_2_INT*%
X180872500Y-145240000D03*
%TO.P,U42,8,V+*%
%TO.N,+3V3*%
X182142500Y-145240000D03*
%TD*%
D29*
%TO.P,JP2,1,1*%
%TO.N,+3V3*%
X158900000Y-153100000D03*
D30*
%TO.P,JP2,2,2*%
%TO.N,Net-(J4-Pad1)*%
X158900000Y-151800000D03*
D31*
%TO.P,JP2,3,3*%
%TO.N,5V_1*%
X158900000Y-150500000D03*
%TD*%
D23*
%TO.P,TP21,1*%
%TO.N,/batt_ctl/BATT_1_INT*%
X181825000Y-152900000D03*
%TD*%
%TO.P,TP13,1*%
%TO.N,GNDD*%
X163200000Y-138850000D03*
%TD*%
D32*
%TO.P,NT1,1*%
%TO.N,GNDD*%
X182300000Y-140000000D03*
%TO.P,NT1,2*%
%TO.N,GND*%
X186300000Y-140000000D03*
%TD*%
D23*
%TO.P,TP5,1*%
%TO.N,/MOSI*%
X153560000Y-116570000D03*
%TD*%
%TO.P,TP6,1*%
%TO.N,/SCK*%
X153560000Y-118770000D03*
%TD*%
%TO.P,TP22,1*%
%TO.N,/batt_ctl/BATT_2_INT*%
X181875000Y-142675000D03*
%TD*%
%TO.P,TP4,1*%
%TO.N,/batt_ctl/BATT_1_CURR*%
X171974239Y-146400761D03*
%TD*%
D26*
%TO.P,U35,1,-*%
%TO.N,GND*%
X228475000Y-161900000D03*
%TO.P,U35,2,+*%
%TO.N,+BATT*%
X223475000Y-161900000D03*
%TD*%
D22*
%TO.P,R27,1*%
%TO.N,Net-(U42-A+)*%
X175400000Y-149010000D03*
%TO.P,R27,2*%
%TO.N,BATT_1_PWR*%
X175400000Y-150710000D03*
%TD*%
D24*
%TO.P,J3,*%
%TO.N,*%
X152262500Y-146050000D03*
X152262500Y-140450000D03*
D25*
%TO.P,J3,1*%
%TO.N,Net-(J3-Pad1)*%
X156137500Y-144750000D03*
%TO.P,J3,2*%
%TO.N,GNDD*%
X156137500Y-143750000D03*
%TO.P,J3,3*%
%TO.N,/A5_SENSE*%
X156137500Y-142750000D03*
%TO.P,J3,4*%
%TO.N,unconnected-(J3-Pad4)*%
X156137500Y-141750000D03*
%TD*%
D23*
%TO.P,TP7,1*%
%TO.N,/A0_SENSE*%
X171980000Y-149720000D03*
%TD*%
%TO.P,TP9,1*%
%TO.N,/MISO*%
X153570000Y-121060000D03*
%TD*%
D26*
%TO.P,U39,1,-*%
%TO.N,GND*%
X239350000Y-118350000D03*
%TO.P,U39,2,+*%
%TO.N,+BATT*%
X234350000Y-118350000D03*
%TD*%
D23*
%TO.P,TP12,1*%
%TO.N,/batt_ctl/BATT_2_CURR*%
X169149239Y-144000761D03*
%TD*%
%TO.P,TP3,1*%
%TO.N,/batt_ctl/BATT_1_VSENSE*%
X169149239Y-146400761D03*
%TD*%
%TO.P,TP14,1*%
%TO.N,/batt_ctl/BATT_2_CTL*%
X165299239Y-144000761D03*
%TD*%
D33*
%TO.P,R96,1*%
%TO.N,Net-(U42-A-)*%
X176780000Y-146400000D03*
%TO.P,R96,2*%
%TO.N,+3V3*%
X176780000Y-144700000D03*
%TD*%
%TO.P,R11,1*%
%TO.N,Net-(U42-B+)*%
X173980000Y-146390000D03*
%TO.P,R11,2*%
%TO.N,BATT_2_PWR*%
X173980000Y-144690000D03*
%TD*%
D26*
%TO.P,U33,1,-*%
%TO.N,GND*%
X239150000Y-161900000D03*
%TO.P,U33,2,+*%
%TO.N,+BATT*%
X234150000Y-161900000D03*
%TD*%
D22*
%TO.P,R26,1*%
%TO.N,Net-(U42-B+)*%
X175382500Y-144700000D03*
%TO.P,R26,2*%
%TO.N,GNDD*%
X175382500Y-146400000D03*
%TD*%
D23*
%TO.P,TP10,1*%
%TO.N,/SD_CS*%
X153560000Y-114370000D03*
%TD*%
D26*
%TO.P,U36,1,-*%
%TO.N,GND*%
X218100000Y-161875000D03*
%TO.P,U36,2,+*%
%TO.N,+BATT*%
X213100000Y-161875000D03*
%TD*%
D23*
%TO.P,TP15,1*%
%TO.N,/A5_SENSE*%
X165324239Y-148800761D03*
%TD*%
%TO.P,TP16,1*%
%TO.N,GND*%
X187500000Y-140000000D03*
%TD*%
D24*
%TO.P,J6,*%
%TO.N,*%
X152287500Y-138050000D03*
X152287500Y-132450000D03*
D25*
%TO.P,J6,1*%
%TO.N,GNDD*%
X156162500Y-136750000D03*
%TO.P,J6,2*%
%TO.N,+3V3*%
X156162500Y-135750000D03*
%TO.P,J6,3*%
%TO.N,/SDA*%
X156162500Y-134750000D03*
%TO.P,J6,4*%
%TO.N,/SCL*%
X156162500Y-133750000D03*
%TD*%
D26*
%TO.P,U37,1,-*%
%TO.N,GND*%
X207725000Y-118325000D03*
%TO.P,U37,2,+*%
%TO.N,+BATT*%
X202725000Y-118325000D03*
%TD*%
D29*
%TO.P,JP1,1,1*%
%TO.N,+3V3*%
X158875000Y-144700000D03*
D30*
%TO.P,JP1,2,2*%
%TO.N,Net-(J3-Pad1)*%
X158875000Y-143400000D03*
D31*
%TO.P,JP1,3,3*%
%TO.N,5V_1*%
X158875000Y-142100000D03*
%TD*%
D23*
%TO.P,TP8,1*%
%TO.N,/batt_ctl/BATT_2_VSENSE*%
X171999239Y-144025761D03*
%TD*%
D24*
%TO.P,J5,*%
%TO.N,*%
X152237500Y-129600000D03*
X152237500Y-124000000D03*
D25*
%TO.P,J5,1*%
%TO.N,GNDD*%
X156112500Y-128300000D03*
%TO.P,J5,2*%
%TO.N,+3V3*%
X156112500Y-127300000D03*
%TO.P,J5,3*%
%TO.N,/SDA*%
X156112500Y-126300000D03*
%TO.P,J5,4*%
%TO.N,/SCL*%
X156112500Y-125300000D03*
%TD*%
D34*
%TO.N,3-3V_1*%
X228661625Y-152248250D03*
X222712125Y-157990000D03*
D35*
%TO.N,GNDD*%
X168850000Y-125350000D03*
X159750000Y-154450000D03*
X178680000Y-147230000D03*
X166424739Y-141251261D03*
X174798766Y-156932706D03*
X182125000Y-140000000D03*
X170050500Y-151375000D03*
X180300000Y-146940000D03*
X174060000Y-142520000D03*
X155050000Y-152175000D03*
X176490000Y-150930000D03*
X165824739Y-150699239D03*
X179550000Y-155050761D03*
X153612002Y-146050000D03*
X158250000Y-145580500D03*
X157280347Y-126747147D03*
X175390000Y-145874500D03*
X161625000Y-157100000D03*
D34*
X174475000Y-127850000D03*
D35*
X174510000Y-147900000D03*
X162700000Y-124125000D03*
X174937315Y-143853163D03*
X181275000Y-140000000D03*
X178775975Y-123598249D03*
X151925000Y-126725000D03*
D34*
X175725000Y-133100000D03*
D35*
X181860000Y-140640000D03*
X167125000Y-136600000D03*
X162207830Y-153854119D03*
X172400000Y-152280000D03*
X154800000Y-143525000D03*
X181890000Y-139360000D03*
X164575000Y-137475000D03*
X156162500Y-137387500D03*
X159275000Y-147750000D03*
X172400500Y-153650000D03*
%TO.N,+3V3*%
X182010000Y-146640000D03*
X151480500Y-131375000D03*
X174050000Y-156899500D03*
X163625000Y-157100000D03*
X160150000Y-140625000D03*
X160436043Y-152461043D03*
X162550000Y-150400000D03*
X178110000Y-143700000D03*
D36*
X180150000Y-152375000D03*
D35*
X159200000Y-124125000D03*
X160900000Y-154325000D03*
X156128768Y-127019502D03*
X156250000Y-138175000D03*
X157962000Y-144372157D03*
X179525000Y-123625000D03*
X154649500Y-141925000D03*
X172375000Y-155475000D03*
D36*
X179275000Y-152375000D03*
D34*
X178075000Y-135250000D03*
D35*
X167120000Y-138410000D03*
X172400000Y-147850263D03*
X170099138Y-153490000D03*
X157067243Y-141027974D03*
%TO.N,+BATT*%
X203630000Y-120035000D03*
X223155000Y-116540000D03*
X233210000Y-120085000D03*
X194475000Y-102050000D03*
X198675000Y-105075000D03*
X201680000Y-118635000D03*
X197275000Y-104375000D03*
X233110000Y-162805000D03*
X223135000Y-160720000D03*
X203100000Y-160850000D03*
X223760000Y-161420000D03*
X212090000Y-162140000D03*
X198675000Y-108800000D03*
X224410000Y-162845000D03*
X196575000Y-103700000D03*
X195175000Y-111050000D03*
X224480000Y-115840000D03*
X199375000Y-104425000D03*
X223035000Y-164245000D03*
X208175000Y-136375000D03*
X197450000Y-160825000D03*
X203655000Y-119335000D03*
X203725000Y-162250000D03*
X233160000Y-160680000D03*
X190575000Y-111050000D03*
X189250000Y-111050000D03*
X199550000Y-158875000D03*
X226450000Y-136350000D03*
X198675000Y-104400000D03*
X223705000Y-120065000D03*
X197975000Y-104400000D03*
X233935000Y-117960000D03*
X201750000Y-161550000D03*
X194000000Y-157900000D03*
X199375000Y-103100000D03*
X201630000Y-120035000D03*
X214125000Y-117210000D03*
X223080000Y-119365000D03*
X194500000Y-111050000D03*
X227150000Y-134225000D03*
X200075000Y-104450000D03*
X197275000Y-103050000D03*
X224455000Y-117240000D03*
X195150000Y-102050000D03*
X199550000Y-159550000D03*
X213375000Y-120035000D03*
X202330000Y-119335000D03*
X223105000Y-117940000D03*
X223730000Y-119365000D03*
X196750000Y-163850000D03*
X214115000Y-161440000D03*
X214090000Y-162140000D03*
X214100000Y-118635000D03*
X235310000Y-115860000D03*
X226425000Y-134925000D03*
X233310000Y-116560000D03*
X197450000Y-165200000D03*
X203005000Y-117910000D03*
X234535000Y-120085000D03*
X202380000Y-117210000D03*
X202400000Y-162250000D03*
X212065000Y-163565000D03*
X227200000Y-136350000D03*
X198850000Y-160850000D03*
X201700000Y-163675000D03*
X194650000Y-157900000D03*
X200250000Y-158900000D03*
X222480000Y-115840000D03*
X234435000Y-162805000D03*
X214040000Y-164265000D03*
X222460000Y-160720000D03*
X244800000Y-136325000D03*
X234585000Y-118685000D03*
X235135000Y-161380000D03*
X213465000Y-160040000D03*
X196575000Y-108750000D03*
X198150000Y-160175000D03*
X198850000Y-165900000D03*
X214100000Y-117910000D03*
X197450000Y-164550000D03*
X197275000Y-110100000D03*
X233810000Y-161380000D03*
X223735000Y-162845000D03*
X222435000Y-161420000D03*
X233285000Y-117260000D03*
X212815000Y-160740000D03*
X244775000Y-134900000D03*
X195325000Y-166875000D03*
X234410000Y-163505000D03*
X212150000Y-116510000D03*
X212115000Y-161440000D03*
X212750000Y-119335000D03*
X235100000Y-138950000D03*
X227175000Y-134925000D03*
X193325000Y-166875000D03*
X223735000Y-162120000D03*
X233985000Y-115860000D03*
X202980000Y-119335000D03*
X203000000Y-164375000D03*
X224380000Y-120065000D03*
X224430000Y-118665000D03*
X196750000Y-165850000D03*
X198675000Y-110125000D03*
X245550000Y-136325000D03*
X235210000Y-120085000D03*
X223710000Y-163545000D03*
X235310000Y-116560000D03*
X203100000Y-160150000D03*
X197275000Y-108775000D03*
X214075000Y-119335000D03*
X233110000Y-162080000D03*
X235075000Y-138250000D03*
X202405000Y-116510000D03*
D34*
X220050000Y-154925000D03*
D35*
X198850000Y-165225000D03*
X196925000Y-136700000D03*
X212815000Y-160040000D03*
X190700000Y-166875000D03*
X203055000Y-115810000D03*
X233885000Y-120085000D03*
X222380000Y-120065000D03*
X197675000Y-138125000D03*
X203775000Y-160850000D03*
X189925000Y-111050000D03*
X212090000Y-162865000D03*
X201705000Y-117210000D03*
X198675000Y-103075000D03*
X222430000Y-118665000D03*
X203050000Y-162250000D03*
X234435000Y-162080000D03*
X226450000Y-135650000D03*
X190700000Y-157900000D03*
X223755000Y-117940000D03*
X245525000Y-135625000D03*
X196750000Y-158800000D03*
X202405000Y-115810000D03*
X200250000Y-164625000D03*
X198150000Y-160850000D03*
X212825000Y-116510000D03*
X200075000Y-103125000D03*
X196750000Y-160800000D03*
X233760000Y-163505000D03*
X201680000Y-117910000D03*
X187075000Y-143950000D03*
X196750000Y-159475000D03*
X194650000Y-166875000D03*
X193150000Y-102050000D03*
X244800000Y-135625000D03*
X201730000Y-115810000D03*
X201730000Y-116510000D03*
X216500000Y-136675000D03*
X197650000Y-136700000D03*
X224405000Y-119365000D03*
X223755000Y-118665000D03*
X202305000Y-120035000D03*
X199375000Y-109475000D03*
X233835000Y-159980000D03*
X234325000Y-137525000D03*
X213415000Y-162140000D03*
X198675000Y-109450000D03*
X203675000Y-164375000D03*
X233785000Y-162805000D03*
X196575000Y-108075000D03*
X224430000Y-117940000D03*
X201775000Y-160850000D03*
X212740000Y-163565000D03*
X202355000Y-118635000D03*
X202955000Y-120035000D03*
X235085000Y-163505000D03*
X189925000Y-102050000D03*
X191375000Y-157900000D03*
X235235000Y-119385000D03*
X212125000Y-117210000D03*
X235050000Y-136825000D03*
X198150000Y-158850000D03*
X197450000Y-160150000D03*
X196750000Y-165175000D03*
X196575000Y-104350000D03*
X224480000Y-116540000D03*
X214050000Y-120035000D03*
X202400000Y-162975000D03*
X213390000Y-163565000D03*
X190050000Y-157900000D03*
X197975000Y-105075000D03*
X234350000Y-138950000D03*
X194000000Y-166875000D03*
X196950000Y-138825000D03*
X203750000Y-161550000D03*
X200250000Y-159575000D03*
X222430000Y-117940000D03*
X203025000Y-163675000D03*
X223130000Y-117240000D03*
X234635000Y-115860000D03*
X233160000Y-159980000D03*
X233260000Y-117960000D03*
X224360000Y-164245000D03*
X196575000Y-109400000D03*
X214090000Y-162865000D03*
X196950000Y-138125000D03*
X222360000Y-164245000D03*
X223785000Y-160020000D03*
X224460000Y-160020000D03*
X212765000Y-162140000D03*
X198675000Y-103750000D03*
X223685000Y-164245000D03*
X203055000Y-116510000D03*
X214150000Y-115810000D03*
X200250000Y-160900000D03*
X235160000Y-159980000D03*
X235060000Y-164205000D03*
X234485000Y-160680000D03*
X201655000Y-119335000D03*
X214140000Y-160040000D03*
X224385000Y-163545000D03*
X226425000Y-134225000D03*
X193175000Y-111050000D03*
X197275000Y-103725000D03*
X203005000Y-118635000D03*
X200250000Y-160225000D03*
X222385000Y-163545000D03*
X233235000Y-119385000D03*
D34*
X228836625Y-154973250D03*
D35*
X197975000Y-103750000D03*
X234385000Y-164205000D03*
X191375000Y-166875000D03*
X223780000Y-117240000D03*
X223055000Y-120065000D03*
X200075000Y-108175000D03*
X215775000Y-137375000D03*
X203680000Y-118635000D03*
X222480000Y-116540000D03*
X208150000Y-135675000D03*
X200250000Y-165275000D03*
X201725000Y-162250000D03*
X234610000Y-117260000D03*
X198850000Y-158850000D03*
X234585000Y-117960000D03*
X203775000Y-160150000D03*
X208150000Y-134950000D03*
X197450000Y-158825000D03*
X202350000Y-164375000D03*
X207400000Y-134950000D03*
X190575000Y-102050000D03*
X233135000Y-161380000D03*
X213415000Y-162865000D03*
X193325000Y-157900000D03*
X233960000Y-117260000D03*
X207425000Y-135675000D03*
X214150000Y-116510000D03*
X224435000Y-161420000D03*
X200075000Y-109500000D03*
X212825000Y-115810000D03*
X212050000Y-120035000D03*
X212040000Y-164265000D03*
X223085000Y-162120000D03*
X203725000Y-162975000D03*
X203680000Y-117910000D03*
X201775000Y-160150000D03*
X223110000Y-161420000D03*
X196575000Y-105025000D03*
X233310000Y-115860000D03*
X222410000Y-162120000D03*
X195325000Y-157900000D03*
X234635000Y-116560000D03*
X212100000Y-118635000D03*
X196925000Y-137400000D03*
X207400000Y-134250000D03*
X203050000Y-162975000D03*
X212100000Y-117910000D03*
X215800000Y-138800000D03*
X212075000Y-119335000D03*
X198850000Y-164575000D03*
X197275000Y-105050000D03*
X213475000Y-116510000D03*
X223085000Y-162845000D03*
X212775000Y-117910000D03*
X233260000Y-118685000D03*
X191250000Y-102050000D03*
X216525000Y-137375000D03*
X222455000Y-117240000D03*
X212800000Y-117210000D03*
X216550000Y-138800000D03*
X212765000Y-162865000D03*
X199550000Y-165925000D03*
X193825000Y-102050000D03*
X189250000Y-102050000D03*
X203030000Y-117210000D03*
X203730000Y-115810000D03*
X213450000Y-117210000D03*
X224460000Y-160720000D03*
X233985000Y-116560000D03*
X200075000Y-108850000D03*
X212790000Y-161440000D03*
X214140000Y-160740000D03*
X213440000Y-161440000D03*
X203705000Y-117210000D03*
X223785000Y-160720000D03*
X203700000Y-163675000D03*
X216525000Y-138100000D03*
X223105000Y-118665000D03*
X233060000Y-164205000D03*
X212140000Y-160740000D03*
X203730000Y-116510000D03*
X198850000Y-159525000D03*
X245500000Y-134200000D03*
X190050000Y-166875000D03*
X213475000Y-115810000D03*
X199550000Y-163925000D03*
D34*
X211075000Y-154900000D03*
D35*
X198850000Y-160175000D03*
X193850000Y-111050000D03*
X199550000Y-164600000D03*
X207425000Y-136375000D03*
X213425000Y-117910000D03*
X199375000Y-108150000D03*
X202450000Y-160150000D03*
X202375000Y-163675000D03*
X197275000Y-108100000D03*
X202450000Y-160850000D03*
X196575000Y-110075000D03*
X203075000Y-161550000D03*
X200075000Y-110175000D03*
X233735000Y-164205000D03*
X189375000Y-166875000D03*
X197450000Y-163875000D03*
X234560000Y-119385000D03*
X208125000Y-134250000D03*
X213400000Y-119335000D03*
X199375000Y-110150000D03*
X197975000Y-103075000D03*
X235075000Y-137525000D03*
X199375000Y-108825000D03*
X197450000Y-165875000D03*
X191250000Y-111050000D03*
X235260000Y-117960000D03*
X223805000Y-116540000D03*
X198150000Y-159525000D03*
X201675000Y-164375000D03*
X244775000Y-134200000D03*
X212140000Y-160040000D03*
X202425000Y-161550000D03*
X212775000Y-118635000D03*
X235160000Y-160680000D03*
X234350000Y-138250000D03*
X234460000Y-161380000D03*
X222410000Y-162845000D03*
X198675000Y-108125000D03*
X198850000Y-163900000D03*
X197450000Y-159500000D03*
X215775000Y-136675000D03*
X234325000Y-136825000D03*
X199550000Y-160875000D03*
X199550000Y-165250000D03*
X213365000Y-164265000D03*
X227175000Y-135650000D03*
X196750000Y-164525000D03*
X199550000Y-160200000D03*
X200250000Y-165950000D03*
X197700000Y-138825000D03*
X234485000Y-159980000D03*
X233085000Y-163505000D03*
X233910000Y-119385000D03*
X201725000Y-162975000D03*
X199375000Y-103775000D03*
X233835000Y-160680000D03*
X233935000Y-118685000D03*
X212715000Y-164265000D03*
X235110000Y-162805000D03*
X235285000Y-117260000D03*
X202355000Y-117910000D03*
X189375000Y-157900000D03*
X212150000Y-115810000D03*
X223060000Y-163545000D03*
X212725000Y-120035000D03*
X197275000Y-109425000D03*
X196575000Y-103025000D03*
X223135000Y-160020000D03*
X199375000Y-105100000D03*
X245525000Y-134900000D03*
X235260000Y-118685000D03*
X200075000Y-105125000D03*
X197675000Y-137400000D03*
X222405000Y-119365000D03*
X235110000Y-162080000D03*
X213465000Y-160740000D03*
X233785000Y-162080000D03*
X224410000Y-162120000D03*
X223155000Y-115840000D03*
X223805000Y-115840000D03*
X222460000Y-160020000D03*
X214065000Y-163565000D03*
X200250000Y-163950000D03*
X196750000Y-160125000D03*
X213425000Y-118635000D03*
X215800000Y-138100000D03*
X200075000Y-103800000D03*
D34*
%TO.N,3-3V_2*%
X213800500Y-157930000D03*
X219775000Y-152175000D03*
%TO.N,3-3V_3*%
X210825000Y-152125000D03*
X204750500Y-157860000D03*
D37*
%TO.N,5V_3*%
X229575000Y-123750000D03*
X230325000Y-136400000D03*
%TO.N,12V_3*%
X245180000Y-147030000D03*
X243875000Y-152425000D03*
%TO.N,12V_2*%
X236050000Y-123875000D03*
X243025000Y-120260000D03*
D35*
%TO.N,/batt_ctl/BATT_2_CURR*%
X170561117Y-145126261D03*
X180225000Y-141375000D03*
%TO.N,/batt_ctl/BATT_1_INT*%
X173829500Y-148710000D03*
%TO.N,/batt_ctl/BATT_1_VSENSE*%
X170524737Y-146275761D03*
%TO.N,/batt_ctl/BATT_1_CURR*%
X172425000Y-157675000D03*
X171675000Y-145700261D03*
%TO.N,/batt_ctl/BATT_2_VSENSE*%
X170598741Y-143802417D03*
%TO.N,/A0_SENSE*%
X170511739Y-148688261D03*
%TO.N,/MOSI*%
X164075819Y-141779998D03*
X165973739Y-141954441D03*
X151710000Y-116660000D03*
%TO.N,/SCK*%
X151780000Y-118780000D03*
%TO.N,/MISO*%
X165716770Y-140979304D03*
X164824739Y-141750500D03*
X151880500Y-120930000D03*
%TO.N,/SD_CS*%
X151770000Y-114540000D03*
%TO.N,/BUZZER*%
X175120000Y-123920000D03*
X161297486Y-141009952D03*
%TO.N,/batt_ctl/BATT_1_CTL*%
X165525000Y-155950500D03*
X161855609Y-144863706D03*
%TO.N,/batt_ctl/BATT_2_CTL*%
X161775000Y-142150500D03*
X161800000Y-144075000D03*
X189030000Y-118120000D03*
%TO.N,/SDA*%
X234970000Y-152024500D03*
X158825000Y-139938033D03*
X152189929Y-143728315D03*
%TO.N,/SCL*%
X158825000Y-140750500D03*
X233870000Y-151974500D03*
X152125000Y-144475000D03*
%TO.N,/SWCLK*%
X167808458Y-151203133D03*
X175800000Y-140901261D03*
%TO.N,/SWDIO*%
X168625000Y-151095261D03*
X176950000Y-141225000D03*
%TO.N,/A5_SENSE*%
X169386061Y-150525826D03*
%TO.N,BATT_1_PWR*%
X179925000Y-162050000D03*
X181450000Y-163625000D03*
X182250000Y-163625000D03*
X179900000Y-162825000D03*
X179950000Y-161250000D03*
X182300000Y-161250000D03*
X182250000Y-162825000D03*
X183050000Y-162825000D03*
X183100000Y-161250000D03*
X181450000Y-164525000D03*
X183075000Y-162050000D03*
X183050000Y-164525000D03*
X179900000Y-164525000D03*
X182250000Y-164525000D03*
X179900000Y-163625000D03*
X181450000Y-162825000D03*
X180750000Y-161250000D03*
X183050000Y-163625000D03*
D34*
X168660000Y-162670000D03*
D35*
X180700000Y-163625000D03*
X182275000Y-162050000D03*
X181500000Y-161250000D03*
X180725000Y-162050000D03*
X180700000Y-164525000D03*
X180700000Y-162825000D03*
X175420000Y-150075498D03*
X181475000Y-162050000D03*
%TO.N,BATT_2_PWR*%
X183100000Y-107000000D03*
X173980000Y-143965500D03*
X180775000Y-107800000D03*
X181550000Y-105425000D03*
X181550000Y-107000000D03*
X180775000Y-108600000D03*
X180000000Y-106225000D03*
X182325000Y-107800000D03*
X183100000Y-107800000D03*
X180000000Y-105425000D03*
X182325000Y-105425000D03*
X180000000Y-107800000D03*
D34*
X168780000Y-106760000D03*
D35*
X182325000Y-107000000D03*
X180775000Y-106225000D03*
X181550000Y-107800000D03*
X182325000Y-106225000D03*
X182325000Y-108600000D03*
X183100000Y-108600000D03*
X181550000Y-106225000D03*
X180000000Y-108600000D03*
X180775000Y-105425000D03*
X180775000Y-107000000D03*
X183100000Y-105425000D03*
X183100000Y-106225000D03*
X180000000Y-107000000D03*
X181550000Y-108600000D03*
%TO.N,Net-(Q3-G)*%
X192700000Y-158875000D03*
X197725000Y-168300000D03*
%TO.N,Net-(Q4-G)*%
X194925000Y-168300000D03*
X188530000Y-158825000D03*
%TO.N,Net-(Q5-G)*%
X192973466Y-168814796D03*
X191800000Y-165925000D03*
%TO.N,Net-(Q6-G)*%
X196325000Y-168300000D03*
X195925000Y-165925000D03*
%TO.N,Net-(Q9-G)*%
X196225000Y-112175000D03*
X195725000Y-110100000D03*
%TO.N,Net-(Q10-D)*%
X184850000Y-106225000D03*
X187150000Y-107725000D03*
X185625000Y-105450000D03*
X184825000Y-107000000D03*
X184825000Y-108475000D03*
X187950000Y-106225000D03*
X185600000Y-107725000D03*
X187175000Y-105450000D03*
X186375000Y-107725000D03*
X185625000Y-106225000D03*
X187150000Y-108475000D03*
X187150000Y-107000000D03*
X184825000Y-107725000D03*
X185600000Y-107000000D03*
X187925000Y-107000000D03*
X187175000Y-106225000D03*
X186375000Y-108475000D03*
X186400000Y-105450000D03*
X186400000Y-106225000D03*
X187950000Y-105450000D03*
X186375000Y-107000000D03*
X187925000Y-108475000D03*
X185600000Y-108475000D03*
X187925000Y-107725000D03*
X184850000Y-105450000D03*
%TO.N,GND*%
X229460000Y-161420000D03*
X228830000Y-115840000D03*
X223950000Y-130430000D03*
X206700000Y-164375000D03*
X208225000Y-157500000D03*
X217740000Y-164265000D03*
X208005000Y-119335000D03*
X227505000Y-115840000D03*
X232019500Y-155999500D03*
X208125000Y-160850000D03*
X217800000Y-117910000D03*
X229455000Y-118665000D03*
X239610000Y-118685000D03*
X217800000Y-118635000D03*
X235747500Y-141030000D03*
X201072500Y-140915000D03*
X228160000Y-160720000D03*
X228830000Y-116540000D03*
X196000000Y-122275000D03*
X229480000Y-117240000D03*
X207430000Y-116510000D03*
X206730000Y-117210000D03*
X217175000Y-158200000D03*
X217840000Y-160740000D03*
X220925000Y-122150000D03*
X207380000Y-118635000D03*
X239560000Y-120085000D03*
X228780000Y-117940000D03*
X227435000Y-162120000D03*
X225386625Y-158148250D03*
X238810000Y-162805000D03*
X218440000Y-162865000D03*
X246700000Y-134750000D03*
X243250000Y-130410000D03*
X239610000Y-117960000D03*
X238860000Y-160680000D03*
X206697500Y-130440000D03*
X233125000Y-139400000D03*
X239010000Y-116560000D03*
X219175000Y-115810000D03*
X239410000Y-164205000D03*
X228730000Y-120065000D03*
X238085000Y-164205000D03*
X208075000Y-162250000D03*
X242300000Y-132110000D03*
X239660000Y-115860000D03*
X236597500Y-142730000D03*
X240285000Y-117960000D03*
X236750000Y-122050000D03*
X218400000Y-120035000D03*
X208705000Y-117910000D03*
X239510000Y-159980000D03*
X208755000Y-115810000D03*
X239660000Y-116560000D03*
X238447500Y-141855000D03*
X204897500Y-130440000D03*
X238135000Y-162080000D03*
X237547500Y-141030000D03*
X200172500Y-140940000D03*
X218500000Y-115810000D03*
X208030000Y-117910000D03*
X228180000Y-115840000D03*
X208705000Y-118635000D03*
X242275000Y-130410000D03*
X238472500Y-142705000D03*
X237547500Y-141880000D03*
X207475000Y-160150000D03*
X227405000Y-120065000D03*
X240085000Y-164205000D03*
X221525000Y-150850000D03*
X219050000Y-142610000D03*
X217125000Y-118635000D03*
X206750000Y-162250000D03*
X218465000Y-161440000D03*
X198372500Y-140940000D03*
X217175000Y-157500000D03*
X238110000Y-163505000D03*
X217775000Y-119335000D03*
X242675000Y-150975000D03*
X207400000Y-163675000D03*
X229435000Y-162845000D03*
X241400000Y-132135000D03*
X187080000Y-142450000D03*
X238960000Y-117960000D03*
X187325000Y-140025000D03*
X217790000Y-162140000D03*
X186650000Y-102675000D03*
X228130000Y-117940000D03*
X218100000Y-122150000D03*
X228080000Y-120065000D03*
X217790000Y-162865000D03*
X204125000Y-122300000D03*
X204022500Y-131315000D03*
X208775000Y-161550000D03*
X246700000Y-135725000D03*
X238260000Y-119385000D03*
X208680000Y-119335000D03*
X204922500Y-131290000D03*
X209375000Y-136625000D03*
X208755000Y-116510000D03*
X206800000Y-160150000D03*
X218050000Y-141760000D03*
X204922500Y-132140000D03*
X216475000Y-158200000D03*
X227435000Y-162845000D03*
X228325000Y-135775000D03*
X219950000Y-142585000D03*
X227385000Y-164245000D03*
X224686625Y-157448250D03*
X200197500Y-142640000D03*
X215775000Y-157500000D03*
X233100000Y-136700000D03*
X240110000Y-163505000D03*
X205925000Y-150850000D03*
D34*
X213300000Y-152175000D03*
D35*
X196975000Y-122275000D03*
X240260000Y-119385000D03*
X219115000Y-162865000D03*
X195850000Y-136625000D03*
X247350000Y-151000000D03*
X214650000Y-136475000D03*
X217815000Y-161440000D03*
X206800000Y-160850000D03*
X207425000Y-162975000D03*
X208700000Y-164375000D03*
X239450000Y-122025000D03*
X219075000Y-120035000D03*
X186650000Y-158425000D03*
X240285000Y-118685000D03*
X228710000Y-164245000D03*
X238285000Y-117960000D03*
X200172500Y-141790000D03*
X229435000Y-162120000D03*
X218415000Y-163565000D03*
X244100000Y-132110000D03*
X207375000Y-164375000D03*
X209375000Y-135800000D03*
X228810000Y-160720000D03*
X207525000Y-157500000D03*
X239975000Y-151000000D03*
X228780000Y-118665000D03*
X199197500Y-140940000D03*
X233100000Y-137525000D03*
X245550000Y-151000000D03*
X239435000Y-163505000D03*
X201425000Y-122325000D03*
X219925000Y-140885000D03*
X208025000Y-164375000D03*
X228130000Y-118665000D03*
X206655000Y-120035000D03*
X240310000Y-117260000D03*
X239585000Y-119385000D03*
X238910000Y-120085000D03*
X217125000Y-117910000D03*
X195875000Y-139325000D03*
X217075000Y-120035000D03*
X217275000Y-122150000D03*
X241850000Y-150975000D03*
X203300000Y-122300000D03*
X208800000Y-160850000D03*
X203225000Y-150875000D03*
X228810000Y-160020000D03*
X207475000Y-160850000D03*
X207525000Y-158200000D03*
X228325000Y-133975000D03*
X238810000Y-162080000D03*
X240185000Y-160680000D03*
X239635000Y-117260000D03*
X218075000Y-142610000D03*
X186780000Y-139370000D03*
D34*
X204375000Y-152125000D03*
D35*
X229405000Y-120065000D03*
X207975000Y-150850000D03*
X219140000Y-161440000D03*
X228085000Y-163545000D03*
X215775000Y-158200000D03*
X217165000Y-160740000D03*
X238935000Y-119385000D03*
X217840000Y-160040000D03*
X219025000Y-141760000D03*
X218500000Y-116510000D03*
X238285000Y-118685000D03*
X227480000Y-117240000D03*
X238985000Y-117260000D03*
X229410000Y-163545000D03*
X246700000Y-133925000D03*
X217225000Y-141760000D03*
X228180000Y-116540000D03*
X217225000Y-140910000D03*
X229505000Y-115840000D03*
X222425000Y-150825000D03*
X244100000Y-131260000D03*
X228760000Y-162120000D03*
X239485000Y-161380000D03*
X203997500Y-130465000D03*
X229455000Y-117940000D03*
D34*
X169160000Y-174530000D03*
D35*
X206825000Y-158200000D03*
X218490000Y-160740000D03*
X240875000Y-150975000D03*
X206722500Y-132140000D03*
X219115000Y-162140000D03*
X238235000Y-120085000D03*
X225775000Y-131280000D03*
X227455000Y-118665000D03*
X208075000Y-162975000D03*
X218450000Y-117910000D03*
D34*
X168930000Y-117540000D03*
D35*
X235772500Y-142730000D03*
X219125000Y-118635000D03*
X227460000Y-161420000D03*
X238135000Y-162805000D03*
X207355000Y-119335000D03*
X238860000Y-159980000D03*
X198397500Y-142640000D03*
X208655000Y-120035000D03*
X227410000Y-163545000D03*
X232900000Y-122100000D03*
X208800000Y-160150000D03*
X219065000Y-164265000D03*
X207425000Y-162250000D03*
X228755000Y-119365000D03*
X227505000Y-116540000D03*
X218425000Y-119335000D03*
X186770000Y-140670000D03*
X223050000Y-130455000D03*
X206750000Y-162975000D03*
D34*
X222161625Y-152223250D03*
D35*
X238960000Y-118685000D03*
X238310000Y-117260000D03*
X235600000Y-122075000D03*
X208055000Y-117210000D03*
X205100000Y-150850000D03*
X227455000Y-117940000D03*
X229485000Y-160720000D03*
X204125000Y-150850000D03*
X246525000Y-151000000D03*
X242300000Y-131260000D03*
X240185000Y-159980000D03*
X227430000Y-119365000D03*
X228135000Y-161420000D03*
X217115000Y-162140000D03*
X217750000Y-120035000D03*
X206825000Y-157500000D03*
X240135000Y-162805000D03*
X197800000Y-122275000D03*
X206755000Y-116510000D03*
X228160000Y-160020000D03*
X244075000Y-130410000D03*
X239460000Y-162080000D03*
X205897500Y-132140000D03*
X240235000Y-120085000D03*
X219175000Y-116510000D03*
X218490000Y-160040000D03*
X217165000Y-160040000D03*
X225750000Y-130430000D03*
X227485000Y-160720000D03*
X239010000Y-115860000D03*
X241375000Y-130435000D03*
X208080000Y-115810000D03*
X219165000Y-160740000D03*
X228625000Y-150725000D03*
X206722500Y-131290000D03*
X240335000Y-115860000D03*
X214675000Y-139175000D03*
X224950000Y-132130000D03*
X207980000Y-120035000D03*
X201097500Y-142615000D03*
X217175000Y-116510000D03*
X238835000Y-161380000D03*
X218050000Y-140910000D03*
X225386625Y-157448250D03*
X225775000Y-132130000D03*
X208730000Y-117210000D03*
X240335000Y-116560000D03*
X241400000Y-131285000D03*
X229505000Y-116540000D03*
X219150000Y-117210000D03*
X239460000Y-162805000D03*
X240160000Y-161380000D03*
X209775000Y-150850000D03*
X236572500Y-141880000D03*
X246725000Y-136625000D03*
X224686625Y-158148250D03*
X208750000Y-162975000D03*
X238185000Y-160680000D03*
X219100000Y-119335000D03*
X218475000Y-117210000D03*
X214650000Y-138275000D03*
X216300000Y-122150000D03*
X236572500Y-141030000D03*
X208125000Y-160150000D03*
X223075000Y-131305000D03*
X217090000Y-163565000D03*
X227800000Y-150725000D03*
X233800000Y-122075000D03*
X206705000Y-118635000D03*
X217765000Y-163565000D03*
X207380000Y-117910000D03*
X218450000Y-118635000D03*
X229430000Y-119365000D03*
X218390000Y-164265000D03*
X217850000Y-115810000D03*
X208725000Y-163675000D03*
X219165000Y-160040000D03*
X206705000Y-117910000D03*
X228105000Y-119365000D03*
X206725000Y-163675000D03*
X220025000Y-122175000D03*
X218440000Y-162140000D03*
X239510000Y-160680000D03*
X208030000Y-118635000D03*
X238625000Y-122025000D03*
X219925000Y-141735000D03*
X217115000Y-162865000D03*
X238447500Y-141005000D03*
X207330000Y-120035000D03*
X226086625Y-158148250D03*
X238335000Y-115860000D03*
X219125000Y-117910000D03*
X244650000Y-151025000D03*
X229385000Y-164245000D03*
X240135000Y-162080000D03*
X228110000Y-162845000D03*
X223975000Y-131280000D03*
X234775000Y-122075000D03*
X186475000Y-140025000D03*
X217850000Y-116510000D03*
X222725000Y-122150000D03*
X207450000Y-161550000D03*
X202325000Y-122300000D03*
X195100000Y-122300000D03*
X215400000Y-122175000D03*
X208050000Y-163675000D03*
X209375000Y-134825000D03*
X204022500Y-132165000D03*
X219090000Y-163565000D03*
X208225000Y-158200000D03*
X207405000Y-117210000D03*
X208950000Y-150850000D03*
X238335000Y-116560000D03*
X243275000Y-131260000D03*
X228110000Y-162120000D03*
X221900000Y-122150000D03*
X195850000Y-138425000D03*
X217065000Y-164265000D03*
X228735000Y-163545000D03*
X228060000Y-164245000D03*
X228325000Y-134800000D03*
X238760000Y-164205000D03*
X207075000Y-150875000D03*
X208100000Y-161550000D03*
X229485000Y-160020000D03*
X217250000Y-142610000D03*
X209350000Y-133925000D03*
X233100000Y-138500000D03*
X238160000Y-161380000D03*
X201072500Y-141765000D03*
X219025000Y-140910000D03*
X199222500Y-142640000D03*
X217825000Y-117210000D03*
X214650000Y-137300000D03*
X217140000Y-161440000D03*
X205872500Y-130440000D03*
X217100000Y-119335000D03*
X228155000Y-117240000D03*
X207430000Y-115810000D03*
X228785000Y-161420000D03*
X195850000Y-137450000D03*
X228350000Y-136675000D03*
X217175000Y-115810000D03*
X225925000Y-150750000D03*
D34*
X245075498Y-164175000D03*
D35*
X205897500Y-131290000D03*
X208080000Y-116510000D03*
X206755000Y-115810000D03*
X206680000Y-119335000D03*
X227485000Y-160020000D03*
X237650000Y-122025000D03*
X198372500Y-141790000D03*
X226086625Y-157448250D03*
X228760000Y-162845000D03*
X228805000Y-117240000D03*
X224950000Y-131280000D03*
X208750000Y-162250000D03*
X206775000Y-161550000D03*
X224925000Y-130430000D03*
X216475000Y-157500000D03*
X199197500Y-141790000D03*
X238785000Y-163505000D03*
X243275000Y-132110000D03*
X237572500Y-142730000D03*
X217150000Y-117210000D03*
X223075000Y-132155000D03*
X223975000Y-132130000D03*
X235747500Y-141880000D03*
X223400000Y-150825000D03*
X224225000Y-150825000D03*
X226825000Y-150725000D03*
X238185000Y-159980000D03*
%TO.N,Net-(Q10-G)*%
X191800000Y-110125000D03*
X192830983Y-112768517D03*
%TO.N,Net-(Q11-G)*%
X194249500Y-112800000D03*
X188550000Y-103025000D03*
%TO.N,Net-(Q12-G)*%
X192600000Y-103025000D03*
X197625000Y-112175000D03*
D37*
%TO.N,5V_1*%
X199025000Y-120475000D03*
D34*
X191330000Y-138010000D03*
D37*
X199000000Y-124000000D03*
%TO.N,12V_1*%
X245925000Y-160400000D03*
X216600000Y-126800000D03*
D35*
%TO.N,/batt_ctl/BATT_2_INT*%
X170560000Y-142520000D03*
%TO.N,Net-(Q3-D)*%
X188150000Y-162900000D03*
X184850000Y-164500000D03*
X185675000Y-164500000D03*
X186550000Y-161300000D03*
X185700000Y-163675000D03*
X184875000Y-162900000D03*
X186525000Y-162900000D03*
X186525000Y-162100000D03*
X187350000Y-162100000D03*
X187375000Y-161300000D03*
X188150000Y-163675000D03*
X184875000Y-162100000D03*
X185725000Y-161300000D03*
X187350000Y-162900000D03*
X187350000Y-163675000D03*
X188175000Y-161300000D03*
X184900000Y-161300000D03*
X186525000Y-163675000D03*
X185700000Y-162900000D03*
X186500000Y-164500000D03*
X188125000Y-164500000D03*
X185700000Y-162100000D03*
X187325000Y-164500000D03*
X184875000Y-163675000D03*
X188150000Y-162100000D03*
%TO.N,Net-(Q1-G)*%
X189890000Y-173280000D03*
X189890000Y-169170000D03*
%TO.N,Net-(Q2-G)*%
X189800000Y-113080000D03*
X189800000Y-117080000D03*
%TD*%
D38*
%TO.N,3-3V_1*%
X226536625Y-152198250D02*
X222710000Y-156024875D01*
X228611625Y-152198250D02*
X226536625Y-152198250D01*
X222710000Y-156024875D02*
X222710000Y-157987875D01*
X228661625Y-152248250D02*
X228611625Y-152198250D01*
X222710000Y-157987875D02*
X222712125Y-157990000D01*
D39*
%TO.N,GNDD*%
X175190000Y-147730000D02*
X174680000Y-147730000D01*
X175382500Y-145882000D02*
X175390000Y-145874500D01*
X182125000Y-140000000D02*
X182125000Y-140375000D01*
X155025000Y-143750000D02*
X156137500Y-143750000D01*
X182300000Y-140000000D02*
X182175000Y-140000000D01*
X157280347Y-126747147D02*
X157280347Y-127869653D01*
X182300000Y-140000000D02*
X182125000Y-140000000D01*
X182300000Y-140025000D02*
X182150000Y-140025000D01*
X175382500Y-146400000D02*
X175382500Y-145882000D01*
X182300000Y-140000000D02*
X181275000Y-140000000D01*
X154800000Y-143525000D02*
X155025000Y-143750000D01*
X182125000Y-140375000D02*
X181860000Y-140640000D01*
X157280347Y-127869653D02*
X156850000Y-128300000D01*
X156162500Y-137387500D02*
X156162500Y-136750000D01*
X182150000Y-140025000D02*
X182125000Y-140000000D01*
X156850000Y-128300000D02*
X156112500Y-128300000D01*
X163200000Y-138850000D02*
X164575000Y-137475000D01*
X156137500Y-152175000D02*
X155050000Y-152175000D01*
X177230000Y-150190000D02*
X178332500Y-150190000D01*
X176490000Y-150930000D02*
X177230000Y-150190000D01*
X174680000Y-147730000D02*
X174510000Y-147900000D01*
%TO.N,+3V3*%
X177740000Y-143700000D02*
X178110000Y-143700000D01*
X182142500Y-145240000D02*
X182142500Y-146507500D01*
X182142500Y-146507500D02*
X182010000Y-146640000D01*
X159925000Y-152575000D02*
X159425000Y-152575000D01*
X176780000Y-144660000D02*
X177740000Y-143700000D01*
X156112500Y-127035770D02*
X156112500Y-127300000D01*
X157962000Y-144372157D02*
X158289843Y-144700000D01*
X160436043Y-152461043D02*
X160038957Y-152461043D01*
X157182500Y-137242500D02*
X157182500Y-136205000D01*
X176780000Y-144700000D02*
X176780000Y-144660000D01*
X158289843Y-144700000D02*
X158875000Y-144700000D01*
X156128768Y-127019502D02*
X156112500Y-127035770D01*
X156727500Y-135750000D02*
X156162500Y-135750000D01*
X160038957Y-152461043D02*
X159925000Y-152575000D01*
X156250000Y-138175000D02*
X157182500Y-137242500D01*
X157182500Y-136205000D02*
X156727500Y-135750000D01*
X159425000Y-152575000D02*
X158900000Y-153100000D01*
D38*
%TO.N,3-3V_2*%
X213800000Y-156050000D02*
X213800000Y-157929500D01*
X217675000Y-152175000D02*
X213800000Y-156050000D01*
X213800000Y-157929500D02*
X213800500Y-157930000D01*
X219775000Y-152175000D02*
X217675000Y-152175000D01*
%TO.N,3-3V_3*%
X208650000Y-152125000D02*
X204760000Y-156015000D01*
X210825000Y-152125000D02*
X208650000Y-152125000D01*
X204760000Y-157850500D02*
X204750500Y-157860000D01*
X204760000Y-156015000D02*
X204760000Y-157850500D01*
D40*
%TO.N,5V_3*%
X229575000Y-123750000D02*
X229575000Y-135650000D01*
X229575000Y-135650000D02*
X230325000Y-136400000D01*
%TO.N,12V_3*%
X243700000Y-152250000D02*
X243875000Y-152425000D01*
X245180000Y-147030000D02*
X243700000Y-148510000D01*
X243700000Y-148510000D02*
X243700000Y-152250000D01*
%TO.N,12V_2*%
X241525000Y-124075000D02*
X243025000Y-122575000D01*
X236050000Y-123875000D02*
X236250000Y-124075000D01*
X243025000Y-122575000D02*
X243025000Y-120260000D01*
X236250000Y-124075000D02*
X241525000Y-124075000D01*
D39*
%TO.N,/batt_ctl/BATT_2_CURR*%
X179724239Y-141875761D02*
X169864239Y-141875761D01*
X169864239Y-141875761D02*
X169149239Y-142590761D01*
X170561117Y-145126261D02*
X170159054Y-145126261D01*
X169074239Y-144041446D02*
X169074239Y-143975000D01*
X170159054Y-145126261D02*
X169074239Y-144041446D01*
X169149239Y-142590761D02*
X169149239Y-144000761D01*
X180225000Y-141375000D02*
X179724239Y-141875761D01*
%TO.N,/batt_ctl/BATT_1_INT*%
X173829500Y-150278041D02*
X175071459Y-151520000D01*
X181825000Y-151520000D02*
X181960000Y-151520000D01*
X173829500Y-148710000D02*
X173829500Y-150278041D01*
X181825000Y-152900000D02*
X181825000Y-151520000D01*
X181960000Y-151520000D02*
X182180000Y-151300000D01*
X182180000Y-151300000D02*
X182180000Y-150110000D01*
X175071459Y-151520000D02*
X181825000Y-151520000D01*
%TO.N,/batt_ctl/BATT_1_VSENSE*%
X170524737Y-146275761D02*
X169524239Y-146275761D01*
%TO.N,/batt_ctl/BATT_1_CURR*%
X173250000Y-156850000D02*
X173250000Y-151000000D01*
X173255000Y-150995000D02*
X173255000Y-147675000D01*
X173250000Y-151000000D02*
X173255000Y-150995000D01*
X173255000Y-147675000D02*
X171955000Y-146375000D01*
X172425000Y-157675000D02*
X173250000Y-156850000D01*
%TO.N,/batt_ctl/BATT_2_VSENSE*%
X170598741Y-143802417D02*
X171777417Y-143802417D01*
%TO.N,/A0_SENSE*%
X170625000Y-149740000D02*
X170625000Y-152100000D01*
X154475000Y-153100000D02*
X154475000Y-151750000D01*
X154475000Y-151750000D02*
X155050000Y-151175000D01*
X155050000Y-151175000D02*
X156150000Y-151175000D01*
X171980000Y-149720000D02*
X170645000Y-149720000D01*
X155125000Y-153750000D02*
X154475000Y-153100000D01*
X166200000Y-156525000D02*
X160279951Y-156525000D01*
X157504951Y-153750000D02*
X155125000Y-153750000D01*
X160279951Y-156525000D02*
X157504951Y-153750000D01*
X170645000Y-149720000D02*
X170625000Y-149740000D01*
X170511739Y-148688261D02*
X170625000Y-148801522D01*
X170625000Y-148801522D02*
X170625000Y-149740000D01*
X170625000Y-152100000D02*
X166200000Y-156525000D01*
%TO.N,/MOSI*%
X164450000Y-142325000D02*
X165603180Y-142325000D01*
X164075819Y-141950819D02*
X164450000Y-142325000D01*
X151710000Y-116660000D02*
X153090000Y-116660000D01*
X165603180Y-142325000D02*
X165973739Y-141954441D01*
%TO.N,/SCK*%
X151780000Y-118780000D02*
X153250000Y-118780000D01*
%TO.N,/MISO*%
X165024500Y-141750500D02*
X164824739Y-141750500D01*
X151880500Y-120930000D02*
X153780000Y-120930000D01*
X165716770Y-141058230D02*
X165024500Y-141750500D01*
X165716770Y-140979304D02*
X165716770Y-141058230D01*
%TO.N,/SD_CS*%
X151770000Y-114540000D02*
X153210000Y-114540000D01*
%TO.N,/BUZZER*%
X175120000Y-123920000D02*
X174150000Y-123920000D01*
X174150000Y-123920000D02*
X161297486Y-136772514D01*
X161297486Y-136772514D02*
X161297486Y-141009952D01*
%TO.N,/batt_ctl/BATT_1_CTL*%
X163262184Y-144863706D02*
X164174239Y-145775761D01*
X165525000Y-155950500D02*
X164049239Y-154474739D01*
X161855609Y-144863706D02*
X163262184Y-144863706D01*
X164174239Y-145775761D02*
X164649239Y-145775761D01*
X164049239Y-147650761D02*
X165300000Y-146400000D01*
X164049239Y-154474739D02*
X164049239Y-147650761D01*
%TO.N,/batt_ctl/BATT_2_CTL*%
X161775000Y-141344905D02*
X162844905Y-140275000D01*
X176500000Y-140275000D02*
X180225000Y-136550000D01*
X180225000Y-127155000D02*
X189030000Y-118350000D01*
X161775000Y-142150500D02*
X161775000Y-141344905D01*
X189030000Y-118350000D02*
X189030000Y-118120000D01*
X162844905Y-140275000D02*
X176500000Y-140275000D01*
X161800000Y-144075000D02*
X165425000Y-144075000D01*
X180225000Y-136550000D02*
X180225000Y-127155000D01*
%TO.N,/SDA*%
X228100000Y-100750000D02*
X163575000Y-100750000D01*
X155142500Y-134757500D02*
X155150000Y-134750000D01*
X234970000Y-152014500D02*
X234625000Y-151669500D01*
X155092500Y-109232500D02*
X155092500Y-126307500D01*
X155142500Y-134757500D02*
X155142500Y-139907500D01*
X231350000Y-130450000D02*
X231350000Y-104000000D01*
X155125000Y-139925000D02*
X155100000Y-139950000D01*
X158825000Y-139938033D02*
X158811967Y-139925000D01*
X158811967Y-139925000D02*
X155125000Y-139925000D01*
X155150000Y-134750000D02*
X156175000Y-134750000D01*
X155092500Y-126307500D02*
X155100000Y-126300000D01*
X152189929Y-143728315D02*
X152189929Y-142860071D01*
X155142500Y-139907500D02*
X155100000Y-139950000D01*
X163575000Y-100750000D02*
X155092500Y-109232500D01*
X234625000Y-141834314D02*
X232350000Y-139559314D01*
X155142500Y-134757500D02*
X155092500Y-134707500D01*
X155100000Y-126300000D02*
X156100000Y-126300000D01*
X152189929Y-142860071D02*
X155100000Y-139950000D01*
X231350000Y-104000000D02*
X228100000Y-100750000D01*
X234625000Y-151669500D02*
X234625000Y-141834314D01*
X234970000Y-152024500D02*
X234970000Y-152014500D01*
X232350000Y-139559314D02*
X232350000Y-131450000D01*
X232350000Y-131450000D02*
X231350000Y-130450000D01*
X155092500Y-134707500D02*
X155092500Y-126307500D01*
%TO.N,/SCL*%
X157582500Y-128192500D02*
X157855347Y-127919653D01*
X155290686Y-140325000D02*
X152764929Y-142850757D01*
X157855347Y-125905347D02*
X157250000Y-125300000D01*
X157582500Y-137457500D02*
X157582500Y-133750000D01*
X158825000Y-140750500D02*
X159400000Y-140175500D01*
X163740686Y-101150000D02*
X155492500Y-109398186D01*
X157855347Y-127919653D02*
X157855347Y-125905347D01*
X158399500Y-140325000D02*
X155290686Y-140325000D01*
X234220000Y-151586327D02*
X234220000Y-141995000D01*
X152764929Y-143966488D02*
X152256417Y-144475000D01*
X233870000Y-151974500D02*
X233870000Y-151936327D01*
X231950000Y-131615686D02*
X230950000Y-130615685D01*
X155492500Y-125300000D02*
X156112500Y-125300000D01*
X158825000Y-140750500D02*
X158399500Y-140325000D01*
X157582500Y-133750000D02*
X157582500Y-128192500D01*
X227934314Y-101150000D02*
X163740686Y-101150000D01*
X152256417Y-144475000D02*
X152125000Y-144475000D01*
X159400000Y-140175500D02*
X159400000Y-139275000D01*
X155492500Y-109398186D02*
X155492500Y-125300000D01*
X152764929Y-142850757D02*
X152764929Y-143966488D01*
X230950000Y-130615685D02*
X230950000Y-104165686D01*
X157582500Y-133750000D02*
X156150000Y-133750000D01*
X159400000Y-139275000D02*
X157582500Y-137457500D01*
X234220000Y-141995000D02*
X231950000Y-139725000D01*
X231950000Y-139725000D02*
X231950000Y-131615686D01*
X233870000Y-151936327D02*
X234220000Y-151586327D01*
X230950000Y-104165686D02*
X227934314Y-101150000D01*
X157250000Y-125300000D02*
X156125000Y-125300000D01*
%TO.N,/SWCLK*%
X166975000Y-147756370D02*
X166987327Y-147768699D01*
X175625500Y-141075761D02*
X168314925Y-141075761D01*
X168314925Y-141075761D02*
X166975000Y-142415687D01*
X166975000Y-142415687D02*
X166975000Y-147756370D01*
X166987327Y-150382002D02*
X167808458Y-151203133D01*
X166987327Y-147768699D02*
X166987327Y-150382002D01*
X175800000Y-140901261D02*
X175625500Y-141075761D01*
%TO.N,/SWDIO*%
X168480611Y-141475761D02*
X176699239Y-141475761D01*
X176699239Y-141475761D02*
X176950000Y-141225000D01*
X167387327Y-147603013D02*
X167375000Y-147590685D01*
X167375000Y-142581372D02*
X168480611Y-141475761D01*
X167375000Y-147590685D02*
X167375000Y-142581372D01*
X168625000Y-151095261D02*
X168523275Y-151095261D01*
X168523275Y-151095261D02*
X167387327Y-149959313D01*
X167387327Y-149959313D02*
X167387327Y-147603013D01*
%TO.N,/A5_SENSE*%
X160850000Y-142725000D02*
X159450000Y-141325000D01*
X165324239Y-148800761D02*
X166574239Y-147550761D01*
X169400000Y-151700000D02*
X169200000Y-151900000D01*
X159450000Y-141325000D02*
X158100000Y-141325000D01*
X156675000Y-142750000D02*
X156150000Y-142750000D01*
X169400000Y-150539765D02*
X169400000Y-151700000D01*
X158100000Y-141325000D02*
X156675000Y-142750000D01*
X166424239Y-142725000D02*
X160850000Y-142725000D01*
X169200000Y-151900000D02*
X167675000Y-151900000D01*
X169386061Y-150525826D02*
X169400000Y-150539765D01*
X166587327Y-150812327D02*
X166587327Y-150087327D01*
X167675000Y-151900000D02*
X166587327Y-150812327D01*
X166574239Y-147550761D02*
X166574239Y-142875000D01*
X166574239Y-142875000D02*
X166424239Y-142725000D01*
X166587327Y-150087327D02*
X166049239Y-149549239D01*
D38*
%TO.N,BATT_1_PWR*%
X168660000Y-162670000D02*
X175930000Y-162670000D01*
D39*
X175420000Y-150075498D02*
X175420000Y-150820000D01*
D38*
X175930000Y-162670000D02*
X175940000Y-162680000D01*
D39*
%TO.N,BATT_2_PWR*%
X173980000Y-144690000D02*
X173980000Y-143965500D01*
D38*
X168780000Y-106760000D02*
X175440000Y-106760000D01*
D39*
%TO.N,Net-(Q3-G)*%
X197725000Y-168300000D02*
X198025000Y-168000000D01*
X193263173Y-158875000D02*
X192700000Y-158875000D01*
X198025000Y-168000000D02*
X198025000Y-163636827D01*
X198025000Y-163636827D02*
X193263173Y-158875000D01*
%TO.N,Net-(Q4-G)*%
X191650000Y-158825000D02*
X192475000Y-159650000D01*
X192475000Y-167225000D02*
X193550000Y-168300000D01*
X188530000Y-158825000D02*
X191650000Y-158825000D01*
X192475000Y-159650000D02*
X192475000Y-167225000D01*
X193550000Y-168300000D02*
X194925000Y-168300000D01*
%TO.N,Net-(Q5-G)*%
X192973466Y-168814796D02*
X191950000Y-167791330D01*
X191950000Y-167791330D02*
X191950000Y-166075000D01*
X191950000Y-166075000D02*
X191800000Y-165925000D01*
%TO.N,Net-(Q6-G)*%
X196325000Y-166325000D02*
X195925000Y-165925000D01*
X196325000Y-168300000D02*
X196325000Y-166325000D01*
%TO.N,Net-(Q9-G)*%
X196225000Y-110600000D02*
X195725000Y-110100000D01*
X196225000Y-112175000D02*
X196225000Y-110600000D01*
%TO.N,GND*%
X186450000Y-140000000D02*
X186475000Y-140025000D01*
X186300000Y-140025000D02*
X187325000Y-140025000D01*
X186300000Y-140025000D02*
X186475000Y-140025000D01*
X186780000Y-139370000D02*
X186475000Y-139675000D01*
D38*
X168930000Y-117540000D02*
X176650000Y-117540000D01*
D39*
X186475000Y-140375000D02*
X186770000Y-140670000D01*
X187500000Y-140000000D02*
X187350000Y-140000000D01*
X186475000Y-139675000D02*
X186475000Y-140025000D01*
X186475000Y-140025000D02*
X186475000Y-140375000D01*
X187350000Y-140000000D02*
X187325000Y-140025000D01*
X186300000Y-140000000D02*
X186450000Y-140000000D01*
X186300000Y-140025000D02*
X186425000Y-140025000D01*
D38*
X169160000Y-174530000D02*
X176180000Y-174530000D01*
D39*
%TO.N,Net-(Q10-G)*%
X191825000Y-111600000D02*
X191825000Y-110150000D01*
X191825000Y-110150000D02*
X191800000Y-110125000D01*
X192830983Y-112768517D02*
X192830983Y-112605983D01*
X192830983Y-112605983D02*
X191825000Y-111600000D01*
%TO.N,Net-(Q11-G)*%
X194111827Y-112800000D02*
X192375000Y-111063173D01*
X192375000Y-103775000D02*
X191625000Y-103025000D01*
X191625000Y-103025000D02*
X188550000Y-103025000D01*
X194249500Y-112800000D02*
X194111827Y-112800000D01*
X192375000Y-111063173D02*
X192375000Y-103775000D01*
%TO.N,Net-(Q12-G)*%
X197975000Y-111825000D02*
X197975000Y-107300000D01*
X193700000Y-103025000D02*
X192600000Y-103025000D01*
X197625000Y-112175000D02*
X197975000Y-111825000D01*
X197975000Y-107300000D02*
X193700000Y-103025000D01*
D38*
%TO.N,5V_1*%
X159425000Y-142100000D02*
X158850000Y-142100000D01*
X168909924Y-158675000D02*
X168034924Y-159550000D01*
X188000000Y-142300000D02*
X191330000Y-138970000D01*
X191330000Y-138970000D02*
X191330000Y-138010000D01*
X182500000Y-158675000D02*
X168909924Y-158675000D01*
X153950000Y-149362208D02*
X156937208Y-146375000D01*
X156937208Y-146375000D02*
X160025000Y-146375000D01*
X160025000Y-149375000D02*
X160025000Y-146375000D01*
X188000000Y-153175000D02*
X182500000Y-158675000D01*
X160025000Y-142700000D02*
X159425000Y-142100000D01*
X160025000Y-146375000D02*
X160025000Y-142700000D01*
X153950000Y-153937792D02*
X153950000Y-149362208D01*
X159562208Y-159550000D02*
X153950000Y-153937792D01*
D40*
X199000000Y-120500000D02*
X199025000Y-120475000D01*
X199000000Y-124000000D02*
X199000000Y-120500000D01*
D38*
X168034924Y-159550000D02*
X159562208Y-159550000D01*
X158900000Y-150500000D02*
X160025000Y-149375000D01*
X188000000Y-142300000D02*
X188000000Y-153175000D01*
D40*
%TO.N,12V_1*%
X232349500Y-155049500D02*
X230300000Y-153000000D01*
X245925000Y-160400000D02*
X243925000Y-160400000D01*
X230300000Y-142025000D02*
X216600000Y-128325000D01*
X230300000Y-153000000D02*
X230300000Y-142025000D01*
X216600000Y-128325000D02*
X216600000Y-126800000D01*
X243925000Y-160400000D02*
X238574500Y-155049500D01*
X238574500Y-155049500D02*
X232349500Y-155049500D01*
D39*
%TO.N,/batt_ctl/BATT_2_INT*%
X179935000Y-143615000D02*
X180935000Y-143615000D01*
X173246827Y-142520000D02*
X173821827Y-143095000D01*
X179935000Y-143615000D02*
X180870000Y-144550000D01*
X173821827Y-143095000D02*
X179415000Y-143095000D01*
X180870000Y-144550000D02*
X180870000Y-145390000D01*
X179415000Y-143095000D02*
X179935000Y-143615000D01*
X180935000Y-143615000D02*
X181900000Y-142650000D01*
X170560000Y-142520000D02*
X173246827Y-142520000D01*
D41*
%TO.N,Net-(J3-Pad1)*%
X157287500Y-144512500D02*
X157287500Y-144012500D01*
X157050000Y-144750000D02*
X157287500Y-144512500D01*
X157900000Y-143400000D02*
X158875000Y-143400000D01*
X157287500Y-144012500D02*
X157900000Y-143400000D01*
X156137500Y-144750000D02*
X157050000Y-144750000D01*
D38*
%TO.N,Net-(J4-Pad1)*%
X156137500Y-153175000D02*
X156959314Y-153175000D01*
X158284314Y-151850000D02*
X159075000Y-151850000D01*
X156959314Y-153175000D02*
X158284314Y-151850000D01*
D39*
%TO.N,Net-(Q1-G)*%
X189890000Y-173280000D02*
X189890000Y-169170000D01*
%TO.N,Net-(Q2-G)*%
X189800000Y-117080000D02*
X189800000Y-113080000D01*
%TO.N,Net-(U42-B+)*%
X173980000Y-146390000D02*
X173980000Y-145980000D01*
X175382500Y-144700000D02*
X176062500Y-145380000D01*
X173980000Y-145980000D02*
X175360000Y-144600000D01*
X176062500Y-145380000D02*
X178260000Y-145380000D01*
%TO.N,Net-(U42-A+)*%
X176770000Y-149010000D02*
X176840000Y-148940000D01*
X176770000Y-149010000D02*
X176750000Y-148990000D01*
X176840000Y-148940000D02*
X179020000Y-148940000D01*
X176750000Y-148990000D02*
X175610000Y-148990000D01*
X179020000Y-148940000D02*
X179610000Y-149530000D01*
X179610000Y-149530000D02*
X179610000Y-150280000D01*
%TO.N,Net-(U42-A-)*%
X176890000Y-146400000D02*
X176910000Y-146380000D01*
X178850000Y-146490000D02*
X177000000Y-146490000D01*
X176890000Y-147730000D02*
X176890000Y-146400000D01*
X179602500Y-145240000D02*
X179602500Y-145737500D01*
X177000000Y-146490000D02*
X176890000Y-146380000D01*
X180872500Y-148512500D02*
X178850000Y-146490000D01*
X179602500Y-145737500D02*
X178850000Y-146490000D01*
X180872500Y-150190000D02*
X180872500Y-148512500D01*
%TD*%
%TA.AperFunction,Conductor*%
%TO.N,BATT_1_PWR*%
G36*
X182831061Y-159550597D02*
G01*
X183007941Y-159568018D01*
X183031769Y-159572757D01*
X183196001Y-159622576D01*
X183218453Y-159631877D01*
X183369798Y-159712772D01*
X183390010Y-159726277D01*
X183522666Y-159835145D01*
X183539854Y-159852333D01*
X183648722Y-159984989D01*
X183662227Y-160005201D01*
X183743121Y-160156543D01*
X183752424Y-160179001D01*
X183802240Y-160343224D01*
X183806982Y-160367065D01*
X183824403Y-160543939D01*
X183825000Y-160556093D01*
X183825000Y-168743907D01*
X183824403Y-168756061D01*
X183806982Y-168932934D01*
X183802240Y-168956775D01*
X183752424Y-169120998D01*
X183743121Y-169143456D01*
X183662227Y-169294798D01*
X183648722Y-169315010D01*
X183539854Y-169447666D01*
X183522666Y-169464854D01*
X183390010Y-169573722D01*
X183369798Y-169587227D01*
X183218456Y-169668121D01*
X183195998Y-169677424D01*
X183031775Y-169727240D01*
X183007934Y-169731982D01*
X182831061Y-169749403D01*
X182818907Y-169750000D01*
X182206093Y-169750000D01*
X182193939Y-169749403D01*
X182017065Y-169731982D01*
X181993224Y-169727240D01*
X181829001Y-169677424D01*
X181806543Y-169668121D01*
X181655201Y-169587227D01*
X181634989Y-169573722D01*
X181502333Y-169464854D01*
X181485145Y-169447666D01*
X181376277Y-169315010D01*
X181362772Y-169294798D01*
X181281878Y-169143456D01*
X181272575Y-169120998D01*
X181222757Y-168956769D01*
X181218018Y-168932941D01*
X181200597Y-168756061D01*
X181200000Y-168743907D01*
X181200000Y-165567679D01*
X181200000Y-165567678D01*
X181200000Y-165550000D01*
X181187502Y-165537502D01*
X181187500Y-165537499D01*
X181187496Y-165537496D01*
X181175000Y-165525000D01*
X181157322Y-165525000D01*
X181157321Y-165525000D01*
X173351093Y-165525000D01*
X173338939Y-165524403D01*
X173162065Y-165506982D01*
X173138224Y-165502240D01*
X172974001Y-165452424D01*
X172951543Y-165443121D01*
X172800201Y-165362227D01*
X172779989Y-165348722D01*
X172647333Y-165239854D01*
X172630145Y-165222666D01*
X172521277Y-165090010D01*
X172507772Y-165069798D01*
X172426878Y-164918456D01*
X172417575Y-164895998D01*
X172367757Y-164731769D01*
X172363018Y-164707941D01*
X172345597Y-164531061D01*
X172345000Y-164518907D01*
X172345000Y-160556093D01*
X172345597Y-160543939D01*
X172346290Y-160536895D01*
X172363018Y-160367056D01*
X172367757Y-160343232D01*
X172417577Y-160178994D01*
X172426875Y-160156549D01*
X172507775Y-160005195D01*
X172521272Y-159984995D01*
X172630149Y-159852328D01*
X172647328Y-159835149D01*
X172779995Y-159726272D01*
X172800195Y-159712775D01*
X172951549Y-159631875D01*
X172973994Y-159622577D01*
X173138232Y-159572757D01*
X173162056Y-159568018D01*
X173338938Y-159550597D01*
X173351093Y-159550000D01*
X182818907Y-159550000D01*
X182831061Y-159550597D01*
G37*
%TD.AperFunction*%
%TD*%
%TA.AperFunction,Conductor*%
%TO.N,BATT_2_PWR*%
G36*
X182681061Y-103750597D02*
G01*
X182857941Y-103768018D01*
X182881769Y-103772757D01*
X183046001Y-103822576D01*
X183068453Y-103831877D01*
X183219798Y-103912772D01*
X183240010Y-103926277D01*
X183372666Y-104035145D01*
X183389854Y-104052333D01*
X183498722Y-104184989D01*
X183512227Y-104205201D01*
X183593121Y-104356543D01*
X183602424Y-104379001D01*
X183652240Y-104543224D01*
X183656982Y-104567065D01*
X183674403Y-104743939D01*
X183675000Y-104756093D01*
X183675000Y-112943907D01*
X183674403Y-112956061D01*
X183656982Y-113132934D01*
X183652240Y-113156775D01*
X183602424Y-113320998D01*
X183593121Y-113343456D01*
X183512227Y-113494798D01*
X183498722Y-113515010D01*
X183389854Y-113647666D01*
X183372666Y-113664854D01*
X183240010Y-113773722D01*
X183219798Y-113787227D01*
X183068456Y-113868121D01*
X183045998Y-113877424D01*
X182881775Y-113927240D01*
X182857934Y-113931982D01*
X182681061Y-113949403D01*
X182668907Y-113950000D01*
X182056093Y-113950000D01*
X182043939Y-113949403D01*
X181867065Y-113931982D01*
X181843224Y-113927240D01*
X181679001Y-113877424D01*
X181656543Y-113868121D01*
X181505201Y-113787227D01*
X181484989Y-113773722D01*
X181352333Y-113664854D01*
X181335145Y-113647666D01*
X181226277Y-113515010D01*
X181212772Y-113494798D01*
X181131878Y-113343456D01*
X181122575Y-113320998D01*
X181072757Y-113156769D01*
X181068018Y-113132941D01*
X181050597Y-112956061D01*
X181050000Y-112943907D01*
X181050000Y-109767679D01*
X181050000Y-109767678D01*
X181050000Y-109750000D01*
X181037502Y-109737502D01*
X181037500Y-109737499D01*
X181037496Y-109737496D01*
X181025000Y-109725000D01*
X181007322Y-109725000D01*
X181007321Y-109725000D01*
X172961093Y-109725000D01*
X172948939Y-109724403D01*
X172772065Y-109706982D01*
X172748224Y-109702240D01*
X172584001Y-109652424D01*
X172561543Y-109643121D01*
X172410201Y-109562227D01*
X172389989Y-109548722D01*
X172257333Y-109439854D01*
X172240145Y-109422666D01*
X172131277Y-109290010D01*
X172117772Y-109269798D01*
X172036878Y-109118456D01*
X172027575Y-109095998D01*
X171977757Y-108931769D01*
X171973018Y-108907941D01*
X171955597Y-108731061D01*
X171955000Y-108718907D01*
X171955000Y-104756093D01*
X171955597Y-104743939D01*
X171956290Y-104736895D01*
X171973018Y-104567056D01*
X171977757Y-104543232D01*
X172027577Y-104378994D01*
X172036875Y-104356549D01*
X172117775Y-104205195D01*
X172131272Y-104184995D01*
X172240149Y-104052328D01*
X172257328Y-104035149D01*
X172389995Y-103926272D01*
X172410195Y-103912775D01*
X172561549Y-103831875D01*
X172583994Y-103822577D01*
X172748232Y-103772757D01*
X172772056Y-103768018D01*
X172948938Y-103750597D01*
X172961093Y-103750000D01*
X182668907Y-103750000D01*
X182681061Y-103750597D01*
G37*
%TD.AperFunction*%
%TD*%
%TA.AperFunction,Conductor*%
%TO.N,Net-(Q10-D)*%
G36*
X191663000Y-103766613D02*
G01*
X191708387Y-103812000D01*
X191725000Y-103874000D01*
X191725000Y-109226000D01*
X191708387Y-109288000D01*
X191663000Y-109333387D01*
X191601000Y-109350000D01*
X191436622Y-109350000D01*
X191402576Y-109345234D01*
X191346850Y-109329321D01*
X191276693Y-109319500D01*
X188424000Y-109319500D01*
X188357874Y-109328205D01*
X188338979Y-109333267D01*
X188295871Y-109344819D01*
X188295867Y-109344820D01*
X188292305Y-109345775D01*
X188260211Y-109350000D01*
X186675000Y-109350000D01*
X186675000Y-110350000D01*
X186675000Y-110350001D01*
X186675000Y-112943907D01*
X186674403Y-112956061D01*
X186656982Y-113132934D01*
X186652240Y-113156775D01*
X186602424Y-113320998D01*
X186593121Y-113343456D01*
X186512227Y-113494798D01*
X186498722Y-113515010D01*
X186389854Y-113647666D01*
X186372666Y-113664854D01*
X186240010Y-113773722D01*
X186219798Y-113787227D01*
X186068456Y-113868121D01*
X186045998Y-113877424D01*
X185881775Y-113927240D01*
X185857934Y-113931982D01*
X185681061Y-113949403D01*
X185668907Y-113950000D01*
X185056093Y-113950000D01*
X185043939Y-113949403D01*
X184867065Y-113931982D01*
X184843224Y-113927240D01*
X184679001Y-113877424D01*
X184656543Y-113868121D01*
X184505201Y-113787227D01*
X184484989Y-113773722D01*
X184352333Y-113664854D01*
X184335145Y-113647666D01*
X184226277Y-113515010D01*
X184212772Y-113494798D01*
X184131878Y-113343456D01*
X184122575Y-113320998D01*
X184072757Y-113156769D01*
X184068018Y-113132941D01*
X184050597Y-112956061D01*
X184050000Y-112943907D01*
X184050000Y-104756093D01*
X184050597Y-104743939D01*
X184051290Y-104736895D01*
X184068018Y-104567056D01*
X184072757Y-104543232D01*
X184122577Y-104378994D01*
X184131875Y-104356549D01*
X184212775Y-104205195D01*
X184226272Y-104184995D01*
X184335149Y-104052328D01*
X184352328Y-104035149D01*
X184484995Y-103926272D01*
X184505195Y-103912775D01*
X184656549Y-103831875D01*
X184678994Y-103822577D01*
X184843232Y-103772757D01*
X184867056Y-103768018D01*
X185043938Y-103750597D01*
X185056093Y-103750000D01*
X191601000Y-103750000D01*
X191663000Y-103766613D01*
G37*
%TD.AperFunction*%
%TD*%
%TA.AperFunction,Conductor*%
%TO.N,Net-(Q3-D)*%
G36*
X191813000Y-159566613D02*
G01*
X191858387Y-159612000D01*
X191875000Y-159674000D01*
X191875000Y-165026000D01*
X191858387Y-165088000D01*
X191813000Y-165133387D01*
X191751000Y-165150000D01*
X186825000Y-165150000D01*
X186825000Y-166150000D01*
X186825000Y-166150001D01*
X186825000Y-168743907D01*
X186824403Y-168756061D01*
X186806982Y-168932934D01*
X186802240Y-168956775D01*
X186752424Y-169120998D01*
X186743121Y-169143456D01*
X186662227Y-169294798D01*
X186648722Y-169315010D01*
X186539854Y-169447666D01*
X186522666Y-169464854D01*
X186390010Y-169573722D01*
X186369798Y-169587227D01*
X186218456Y-169668121D01*
X186195998Y-169677424D01*
X186031775Y-169727240D01*
X186007934Y-169731982D01*
X185831061Y-169749403D01*
X185818907Y-169750000D01*
X185206093Y-169750000D01*
X185193939Y-169749403D01*
X185017065Y-169731982D01*
X184993224Y-169727240D01*
X184829001Y-169677424D01*
X184806543Y-169668121D01*
X184655201Y-169587227D01*
X184634989Y-169573722D01*
X184502333Y-169464854D01*
X184485145Y-169447666D01*
X184376277Y-169315010D01*
X184362772Y-169294798D01*
X184281878Y-169143456D01*
X184272575Y-169120998D01*
X184222757Y-168956769D01*
X184218018Y-168932941D01*
X184200597Y-168756061D01*
X184200000Y-168743907D01*
X184200000Y-160556093D01*
X184200597Y-160543939D01*
X184201290Y-160536895D01*
X184218018Y-160367056D01*
X184222757Y-160343232D01*
X184272577Y-160178994D01*
X184281875Y-160156549D01*
X184362775Y-160005195D01*
X184376272Y-159984995D01*
X184485149Y-159852328D01*
X184502328Y-159835149D01*
X184634995Y-159726272D01*
X184655195Y-159712775D01*
X184806549Y-159631875D01*
X184828994Y-159622577D01*
X184993232Y-159572757D01*
X185017056Y-159568018D01*
X185193938Y-159550597D01*
X185206093Y-159550000D01*
X191751000Y-159550000D01*
X191813000Y-159566613D01*
G37*
%TD.AperFunction*%
%TD*%
%TA.AperFunction,Conductor*%
%TO.N,+BATT*%
G36*
X201038000Y-157504113D02*
G01*
X201083387Y-157549500D01*
X201100000Y-157611500D01*
X201100000Y-167188500D01*
X201083387Y-167250500D01*
X201038000Y-167295887D01*
X200976000Y-167312500D01*
X198524500Y-167312500D01*
X198462500Y-167295887D01*
X198417113Y-167250500D01*
X198400500Y-167188500D01*
X198400500Y-163688630D01*
X198403139Y-163663184D01*
X198403177Y-163663001D01*
X198405367Y-163652558D01*
X198401452Y-163621151D01*
X198400500Y-163605814D01*
X198400500Y-163605717D01*
X198400500Y-163605713D01*
X198397070Y-163585163D01*
X198396342Y-163580167D01*
X198389865Y-163528201D01*
X198389864Y-163528200D01*
X198388888Y-163520365D01*
X198388821Y-163520158D01*
X198360160Y-163467195D01*
X198357814Y-163462639D01*
X198331361Y-163408528D01*
X198331225Y-163408346D01*
X198325419Y-163403001D01*
X198286904Y-163367545D01*
X198283231Y-163364020D01*
X196236319Y-161317108D01*
X196209439Y-161276880D01*
X196200000Y-161229427D01*
X196200000Y-159362500D01*
X194333073Y-159362500D01*
X194285620Y-159353061D01*
X194245392Y-159326181D01*
X193565322Y-158646111D01*
X193549195Y-158626253D01*
X193543256Y-158617162D01*
X193518283Y-158597725D01*
X193506766Y-158587554D01*
X193506692Y-158587480D01*
X193489767Y-158575397D01*
X193485653Y-158572330D01*
X193444362Y-158540191D01*
X193444359Y-158540190D01*
X193438136Y-158535346D01*
X193437934Y-158535242D01*
X193430373Y-158532990D01*
X193430372Y-158532990D01*
X193380209Y-158518055D01*
X193375347Y-158516497D01*
X193363953Y-158512586D01*
X193318375Y-158496939D01*
X193318142Y-158496906D01*
X193273083Y-158498769D01*
X193257979Y-158499394D01*
X193252857Y-158499500D01*
X193157026Y-158499500D01*
X193117167Y-158492919D01*
X193081541Y-158473877D01*
X192977625Y-158394139D01*
X192977624Y-158394138D01*
X192977622Y-158394137D01*
X192843709Y-158338670D01*
X192700000Y-158319749D01*
X192556290Y-158338670D01*
X192422377Y-158394137D01*
X192307379Y-158482379D01*
X192219136Y-158597379D01*
X192212326Y-158613820D01*
X192176430Y-158662220D01*
X192121956Y-158687984D01*
X192061770Y-158685026D01*
X192010085Y-158654047D01*
X191952149Y-158596111D01*
X191936022Y-158576253D01*
X191930083Y-158567162D01*
X191905110Y-158547725D01*
X191893593Y-158537554D01*
X191893519Y-158537480D01*
X191876594Y-158525397D01*
X191872480Y-158522330D01*
X191831189Y-158490191D01*
X191831186Y-158490190D01*
X191824963Y-158485346D01*
X191824761Y-158485242D01*
X191817200Y-158482990D01*
X191817199Y-158482990D01*
X191767036Y-158468055D01*
X191762174Y-158466497D01*
X191750780Y-158462586D01*
X191705202Y-158446939D01*
X191704969Y-158446906D01*
X191659910Y-158448769D01*
X191644806Y-158449394D01*
X191639684Y-158449500D01*
X188987026Y-158449500D01*
X188947167Y-158442919D01*
X188911541Y-158423877D01*
X188807625Y-158344139D01*
X188807624Y-158344138D01*
X188807622Y-158344137D01*
X188673709Y-158288670D01*
X188532814Y-158270120D01*
X188477876Y-158248756D01*
X188439011Y-158204438D01*
X188425000Y-158147181D01*
X188425000Y-157611500D01*
X188441613Y-157549500D01*
X188487000Y-157504113D01*
X188549000Y-157487500D01*
X200976000Y-157487500D01*
X201038000Y-157504113D01*
G37*
%TD.AperFunction*%
%TA.AperFunction,Conductor*%
G36*
X196362318Y-162524295D02*
G01*
X196411681Y-162554545D01*
X197613181Y-163756045D01*
X197640061Y-163796273D01*
X197649500Y-163843726D01*
X197649500Y-167188500D01*
X197632887Y-167250500D01*
X197587500Y-167295887D01*
X197525500Y-167312500D01*
X196824500Y-167312500D01*
X196762500Y-167295887D01*
X196717113Y-167250500D01*
X196700500Y-167188500D01*
X196700500Y-166376803D01*
X196703139Y-166351357D01*
X196703177Y-166351174D01*
X196705367Y-166340731D01*
X196701452Y-166309324D01*
X196700500Y-166293987D01*
X196700500Y-166293890D01*
X196700500Y-166293886D01*
X196697070Y-166273336D01*
X196696342Y-166268340D01*
X196689865Y-166216374D01*
X196689864Y-166216373D01*
X196688888Y-166208538D01*
X196688821Y-166208331D01*
X196660160Y-166155368D01*
X196657814Y-166150812D01*
X196631361Y-166096701D01*
X196631225Y-166096519D01*
X196625419Y-166091174D01*
X196586904Y-166055718D01*
X196583231Y-166052193D01*
X196513684Y-165982646D01*
X196490153Y-165949809D01*
X196478427Y-165911153D01*
X196461330Y-165781291D01*
X196405861Y-165647375D01*
X196317621Y-165532379D01*
X196317619Y-165532378D01*
X196317619Y-165532377D01*
X196248514Y-165479351D01*
X196212788Y-165435819D01*
X196200000Y-165380975D01*
X196200000Y-162642226D01*
X196213515Y-162585931D01*
X196251115Y-162541908D01*
X196304602Y-162519753D01*
X196362318Y-162524295D01*
G37*
%TD.AperFunction*%
%TA.AperFunction,Conductor*%
G36*
X195438399Y-165431199D02*
G01*
X195484130Y-165481657D01*
X195496321Y-165548655D01*
X195471293Y-165611987D01*
X195444138Y-165647374D01*
X195388670Y-165781290D01*
X195369749Y-165925000D01*
X195388670Y-166068709D01*
X195444137Y-166202622D01*
X195444138Y-166202624D01*
X195444139Y-166202625D01*
X195532379Y-166317621D01*
X195647375Y-166405861D01*
X195781291Y-166461330D01*
X195841687Y-166469281D01*
X195896624Y-166490645D01*
X195935489Y-166534963D01*
X195949500Y-166592220D01*
X195949500Y-167188500D01*
X195932887Y-167250500D01*
X195887500Y-167295887D01*
X195825500Y-167312500D01*
X193144900Y-167312500D01*
X193097447Y-167303061D01*
X193057219Y-167276181D01*
X192886819Y-167105781D01*
X192859939Y-167065553D01*
X192850500Y-167018100D01*
X192850500Y-165536500D01*
X192867113Y-165474500D01*
X192912500Y-165429113D01*
X192974500Y-165412500D01*
X195372918Y-165412500D01*
X195438399Y-165431199D01*
G37*
%TD.AperFunction*%
%TA.AperFunction,Conductor*%
G36*
X191313399Y-165431199D02*
G01*
X191359130Y-165481657D01*
X191371321Y-165548655D01*
X191346293Y-165611987D01*
X191319138Y-165647374D01*
X191263670Y-165781290D01*
X191244749Y-165925000D01*
X191263670Y-166068709D01*
X191319137Y-166202622D01*
X191319138Y-166202624D01*
X191319139Y-166202625D01*
X191407379Y-166317621D01*
X191522375Y-166405861D01*
X191522376Y-166405861D01*
X191525987Y-166408632D01*
X191561712Y-166452164D01*
X191574500Y-166507008D01*
X191574500Y-167188500D01*
X191557887Y-167250500D01*
X191512500Y-167295887D01*
X191450500Y-167312500D01*
X188524000Y-167312500D01*
X188462000Y-167295887D01*
X188416613Y-167250500D01*
X188400000Y-167188500D01*
X188400000Y-165536500D01*
X188416613Y-165474500D01*
X188462000Y-165429113D01*
X188524000Y-165412500D01*
X191247918Y-165412500D01*
X191313399Y-165431199D01*
G37*
%TD.AperFunction*%
%TD*%
%TA.AperFunction,Conductor*%
%TO.N,+BATT*%
G36*
X201038000Y-101666613D02*
G01*
X201083387Y-101712000D01*
X201100000Y-101774000D01*
X201100000Y-111351000D01*
X201083387Y-111413000D01*
X201038000Y-111458387D01*
X200976000Y-111475000D01*
X198474500Y-111475000D01*
X198412500Y-111458387D01*
X198367113Y-111413000D01*
X198350500Y-111351000D01*
X198350500Y-107351805D01*
X198353139Y-107326359D01*
X198353785Y-107323275D01*
X198355367Y-107315732D01*
X198351452Y-107284323D01*
X198350500Y-107268986D01*
X198350500Y-107268888D01*
X198350500Y-107268886D01*
X198347075Y-107248369D01*
X198346341Y-107243325D01*
X198338891Y-107183550D01*
X198338821Y-107183332D01*
X198335065Y-107176392D01*
X198335065Y-107176390D01*
X198310148Y-107130348D01*
X198307828Y-107125840D01*
X198284826Y-107078789D01*
X198284825Y-107078788D01*
X198281360Y-107071700D01*
X198281225Y-107071519D01*
X198275419Y-107066174D01*
X198236891Y-107030706D01*
X198233218Y-107027181D01*
X196136319Y-104930281D01*
X196109439Y-104890053D01*
X196100000Y-104842600D01*
X196100000Y-103525000D01*
X194782400Y-103525000D01*
X194734947Y-103515561D01*
X194694719Y-103488681D01*
X194002149Y-102796111D01*
X193986022Y-102776253D01*
X193980083Y-102767162D01*
X193955110Y-102747725D01*
X193943593Y-102737554D01*
X193943519Y-102737480D01*
X193926594Y-102725397D01*
X193922480Y-102722330D01*
X193881189Y-102690191D01*
X193881186Y-102690190D01*
X193874963Y-102685346D01*
X193874761Y-102685242D01*
X193867200Y-102682990D01*
X193867199Y-102682990D01*
X193817036Y-102668055D01*
X193812174Y-102666497D01*
X193800780Y-102662586D01*
X193755202Y-102646939D01*
X193754969Y-102646906D01*
X193709910Y-102648769D01*
X193694806Y-102649394D01*
X193689684Y-102649500D01*
X193057026Y-102649500D01*
X193017167Y-102642919D01*
X192981541Y-102623877D01*
X192877625Y-102544139D01*
X192877624Y-102544138D01*
X192877622Y-102544137D01*
X192743709Y-102488670D01*
X192600000Y-102469749D01*
X192456290Y-102488670D01*
X192322377Y-102544137D01*
X192218460Y-102623876D01*
X192207379Y-102632379D01*
X192136004Y-102725397D01*
X192109201Y-102760327D01*
X192108066Y-102759456D01*
X192080000Y-102795318D01*
X192017908Y-102818990D01*
X191952510Y-102807204D01*
X191921311Y-102779794D01*
X191880110Y-102747725D01*
X191868593Y-102737554D01*
X191868519Y-102737480D01*
X191851594Y-102725397D01*
X191847480Y-102722330D01*
X191806189Y-102690191D01*
X191806186Y-102690190D01*
X191799963Y-102685346D01*
X191799761Y-102685242D01*
X191792200Y-102682990D01*
X191792199Y-102682990D01*
X191742036Y-102668055D01*
X191737174Y-102666497D01*
X191725780Y-102662586D01*
X191680202Y-102646939D01*
X191679969Y-102646906D01*
X191634910Y-102648769D01*
X191619806Y-102649394D01*
X191614684Y-102649500D01*
X189007026Y-102649500D01*
X188967167Y-102642919D01*
X188931541Y-102623877D01*
X188827625Y-102544139D01*
X188827624Y-102544138D01*
X188827622Y-102544137D01*
X188693709Y-102488670D01*
X188549999Y-102469749D01*
X188465185Y-102480916D01*
X188396595Y-102470359D01*
X188344419Y-102424602D01*
X188325000Y-102357977D01*
X188325000Y-101774000D01*
X188341613Y-101712000D01*
X188387000Y-101666613D01*
X188449000Y-101650000D01*
X200976000Y-101650000D01*
X201038000Y-101666613D01*
G37*
%TD.AperFunction*%
%TA.AperFunction,Conductor*%
G36*
X196262318Y-106137469D02*
G01*
X196311681Y-106167719D01*
X197563181Y-107419219D01*
X197590061Y-107459447D01*
X197599500Y-107506900D01*
X197599500Y-111351000D01*
X197582887Y-111413000D01*
X197537500Y-111458387D01*
X197475500Y-111475000D01*
X196724500Y-111475000D01*
X196662500Y-111458387D01*
X196617113Y-111413000D01*
X196600500Y-111351000D01*
X196600500Y-110651804D01*
X196603139Y-110626358D01*
X196603177Y-110626175D01*
X196605367Y-110615732D01*
X196601452Y-110584323D01*
X196600500Y-110568986D01*
X196600500Y-110568888D01*
X196600500Y-110568886D01*
X196597075Y-110548369D01*
X196596341Y-110543325D01*
X196588891Y-110483550D01*
X196588821Y-110483332D01*
X196585065Y-110476392D01*
X196585065Y-110476390D01*
X196560148Y-110430348D01*
X196557828Y-110425840D01*
X196534826Y-110378789D01*
X196534825Y-110378788D01*
X196531360Y-110371700D01*
X196531225Y-110371519D01*
X196525419Y-110366174D01*
X196486892Y-110330707D01*
X196483219Y-110327182D01*
X196313684Y-110157646D01*
X196290153Y-110124809D01*
X196278427Y-110086153D01*
X196261330Y-109956291D01*
X196205861Y-109822375D01*
X196118693Y-109708776D01*
X196094953Y-109654821D01*
X196098811Y-109595998D01*
X196100000Y-109594039D01*
X196100000Y-106255400D01*
X196113515Y-106199105D01*
X196151115Y-106155082D01*
X196204602Y-106132927D01*
X196262318Y-106137469D01*
G37*
%TD.AperFunction*%
%TA.AperFunction,Conductor*%
G36*
X195247989Y-109593699D02*
G01*
X195293721Y-109644156D01*
X195305912Y-109711154D01*
X195280885Y-109774486D01*
X195244138Y-109822375D01*
X195188670Y-109956290D01*
X195169749Y-110099999D01*
X195188670Y-110243709D01*
X195244137Y-110377622D01*
X195244138Y-110377624D01*
X195244139Y-110377625D01*
X195332379Y-110492621D01*
X195447375Y-110580861D01*
X195581291Y-110636330D01*
X195711153Y-110653427D01*
X195749809Y-110665153D01*
X195782646Y-110688684D01*
X195813181Y-110719219D01*
X195840061Y-110759447D01*
X195849500Y-110806900D01*
X195849500Y-111351000D01*
X195832887Y-111413000D01*
X195787500Y-111458387D01*
X195725500Y-111475000D01*
X193369227Y-111475000D01*
X193321774Y-111465561D01*
X193281546Y-111438681D01*
X192786819Y-110943954D01*
X192759939Y-110903726D01*
X192750500Y-110856273D01*
X192750500Y-109699000D01*
X192767113Y-109637000D01*
X192812500Y-109591613D01*
X192874500Y-109575000D01*
X195182509Y-109575000D01*
X195247989Y-109593699D01*
G37*
%TD.AperFunction*%
%TA.AperFunction,Conductor*%
G36*
X191342174Y-109593699D02*
G01*
X191387905Y-109644156D01*
X191400096Y-109711155D01*
X191375068Y-109774487D01*
X191319138Y-109847374D01*
X191263670Y-109981290D01*
X191244749Y-110125000D01*
X191263670Y-110268709D01*
X191319137Y-110402622D01*
X191319138Y-110402624D01*
X191319139Y-110402625D01*
X191387239Y-110491374D01*
X191417317Y-110530572D01*
X191416287Y-110531361D01*
X191436712Y-110556249D01*
X191449500Y-110611092D01*
X191449500Y-111351000D01*
X191432887Y-111413000D01*
X191387500Y-111458387D01*
X191325500Y-111475000D01*
X188424000Y-111475000D01*
X188362000Y-111458387D01*
X188316613Y-111413000D01*
X188300000Y-111351000D01*
X188300000Y-109699000D01*
X188316613Y-109637000D01*
X188362000Y-109591613D01*
X188424000Y-109575000D01*
X191276693Y-109575000D01*
X191342174Y-109593699D01*
G37*
%TD.AperFunction*%
%TD*%
%TA.AperFunction,Conductor*%
%TO.N,GND*%
G36*
X185863000Y-170241613D02*
G01*
X185908387Y-170287000D01*
X185925000Y-170349000D01*
X185925000Y-176526000D01*
X185908387Y-176588000D01*
X185863000Y-176633387D01*
X185801000Y-176650000D01*
X172174000Y-176650000D01*
X172112000Y-176633387D01*
X172066613Y-176588000D01*
X172050000Y-176526000D01*
X172050000Y-170349000D01*
X172066613Y-170287000D01*
X172112000Y-170241613D01*
X172174000Y-170225000D01*
X185801000Y-170225000D01*
X185863000Y-170241613D01*
G37*
%TD.AperFunction*%
%TD*%
%TA.AperFunction,Conductor*%
%TO.N,GND*%
G36*
X185688000Y-114266613D02*
G01*
X185733387Y-114312000D01*
X185750000Y-114374000D01*
X185750000Y-120551000D01*
X185733387Y-120613000D01*
X185688000Y-120658387D01*
X185626000Y-120675000D01*
X172079000Y-120675000D01*
X172017000Y-120658387D01*
X171971613Y-120613000D01*
X171955000Y-120551000D01*
X171955000Y-114374000D01*
X171971613Y-114312000D01*
X172017000Y-114266613D01*
X172079000Y-114250000D01*
X185626000Y-114250000D01*
X185688000Y-114266613D01*
G37*
%TD.AperFunction*%
%TD*%
%TA.AperFunction,Conductor*%
%TO.N,GND*%
G36*
X226353052Y-124799454D02*
G01*
X226353532Y-124799653D01*
X226393633Y-124826427D01*
X226420490Y-124866473D01*
X226420691Y-124866955D01*
X226430244Y-124914437D01*
X226432124Y-125871185D01*
X226439942Y-129850711D01*
X226439999Y-129879901D01*
X226440000Y-129879902D01*
X226440000Y-132655336D01*
X226430498Y-132702938D01*
X226430390Y-132703202D01*
X226430303Y-132703411D01*
X226403486Y-132743486D01*
X226363411Y-132770302D01*
X226362938Y-132770498D01*
X226315336Y-132780000D01*
X222464664Y-132780000D01*
X222417148Y-132770534D01*
X222416673Y-132770337D01*
X222376466Y-132743440D01*
X222349610Y-132703202D01*
X222349502Y-132702942D01*
X222349415Y-132702732D01*
X222340000Y-132655336D01*
X222340000Y-129980000D01*
X222340000Y-129880000D01*
X222240000Y-129880000D01*
X219267730Y-129880000D01*
X219220277Y-129870561D01*
X219180049Y-129843681D01*
X217386819Y-128050451D01*
X217359939Y-128010223D01*
X217350500Y-127962770D01*
X217350500Y-127506978D01*
X217357749Y-127465204D01*
X217378647Y-127428313D01*
X217383446Y-127422464D01*
X217435910Y-127358538D01*
X217528814Y-127184727D01*
X217586024Y-126996132D01*
X217605341Y-126800000D01*
X217586024Y-126603868D01*
X217528814Y-126415273D01*
X217435910Y-126241462D01*
X217310883Y-126089117D01*
X217158538Y-125964090D01*
X217136091Y-125952092D01*
X216984726Y-125871185D01*
X216796133Y-125813976D01*
X216600000Y-125794659D01*
X216403866Y-125813976D01*
X216215273Y-125871185D01*
X216041463Y-125964089D01*
X215889117Y-126089117D01*
X215764089Y-126241463D01*
X215671185Y-126415273D01*
X215613976Y-126603866D01*
X215594659Y-126799999D01*
X215613976Y-126996133D01*
X215671185Y-127184726D01*
X215764089Y-127358537D01*
X215821353Y-127428313D01*
X215842251Y-127465204D01*
X215849500Y-127506978D01*
X215849500Y-128261294D01*
X215848191Y-128279264D01*
X215844711Y-128303023D01*
X215849028Y-128352369D01*
X215849500Y-128363176D01*
X215849500Y-128368708D01*
X215853098Y-128399496D01*
X215853464Y-128403081D01*
X215860110Y-128479041D01*
X215864329Y-128498071D01*
X215864758Y-128499251D01*
X215864759Y-128499255D01*
X215890413Y-128569742D01*
X215891582Y-128573107D01*
X215915580Y-128645524D01*
X215924075Y-128663072D01*
X215965979Y-128726784D01*
X215967889Y-128729782D01*
X216007288Y-128793656D01*
X216007952Y-128794732D01*
X216020253Y-128809830D01*
X216021168Y-128810693D01*
X216021170Y-128810696D01*
X216075708Y-128862150D01*
X216078295Y-128864663D01*
X216881951Y-129668319D01*
X216912201Y-129717682D01*
X216916743Y-129775398D01*
X216894588Y-129828885D01*
X216850565Y-129866485D01*
X216794270Y-129880000D01*
X213674664Y-129880000D01*
X213627148Y-129870534D01*
X213626673Y-129870337D01*
X213586466Y-129843440D01*
X213559610Y-129803202D01*
X213559416Y-129802733D01*
X213550000Y-129755336D01*
X213550000Y-124914664D01*
X213559379Y-124867355D01*
X213559577Y-124866878D01*
X213586513Y-124826513D01*
X213626878Y-124799577D01*
X213627355Y-124799379D01*
X213674664Y-124790000D01*
X226305563Y-124790000D01*
X226353052Y-124799454D01*
G37*
%TD.AperFunction*%
%TD*%
%TA.AperFunction,Conductor*%
%TO.N,GND*%
G36*
X198495214Y-124864641D02*
G01*
X198615273Y-124928814D01*
X198803868Y-124986024D01*
X199000000Y-125005341D01*
X199196132Y-124986024D01*
X199384727Y-124928814D01*
X199504785Y-124864641D01*
X199563237Y-124850000D01*
X207283063Y-124850000D01*
X207330552Y-124859454D01*
X207331032Y-124859653D01*
X207371133Y-124886427D01*
X207397990Y-124926473D01*
X207398191Y-124926955D01*
X207407744Y-124974437D01*
X207407767Y-124986024D01*
X207417442Y-129910711D01*
X207417499Y-129939901D01*
X207417500Y-129939902D01*
X207417500Y-132715336D01*
X207407998Y-132762938D01*
X207407890Y-132763202D01*
X207407803Y-132763411D01*
X207380986Y-132803486D01*
X207340911Y-132830302D01*
X207340438Y-132830498D01*
X207292836Y-132840000D01*
X203442164Y-132840000D01*
X203394648Y-132830534D01*
X203394173Y-132830337D01*
X203353966Y-132803440D01*
X203327110Y-132763202D01*
X203327002Y-132762942D01*
X203326915Y-132762732D01*
X203317500Y-132715336D01*
X203317500Y-130040000D01*
X203317500Y-129940000D01*
X203217500Y-129940000D01*
X194652164Y-129940000D01*
X194604648Y-129930534D01*
X194604173Y-129930337D01*
X194563966Y-129903440D01*
X194537110Y-129863202D01*
X194536916Y-129862733D01*
X194527500Y-129815336D01*
X194527500Y-124974664D01*
X194536879Y-124927355D01*
X194537077Y-124926878D01*
X194564013Y-124886513D01*
X194604378Y-124859577D01*
X194604855Y-124859379D01*
X194652164Y-124850000D01*
X198436763Y-124850000D01*
X198495214Y-124864641D01*
G37*
%TD.AperFunction*%
%TD*%
%TA.AperFunction,Conductor*%
%TO.N,GND*%
G36*
X220582732Y-140269415D02*
G01*
X220583203Y-140269611D01*
X220623440Y-140296466D01*
X220650337Y-140336673D01*
X220650534Y-140337148D01*
X220660000Y-140384664D01*
X220660000Y-143160000D01*
X229325336Y-143160000D01*
X229372732Y-143169415D01*
X229373203Y-143169611D01*
X229413440Y-143196466D01*
X229440337Y-143236673D01*
X229440534Y-143237148D01*
X229450000Y-143284664D01*
X229450000Y-148125336D01*
X229440498Y-148172938D01*
X229440303Y-148173411D01*
X229413486Y-148213486D01*
X229373411Y-148240302D01*
X229372938Y-148240498D01*
X229325336Y-148250000D01*
X216694437Y-148250000D01*
X216646830Y-148240497D01*
X216646644Y-148240420D01*
X216646348Y-148240297D01*
X216606320Y-148213527D01*
X216579509Y-148173526D01*
X216579308Y-148173044D01*
X216569755Y-148125565D01*
X216560196Y-143260000D01*
X216560000Y-143160000D01*
X216560000Y-140384664D01*
X216569379Y-140337355D01*
X216569577Y-140336878D01*
X216596513Y-140296513D01*
X216636878Y-140269577D01*
X216637355Y-140269379D01*
X216684664Y-140260000D01*
X220535336Y-140260000D01*
X220582732Y-140269415D01*
G37*
%TD.AperFunction*%
%TD*%
%TA.AperFunction,Conductor*%
%TO.N,GND*%
G36*
X201730232Y-140299415D02*
G01*
X201730703Y-140299611D01*
X201770940Y-140326466D01*
X201797837Y-140366673D01*
X201798034Y-140367148D01*
X201807500Y-140414664D01*
X201807500Y-143190000D01*
X210472836Y-143190000D01*
X210520232Y-143199415D01*
X210520703Y-143199611D01*
X210560940Y-143226466D01*
X210587837Y-143266673D01*
X210588034Y-143267148D01*
X210597500Y-143314664D01*
X210597500Y-148155336D01*
X210587998Y-148202938D01*
X210587803Y-148203411D01*
X210560986Y-148243486D01*
X210520911Y-148270302D01*
X210520438Y-148270498D01*
X210472836Y-148280000D01*
X197841937Y-148280000D01*
X197794330Y-148270497D01*
X197794144Y-148270420D01*
X197793848Y-148270297D01*
X197753820Y-148243527D01*
X197727009Y-148203526D01*
X197726808Y-148203044D01*
X197717255Y-148155565D01*
X197707696Y-143290000D01*
X197707500Y-143190000D01*
X197707500Y-140414664D01*
X197716879Y-140367355D01*
X197717077Y-140366878D01*
X197744013Y-140326513D01*
X197784378Y-140299577D01*
X197784855Y-140299379D01*
X197832164Y-140290000D01*
X201682836Y-140290000D01*
X201730232Y-140299415D01*
G37*
%TD.AperFunction*%
%TD*%
%TA.AperFunction,Conductor*%
%TO.N,GND*%
G36*
X239105232Y-140389415D02*
G01*
X239105703Y-140389611D01*
X239145940Y-140416466D01*
X239172837Y-140456673D01*
X239173034Y-140457148D01*
X239182500Y-140504664D01*
X239182500Y-143280000D01*
X247847836Y-143280000D01*
X247895232Y-143289415D01*
X247895703Y-143289611D01*
X247935940Y-143316466D01*
X247962837Y-143356673D01*
X247963034Y-143357148D01*
X247972500Y-143404664D01*
X247972500Y-148245336D01*
X247962998Y-148292938D01*
X247962803Y-148293411D01*
X247935986Y-148333486D01*
X247895911Y-148360302D01*
X247895438Y-148360498D01*
X247847836Y-148370000D01*
X245200729Y-148370000D01*
X245144434Y-148356485D01*
X245100411Y-148318886D01*
X245078256Y-148265398D01*
X245082798Y-148207682D01*
X245113045Y-148158322D01*
X245210778Y-148060588D01*
X245245437Y-148036179D01*
X245286299Y-148024871D01*
X245376132Y-148016024D01*
X245564727Y-147958814D01*
X245738538Y-147865910D01*
X245890883Y-147740883D01*
X246015910Y-147588538D01*
X246108814Y-147414727D01*
X246166024Y-147226132D01*
X246185341Y-147030000D01*
X246166024Y-146833868D01*
X246108814Y-146645273D01*
X246015910Y-146471462D01*
X245890883Y-146319117D01*
X245738538Y-146194090D01*
X245716091Y-146182092D01*
X245564726Y-146101185D01*
X245376133Y-146043976D01*
X245180000Y-146024659D01*
X244983866Y-146043976D01*
X244795273Y-146101185D01*
X244621463Y-146194089D01*
X244469117Y-146319117D01*
X244344089Y-146471463D01*
X244251185Y-146645273D01*
X244193976Y-146833865D01*
X244185127Y-146923700D01*
X244173818Y-146964562D01*
X244149405Y-146999225D01*
X243214358Y-147934272D01*
X243200727Y-147946053D01*
X243181467Y-147960392D01*
X243149633Y-147998329D01*
X243142341Y-148006289D01*
X243138408Y-148010222D01*
X243119176Y-148034545D01*
X243116902Y-148037337D01*
X243067894Y-148095744D01*
X243057418Y-148112187D01*
X243025192Y-148181294D01*
X243023622Y-148184536D01*
X242989393Y-148252692D01*
X242982062Y-148273787D01*
X242976620Y-148285459D01*
X242976421Y-148285366D01*
X242959571Y-148321963D01*
X242916137Y-148357345D01*
X242861563Y-148370000D01*
X235216937Y-148370000D01*
X235169330Y-148360497D01*
X235169144Y-148360420D01*
X235168848Y-148360297D01*
X235128820Y-148333527D01*
X235102009Y-148293526D01*
X235101808Y-148293044D01*
X235092255Y-148245565D01*
X235082696Y-143380000D01*
X235082500Y-143280000D01*
X235082500Y-140504664D01*
X235091879Y-140457355D01*
X235092077Y-140456878D01*
X235119013Y-140416513D01*
X235159378Y-140389577D01*
X235159855Y-140389379D01*
X235207164Y-140380000D01*
X239057836Y-140380000D01*
X239105232Y-140389415D01*
G37*
%TD.AperFunction*%
%TD*%
%TA.AperFunction,Conductor*%
%TO.N,GND*%
G36*
X235629404Y-124784642D02*
G01*
X235649068Y-124795152D01*
X235665273Y-124803814D01*
X235853868Y-124861024D01*
X236050000Y-124880341D01*
X236246132Y-124861024D01*
X236308636Y-124842063D01*
X236345639Y-124830839D01*
X236381634Y-124825500D01*
X241461294Y-124825500D01*
X241479264Y-124826809D01*
X241483320Y-124827402D01*
X241503023Y-124830289D01*
X241552368Y-124825972D01*
X241563176Y-124825500D01*
X241568706Y-124825500D01*
X241568709Y-124825500D01*
X241599550Y-124821894D01*
X241603031Y-124821539D01*
X241677797Y-124814999D01*
X241677797Y-124814998D01*
X241679052Y-124814889D01*
X241698065Y-124810673D01*
X241699250Y-124810241D01*
X241699255Y-124810241D01*
X241769768Y-124784576D01*
X241773088Y-124783421D01*
X241794603Y-124776292D01*
X241833604Y-124770000D01*
X244630563Y-124770000D01*
X244678052Y-124779454D01*
X244678532Y-124779653D01*
X244718633Y-124806427D01*
X244745490Y-124846473D01*
X244745691Y-124846955D01*
X244755244Y-124894437D01*
X244758911Y-126760919D01*
X244764942Y-129830711D01*
X244765000Y-129859902D01*
X244765000Y-132635336D01*
X244755498Y-132682938D01*
X244755390Y-132683202D01*
X244755303Y-132683411D01*
X244728486Y-132723486D01*
X244688411Y-132750302D01*
X244687938Y-132750498D01*
X244640336Y-132760000D01*
X240789664Y-132760000D01*
X240742148Y-132750534D01*
X240741673Y-132750337D01*
X240701466Y-132723440D01*
X240674610Y-132683202D01*
X240674502Y-132682942D01*
X240674415Y-132682732D01*
X240665000Y-132635336D01*
X240665000Y-129960000D01*
X240665000Y-129860000D01*
X240565000Y-129860000D01*
X231999664Y-129860000D01*
X231952148Y-129850534D01*
X231951673Y-129850337D01*
X231911466Y-129823440D01*
X231884610Y-129783202D01*
X231884416Y-129782733D01*
X231875000Y-129735336D01*
X231875000Y-124894664D01*
X231884379Y-124847355D01*
X231884577Y-124846878D01*
X231911513Y-124806513D01*
X231951878Y-124779577D01*
X231952355Y-124779379D01*
X231999664Y-124770000D01*
X235570951Y-124770000D01*
X235629404Y-124784642D01*
G37*
%TD.AperFunction*%
%TD*%
M02*
