%TF.GenerationSoftware,KiCad,Pcbnew,7.0.1-0*%
%TF.CreationDate,2023-04-01T19:34:20-07:00*%
%TF.ProjectId,1.0,312e302e-6b69-4636-9164-5f7063625858,rev?*%
%TF.SameCoordinates,Original*%
%TF.FileFunction,Soldermask,Bot*%
%TF.FilePolarity,Negative*%
%FSLAX46Y46*%
G04 Gerber Fmt 4.6, Leading zero omitted, Abs format (unit mm)*
G04 Created by KiCad (PCBNEW 7.0.1-0) date 2023-04-01 19:34:20*
%MOMM*%
%LPD*%
G01*
G04 APERTURE LIST*
G04 Aperture macros list*
%AMRoundRect*
0 Rectangle with rounded corners*
0 $1 Rounding radius*
0 $2 $3 $4 $5 $6 $7 $8 $9 X,Y pos of 4 corners*
0 Add a 4 corners polygon primitive as box body*
4,1,4,$2,$3,$4,$5,$6,$7,$8,$9,$2,$3,0*
0 Add four circle primitives for the rounded corners*
1,1,$1+$1,$2,$3*
1,1,$1+$1,$4,$5*
1,1,$1+$1,$6,$7*
1,1,$1+$1,$8,$9*
0 Add four rect primitives between the rounded corners*
20,1,$1+$1,$2,$3,$4,$5,0*
20,1,$1+$1,$4,$5,$6,$7,0*
20,1,$1+$1,$6,$7,$8,$9,0*
20,1,$1+$1,$8,$9,$2,$3,0*%
%AMFreePoly0*
4,1,19,0.550000,-0.750000,0.000000,-0.750000,0.000000,-0.744911,-0.071157,-0.744911,-0.207708,-0.704816,-0.327430,-0.627875,-0.420627,-0.520320,-0.479746,-0.390866,-0.500000,-0.250000,-0.500000,0.250000,-0.479746,0.390866,-0.420627,0.520320,-0.327430,0.627875,-0.207708,0.704816,-0.071157,0.744911,0.000000,0.744911,0.000000,0.750000,0.550000,0.750000,0.550000,-0.750000,0.550000,-0.750000,
$1*%
%AMFreePoly1*
4,1,19,0.000000,0.744911,0.071157,0.744911,0.207708,0.704816,0.327430,0.627875,0.420627,0.520320,0.479746,0.390866,0.500000,0.250000,0.500000,-0.250000,0.479746,-0.390866,0.420627,-0.520320,0.327430,-0.627875,0.207708,-0.704816,0.071157,-0.744911,0.000000,-0.744911,0.000000,-0.750000,-0.550000,-0.750000,-0.550000,0.750000,0.000000,0.750000,0.000000,0.744911,0.000000,0.744911,
$1*%
G04 Aperture macros list end*
%ADD10C,0.010000*%
%ADD11C,3.600000*%
%ADD12R,3.800000X3.800000*%
%ADD13C,4.000000*%
%ADD14C,3.000000*%
%ADD15C,1.000000*%
%ADD16O,2.600000X1.300000*%
%ADD17R,4.916000X4.916000*%
%ADD18C,4.916000*%
%ADD19C,0.650000*%
%ADD20O,2.100000X1.000000*%
%ADD21O,1.600000X1.000000*%
%ADD22R,2.000000X2.000000*%
%ADD23C,2.000000*%
%ADD24RoundRect,0.150000X-0.250000X0.150000X-0.250000X-0.150000X0.250000X-0.150000X0.250000X0.150000X0*%
%ADD25R,1.800000X1.200000*%
%ADD26R,1.550000X0.600000*%
%ADD27R,3.500000X6.000000*%
%ADD28R,0.600000X0.800000*%
%ADD29RoundRect,0.150000X0.150000X-0.825000X0.150000X0.825000X-0.150000X0.825000X-0.150000X-0.825000X0*%
%ADD30FreePoly0,90.000000*%
%ADD31R,1.500000X1.000000*%
%ADD32FreePoly1,90.000000*%
%ADD33RoundRect,0.150000X0.250000X-0.150000X0.250000X0.150000X-0.250000X0.150000X-0.250000X-0.150000X0*%
G04 APERTURE END LIST*
%TO.C,P7*%
D10*
X157912128Y-167353945D02*
X157942954Y-167363568D01*
X157980916Y-167379563D01*
X157999296Y-167388159D01*
X158012561Y-167389713D01*
X158015495Y-167377798D01*
X158015498Y-167377461D01*
X158021709Y-167366087D01*
X158043131Y-167360256D01*
X158084653Y-167358614D01*
X158153812Y-167358614D01*
X158153812Y-167962179D01*
X158015495Y-167962179D01*
X158015495Y-167546027D01*
X157981110Y-167514161D01*
X157970368Y-167505104D01*
X157938370Y-167489630D01*
X157898965Y-167489010D01*
X157845312Y-167502664D01*
X157827225Y-167503529D01*
X157806008Y-167490283D01*
X157777768Y-167458800D01*
X157764069Y-167441385D01*
X157747868Y-167416797D01*
X157745371Y-167401145D01*
X157754442Y-167387941D01*
X157782289Y-167371245D01*
X157825540Y-167358030D01*
X157872464Y-167351478D01*
X157912128Y-167353945D01*
G36*
X157912128Y-167353945D02*
G01*
X157942954Y-167363568D01*
X157980916Y-167379563D01*
X157999296Y-167388159D01*
X158012561Y-167389713D01*
X158015495Y-167377798D01*
X158015498Y-167377461D01*
X158021709Y-167366087D01*
X158043131Y-167360256D01*
X158084653Y-167358614D01*
X158153812Y-167358614D01*
X158153812Y-167962179D01*
X158015495Y-167962179D01*
X158015495Y-167546027D01*
X157981110Y-167514161D01*
X157970368Y-167505104D01*
X157938370Y-167489630D01*
X157898965Y-167489010D01*
X157845312Y-167502664D01*
X157827225Y-167503529D01*
X157806008Y-167490283D01*
X157777768Y-167458800D01*
X157764069Y-167441385D01*
X157747868Y-167416797D01*
X157745371Y-167401145D01*
X157754442Y-167387941D01*
X157782289Y-167371245D01*
X157825540Y-167358030D01*
X157872464Y-167351478D01*
X157912128Y-167353945D01*
G37*
X158095265Y-168309965D02*
X158133255Y-168327745D01*
X158166386Y-168353806D01*
X158166386Y-168327745D01*
X158167211Y-168317849D01*
X158174893Y-168307358D01*
X158195667Y-168302725D01*
X158235544Y-168301683D01*
X158304703Y-168301683D01*
X158304703Y-168917822D01*
X158166386Y-168917822D01*
X158166386Y-168717226D01*
X158166369Y-168705710D01*
X158165189Y-168624758D01*
X158162294Y-168558817D01*
X158157888Y-168511258D01*
X158152181Y-168485452D01*
X158146940Y-168475710D01*
X158114676Y-168445156D01*
X158070730Y-168431631D01*
X158022743Y-168437941D01*
X158010973Y-168442217D01*
X157985898Y-168449776D01*
X157968762Y-168447428D01*
X157951518Y-168432064D01*
X157926124Y-168400571D01*
X157884936Y-168348568D01*
X157913886Y-168325125D01*
X157941405Y-168311015D01*
X157989745Y-168301486D01*
X158044230Y-168301174D01*
X158095265Y-168309965D01*
G36*
X158095265Y-168309965D02*
G01*
X158133255Y-168327745D01*
X158166386Y-168353806D01*
X158166386Y-168327745D01*
X158167211Y-168317849D01*
X158174893Y-168307358D01*
X158195667Y-168302725D01*
X158235544Y-168301683D01*
X158304703Y-168301683D01*
X158304703Y-168917822D01*
X158166386Y-168917822D01*
X158166386Y-168717226D01*
X158166369Y-168705710D01*
X158165189Y-168624758D01*
X158162294Y-168558817D01*
X158157888Y-168511258D01*
X158152181Y-168485452D01*
X158146940Y-168475710D01*
X158114676Y-168445156D01*
X158070730Y-168431631D01*
X158022743Y-168437941D01*
X158010973Y-168442217D01*
X157985898Y-168449776D01*
X157968762Y-168447428D01*
X157951518Y-168432064D01*
X157926124Y-168400571D01*
X157884936Y-168348568D01*
X157913886Y-168325125D01*
X157941405Y-168311015D01*
X157989745Y-168301486D01*
X158044230Y-168301174D01*
X158095265Y-168309965D01*
G37*
X160718960Y-168917822D02*
X160593218Y-168917822D01*
X160593218Y-168723740D01*
X160593078Y-168678594D01*
X160591649Y-168603823D01*
X160588029Y-168548467D01*
X160581434Y-168508702D01*
X160571079Y-168480700D01*
X160556178Y-168460635D01*
X160535946Y-168444681D01*
X160513859Y-168432792D01*
X160487705Y-168429421D01*
X160450508Y-168436917D01*
X160438555Y-168440038D01*
X160408718Y-168444735D01*
X160387383Y-168438005D01*
X160362655Y-168417177D01*
X160357963Y-168412647D01*
X160332020Y-168384626D01*
X160315291Y-168361843D01*
X160312996Y-168356355D01*
X160317543Y-168336088D01*
X160340602Y-168319884D01*
X160376995Y-168308513D01*
X160421544Y-168302740D01*
X160469072Y-168303334D01*
X160514400Y-168311063D01*
X160552351Y-168326694D01*
X160564381Y-168333993D01*
X160584632Y-168344676D01*
X160592129Y-168342230D01*
X160593218Y-168326647D01*
X160593473Y-168321053D01*
X160599539Y-168308660D01*
X160618356Y-168303020D01*
X160656089Y-168301683D01*
X160718960Y-168301683D01*
X160718960Y-168917822D01*
G36*
X160718960Y-168917822D02*
G01*
X160593218Y-168917822D01*
X160593218Y-168723740D01*
X160593078Y-168678594D01*
X160591649Y-168603823D01*
X160588029Y-168548467D01*
X160581434Y-168508702D01*
X160571079Y-168480700D01*
X160556178Y-168460635D01*
X160535946Y-168444681D01*
X160513859Y-168432792D01*
X160487705Y-168429421D01*
X160450508Y-168436917D01*
X160438555Y-168440038D01*
X160408718Y-168444735D01*
X160387383Y-168438005D01*
X160362655Y-168417177D01*
X160357963Y-168412647D01*
X160332020Y-168384626D01*
X160315291Y-168361843D01*
X160312996Y-168356355D01*
X160317543Y-168336088D01*
X160340602Y-168319884D01*
X160376995Y-168308513D01*
X160421544Y-168302740D01*
X160469072Y-168303334D01*
X160514400Y-168311063D01*
X160552351Y-168326694D01*
X160564381Y-168333993D01*
X160584632Y-168344676D01*
X160592129Y-168342230D01*
X160593218Y-168326647D01*
X160593473Y-168321053D01*
X160599539Y-168308660D01*
X160618356Y-168303020D01*
X160656089Y-168301683D01*
X160718960Y-168301683D01*
X160718960Y-168917822D01*
G37*
X158405297Y-167554342D02*
X158406357Y-167642394D01*
X158410509Y-167713510D01*
X158418921Y-167765199D01*
X158432757Y-167800360D01*
X158453182Y-167821889D01*
X158481364Y-167832682D01*
X158518465Y-167835636D01*
X158553890Y-167833000D01*
X158582500Y-167822679D01*
X158603296Y-167801772D01*
X158617442Y-167767381D01*
X158626103Y-167716610D01*
X158630445Y-167646563D01*
X158631633Y-167554342D01*
X158631633Y-167358614D01*
X158757376Y-167358614D01*
X158757376Y-167594578D01*
X158757160Y-167657561D01*
X158755484Y-167739007D01*
X158751277Y-167801121D01*
X158743521Y-167847458D01*
X158731196Y-167881573D01*
X158713285Y-167907022D01*
X158688767Y-167927362D01*
X158656623Y-167946147D01*
X158589125Y-167969928D01*
X158518681Y-167971480D01*
X158452264Y-167949580D01*
X158423286Y-167935383D01*
X158408909Y-167933261D01*
X158405297Y-167943293D01*
X158399299Y-167954556D01*
X158377830Y-167960489D01*
X158336138Y-167962179D01*
X158266980Y-167962179D01*
X158266980Y-167358614D01*
X158405297Y-167358614D01*
X158405297Y-167554342D01*
G36*
X158405297Y-167554342D02*
G01*
X158406357Y-167642394D01*
X158410509Y-167713510D01*
X158418921Y-167765199D01*
X158432757Y-167800360D01*
X158453182Y-167821889D01*
X158481364Y-167832682D01*
X158518465Y-167835636D01*
X158553890Y-167833000D01*
X158582500Y-167822679D01*
X158603296Y-167801772D01*
X158617442Y-167767381D01*
X158626103Y-167716610D01*
X158630445Y-167646563D01*
X158631633Y-167554342D01*
X158631633Y-167358614D01*
X158757376Y-167358614D01*
X158757376Y-167594578D01*
X158757160Y-167657561D01*
X158755484Y-167739007D01*
X158751277Y-167801121D01*
X158743521Y-167847458D01*
X158731196Y-167881573D01*
X158713285Y-167907022D01*
X158688767Y-167927362D01*
X158656623Y-167946147D01*
X158589125Y-167969928D01*
X158518681Y-167971480D01*
X158452264Y-167949580D01*
X158423286Y-167935383D01*
X158408909Y-167933261D01*
X158405297Y-167943293D01*
X158399299Y-167954556D01*
X158377830Y-167960489D01*
X158336138Y-167962179D01*
X158266980Y-167962179D01*
X158266980Y-167358614D01*
X158405297Y-167358614D01*
X158405297Y-167554342D01*
G37*
X160507605Y-167357424D02*
X160564926Y-167375434D01*
X160590199Y-167387674D01*
X160602910Y-167388938D01*
X160605792Y-167377798D01*
X160605795Y-167377461D01*
X160612006Y-167366087D01*
X160633428Y-167360256D01*
X160674950Y-167358614D01*
X160744109Y-167358614D01*
X160744109Y-167962179D01*
X160605792Y-167962179D01*
X160605792Y-167754132D01*
X160605697Y-167683879D01*
X160605051Y-167626170D01*
X160603320Y-167585787D01*
X160599974Y-167558615D01*
X160594481Y-167540540D01*
X160586310Y-167527447D01*
X160574928Y-167515221D01*
X160559424Y-167502217D01*
X160514843Y-167484745D01*
X160468047Y-167489873D01*
X160425180Y-167517507D01*
X160412927Y-167530368D01*
X160404132Y-167543384D01*
X160398233Y-167560706D01*
X160394651Y-167586501D01*
X160392809Y-167624939D01*
X160392128Y-167680189D01*
X160392030Y-167756418D01*
X160392030Y-167962179D01*
X160253713Y-167962179D01*
X160253989Y-167738985D01*
X160254008Y-167729044D01*
X160255207Y-167634106D01*
X160258891Y-167560358D01*
X160266006Y-167504214D01*
X160277500Y-167462087D01*
X160294318Y-167430391D01*
X160317409Y-167405541D01*
X160347717Y-167383950D01*
X160379012Y-167369002D01*
X160442037Y-167355421D01*
X160507605Y-167357424D01*
G36*
X160507605Y-167357424D02*
G01*
X160564926Y-167375434D01*
X160590199Y-167387674D01*
X160602910Y-167388938D01*
X160605792Y-167377798D01*
X160605795Y-167377461D01*
X160612006Y-167366087D01*
X160633428Y-167360256D01*
X160674950Y-167358614D01*
X160744109Y-167358614D01*
X160744109Y-167962179D01*
X160605792Y-167962179D01*
X160605792Y-167754132D01*
X160605697Y-167683879D01*
X160605051Y-167626170D01*
X160603320Y-167585787D01*
X160599974Y-167558615D01*
X160594481Y-167540540D01*
X160586310Y-167527447D01*
X160574928Y-167515221D01*
X160559424Y-167502217D01*
X160514843Y-167484745D01*
X160468047Y-167489873D01*
X160425180Y-167517507D01*
X160412927Y-167530368D01*
X160404132Y-167543384D01*
X160398233Y-167560706D01*
X160394651Y-167586501D01*
X160392809Y-167624939D01*
X160392128Y-167680189D01*
X160392030Y-167756418D01*
X160392030Y-167962179D01*
X160253713Y-167962179D01*
X160253989Y-167738985D01*
X160254008Y-167729044D01*
X160255207Y-167634106D01*
X160258891Y-167560358D01*
X160266006Y-167504214D01*
X160277500Y-167462087D01*
X160294318Y-167430391D01*
X160317409Y-167405541D01*
X160347717Y-167383950D01*
X160379012Y-167369002D01*
X160442037Y-167355421D01*
X160507605Y-167357424D01*
G37*
X157558409Y-167361493D02*
X157627021Y-167388224D01*
X157685048Y-167432351D01*
X157727907Y-167492958D01*
X157730801Y-167499137D01*
X157749176Y-167559409D01*
X157758357Y-167631407D01*
X157758285Y-167706369D01*
X157748901Y-167775536D01*
X157730149Y-167830149D01*
X157706995Y-167868212D01*
X157656030Y-167922135D01*
X157592306Y-167956411D01*
X157537785Y-167970272D01*
X157454767Y-167971785D01*
X157375326Y-167950882D01*
X157304879Y-167908464D01*
X157259284Y-167870880D01*
X157300351Y-167828510D01*
X157326296Y-167803409D01*
X157349764Y-167789434D01*
X157371524Y-167792511D01*
X157399356Y-167811287D01*
X157410454Y-167818638D01*
X157457337Y-167833683D01*
X157511224Y-167833673D01*
X157561675Y-167818168D01*
X157580672Y-167805716D01*
X157608537Y-167768946D01*
X157622506Y-167714939D01*
X157623405Y-167641331D01*
X157623403Y-167641289D01*
X157613009Y-167575433D01*
X157590114Y-167529772D01*
X157552439Y-167501528D01*
X157497708Y-167487920D01*
X157463241Y-167486090D01*
X157433126Y-167493584D01*
X157402240Y-167515295D01*
X157362272Y-167548926D01*
X157311656Y-167508250D01*
X157293163Y-167492667D01*
X157270065Y-167470340D01*
X157261039Y-167457183D01*
X157264236Y-167451253D01*
X157282646Y-167433048D01*
X157311973Y-167409895D01*
X157334920Y-167394830D01*
X157407774Y-167363880D01*
X157483799Y-167353073D01*
X157558409Y-167361493D01*
G36*
X157558409Y-167361493D02*
G01*
X157627021Y-167388224D01*
X157685048Y-167432351D01*
X157727907Y-167492958D01*
X157730801Y-167499137D01*
X157749176Y-167559409D01*
X157758357Y-167631407D01*
X157758285Y-167706369D01*
X157748901Y-167775536D01*
X157730149Y-167830149D01*
X157706995Y-167868212D01*
X157656030Y-167922135D01*
X157592306Y-167956411D01*
X157537785Y-167970272D01*
X157454767Y-167971785D01*
X157375326Y-167950882D01*
X157304879Y-167908464D01*
X157259284Y-167870880D01*
X157300351Y-167828510D01*
X157326296Y-167803409D01*
X157349764Y-167789434D01*
X157371524Y-167792511D01*
X157399356Y-167811287D01*
X157410454Y-167818638D01*
X157457337Y-167833683D01*
X157511224Y-167833673D01*
X157561675Y-167818168D01*
X157580672Y-167805716D01*
X157608537Y-167768946D01*
X157622506Y-167714939D01*
X157623405Y-167641331D01*
X157623403Y-167641289D01*
X157613009Y-167575433D01*
X157590114Y-167529772D01*
X157552439Y-167501528D01*
X157497708Y-167487920D01*
X157463241Y-167486090D01*
X157433126Y-167493584D01*
X157402240Y-167515295D01*
X157362272Y-167548926D01*
X157311656Y-167508250D01*
X157293163Y-167492667D01*
X157270065Y-167470340D01*
X157261039Y-167457183D01*
X157264236Y-167451253D01*
X157282646Y-167433048D01*
X157311973Y-167409895D01*
X157334920Y-167394830D01*
X157407774Y-167363880D01*
X157483799Y-167353073D01*
X157558409Y-167361493D01*
G37*
X159357410Y-167653766D02*
X159357857Y-167703771D01*
X159354349Y-167743565D01*
X159338844Y-167819538D01*
X159311110Y-167877511D01*
X159268898Y-167921300D01*
X159209960Y-167954722D01*
X159187076Y-167962676D01*
X159127812Y-167972601D01*
X159065447Y-167972331D01*
X159012823Y-167961430D01*
X159011789Y-167961034D01*
X158969381Y-167936087D01*
X158926537Y-167897468D01*
X158890986Y-167853306D01*
X158870459Y-167811727D01*
X158864374Y-167781334D01*
X158859164Y-167724429D01*
X158858291Y-167673705D01*
X158984976Y-167673705D01*
X158992549Y-167734545D01*
X159010341Y-167784538D01*
X159037296Y-167817204D01*
X159047513Y-167822812D01*
X159086473Y-167833007D01*
X159131536Y-167835104D01*
X159169448Y-167828020D01*
X159184244Y-167817861D01*
X159205014Y-167782334D01*
X159218083Y-167726732D01*
X159222624Y-167653766D01*
X159222551Y-167632762D01*
X159220974Y-167590203D01*
X159215728Y-167562439D01*
X159204723Y-167541925D01*
X159185868Y-167521112D01*
X159149989Y-167495887D01*
X159103280Y-167485573D01*
X159058151Y-167495396D01*
X159020680Y-167523805D01*
X158996943Y-167569253D01*
X158988675Y-167608497D01*
X158984976Y-167673705D01*
X158858291Y-167673705D01*
X158858049Y-167659621D01*
X158860844Y-167595116D01*
X158867366Y-167539121D01*
X158877432Y-167499842D01*
X158900877Y-167455372D01*
X158950637Y-167400692D01*
X159014238Y-167366055D01*
X159089790Y-167352345D01*
X159175399Y-167360448D01*
X159189644Y-167363899D01*
X159255982Y-167393664D01*
X159305971Y-167442530D01*
X159339612Y-167510501D01*
X159356906Y-167597580D01*
X159357410Y-167653766D01*
G36*
X159357410Y-167653766D02*
G01*
X159357857Y-167703771D01*
X159354349Y-167743565D01*
X159338844Y-167819538D01*
X159311110Y-167877511D01*
X159268898Y-167921300D01*
X159209960Y-167954722D01*
X159187076Y-167962676D01*
X159127812Y-167972601D01*
X159065447Y-167972331D01*
X159012823Y-167961430D01*
X159011789Y-167961034D01*
X158969381Y-167936087D01*
X158926537Y-167897468D01*
X158890986Y-167853306D01*
X158870459Y-167811727D01*
X158864374Y-167781334D01*
X158859164Y-167724429D01*
X158858291Y-167673705D01*
X158984976Y-167673705D01*
X158992549Y-167734545D01*
X159010341Y-167784538D01*
X159037296Y-167817204D01*
X159047513Y-167822812D01*
X159086473Y-167833007D01*
X159131536Y-167835104D01*
X159169448Y-167828020D01*
X159184244Y-167817861D01*
X159205014Y-167782334D01*
X159218083Y-167726732D01*
X159222624Y-167653766D01*
X159222551Y-167632762D01*
X159220974Y-167590203D01*
X159215728Y-167562439D01*
X159204723Y-167541925D01*
X159185868Y-167521112D01*
X159149989Y-167495887D01*
X159103280Y-167485573D01*
X159058151Y-167495396D01*
X159020680Y-167523805D01*
X158996943Y-167569253D01*
X158988675Y-167608497D01*
X158984976Y-167673705D01*
X158858291Y-167673705D01*
X158858049Y-167659621D01*
X158860844Y-167595116D01*
X158867366Y-167539121D01*
X158877432Y-167499842D01*
X158900877Y-167455372D01*
X158950637Y-167400692D01*
X159014238Y-167366055D01*
X159089790Y-167352345D01*
X159175399Y-167360448D01*
X159189644Y-167363899D01*
X159255982Y-167393664D01*
X159305971Y-167442530D01*
X159339612Y-167510501D01*
X159356906Y-167597580D01*
X159357410Y-167653766D01*
G37*
X159457997Y-168499130D02*
X159474997Y-168549850D01*
X159495107Y-168605997D01*
X159511899Y-168648532D01*
X159523986Y-168673990D01*
X159529980Y-168678903D01*
X159531426Y-168674630D01*
X159539254Y-168648422D01*
X159551723Y-168604649D01*
X159567447Y-168548211D01*
X159585043Y-168484010D01*
X159632914Y-168307971D01*
X159706007Y-168304152D01*
X159712177Y-168303846D01*
X159751592Y-168303441D01*
X159770533Y-168307487D01*
X159772945Y-168316726D01*
X159769898Y-168325749D01*
X159759874Y-168356632D01*
X159744180Y-168405544D01*
X159723934Y-168468987D01*
X159700256Y-168543462D01*
X159674263Y-168625471D01*
X159581736Y-168917822D01*
X159465993Y-168917822D01*
X159411457Y-168732352D01*
X159401386Y-168698294D01*
X159382775Y-168636378D01*
X159366872Y-168584787D01*
X159355109Y-168548130D01*
X159348918Y-168531018D01*
X159347154Y-168529741D01*
X159338571Y-168540779D01*
X159326316Y-168569969D01*
X159312426Y-168612750D01*
X159311692Y-168615263D01*
X159293096Y-168678400D01*
X159271818Y-168749889D01*
X159252321Y-168814734D01*
X159220705Y-168919122D01*
X159162402Y-168915328D01*
X159104098Y-168911535D01*
X159050098Y-168741782D01*
X159026390Y-168667193D01*
X158999833Y-168583539D01*
X158974404Y-168503342D01*
X158953354Y-168436857D01*
X158910609Y-168301683D01*
X159053612Y-168301683D01*
X159088274Y-168430570D01*
X159097488Y-168464625D01*
X159114915Y-168528115D01*
X159131054Y-168585874D01*
X159143322Y-168628614D01*
X159163709Y-168697773D01*
X159293745Y-168307971D01*
X159343476Y-168304237D01*
X159393206Y-168300504D01*
X159457997Y-168499130D01*
G36*
X159457997Y-168499130D02*
G01*
X159474997Y-168549850D01*
X159495107Y-168605997D01*
X159511899Y-168648532D01*
X159523986Y-168673990D01*
X159529980Y-168678903D01*
X159531426Y-168674630D01*
X159539254Y-168648422D01*
X159551723Y-168604649D01*
X159567447Y-168548211D01*
X159585043Y-168484010D01*
X159632914Y-168307971D01*
X159706007Y-168304152D01*
X159712177Y-168303846D01*
X159751592Y-168303441D01*
X159770533Y-168307487D01*
X159772945Y-168316726D01*
X159769898Y-168325749D01*
X159759874Y-168356632D01*
X159744180Y-168405544D01*
X159723934Y-168468987D01*
X159700256Y-168543462D01*
X159674263Y-168625471D01*
X159581736Y-168917822D01*
X159465993Y-168917822D01*
X159411457Y-168732352D01*
X159401386Y-168698294D01*
X159382775Y-168636378D01*
X159366872Y-168584787D01*
X159355109Y-168548130D01*
X159348918Y-168531018D01*
X159347154Y-168529741D01*
X159338571Y-168540779D01*
X159326316Y-168569969D01*
X159312426Y-168612750D01*
X159311692Y-168615263D01*
X159293096Y-168678400D01*
X159271818Y-168749889D01*
X159252321Y-168814734D01*
X159220705Y-168919122D01*
X159162402Y-168915328D01*
X159104098Y-168911535D01*
X159050098Y-168741782D01*
X159026390Y-168667193D01*
X158999833Y-168583539D01*
X158974404Y-168503342D01*
X158953354Y-168436857D01*
X158910609Y-168301683D01*
X159053612Y-168301683D01*
X159088274Y-168430570D01*
X159097488Y-168464625D01*
X159114915Y-168528115D01*
X159131054Y-168585874D01*
X159143322Y-168628614D01*
X159163709Y-168697773D01*
X159293745Y-168307971D01*
X159343476Y-168304237D01*
X159393206Y-168300504D01*
X159457997Y-168499130D01*
G37*
X162490672Y-167659219D02*
X162489997Y-167694931D01*
X162488373Y-167734310D01*
X162484688Y-167782332D01*
X162478410Y-167816368D01*
X162468044Y-167843338D01*
X162452092Y-167870158D01*
X162451412Y-167871175D01*
X162412132Y-167914629D01*
X162364072Y-167947772D01*
X162308185Y-167967439D01*
X162234666Y-167973824D01*
X162162609Y-167961268D01*
X162098201Y-167931011D01*
X162047627Y-167884294D01*
X162033108Y-167862221D01*
X162005993Y-167793602D01*
X161992546Y-167708939D01*
X161992776Y-167687523D01*
X162127920Y-167687523D01*
X162128174Y-167727574D01*
X162132421Y-167754313D01*
X162142096Y-167774859D01*
X162158638Y-167796331D01*
X162181593Y-167817639D01*
X162227505Y-167836653D01*
X162276802Y-167833122D01*
X162323917Y-167806694D01*
X162337207Y-167794072D01*
X162351397Y-167772465D01*
X162359266Y-167742094D01*
X162363726Y-167694770D01*
X162364955Y-167659219D01*
X162358224Y-167586620D01*
X162337567Y-167534642D01*
X162302894Y-167502999D01*
X162262249Y-167487847D01*
X162213777Y-167489123D01*
X162168845Y-167514703D01*
X162158103Y-167524442D01*
X162144548Y-167541480D01*
X162136505Y-167563772D01*
X162132043Y-167597947D01*
X162129228Y-167650638D01*
X162127920Y-167687523D01*
X161992776Y-167687523D01*
X161993583Y-167612351D01*
X161994907Y-167598651D01*
X162013374Y-167510908D01*
X162047540Y-167442793D01*
X162097479Y-167394231D01*
X162163261Y-167365148D01*
X162244961Y-167355471D01*
X162275828Y-167356379D01*
X162339128Y-167367493D01*
X162390889Y-167394021D01*
X162439147Y-167439436D01*
X162446865Y-167448551D01*
X162467681Y-167479248D01*
X162481362Y-167514007D01*
X162488948Y-167558056D01*
X162491479Y-167616621D01*
X162490672Y-167659219D01*
G36*
X162490672Y-167659219D02*
G01*
X162489997Y-167694931D01*
X162488373Y-167734310D01*
X162484688Y-167782332D01*
X162478410Y-167816368D01*
X162468044Y-167843338D01*
X162452092Y-167870158D01*
X162451412Y-167871175D01*
X162412132Y-167914629D01*
X162364072Y-167947772D01*
X162308185Y-167967439D01*
X162234666Y-167973824D01*
X162162609Y-167961268D01*
X162098201Y-167931011D01*
X162047627Y-167884294D01*
X162033108Y-167862221D01*
X162005993Y-167793602D01*
X161992546Y-167708939D01*
X161992776Y-167687523D01*
X162127920Y-167687523D01*
X162128174Y-167727574D01*
X162132421Y-167754313D01*
X162142096Y-167774859D01*
X162158638Y-167796331D01*
X162181593Y-167817639D01*
X162227505Y-167836653D01*
X162276802Y-167833122D01*
X162323917Y-167806694D01*
X162337207Y-167794072D01*
X162351397Y-167772465D01*
X162359266Y-167742094D01*
X162363726Y-167694770D01*
X162364955Y-167659219D01*
X162358224Y-167586620D01*
X162337567Y-167534642D01*
X162302894Y-167502999D01*
X162262249Y-167487847D01*
X162213777Y-167489123D01*
X162168845Y-167514703D01*
X162158103Y-167524442D01*
X162144548Y-167541480D01*
X162136505Y-167563772D01*
X162132043Y-167597947D01*
X162129228Y-167650638D01*
X162127920Y-167687523D01*
X161992776Y-167687523D01*
X161993583Y-167612351D01*
X161994907Y-167598651D01*
X162013374Y-167510908D01*
X162047540Y-167442793D01*
X162097479Y-167394231D01*
X162163261Y-167365148D01*
X162244961Y-167355471D01*
X162275828Y-167356379D01*
X162339128Y-167367493D01*
X162390889Y-167394021D01*
X162439147Y-167439436D01*
X162446865Y-167448551D01*
X162467681Y-167479248D01*
X162481362Y-167514007D01*
X162488948Y-167558056D01*
X162491479Y-167616621D01*
X162490672Y-167659219D01*
G37*
X160315633Y-168616155D02*
X160315761Y-168656813D01*
X160314167Y-168710571D01*
X160310962Y-168748018D01*
X160310413Y-168751450D01*
X160288838Y-168812835D01*
X160249438Y-168864877D01*
X160197752Y-168900135D01*
X160142248Y-168914729D01*
X160073977Y-168913597D01*
X160011173Y-168894029D01*
X159994815Y-168885771D01*
X159973779Y-168876923D01*
X159965774Y-168879676D01*
X159964505Y-168894029D01*
X159963922Y-168901186D01*
X159956394Y-168911772D01*
X159935488Y-168916645D01*
X159895346Y-168917822D01*
X159826188Y-168917822D01*
X159826188Y-168615930D01*
X159964505Y-168615930D01*
X159965496Y-168668230D01*
X159969519Y-168703050D01*
X159978108Y-168726905D01*
X159992797Y-168746895D01*
X160031584Y-168776618D01*
X160076974Y-168786582D01*
X160120989Y-168774260D01*
X160158060Y-168739888D01*
X160167859Y-168714735D01*
X160175097Y-168670194D01*
X160178279Y-168616155D01*
X160177277Y-168560728D01*
X160171961Y-168512022D01*
X160162204Y-168478148D01*
X160159087Y-168472593D01*
X160129038Y-168444674D01*
X160088315Y-168432306D01*
X160044579Y-168435183D01*
X160005491Y-168453000D01*
X159978710Y-168485452D01*
X159977603Y-168488181D01*
X159970963Y-168518634D01*
X159966278Y-168564139D01*
X159964505Y-168615930D01*
X159826188Y-168615930D01*
X159826188Y-168062773D01*
X159964505Y-168062773D01*
X159964505Y-168355878D01*
X159990124Y-168332693D01*
X160014792Y-168318282D01*
X160061480Y-168306236D01*
X160116056Y-168302354D01*
X160169354Y-168307120D01*
X160212207Y-168321014D01*
X160242878Y-168340779D01*
X160274471Y-168374449D01*
X160295733Y-168419730D01*
X160308514Y-168480981D01*
X160314664Y-168562563D01*
X160315568Y-168595540D01*
X160315633Y-168616155D01*
G36*
X160315633Y-168616155D02*
G01*
X160315761Y-168656813D01*
X160314167Y-168710571D01*
X160310962Y-168748018D01*
X160310413Y-168751450D01*
X160288838Y-168812835D01*
X160249438Y-168864877D01*
X160197752Y-168900135D01*
X160142248Y-168914729D01*
X160073977Y-168913597D01*
X160011173Y-168894029D01*
X159994815Y-168885771D01*
X159973779Y-168876923D01*
X159965774Y-168879676D01*
X159964505Y-168894029D01*
X159963922Y-168901186D01*
X159956394Y-168911772D01*
X159935488Y-168916645D01*
X159895346Y-168917822D01*
X159826188Y-168917822D01*
X159826188Y-168615930D01*
X159964505Y-168615930D01*
X159965496Y-168668230D01*
X159969519Y-168703050D01*
X159978108Y-168726905D01*
X159992797Y-168746895D01*
X160031584Y-168776618D01*
X160076974Y-168786582D01*
X160120989Y-168774260D01*
X160158060Y-168739888D01*
X160167859Y-168714735D01*
X160175097Y-168670194D01*
X160178279Y-168616155D01*
X160177277Y-168560728D01*
X160171961Y-168512022D01*
X160162204Y-168478148D01*
X160159087Y-168472593D01*
X160129038Y-168444674D01*
X160088315Y-168432306D01*
X160044579Y-168435183D01*
X160005491Y-168453000D01*
X159978710Y-168485452D01*
X159977603Y-168488181D01*
X159970963Y-168518634D01*
X159966278Y-168564139D01*
X159964505Y-168615930D01*
X159826188Y-168615930D01*
X159826188Y-168062773D01*
X159964505Y-168062773D01*
X159964505Y-168355878D01*
X159990124Y-168332693D01*
X160014792Y-168318282D01*
X160061480Y-168306236D01*
X160116056Y-168302354D01*
X160169354Y-168307120D01*
X160212207Y-168321014D01*
X160242878Y-168340779D01*
X160274471Y-168374449D01*
X160295733Y-168419730D01*
X160308514Y-168480981D01*
X160314664Y-168562563D01*
X160315568Y-168595540D01*
X160315633Y-168616155D01*
G37*
X157237900Y-167585542D02*
X157244444Y-167619878D01*
X157242825Y-167716121D01*
X157242615Y-167718014D01*
X157224535Y-167806325D01*
X157191870Y-167874986D01*
X157143601Y-167925506D01*
X157078713Y-167959393D01*
X157066801Y-167963268D01*
X156992971Y-167974688D01*
X156916614Y-167968320D01*
X156845626Y-167945563D01*
X156787904Y-167907819D01*
X156744667Y-167867872D01*
X156790625Y-167831532D01*
X156836583Y-167795193D01*
X156891969Y-167822101D01*
X156956056Y-167843905D01*
X157012632Y-167844558D01*
X157058920Y-167824525D01*
X157092230Y-167784315D01*
X157104171Y-167760222D01*
X157110837Y-167739630D01*
X157106980Y-167725720D01*
X157089675Y-167717181D01*
X157055997Y-167712704D01*
X157003021Y-167710978D01*
X156927822Y-167710693D01*
X156745495Y-167710693D01*
X156745495Y-167623492D01*
X156746857Y-167585210D01*
X156875234Y-167585210D01*
X156881399Y-167592251D01*
X156899654Y-167595916D01*
X156934352Y-167597306D01*
X156989846Y-167597525D01*
X157019603Y-167597176D01*
X157066562Y-167594867D01*
X157098416Y-167590822D01*
X157110148Y-167585542D01*
X157107146Y-167566062D01*
X157085988Y-167528786D01*
X157050731Y-167498164D01*
X157008699Y-167479668D01*
X156967220Y-167478773D01*
X156935997Y-167493604D01*
X156900618Y-167527355D01*
X156878122Y-167569233D01*
X156876805Y-167573690D01*
X156875234Y-167585210D01*
X156746857Y-167585210D01*
X156747136Y-167577371D01*
X156751955Y-167531740D01*
X156758840Y-167500893D01*
X156763859Y-167489117D01*
X156800390Y-167436667D01*
X156853175Y-167392921D01*
X156914904Y-167364279D01*
X156947102Y-167356457D01*
X157023820Y-167352896D01*
X157092179Y-167371009D01*
X157150299Y-167408779D01*
X157196302Y-167464191D01*
X157228310Y-167535229D01*
X157237900Y-167585542D01*
G36*
X157237900Y-167585542D02*
G01*
X157244444Y-167619878D01*
X157242825Y-167716121D01*
X157242615Y-167718014D01*
X157224535Y-167806325D01*
X157191870Y-167874986D01*
X157143601Y-167925506D01*
X157078713Y-167959393D01*
X157066801Y-167963268D01*
X156992971Y-167974688D01*
X156916614Y-167968320D01*
X156845626Y-167945563D01*
X156787904Y-167907819D01*
X156744667Y-167867872D01*
X156790625Y-167831532D01*
X156836583Y-167795193D01*
X156891969Y-167822101D01*
X156956056Y-167843905D01*
X157012632Y-167844558D01*
X157058920Y-167824525D01*
X157092230Y-167784315D01*
X157104171Y-167760222D01*
X157110837Y-167739630D01*
X157106980Y-167725720D01*
X157089675Y-167717181D01*
X157055997Y-167712704D01*
X157003021Y-167710978D01*
X156927822Y-167710693D01*
X156745495Y-167710693D01*
X156745495Y-167623492D01*
X156746857Y-167585210D01*
X156875234Y-167585210D01*
X156881399Y-167592251D01*
X156899654Y-167595916D01*
X156934352Y-167597306D01*
X156989846Y-167597525D01*
X157019603Y-167597176D01*
X157066562Y-167594867D01*
X157098416Y-167590822D01*
X157110148Y-167585542D01*
X157107146Y-167566062D01*
X157085988Y-167528786D01*
X157050731Y-167498164D01*
X157008699Y-167479668D01*
X156967220Y-167478773D01*
X156935997Y-167493604D01*
X156900618Y-167527355D01*
X156878122Y-167569233D01*
X156876805Y-167573690D01*
X156875234Y-167585210D01*
X156746857Y-167585210D01*
X156747136Y-167577371D01*
X156751955Y-167531740D01*
X156758840Y-167500893D01*
X156763859Y-167489117D01*
X156800390Y-167436667D01*
X156853175Y-167392921D01*
X156914904Y-167364279D01*
X156947102Y-167356457D01*
X157023820Y-167352896D01*
X157092179Y-167371009D01*
X157150299Y-167408779D01*
X157196302Y-167464191D01*
X157228310Y-167535229D01*
X157237900Y-167585542D01*
G37*
X159723874Y-167358207D02*
X159796495Y-167376408D01*
X159849546Y-167410144D01*
X159883329Y-167459642D01*
X159898147Y-167525126D01*
X159895147Y-167587820D01*
X159873493Y-167640699D01*
X159831967Y-167679796D01*
X159769736Y-167705873D01*
X159685969Y-167719695D01*
X159631540Y-167726940D01*
X159581860Y-167742615D01*
X159556211Y-167765314D01*
X159554662Y-167794998D01*
X159564984Y-167813507D01*
X159596951Y-167835443D01*
X159642395Y-167845818D01*
X159695649Y-167844399D01*
X159751048Y-167830952D01*
X159802928Y-167805243D01*
X159854653Y-167771013D01*
X159900148Y-167817049D01*
X159945643Y-167863084D01*
X159907921Y-167893876D01*
X159893253Y-167904574D01*
X159851983Y-167928880D01*
X159807327Y-167949825D01*
X159771984Y-167961845D01*
X159720234Y-167970552D01*
X159656435Y-167970667D01*
X159578200Y-167961081D01*
X159507722Y-167936783D01*
X159457836Y-167898188D01*
X159428423Y-167845198D01*
X159419365Y-167777718D01*
X159425921Y-167718354D01*
X159446970Y-167669752D01*
X159484864Y-167634946D01*
X159542004Y-167611798D01*
X159620785Y-167598170D01*
X159629834Y-167597183D01*
X159678885Y-167590892D01*
X159718675Y-167584309D01*
X159741312Y-167578708D01*
X159748866Y-167574197D01*
X159761637Y-167550941D01*
X159759563Y-167521171D01*
X159742495Y-167495327D01*
X159733533Y-167489691D01*
X159696188Y-167480660D01*
X159647950Y-167481267D01*
X159597650Y-167490878D01*
X159554115Y-167508858D01*
X159508372Y-167535847D01*
X159472890Y-167494384D01*
X159464280Y-167483850D01*
X159444883Y-167455632D01*
X159436897Y-167436508D01*
X159445283Y-167424781D01*
X159471226Y-167406476D01*
X159508688Y-167386777D01*
X159513966Y-167384370D01*
X159563366Y-167365482D01*
X159610983Y-167356452D01*
X159670072Y-167354639D01*
X159723874Y-167358207D01*
G36*
X159723874Y-167358207D02*
G01*
X159796495Y-167376408D01*
X159849546Y-167410144D01*
X159883329Y-167459642D01*
X159898147Y-167525126D01*
X159895147Y-167587820D01*
X159873493Y-167640699D01*
X159831967Y-167679796D01*
X159769736Y-167705873D01*
X159685969Y-167719695D01*
X159631540Y-167726940D01*
X159581860Y-167742615D01*
X159556211Y-167765314D01*
X159554662Y-167794998D01*
X159564984Y-167813507D01*
X159596951Y-167835443D01*
X159642395Y-167845818D01*
X159695649Y-167844399D01*
X159751048Y-167830952D01*
X159802928Y-167805243D01*
X159854653Y-167771013D01*
X159900148Y-167817049D01*
X159945643Y-167863084D01*
X159907921Y-167893876D01*
X159893253Y-167904574D01*
X159851983Y-167928880D01*
X159807327Y-167949825D01*
X159771984Y-167961845D01*
X159720234Y-167970552D01*
X159656435Y-167970667D01*
X159578200Y-167961081D01*
X159507722Y-167936783D01*
X159457836Y-167898188D01*
X159428423Y-167845198D01*
X159419365Y-167777718D01*
X159425921Y-167718354D01*
X159446970Y-167669752D01*
X159484864Y-167634946D01*
X159542004Y-167611798D01*
X159620785Y-167598170D01*
X159629834Y-167597183D01*
X159678885Y-167590892D01*
X159718675Y-167584309D01*
X159741312Y-167578708D01*
X159748866Y-167574197D01*
X159761637Y-167550941D01*
X159759563Y-167521171D01*
X159742495Y-167495327D01*
X159733533Y-167489691D01*
X159696188Y-167480660D01*
X159647950Y-167481267D01*
X159597650Y-167490878D01*
X159554115Y-167508858D01*
X159508372Y-167535847D01*
X159472890Y-167494384D01*
X159464280Y-167483850D01*
X159444883Y-167455632D01*
X159436897Y-167436508D01*
X159445283Y-167424781D01*
X159471226Y-167406476D01*
X159508688Y-167386777D01*
X159513966Y-167384370D01*
X159563366Y-167365482D01*
X159610983Y-167356452D01*
X159670072Y-167354639D01*
X159723874Y-167358207D01*
G37*
X157884579Y-168541413D02*
X157889353Y-168609753D01*
X157887718Y-168656692D01*
X157872827Y-168746459D01*
X157842185Y-168817045D01*
X157795524Y-168868952D01*
X157732574Y-168902686D01*
X157712235Y-168908647D01*
X157639612Y-168916971D01*
X157562928Y-168909946D01*
X157493663Y-168888265D01*
X157469262Y-168875959D01*
X157434275Y-168854879D01*
X157413072Y-168837534D01*
X157409942Y-168833571D01*
X157404085Y-168819077D01*
X157412524Y-168803321D01*
X157438221Y-168779460D01*
X157450622Y-168769072D01*
X157475052Y-168750063D01*
X157487861Y-168742293D01*
X157491530Y-168743094D01*
X157512561Y-168751745D01*
X157543960Y-168766931D01*
X157554197Y-168771926D01*
X157614590Y-168790475D01*
X157667057Y-168785694D01*
X157713065Y-168757500D01*
X157718419Y-168752291D01*
X157744013Y-168719659D01*
X157758637Y-168688342D01*
X157766736Y-168653763D01*
X157386782Y-168653763D01*
X157386852Y-168587748D01*
X157386892Y-168581182D01*
X157392022Y-168528218D01*
X157525099Y-168528218D01*
X157526670Y-168539203D01*
X157534738Y-168546773D01*
X157553967Y-168550975D01*
X157589019Y-168552783D01*
X157644554Y-168553169D01*
X157675429Y-168552768D01*
X157721002Y-168550429D01*
X157752348Y-168546465D01*
X157764010Y-168541413D01*
X157754064Y-168499827D01*
X157724947Y-168461013D01*
X157682952Y-168434086D01*
X157634440Y-168424772D01*
X157598723Y-168435272D01*
X157563020Y-168460940D01*
X157535879Y-168494381D01*
X157525099Y-168528218D01*
X157392022Y-168528218D01*
X157394758Y-168499965D01*
X157417655Y-168433895D01*
X157457607Y-168376940D01*
X157481979Y-168352848D01*
X157532315Y-168320597D01*
X157592419Y-168304970D01*
X157668338Y-168303871D01*
X157705010Y-168308179D01*
X157772703Y-168330549D01*
X157824530Y-168371263D01*
X157860945Y-168430949D01*
X157882401Y-168510236D01*
X157884579Y-168541413D01*
G36*
X157884579Y-168541413D02*
G01*
X157889353Y-168609753D01*
X157887718Y-168656692D01*
X157872827Y-168746459D01*
X157842185Y-168817045D01*
X157795524Y-168868952D01*
X157732574Y-168902686D01*
X157712235Y-168908647D01*
X157639612Y-168916971D01*
X157562928Y-168909946D01*
X157493663Y-168888265D01*
X157469262Y-168875959D01*
X157434275Y-168854879D01*
X157413072Y-168837534D01*
X157409942Y-168833571D01*
X157404085Y-168819077D01*
X157412524Y-168803321D01*
X157438221Y-168779460D01*
X157450622Y-168769072D01*
X157475052Y-168750063D01*
X157487861Y-168742293D01*
X157491530Y-168743094D01*
X157512561Y-168751745D01*
X157543960Y-168766931D01*
X157554197Y-168771926D01*
X157614590Y-168790475D01*
X157667057Y-168785694D01*
X157713065Y-168757500D01*
X157718419Y-168752291D01*
X157744013Y-168719659D01*
X157758637Y-168688342D01*
X157766736Y-168653763D01*
X157386782Y-168653763D01*
X157386852Y-168587748D01*
X157386892Y-168581182D01*
X157392022Y-168528218D01*
X157525099Y-168528218D01*
X157526670Y-168539203D01*
X157534738Y-168546773D01*
X157553967Y-168550975D01*
X157589019Y-168552783D01*
X157644554Y-168553169D01*
X157675429Y-168552768D01*
X157721002Y-168550429D01*
X157752348Y-168546465D01*
X157764010Y-168541413D01*
X157754064Y-168499827D01*
X157724947Y-168461013D01*
X157682952Y-168434086D01*
X157634440Y-168424772D01*
X157598723Y-168435272D01*
X157563020Y-168460940D01*
X157535879Y-168494381D01*
X157525099Y-168528218D01*
X157392022Y-168528218D01*
X157394758Y-168499965D01*
X157417655Y-168433895D01*
X157457607Y-168376940D01*
X157481979Y-168352848D01*
X157532315Y-168320597D01*
X157592419Y-168304970D01*
X157668338Y-168303871D01*
X157705010Y-168308179D01*
X157772703Y-168330549D01*
X157824530Y-168371263D01*
X157860945Y-168430949D01*
X157882401Y-168510236D01*
X157884579Y-168541413D01*
G37*
X161331482Y-167582299D02*
X161332022Y-167584861D01*
X161336421Y-167672936D01*
X161335322Y-167711371D01*
X161322926Y-167795367D01*
X161295608Y-167861595D01*
X161251941Y-167912784D01*
X161190495Y-167951663D01*
X161130888Y-167969812D01*
X161056110Y-167973284D01*
X160980664Y-167959930D01*
X160913366Y-167930425D01*
X160888428Y-167914012D01*
X160860951Y-167892973D01*
X160848414Y-167879129D01*
X160849124Y-167873417D01*
X160863158Y-167853955D01*
X160889533Y-167830376D01*
X160935240Y-167795513D01*
X160988799Y-167822262D01*
X161003282Y-167828882D01*
X161045916Y-167843273D01*
X161081649Y-167849010D01*
X161107998Y-167844282D01*
X161149347Y-167821514D01*
X161184104Y-167786170D01*
X161203983Y-167745273D01*
X161212083Y-167710693D01*
X160832129Y-167710693D01*
X160832199Y-167644679D01*
X160832774Y-167623757D01*
X160836972Y-167578862D01*
X160970445Y-167578862D01*
X160970690Y-167581434D01*
X160977604Y-167589443D01*
X160997141Y-167594364D01*
X161033467Y-167596843D01*
X161090748Y-167597525D01*
X161109575Y-167597517D01*
X161158470Y-167597065D01*
X161187863Y-167595113D01*
X161202115Y-167590558D01*
X161205582Y-167582299D01*
X161202625Y-167569233D01*
X161202173Y-167567752D01*
X161176699Y-167522285D01*
X161136539Y-167490981D01*
X161088651Y-167479327D01*
X161070949Y-167480259D01*
X161038094Y-167491408D01*
X161006575Y-167519763D01*
X160998085Y-167529789D01*
X160978336Y-167558423D01*
X160970445Y-167578862D01*
X160836972Y-167578862D01*
X160837512Y-167573091D01*
X160845459Y-167531166D01*
X160854168Y-167507696D01*
X160884790Y-167456646D01*
X160925799Y-167410283D01*
X160969168Y-167378514D01*
X160981699Y-167372614D01*
X161054661Y-167353046D01*
X161129168Y-167355109D01*
X161199217Y-167377931D01*
X161258807Y-167420639D01*
X161291038Y-167460025D01*
X161317392Y-167515510D01*
X161331482Y-167582299D01*
G36*
X161331482Y-167582299D02*
G01*
X161332022Y-167584861D01*
X161336421Y-167672936D01*
X161335322Y-167711371D01*
X161322926Y-167795367D01*
X161295608Y-167861595D01*
X161251941Y-167912784D01*
X161190495Y-167951663D01*
X161130888Y-167969812D01*
X161056110Y-167973284D01*
X160980664Y-167959930D01*
X160913366Y-167930425D01*
X160888428Y-167914012D01*
X160860951Y-167892973D01*
X160848414Y-167879129D01*
X160849124Y-167873417D01*
X160863158Y-167853955D01*
X160889533Y-167830376D01*
X160935240Y-167795513D01*
X160988799Y-167822262D01*
X161003282Y-167828882D01*
X161045916Y-167843273D01*
X161081649Y-167849010D01*
X161107998Y-167844282D01*
X161149347Y-167821514D01*
X161184104Y-167786170D01*
X161203983Y-167745273D01*
X161212083Y-167710693D01*
X160832129Y-167710693D01*
X160832199Y-167644679D01*
X160832774Y-167623757D01*
X160836972Y-167578862D01*
X160970445Y-167578862D01*
X160970690Y-167581434D01*
X160977604Y-167589443D01*
X160997141Y-167594364D01*
X161033467Y-167596843D01*
X161090748Y-167597525D01*
X161109575Y-167597517D01*
X161158470Y-167597065D01*
X161187863Y-167595113D01*
X161202115Y-167590558D01*
X161205582Y-167582299D01*
X161202625Y-167569233D01*
X161202173Y-167567752D01*
X161176699Y-167522285D01*
X161136539Y-167490981D01*
X161088651Y-167479327D01*
X161070949Y-167480259D01*
X161038094Y-167491408D01*
X161006575Y-167519763D01*
X160998085Y-167529789D01*
X160978336Y-167558423D01*
X160970445Y-167578862D01*
X160836972Y-167578862D01*
X160837512Y-167573091D01*
X160845459Y-167531166D01*
X160854168Y-167507696D01*
X160884790Y-167456646D01*
X160925799Y-167410283D01*
X160969168Y-167378514D01*
X160981699Y-167372614D01*
X161054661Y-167353046D01*
X161129168Y-167355109D01*
X161199217Y-167377931D01*
X161258807Y-167420639D01*
X161291038Y-167460025D01*
X161317392Y-167515510D01*
X161331482Y-167582299D01*
G37*
X158913254Y-168731824D02*
X158914413Y-168752333D01*
X158899244Y-168809419D01*
X158866277Y-168858255D01*
X158816270Y-168893386D01*
X158811362Y-168895521D01*
X158756646Y-168910903D01*
X158694993Y-168916899D01*
X158636376Y-168913233D01*
X158590767Y-168899629D01*
X158572549Y-168890754D01*
X158559179Y-168888637D01*
X158556188Y-168899706D01*
X158550524Y-168909942D01*
X158528607Y-168916038D01*
X158486068Y-168917822D01*
X158415948Y-168917822D01*
X158419680Y-168697773D01*
X158556188Y-168697773D01*
X158560924Y-168730666D01*
X158581336Y-168766931D01*
X158588871Y-168773597D01*
X158619753Y-168787620D01*
X158666213Y-168791228D01*
X158694090Y-168789819D01*
X158746255Y-168779204D01*
X158778587Y-168759425D01*
X158789492Y-168731824D01*
X158777374Y-168697743D01*
X158770304Y-168688824D01*
X158738724Y-168668818D01*
X158688744Y-168657395D01*
X158617487Y-168653763D01*
X158556188Y-168653763D01*
X158556188Y-168697773D01*
X158419680Y-168697773D01*
X158420053Y-168675768D01*
X158421169Y-168619794D01*
X158424106Y-168535996D01*
X158429058Y-168471920D01*
X158437002Y-168424073D01*
X158448917Y-168388962D01*
X158465780Y-168363093D01*
X158488572Y-168342974D01*
X158518269Y-168325110D01*
X158533589Y-168318290D01*
X158586589Y-168305417D01*
X158650513Y-168300095D01*
X158716602Y-168302227D01*
X158776099Y-168311714D01*
X158820247Y-168328461D01*
X158835604Y-168338185D01*
X158870960Y-168367005D01*
X158882926Y-168391137D01*
X158880020Y-168395800D01*
X158861909Y-168412088D01*
X158832672Y-168433817D01*
X158817725Y-168443987D01*
X158792270Y-168458397D01*
X158775728Y-168459773D01*
X158760370Y-168449827D01*
X158722094Y-168429684D01*
X158670590Y-168421400D01*
X158617957Y-168427742D01*
X158616961Y-168428030D01*
X158579838Y-168444158D01*
X158561463Y-168469405D01*
X158556380Y-168511158D01*
X158556188Y-168550879D01*
X158687423Y-168555168D01*
X158708331Y-168555873D01*
X158761043Y-168558326D01*
X158796381Y-168562180D01*
X158820267Y-168568878D01*
X158838624Y-168579864D01*
X158857376Y-168596580D01*
X158888337Y-168635244D01*
X158911029Y-168692456D01*
X158913254Y-168731824D01*
G36*
X158913254Y-168731824D02*
G01*
X158914413Y-168752333D01*
X158899244Y-168809419D01*
X158866277Y-168858255D01*
X158816270Y-168893386D01*
X158811362Y-168895521D01*
X158756646Y-168910903D01*
X158694993Y-168916899D01*
X158636376Y-168913233D01*
X158590767Y-168899629D01*
X158572549Y-168890754D01*
X158559179Y-168888637D01*
X158556188Y-168899706D01*
X158550524Y-168909942D01*
X158528607Y-168916038D01*
X158486068Y-168917822D01*
X158415948Y-168917822D01*
X158419680Y-168697773D01*
X158556188Y-168697773D01*
X158560924Y-168730666D01*
X158581336Y-168766931D01*
X158588871Y-168773597D01*
X158619753Y-168787620D01*
X158666213Y-168791228D01*
X158694090Y-168789819D01*
X158746255Y-168779204D01*
X158778587Y-168759425D01*
X158789492Y-168731824D01*
X158777374Y-168697743D01*
X158770304Y-168688824D01*
X158738724Y-168668818D01*
X158688744Y-168657395D01*
X158617487Y-168653763D01*
X158556188Y-168653763D01*
X158556188Y-168697773D01*
X158419680Y-168697773D01*
X158420053Y-168675768D01*
X158421169Y-168619794D01*
X158424106Y-168535996D01*
X158429058Y-168471920D01*
X158437002Y-168424073D01*
X158448917Y-168388962D01*
X158465780Y-168363093D01*
X158488572Y-168342974D01*
X158518269Y-168325110D01*
X158533589Y-168318290D01*
X158586589Y-168305417D01*
X158650513Y-168300095D01*
X158716602Y-168302227D01*
X158776099Y-168311714D01*
X158820247Y-168328461D01*
X158835604Y-168338185D01*
X158870960Y-168367005D01*
X158882926Y-168391137D01*
X158880020Y-168395800D01*
X158861909Y-168412088D01*
X158832672Y-168433817D01*
X158817725Y-168443987D01*
X158792270Y-168458397D01*
X158775728Y-168459773D01*
X158760370Y-168449827D01*
X158722094Y-168429684D01*
X158670590Y-168421400D01*
X158617957Y-168427742D01*
X158616961Y-168428030D01*
X158579838Y-168444158D01*
X158561463Y-168469405D01*
X158556380Y-168511158D01*
X158556188Y-168550879D01*
X158687423Y-168555168D01*
X158708331Y-168555873D01*
X158761043Y-168558326D01*
X158796381Y-168562180D01*
X158820267Y-168568878D01*
X158838624Y-168579864D01*
X158857376Y-168596580D01*
X158888337Y-168635244D01*
X158911029Y-168692456D01*
X158913254Y-168731824D01*
G37*
X161330955Y-168721566D02*
X161332299Y-168750223D01*
X161332157Y-168751882D01*
X161316835Y-168816479D01*
X161282753Y-168865063D01*
X161228218Y-168900072D01*
X161200036Y-168908589D01*
X161151764Y-168915228D01*
X161098978Y-168916813D01*
X161051353Y-168913160D01*
X161018566Y-168904083D01*
X160998652Y-168896813D01*
X160979155Y-168904083D01*
X160972023Y-168908295D01*
X160943557Y-168915126D01*
X160905059Y-168917822D01*
X160844703Y-168917822D01*
X160844703Y-168702111D01*
X160983020Y-168702111D01*
X160987668Y-168738904D01*
X161006015Y-168771269D01*
X161016514Y-168778274D01*
X161053988Y-168789191D01*
X161100773Y-168791917D01*
X161146652Y-168786379D01*
X161181410Y-168772505D01*
X161198726Y-168754161D01*
X161209356Y-168721566D01*
X161199929Y-168695729D01*
X161168764Y-168673263D01*
X161118667Y-168658850D01*
X161052582Y-168653763D01*
X160983020Y-168653763D01*
X160983020Y-168702111D01*
X160844703Y-168702111D01*
X160844703Y-168674484D01*
X160844707Y-168653440D01*
X160844937Y-168574122D01*
X160845797Y-168515154D01*
X160847679Y-168472616D01*
X160850974Y-168442592D01*
X160856073Y-168421163D01*
X160863366Y-168404411D01*
X160873246Y-168388419D01*
X160905023Y-168350948D01*
X160950055Y-168322339D01*
X161009210Y-168306555D01*
X161087161Y-168301703D01*
X161089695Y-168301708D01*
X161143880Y-168304155D01*
X161192380Y-168310256D01*
X161225478Y-168318809D01*
X161234552Y-168323096D01*
X161263433Y-168341248D01*
X161289568Y-168362822D01*
X161306764Y-168382236D01*
X161308825Y-168393909D01*
X161304803Y-168397063D01*
X161260976Y-168430739D01*
X161231671Y-168450600D01*
X161212294Y-168458613D01*
X161198253Y-168456746D01*
X161184957Y-168446965D01*
X161160418Y-168434756D01*
X161119064Y-168426615D01*
X161072326Y-168424503D01*
X161030034Y-168428800D01*
X161002017Y-168439887D01*
X161000543Y-168441236D01*
X160987953Y-168466581D01*
X160983020Y-168504411D01*
X160983020Y-168553169D01*
X161099331Y-168553216D01*
X161152760Y-168554061D01*
X161197735Y-168557740D01*
X161229907Y-168565309D01*
X161255899Y-168577808D01*
X161261948Y-168581647D01*
X161305710Y-168623845D01*
X161328987Y-168679647D01*
X161330955Y-168721566D01*
G36*
X161330955Y-168721566D02*
G01*
X161332299Y-168750223D01*
X161332157Y-168751882D01*
X161316835Y-168816479D01*
X161282753Y-168865063D01*
X161228218Y-168900072D01*
X161200036Y-168908589D01*
X161151764Y-168915228D01*
X161098978Y-168916813D01*
X161051353Y-168913160D01*
X161018566Y-168904083D01*
X160998652Y-168896813D01*
X160979155Y-168904083D01*
X160972023Y-168908295D01*
X160943557Y-168915126D01*
X160905059Y-168917822D01*
X160844703Y-168917822D01*
X160844703Y-168702111D01*
X160983020Y-168702111D01*
X160987668Y-168738904D01*
X161006015Y-168771269D01*
X161016514Y-168778274D01*
X161053988Y-168789191D01*
X161100773Y-168791917D01*
X161146652Y-168786379D01*
X161181410Y-168772505D01*
X161198726Y-168754161D01*
X161209356Y-168721566D01*
X161199929Y-168695729D01*
X161168764Y-168673263D01*
X161118667Y-168658850D01*
X161052582Y-168653763D01*
X160983020Y-168653763D01*
X160983020Y-168702111D01*
X160844703Y-168702111D01*
X160844703Y-168674484D01*
X160844707Y-168653440D01*
X160844937Y-168574122D01*
X160845797Y-168515154D01*
X160847679Y-168472616D01*
X160850974Y-168442592D01*
X160856073Y-168421163D01*
X160863366Y-168404411D01*
X160873246Y-168388419D01*
X160905023Y-168350948D01*
X160950055Y-168322339D01*
X161009210Y-168306555D01*
X161087161Y-168301703D01*
X161089695Y-168301708D01*
X161143880Y-168304155D01*
X161192380Y-168310256D01*
X161225478Y-168318809D01*
X161234552Y-168323096D01*
X161263433Y-168341248D01*
X161289568Y-168362822D01*
X161306764Y-168382236D01*
X161308825Y-168393909D01*
X161304803Y-168397063D01*
X161260976Y-168430739D01*
X161231671Y-168450600D01*
X161212294Y-168458613D01*
X161198253Y-168456746D01*
X161184957Y-168446965D01*
X161160418Y-168434756D01*
X161119064Y-168426615D01*
X161072326Y-168424503D01*
X161030034Y-168428800D01*
X161002017Y-168439887D01*
X161000543Y-168441236D01*
X160987953Y-168466581D01*
X160983020Y-168504411D01*
X160983020Y-168553169D01*
X161099331Y-168553216D01*
X161152760Y-168554061D01*
X161197735Y-168557740D01*
X161229907Y-168565309D01*
X161255899Y-168577808D01*
X161261948Y-168581647D01*
X161305710Y-168623845D01*
X161328987Y-168679647D01*
X161330955Y-168721566D01*
G37*
X161900940Y-167670650D02*
X161900940Y-168919136D01*
X161834926Y-168915336D01*
X161768911Y-168911535D01*
X161765772Y-168710347D01*
X161764844Y-168661425D01*
X161762208Y-168587926D01*
X161757683Y-168533991D01*
X161750438Y-168495995D01*
X161739642Y-168470313D01*
X161724462Y-168453320D01*
X161704066Y-168441389D01*
X161665797Y-168429205D01*
X161627738Y-168433940D01*
X161587549Y-168459979D01*
X161548861Y-168492533D01*
X161548861Y-168917822D01*
X161410544Y-168917822D01*
X161410544Y-168687176D01*
X161410677Y-168614882D01*
X161411413Y-168550641D01*
X161413181Y-168503618D01*
X161416411Y-168469548D01*
X161421530Y-168444170D01*
X161428967Y-168423221D01*
X161439150Y-168402436D01*
X161441564Y-168398024D01*
X161473675Y-168355047D01*
X161511256Y-168325013D01*
X161556564Y-168309243D01*
X161616561Y-168302222D01*
X161676643Y-168306025D01*
X161725525Y-168320868D01*
X161762624Y-168340052D01*
X161762624Y-167924859D01*
X161711792Y-167951354D01*
X161690558Y-167960980D01*
X161623536Y-167974592D01*
X161556930Y-167965184D01*
X161495187Y-167933905D01*
X161442757Y-167881902D01*
X161434543Y-167869680D01*
X161426649Y-167851763D01*
X161421500Y-167827404D01*
X161418527Y-167791927D01*
X161417161Y-167740656D01*
X161416915Y-167687236D01*
X161549749Y-167687236D01*
X161549861Y-167731849D01*
X161553272Y-167761601D01*
X161560937Y-167782835D01*
X161573814Y-167801896D01*
X161590171Y-167819617D01*
X161616329Y-167833028D01*
X161655742Y-167836436D01*
X161690559Y-167833471D01*
X161725020Y-167818631D01*
X161747215Y-167788569D01*
X161759097Y-167740254D01*
X161762624Y-167670650D01*
X161761712Y-167633624D01*
X161752609Y-167563728D01*
X161733828Y-167516464D01*
X161705476Y-167492168D01*
X161676840Y-167485332D01*
X161626970Y-167488537D01*
X161584833Y-167508380D01*
X161574749Y-167517480D01*
X161564063Y-167533223D01*
X161557456Y-167556658D01*
X161553532Y-167593604D01*
X161550897Y-167649880D01*
X161549749Y-167687236D01*
X161416915Y-167687236D01*
X161416831Y-167668917D01*
X161416944Y-167636184D01*
X161418872Y-167560044D01*
X161424240Y-167503166D01*
X161434406Y-167461249D01*
X161450725Y-167429996D01*
X161474553Y-167405106D01*
X161507247Y-167382282D01*
X161533759Y-167369184D01*
X161596615Y-167354739D01*
X161662869Y-167356707D01*
X161721757Y-167375433D01*
X161747030Y-167387673D01*
X161759742Y-167388938D01*
X161762624Y-167377798D01*
X161762626Y-167377461D01*
X161768838Y-167366087D01*
X161790260Y-167360256D01*
X161831782Y-167358614D01*
X161900940Y-167358614D01*
X161900940Y-167670650D01*
G36*
X161900940Y-167670650D02*
G01*
X161900940Y-168919136D01*
X161834926Y-168915336D01*
X161768911Y-168911535D01*
X161765772Y-168710347D01*
X161764844Y-168661425D01*
X161762208Y-168587926D01*
X161757683Y-168533991D01*
X161750438Y-168495995D01*
X161739642Y-168470313D01*
X161724462Y-168453320D01*
X161704066Y-168441389D01*
X161665797Y-168429205D01*
X161627738Y-168433940D01*
X161587549Y-168459979D01*
X161548861Y-168492533D01*
X161548861Y-168917822D01*
X161410544Y-168917822D01*
X161410544Y-168687176D01*
X161410677Y-168614882D01*
X161411413Y-168550641D01*
X161413181Y-168503618D01*
X161416411Y-168469548D01*
X161421530Y-168444170D01*
X161428967Y-168423221D01*
X161439150Y-168402436D01*
X161441564Y-168398024D01*
X161473675Y-168355047D01*
X161511256Y-168325013D01*
X161556564Y-168309243D01*
X161616561Y-168302222D01*
X161676643Y-168306025D01*
X161725525Y-168320868D01*
X161762624Y-168340052D01*
X161762624Y-167924859D01*
X161711792Y-167951354D01*
X161690558Y-167960980D01*
X161623536Y-167974592D01*
X161556930Y-167965184D01*
X161495187Y-167933905D01*
X161442757Y-167881902D01*
X161434543Y-167869680D01*
X161426649Y-167851763D01*
X161421500Y-167827404D01*
X161418527Y-167791927D01*
X161417161Y-167740656D01*
X161416915Y-167687236D01*
X161549749Y-167687236D01*
X161549861Y-167731849D01*
X161553272Y-167761601D01*
X161560937Y-167782835D01*
X161573814Y-167801896D01*
X161590171Y-167819617D01*
X161616329Y-167833028D01*
X161655742Y-167836436D01*
X161690559Y-167833471D01*
X161725020Y-167818631D01*
X161747215Y-167788569D01*
X161759097Y-167740254D01*
X161762624Y-167670650D01*
X161761712Y-167633624D01*
X161752609Y-167563728D01*
X161733828Y-167516464D01*
X161705476Y-167492168D01*
X161676840Y-167485332D01*
X161626970Y-167488537D01*
X161584833Y-167508380D01*
X161574749Y-167517480D01*
X161564063Y-167533223D01*
X161557456Y-167556658D01*
X161553532Y-167593604D01*
X161550897Y-167649880D01*
X161549749Y-167687236D01*
X161416915Y-167687236D01*
X161416831Y-167668917D01*
X161416944Y-167636184D01*
X161418872Y-167560044D01*
X161424240Y-167503166D01*
X161434406Y-167461249D01*
X161450725Y-167429996D01*
X161474553Y-167405106D01*
X161507247Y-167382282D01*
X161533759Y-167369184D01*
X161596615Y-167354739D01*
X161662869Y-167356707D01*
X161721757Y-167375433D01*
X161747030Y-167387673D01*
X161759742Y-167388938D01*
X161762624Y-167377798D01*
X161762626Y-167377461D01*
X161768838Y-167366087D01*
X161790260Y-167360256D01*
X161831782Y-167358614D01*
X161900940Y-167358614D01*
X161900940Y-167670650D01*
G37*
X159989389Y-163190018D02*
X160046237Y-163491570D01*
X160256001Y-163578041D01*
X160465764Y-163664512D01*
X160717410Y-163493395D01*
X160767216Y-163459661D01*
X160833244Y-163415381D01*
X160890410Y-163377561D01*
X160935744Y-163348142D01*
X160966280Y-163329067D01*
X160979046Y-163322278D01*
X160986887Y-163327106D01*
X161010325Y-163347339D01*
X161045794Y-163380543D01*
X161090289Y-163423670D01*
X161140805Y-163473670D01*
X161194336Y-163527495D01*
X161247877Y-163582095D01*
X161298423Y-163634423D01*
X161342968Y-163681428D01*
X161378507Y-163720063D01*
X161402034Y-163747278D01*
X161410544Y-163760024D01*
X161408565Y-163765500D01*
X161394857Y-163789927D01*
X161369825Y-163830129D01*
X161335499Y-163882952D01*
X161293907Y-163945247D01*
X161247079Y-164013862D01*
X161221380Y-164051283D01*
X161177173Y-164116432D01*
X161139272Y-164173289D01*
X161109698Y-164218770D01*
X161090472Y-164249793D01*
X161083614Y-164263274D01*
X161083726Y-164264021D01*
X161089776Y-164281110D01*
X161103654Y-164316006D01*
X161123427Y-164364151D01*
X161147160Y-164420986D01*
X161172918Y-164481953D01*
X161198766Y-164542492D01*
X161222771Y-164598047D01*
X161242998Y-164644057D01*
X161257511Y-164675965D01*
X161264377Y-164689212D01*
X161268439Y-164690387D01*
X161293121Y-164695687D01*
X161337111Y-164704467D01*
X161396887Y-164716040D01*
X161468929Y-164729721D01*
X161549716Y-164744823D01*
X161592294Y-164752830D01*
X161670445Y-164768107D01*
X161738775Y-164782215D01*
X161793551Y-164794345D01*
X161831037Y-164803686D01*
X161847500Y-164809427D01*
X161850457Y-164815119D01*
X161855362Y-164842930D01*
X161859216Y-164889250D01*
X161862021Y-164949720D01*
X161863781Y-165019983D01*
X161864499Y-165095680D01*
X161864177Y-165172453D01*
X161862819Y-165245944D01*
X161860428Y-165311794D01*
X161857006Y-165365645D01*
X161852556Y-165403138D01*
X161847082Y-165419916D01*
X161843760Y-165421809D01*
X161818987Y-165429926D01*
X161776011Y-165440666D01*
X161719802Y-165452853D01*
X161655325Y-165465310D01*
X161633570Y-165469277D01*
X161533093Y-165487729D01*
X161454126Y-165502559D01*
X161393934Y-165514380D01*
X161349778Y-165523809D01*
X161318920Y-165531460D01*
X161298625Y-165537948D01*
X161286154Y-165543888D01*
X161278771Y-165549894D01*
X161277913Y-165550902D01*
X161265838Y-165571919D01*
X161247971Y-165610376D01*
X161226042Y-165661761D01*
X161201784Y-165721563D01*
X161176927Y-165785270D01*
X161153205Y-165848371D01*
X161132347Y-165906355D01*
X161116087Y-165954709D01*
X161106156Y-165988922D01*
X161104285Y-166004483D01*
X161105536Y-166006502D01*
X161118486Y-166026028D01*
X161142840Y-166062042D01*
X161176340Y-166111228D01*
X161216727Y-166170267D01*
X161261745Y-166235842D01*
X161274100Y-166253884D01*
X161317545Y-166318599D01*
X161355091Y-166376476D01*
X161384594Y-166424082D01*
X161403914Y-166457985D01*
X161410905Y-166474752D01*
X161409398Y-166479161D01*
X161393695Y-166500882D01*
X161362714Y-166536354D01*
X161318673Y-166583188D01*
X161263790Y-166638996D01*
X161200286Y-166701392D01*
X161163988Y-166736317D01*
X161106595Y-166790711D01*
X161056361Y-166837302D01*
X161015984Y-166873636D01*
X160988161Y-166897261D01*
X160975590Y-166905724D01*
X160966952Y-166902587D01*
X160940360Y-166887747D01*
X160901741Y-166863477D01*
X160856134Y-166832852D01*
X160823707Y-166810503D01*
X160758970Y-166766122D01*
X160689886Y-166718987D01*
X160626787Y-166676155D01*
X160503178Y-166592547D01*
X160399417Y-166648650D01*
X160374984Y-166661599D01*
X160330552Y-166683749D01*
X160296191Y-166699041D01*
X160277828Y-166704743D01*
X160271818Y-166697421D01*
X160256895Y-166669541D01*
X160234852Y-166623575D01*
X160206917Y-166562441D01*
X160174317Y-166489055D01*
X160138276Y-166406335D01*
X160100023Y-166317197D01*
X160060783Y-166224559D01*
X160021783Y-166131337D01*
X159984249Y-166040450D01*
X159949409Y-165954814D01*
X159918488Y-165877345D01*
X159892714Y-165810962D01*
X159873311Y-165758582D01*
X159861508Y-165723121D01*
X159858531Y-165707496D01*
X159858732Y-165707039D01*
X159872601Y-165692595D01*
X159901611Y-165669974D01*
X159939772Y-165643864D01*
X159951817Y-165635892D01*
X160043469Y-165560256D01*
X160119323Y-165470169D01*
X160177581Y-165369381D01*
X160216448Y-165261640D01*
X160234128Y-165150697D01*
X160228826Y-165040303D01*
X160207347Y-164942115D01*
X160168782Y-164842966D01*
X160112562Y-164754512D01*
X160035410Y-164670487D01*
X160005095Y-164643645D01*
X159907094Y-164577510D01*
X159801227Y-164532970D01*
X159690561Y-164509625D01*
X159578164Y-164507078D01*
X159467105Y-164524929D01*
X159360451Y-164562780D01*
X159261270Y-164620232D01*
X159172631Y-164696887D01*
X159097600Y-164792345D01*
X159083175Y-164815985D01*
X159034143Y-164924034D01*
X159008103Y-165036548D01*
X159004372Y-165150614D01*
X159022268Y-165263318D01*
X159061109Y-165371745D01*
X159120214Y-165472982D01*
X159198900Y-165564114D01*
X159296485Y-165642228D01*
X159299654Y-165644333D01*
X159337411Y-165670940D01*
X159365709Y-165693561D01*
X159378634Y-165707496D01*
X159377003Y-165718421D01*
X159366864Y-165750231D01*
X159348884Y-165799534D01*
X159324292Y-165863413D01*
X159294311Y-165938948D01*
X159260170Y-166023223D01*
X159223092Y-166113320D01*
X159184306Y-166206321D01*
X159145036Y-166299308D01*
X159106509Y-166389364D01*
X159069950Y-166473571D01*
X159036586Y-166549010D01*
X159007643Y-166612765D01*
X158984346Y-166661917D01*
X158967923Y-166693549D01*
X158959598Y-166704743D01*
X158952674Y-166703227D01*
X158925477Y-166692331D01*
X158885280Y-166673228D01*
X158838009Y-166648650D01*
X158734248Y-166592547D01*
X158610639Y-166676155D01*
X158574120Y-166700913D01*
X158506194Y-166747171D01*
X158438475Y-166793503D01*
X158381291Y-166832852D01*
X158349732Y-166854297D01*
X158308714Y-166880939D01*
X158278301Y-166899178D01*
X158263446Y-166905941D01*
X158257065Y-166903070D01*
X158233996Y-166885485D01*
X158198433Y-166854523D01*
X158153471Y-166813231D01*
X158102206Y-166764653D01*
X158047733Y-166711835D01*
X157993148Y-166657823D01*
X157941547Y-166605661D01*
X157896024Y-166558396D01*
X157859675Y-166519072D01*
X157835595Y-166490736D01*
X157826881Y-166476432D01*
X157827383Y-166473711D01*
X157837755Y-166451560D01*
X157859912Y-166413235D01*
X157891712Y-166362200D01*
X157931016Y-166301914D01*
X157975681Y-166235842D01*
X157988207Y-166217617D01*
X158032193Y-166153485D01*
X158070937Y-166096789D01*
X158102182Y-166050844D01*
X158123669Y-166018970D01*
X158133140Y-166004483D01*
X158133373Y-166003862D01*
X158130578Y-165986139D01*
X158119903Y-165950235D01*
X158103081Y-165900662D01*
X158081843Y-165841932D01*
X158057921Y-165778556D01*
X158033046Y-165715046D01*
X158008950Y-165655913D01*
X157987365Y-165605669D01*
X157970023Y-165568826D01*
X157958655Y-165549894D01*
X157957516Y-165548719D01*
X157949376Y-165542773D01*
X157935629Y-165536776D01*
X157913537Y-165530114D01*
X157880363Y-165522173D01*
X157833370Y-165512337D01*
X157769820Y-165499991D01*
X157686976Y-165484520D01*
X157582100Y-165465310D01*
X157560348Y-165461267D01*
X157498036Y-165448769D01*
X157445619Y-165436927D01*
X157408066Y-165426917D01*
X157390343Y-165419916D01*
X157387378Y-165414075D01*
X157382435Y-165386016D01*
X157378518Y-165339500D01*
X157375629Y-165278886D01*
X157373773Y-165208532D01*
X157372952Y-165132796D01*
X157373168Y-165056037D01*
X157374426Y-164982612D01*
X157376728Y-164916880D01*
X157380076Y-164863200D01*
X157384474Y-164825930D01*
X157389926Y-164809427D01*
X157395491Y-164806989D01*
X157423178Y-164799305D01*
X157469979Y-164788436D01*
X157532157Y-164775192D01*
X157605979Y-164760384D01*
X157687710Y-164744823D01*
X157732336Y-164736509D01*
X157808824Y-164722092D01*
X157874660Y-164709467D01*
X157926323Y-164699321D01*
X157960293Y-164692341D01*
X157973048Y-164689212D01*
X157973528Y-164688568D01*
X157981651Y-164672181D01*
X157997137Y-164637852D01*
X158018050Y-164590136D01*
X158042455Y-164533586D01*
X158068416Y-164472758D01*
X158093997Y-164412206D01*
X158117262Y-164356485D01*
X158136277Y-164310150D01*
X158149105Y-164277755D01*
X158153812Y-164263855D01*
X158151736Y-164258965D01*
X158137920Y-164235692D01*
X158112860Y-164196519D01*
X158078568Y-164144520D01*
X158037059Y-164082768D01*
X157990346Y-164014336D01*
X157964718Y-163976860D01*
X157920490Y-163911156D01*
X157882570Y-163853492D01*
X157852980Y-163807014D01*
X157833743Y-163774865D01*
X157826881Y-163760190D01*
X157831649Y-163752230D01*
X157851593Y-163728446D01*
X157884313Y-163692451D01*
X157926805Y-163647295D01*
X157976065Y-163596028D01*
X158029091Y-163541701D01*
X158082877Y-163487364D01*
X158134421Y-163436067D01*
X158180720Y-163390859D01*
X158218769Y-163354792D01*
X158245565Y-163330914D01*
X158258105Y-163322278D01*
X158265066Y-163325636D01*
X158290627Y-163341210D01*
X158331874Y-163367715D01*
X158385837Y-163403210D01*
X158449542Y-163445750D01*
X158520016Y-163493395D01*
X158771662Y-163664512D01*
X159191188Y-163491570D01*
X159248036Y-163190018D01*
X159304885Y-162888466D01*
X159932540Y-162888466D01*
X159989389Y-163190018D01*
G36*
X159989389Y-163190018D02*
G01*
X160046237Y-163491570D01*
X160256001Y-163578041D01*
X160465764Y-163664512D01*
X160717410Y-163493395D01*
X160767216Y-163459661D01*
X160833244Y-163415381D01*
X160890410Y-163377561D01*
X160935744Y-163348142D01*
X160966280Y-163329067D01*
X160979046Y-163322278D01*
X160986887Y-163327106D01*
X161010325Y-163347339D01*
X161045794Y-163380543D01*
X161090289Y-163423670D01*
X161140805Y-163473670D01*
X161194336Y-163527495D01*
X161247877Y-163582095D01*
X161298423Y-163634423D01*
X161342968Y-163681428D01*
X161378507Y-163720063D01*
X161402034Y-163747278D01*
X161410544Y-163760024D01*
X161408565Y-163765500D01*
X161394857Y-163789927D01*
X161369825Y-163830129D01*
X161335499Y-163882952D01*
X161293907Y-163945247D01*
X161247079Y-164013862D01*
X161221380Y-164051283D01*
X161177173Y-164116432D01*
X161139272Y-164173289D01*
X161109698Y-164218770D01*
X161090472Y-164249793D01*
X161083614Y-164263274D01*
X161083726Y-164264021D01*
X161089776Y-164281110D01*
X161103654Y-164316006D01*
X161123427Y-164364151D01*
X161147160Y-164420986D01*
X161172918Y-164481953D01*
X161198766Y-164542492D01*
X161222771Y-164598047D01*
X161242998Y-164644057D01*
X161257511Y-164675965D01*
X161264377Y-164689212D01*
X161268439Y-164690387D01*
X161293121Y-164695687D01*
X161337111Y-164704467D01*
X161396887Y-164716040D01*
X161468929Y-164729721D01*
X161549716Y-164744823D01*
X161592294Y-164752830D01*
X161670445Y-164768107D01*
X161738775Y-164782215D01*
X161793551Y-164794345D01*
X161831037Y-164803686D01*
X161847500Y-164809427D01*
X161850457Y-164815119D01*
X161855362Y-164842930D01*
X161859216Y-164889250D01*
X161862021Y-164949720D01*
X161863781Y-165019983D01*
X161864499Y-165095680D01*
X161864177Y-165172453D01*
X161862819Y-165245944D01*
X161860428Y-165311794D01*
X161857006Y-165365645D01*
X161852556Y-165403138D01*
X161847082Y-165419916D01*
X161843760Y-165421809D01*
X161818987Y-165429926D01*
X161776011Y-165440666D01*
X161719802Y-165452853D01*
X161655325Y-165465310D01*
X161633570Y-165469277D01*
X161533093Y-165487729D01*
X161454126Y-165502559D01*
X161393934Y-165514380D01*
X161349778Y-165523809D01*
X161318920Y-165531460D01*
X161298625Y-165537948D01*
X161286154Y-165543888D01*
X161278771Y-165549894D01*
X161277913Y-165550902D01*
X161265838Y-165571919D01*
X161247971Y-165610376D01*
X161226042Y-165661761D01*
X161201784Y-165721563D01*
X161176927Y-165785270D01*
X161153205Y-165848371D01*
X161132347Y-165906355D01*
X161116087Y-165954709D01*
X161106156Y-165988922D01*
X161104285Y-166004483D01*
X161105536Y-166006502D01*
X161118486Y-166026028D01*
X161142840Y-166062042D01*
X161176340Y-166111228D01*
X161216727Y-166170267D01*
X161261745Y-166235842D01*
X161274100Y-166253884D01*
X161317545Y-166318599D01*
X161355091Y-166376476D01*
X161384594Y-166424082D01*
X161403914Y-166457985D01*
X161410905Y-166474752D01*
X161409398Y-166479161D01*
X161393695Y-166500882D01*
X161362714Y-166536354D01*
X161318673Y-166583188D01*
X161263790Y-166638996D01*
X161200286Y-166701392D01*
X161163988Y-166736317D01*
X161106595Y-166790711D01*
X161056361Y-166837302D01*
X161015984Y-166873636D01*
X160988161Y-166897261D01*
X160975590Y-166905724D01*
X160966952Y-166902587D01*
X160940360Y-166887747D01*
X160901741Y-166863477D01*
X160856134Y-166832852D01*
X160823707Y-166810503D01*
X160758970Y-166766122D01*
X160689886Y-166718987D01*
X160626787Y-166676155D01*
X160503178Y-166592547D01*
X160399417Y-166648650D01*
X160374984Y-166661599D01*
X160330552Y-166683749D01*
X160296191Y-166699041D01*
X160277828Y-166704743D01*
X160271818Y-166697421D01*
X160256895Y-166669541D01*
X160234852Y-166623575D01*
X160206917Y-166562441D01*
X160174317Y-166489055D01*
X160138276Y-166406335D01*
X160100023Y-166317197D01*
X160060783Y-166224559D01*
X160021783Y-166131337D01*
X159984249Y-166040450D01*
X159949409Y-165954814D01*
X159918488Y-165877345D01*
X159892714Y-165810962D01*
X159873311Y-165758582D01*
X159861508Y-165723121D01*
X159858531Y-165707496D01*
X159858732Y-165707039D01*
X159872601Y-165692595D01*
X159901611Y-165669974D01*
X159939772Y-165643864D01*
X159951817Y-165635892D01*
X160043469Y-165560256D01*
X160119323Y-165470169D01*
X160177581Y-165369381D01*
X160216448Y-165261640D01*
X160234128Y-165150697D01*
X160228826Y-165040303D01*
X160207347Y-164942115D01*
X160168782Y-164842966D01*
X160112562Y-164754512D01*
X160035410Y-164670487D01*
X160005095Y-164643645D01*
X159907094Y-164577510D01*
X159801227Y-164532970D01*
X159690561Y-164509625D01*
X159578164Y-164507078D01*
X159467105Y-164524929D01*
X159360451Y-164562780D01*
X159261270Y-164620232D01*
X159172631Y-164696887D01*
X159097600Y-164792345D01*
X159083175Y-164815985D01*
X159034143Y-164924034D01*
X159008103Y-165036548D01*
X159004372Y-165150614D01*
X159022268Y-165263318D01*
X159061109Y-165371745D01*
X159120214Y-165472982D01*
X159198900Y-165564114D01*
X159296485Y-165642228D01*
X159299654Y-165644333D01*
X159337411Y-165670940D01*
X159365709Y-165693561D01*
X159378634Y-165707496D01*
X159377003Y-165718421D01*
X159366864Y-165750231D01*
X159348884Y-165799534D01*
X159324292Y-165863413D01*
X159294311Y-165938948D01*
X159260170Y-166023223D01*
X159223092Y-166113320D01*
X159184306Y-166206321D01*
X159145036Y-166299308D01*
X159106509Y-166389364D01*
X159069950Y-166473571D01*
X159036586Y-166549010D01*
X159007643Y-166612765D01*
X158984346Y-166661917D01*
X158967923Y-166693549D01*
X158959598Y-166704743D01*
X158952674Y-166703227D01*
X158925477Y-166692331D01*
X158885280Y-166673228D01*
X158838009Y-166648650D01*
X158734248Y-166592547D01*
X158610639Y-166676155D01*
X158574120Y-166700913D01*
X158506194Y-166747171D01*
X158438475Y-166793503D01*
X158381291Y-166832852D01*
X158349732Y-166854297D01*
X158308714Y-166880939D01*
X158278301Y-166899178D01*
X158263446Y-166905941D01*
X158257065Y-166903070D01*
X158233996Y-166885485D01*
X158198433Y-166854523D01*
X158153471Y-166813231D01*
X158102206Y-166764653D01*
X158047733Y-166711835D01*
X157993148Y-166657823D01*
X157941547Y-166605661D01*
X157896024Y-166558396D01*
X157859675Y-166519072D01*
X157835595Y-166490736D01*
X157826881Y-166476432D01*
X157827383Y-166473711D01*
X157837755Y-166451560D01*
X157859912Y-166413235D01*
X157891712Y-166362200D01*
X157931016Y-166301914D01*
X157975681Y-166235842D01*
X157988207Y-166217617D01*
X158032193Y-166153485D01*
X158070937Y-166096789D01*
X158102182Y-166050844D01*
X158123669Y-166018970D01*
X158133140Y-166004483D01*
X158133373Y-166003862D01*
X158130578Y-165986139D01*
X158119903Y-165950235D01*
X158103081Y-165900662D01*
X158081843Y-165841932D01*
X158057921Y-165778556D01*
X158033046Y-165715046D01*
X158008950Y-165655913D01*
X157987365Y-165605669D01*
X157970023Y-165568826D01*
X157958655Y-165549894D01*
X157957516Y-165548719D01*
X157949376Y-165542773D01*
X157935629Y-165536776D01*
X157913537Y-165530114D01*
X157880363Y-165522173D01*
X157833370Y-165512337D01*
X157769820Y-165499991D01*
X157686976Y-165484520D01*
X157582100Y-165465310D01*
X157560348Y-165461267D01*
X157498036Y-165448769D01*
X157445619Y-165436927D01*
X157408066Y-165426917D01*
X157390343Y-165419916D01*
X157387378Y-165414075D01*
X157382435Y-165386016D01*
X157378518Y-165339500D01*
X157375629Y-165278886D01*
X157373773Y-165208532D01*
X157372952Y-165132796D01*
X157373168Y-165056037D01*
X157374426Y-164982612D01*
X157376728Y-164916880D01*
X157380076Y-164863200D01*
X157384474Y-164825930D01*
X157389926Y-164809427D01*
X157395491Y-164806989D01*
X157423178Y-164799305D01*
X157469979Y-164788436D01*
X157532157Y-164775192D01*
X157605979Y-164760384D01*
X157687710Y-164744823D01*
X157732336Y-164736509D01*
X157808824Y-164722092D01*
X157874660Y-164709467D01*
X157926323Y-164699321D01*
X157960293Y-164692341D01*
X157973048Y-164689212D01*
X157973528Y-164688568D01*
X157981651Y-164672181D01*
X157997137Y-164637852D01*
X158018050Y-164590136D01*
X158042455Y-164533586D01*
X158068416Y-164472758D01*
X158093997Y-164412206D01*
X158117262Y-164356485D01*
X158136277Y-164310150D01*
X158149105Y-164277755D01*
X158153812Y-164263855D01*
X158151736Y-164258965D01*
X158137920Y-164235692D01*
X158112860Y-164196519D01*
X158078568Y-164144520D01*
X158037059Y-164082768D01*
X157990346Y-164014336D01*
X157964718Y-163976860D01*
X157920490Y-163911156D01*
X157882570Y-163853492D01*
X157852980Y-163807014D01*
X157833743Y-163774865D01*
X157826881Y-163760190D01*
X157831649Y-163752230D01*
X157851593Y-163728446D01*
X157884313Y-163692451D01*
X157926805Y-163647295D01*
X157976065Y-163596028D01*
X158029091Y-163541701D01*
X158082877Y-163487364D01*
X158134421Y-163436067D01*
X158180720Y-163390859D01*
X158218769Y-163354792D01*
X158245565Y-163330914D01*
X158258105Y-163322278D01*
X158265066Y-163325636D01*
X158290627Y-163341210D01*
X158331874Y-163367715D01*
X158385837Y-163403210D01*
X158449542Y-163445750D01*
X158520016Y-163493395D01*
X158771662Y-163664512D01*
X159191188Y-163491570D01*
X159248036Y-163190018D01*
X159304885Y-162888466D01*
X159932540Y-162888466D01*
X159989389Y-163190018D01*
G37*
%TD*%
D11*
%TO.C,U28*%
X245900000Y-108565000D03*
%TD*%
D12*
%TO.C,U22*%
X225975000Y-106150000D03*
D13*
X225975000Y-111150000D03*
%TD*%
D12*
%TO.C,U17*%
X225975000Y-174150000D03*
D13*
X225975000Y-169150000D03*
%TD*%
D12*
%TO.C,U20*%
X205200000Y-106150000D03*
D13*
X205200000Y-111150000D03*
%TD*%
D12*
%TO.C,U23*%
X246450000Y-174175000D03*
D13*
X246450000Y-169175000D03*
%TD*%
D14*
%TO.C,C5*%
X189900000Y-148500000D03*
X189950000Y-153500000D03*
%TD*%
D12*
%TO.C,U18*%
X215525000Y-174150000D03*
D13*
X215525000Y-169150000D03*
%TD*%
D15*
%TO.C,U1*%
X176380000Y-137400000D03*
X172570000Y-137400000D03*
%TD*%
D16*
%TO.C,U16*%
X165770000Y-121460000D03*
X165770000Y-102560000D03*
D17*
X175170000Y-117460000D03*
D18*
X175170000Y-106560000D03*
%TD*%
D11*
%TO.C,U27*%
X245900000Y-156825000D03*
%TD*%
D12*
%TO.C,U24*%
X236727500Y-106150000D03*
D13*
X236727500Y-111150000D03*
%TD*%
D12*
%TO.C,U25*%
X236725000Y-174125000D03*
D13*
X236725000Y-169125000D03*
%TD*%
D19*
%TO.C,U10*%
X157305000Y-148760000D03*
X157305000Y-154540000D03*
D20*
X157805000Y-147330000D03*
D21*
X153625000Y-147330000D03*
D20*
X157805000Y-155970000D03*
D21*
X153625000Y-155970000D03*
%TD*%
D16*
%TO.C,U15*%
X165770000Y-177390000D03*
X165770000Y-158490000D03*
D17*
X175170000Y-173390000D03*
D18*
X175170000Y-162490000D03*
%TD*%
D12*
%TO.C,U19*%
X205200000Y-174150000D03*
D13*
X205200000Y-169150000D03*
%TD*%
D11*
%TO.C,U7*%
X194525000Y-175600000D03*
%TD*%
D12*
%TO.C,U21*%
X215525000Y-106150000D03*
D13*
X215525000Y-111150000D03*
%TD*%
D22*
%TO.C,SP1*%
X189300000Y-128550000D03*
D23*
X181700000Y-128550000D03*
%TD*%
D11*
%TO.C,U8*%
X194525000Y-118450000D03*
%TD*%
D24*
%TO.C,R50*%
X176770000Y-149010000D03*
X176770000Y-150710000D03*
%TD*%
D22*
%TO.C,TP11*%
X165299239Y-146400761D03*
%TD*%
D25*
%TO.C,J4*%
X152262500Y-154475000D03*
X152262500Y-148875000D03*
D26*
X156137500Y-153175000D03*
X156137500Y-152175000D03*
X156137500Y-151175000D03*
X156137500Y-150175000D03*
%TD*%
D27*
%TO.C,U32*%
X207750000Y-161875000D03*
X202750000Y-161875000D03*
%TD*%
D28*
%TO.C,R99*%
X176890000Y-147730000D03*
X175190000Y-147730000D03*
%TD*%
D27*
%TO.C,U26*%
X218150000Y-118325000D03*
X213150000Y-118325000D03*
%TD*%
%TO.C,U38*%
X228475000Y-118350000D03*
X223475000Y-118350000D03*
%TD*%
D29*
%TO.C,U42*%
X182142500Y-150190000D03*
X180872500Y-150190000D03*
X179602500Y-150190000D03*
X178332500Y-150190000D03*
X178332500Y-145240000D03*
X179602500Y-145240000D03*
X180872500Y-145240000D03*
X182142500Y-145240000D03*
%TD*%
D30*
%TO.C,JP2*%
X158900000Y-153100000D03*
D31*
X158900000Y-151800000D03*
D32*
X158900000Y-150500000D03*
%TD*%
D22*
%TO.C,TP21*%
X181825000Y-152900000D03*
%TD*%
%TO.C,TP13*%
X163200000Y-138850000D03*
%TD*%
%TO.C,TP5*%
X153560000Y-116570000D03*
%TD*%
%TO.C,TP6*%
X153560000Y-118770000D03*
%TD*%
%TO.C,TP22*%
X181875000Y-142675000D03*
%TD*%
%TO.C,TP4*%
X171974239Y-146400761D03*
%TD*%
D27*
%TO.C,U35*%
X228475000Y-161900000D03*
X223475000Y-161900000D03*
%TD*%
D24*
%TO.C,R27*%
X175400000Y-149010000D03*
X175400000Y-150710000D03*
%TD*%
D25*
%TO.C,J3*%
X152262500Y-146050000D03*
X152262500Y-140450000D03*
D26*
X156137500Y-144750000D03*
X156137500Y-143750000D03*
X156137500Y-142750000D03*
X156137500Y-141750000D03*
%TD*%
D22*
%TO.C,TP7*%
X171980000Y-149720000D03*
%TD*%
%TO.C,TP9*%
X153570000Y-121060000D03*
%TD*%
D27*
%TO.C,U39*%
X239350000Y-118350000D03*
X234350000Y-118350000D03*
%TD*%
D22*
%TO.C,TP12*%
X169149239Y-144000761D03*
%TD*%
%TO.C,TP3*%
X169149239Y-146400761D03*
%TD*%
%TO.C,TP14*%
X165299239Y-144000761D03*
%TD*%
D33*
%TO.C,R96*%
X176780000Y-146400000D03*
X176780000Y-144700000D03*
%TD*%
%TO.C,R11*%
X173980000Y-146390000D03*
X173980000Y-144690000D03*
%TD*%
D27*
%TO.C,U33*%
X239150000Y-161900000D03*
X234150000Y-161900000D03*
%TD*%
D24*
%TO.C,R26*%
X175382500Y-144700000D03*
X175382500Y-146400000D03*
%TD*%
D22*
%TO.C,TP10*%
X153560000Y-114370000D03*
%TD*%
D27*
%TO.C,U36*%
X218100000Y-161875000D03*
X213100000Y-161875000D03*
%TD*%
D22*
%TO.C,TP15*%
X165324239Y-148800761D03*
%TD*%
%TO.C,TP16*%
X187500000Y-140000000D03*
%TD*%
D25*
%TO.C,J6*%
X152287500Y-138050000D03*
X152287500Y-132450000D03*
D26*
X156162500Y-136750000D03*
X156162500Y-135750000D03*
X156162500Y-134750000D03*
X156162500Y-133750000D03*
%TD*%
D27*
%TO.C,U37*%
X207725000Y-118325000D03*
X202725000Y-118325000D03*
%TD*%
D30*
%TO.C,JP1*%
X158875000Y-144700000D03*
D31*
X158875000Y-143400000D03*
D32*
X158875000Y-142100000D03*
%TD*%
D22*
%TO.C,TP8*%
X171999239Y-144025761D03*
%TD*%
D25*
%TO.C,J5*%
X152237500Y-129600000D03*
X152237500Y-124000000D03*
D26*
X156112500Y-128300000D03*
X156112500Y-127300000D03*
X156112500Y-126300000D03*
X156112500Y-125300000D03*
%TD*%
M02*
