%TF.GenerationSoftware,KiCad,Pcbnew,7.0.1-0*%
%TF.CreationDate,2023-04-01T19:34:20-07:00*%
%TF.ProjectId,1.0,312e302e-6b69-4636-9164-5f7063625858,rev?*%
%TF.SameCoordinates,Original*%
%TF.FileFunction,Legend,Top*%
%TF.FilePolarity,Positive*%
%FSLAX46Y46*%
G04 Gerber Fmt 4.6, Leading zero omitted, Abs format (unit mm)*
G04 Created by KiCad (PCBNEW 7.0.1-0) date 2023-04-01 19:34:20*
%MOMM*%
%LPD*%
G01*
G04 APERTURE LIST*
%ADD10C,0.200000*%
%ADD11C,0.300000*%
%ADD12C,0.150000*%
%ADD13C,0.100000*%
%ADD14C,0.120000*%
%ADD15C,0.127000*%
%ADD16C,0.050000*%
%ADD17C,0.250000*%
G04 APERTURE END LIST*
D10*
X201680000Y-165420000D02*
X233320000Y-165420000D01*
X233320000Y-177820000D01*
X201680000Y-177820000D01*
X201680000Y-165420000D01*
X183675000Y-141460000D02*
X187570000Y-141460000D01*
X187570000Y-144850000D01*
X183675000Y-144850000D01*
X183675000Y-141460000D01*
X192585041Y-153685041D02*
G75*
G03*
X192585041Y-148314959I-2685041J2685041D01*
G01*
X181947023Y-132102977D02*
G75*
G03*
X189052977Y-132102977I3552977J3552976D01*
G01*
X201560000Y-102410000D02*
X233135000Y-102410000D01*
X233135000Y-114810000D01*
X201560000Y-114810000D01*
X201560000Y-102410000D01*
X233330000Y-165425000D02*
X249600000Y-165425000D01*
X249600000Y-177825000D01*
X233330000Y-177825000D01*
X233330000Y-165425000D01*
X233135000Y-102410000D02*
X243080000Y-102410000D01*
X243080000Y-114810000D01*
X233135000Y-114810000D01*
X233135000Y-102410000D01*
D11*
X187892857Y-142386428D02*
X188392857Y-143886428D01*
X188392857Y-143886428D02*
X188892857Y-142386428D01*
X189392856Y-143886428D02*
X189392856Y-142386428D01*
X189392856Y-142957857D02*
X189535714Y-142886428D01*
X189535714Y-142886428D02*
X189821428Y-142886428D01*
X189821428Y-142886428D02*
X189964285Y-142957857D01*
X189964285Y-142957857D02*
X190035714Y-143029285D01*
X190035714Y-143029285D02*
X190107142Y-143172142D01*
X190107142Y-143172142D02*
X190107142Y-143600714D01*
X190107142Y-143600714D02*
X190035714Y-143743571D01*
X190035714Y-143743571D02*
X189964285Y-143815000D01*
X189964285Y-143815000D02*
X189821428Y-143886428D01*
X189821428Y-143886428D02*
X189535714Y-143886428D01*
X189535714Y-143886428D02*
X189392856Y-143815000D01*
X191392857Y-143886428D02*
X191392857Y-143100714D01*
X191392857Y-143100714D02*
X191321428Y-142957857D01*
X191321428Y-142957857D02*
X191178571Y-142886428D01*
X191178571Y-142886428D02*
X190892857Y-142886428D01*
X190892857Y-142886428D02*
X190749999Y-142957857D01*
X191392857Y-143815000D02*
X191249999Y-143886428D01*
X191249999Y-143886428D02*
X190892857Y-143886428D01*
X190892857Y-143886428D02*
X190749999Y-143815000D01*
X190749999Y-143815000D02*
X190678571Y-143672142D01*
X190678571Y-143672142D02*
X190678571Y-143529285D01*
X190678571Y-143529285D02*
X190749999Y-143386428D01*
X190749999Y-143386428D02*
X190892857Y-143315000D01*
X190892857Y-143315000D02*
X191249999Y-143315000D01*
X191249999Y-143315000D02*
X191392857Y-143243571D01*
X191892857Y-142886428D02*
X192464285Y-142886428D01*
X192107142Y-142386428D02*
X192107142Y-143672142D01*
X192107142Y-143672142D02*
X192178571Y-143815000D01*
X192178571Y-143815000D02*
X192321428Y-143886428D01*
X192321428Y-143886428D02*
X192464285Y-143886428D01*
X192750000Y-142886428D02*
X193321428Y-142886428D01*
X192964285Y-142386428D02*
X192964285Y-143672142D01*
X192964285Y-143672142D02*
X193035714Y-143815000D01*
X193035714Y-143815000D02*
X193178571Y-143886428D01*
X193178571Y-143886428D02*
X193321428Y-143886428D01*
D10*
X240246547Y-101037380D02*
X240817975Y-101037380D01*
X240532261Y-101037380D02*
X240532261Y-102037380D01*
X240532261Y-102037380D02*
X240627499Y-101894523D01*
X240627499Y-101894523D02*
X240722737Y-101799285D01*
X240722737Y-101799285D02*
X240817975Y-101751666D01*
X239865594Y-101942142D02*
X239817975Y-101989761D01*
X239817975Y-101989761D02*
X239722737Y-102037380D01*
X239722737Y-102037380D02*
X239484642Y-102037380D01*
X239484642Y-102037380D02*
X239389404Y-101989761D01*
X239389404Y-101989761D02*
X239341785Y-101942142D01*
X239341785Y-101942142D02*
X239294166Y-101846904D01*
X239294166Y-101846904D02*
X239294166Y-101751666D01*
X239294166Y-101751666D02*
X239341785Y-101608809D01*
X239341785Y-101608809D02*
X239913213Y-101037380D01*
X239913213Y-101037380D02*
X239294166Y-101037380D01*
X239008451Y-102037380D02*
X238675118Y-101037380D01*
X238675118Y-101037380D02*
X238341785Y-102037380D01*
X237246546Y-101418333D02*
X236484642Y-101418333D01*
X235341784Y-102037380D02*
X234722737Y-102037380D01*
X234722737Y-102037380D02*
X235056070Y-101656428D01*
X235056070Y-101656428D02*
X234913213Y-101656428D01*
X234913213Y-101656428D02*
X234817975Y-101608809D01*
X234817975Y-101608809D02*
X234770356Y-101561190D01*
X234770356Y-101561190D02*
X234722737Y-101465952D01*
X234722737Y-101465952D02*
X234722737Y-101227857D01*
X234722737Y-101227857D02*
X234770356Y-101132619D01*
X234770356Y-101132619D02*
X234817975Y-101085000D01*
X234817975Y-101085000D02*
X234913213Y-101037380D01*
X234913213Y-101037380D02*
X235198927Y-101037380D01*
X235198927Y-101037380D02*
X235294165Y-101085000D01*
X235294165Y-101085000D02*
X235341784Y-101132619D01*
X234294165Y-101132619D02*
X234246546Y-101085000D01*
X234246546Y-101085000D02*
X234294165Y-101037380D01*
X234294165Y-101037380D02*
X234341784Y-101085000D01*
X234341784Y-101085000D02*
X234294165Y-101132619D01*
X234294165Y-101132619D02*
X234294165Y-101037380D01*
X233341785Y-102037380D02*
X233817975Y-102037380D01*
X233817975Y-102037380D02*
X233865594Y-101561190D01*
X233865594Y-101561190D02*
X233817975Y-101608809D01*
X233817975Y-101608809D02*
X233722737Y-101656428D01*
X233722737Y-101656428D02*
X233484642Y-101656428D01*
X233484642Y-101656428D02*
X233389404Y-101608809D01*
X233389404Y-101608809D02*
X233341785Y-101561190D01*
X233341785Y-101561190D02*
X233294166Y-101465952D01*
X233294166Y-101465952D02*
X233294166Y-101227857D01*
X233294166Y-101227857D02*
X233341785Y-101132619D01*
X233341785Y-101132619D02*
X233389404Y-101085000D01*
X233389404Y-101085000D02*
X233484642Y-101037380D01*
X233484642Y-101037380D02*
X233722737Y-101037380D01*
X233722737Y-101037380D02*
X233817975Y-101085000D01*
X233817975Y-101085000D02*
X233865594Y-101132619D01*
X232913213Y-101323095D02*
X232437023Y-101323095D01*
X233008451Y-101037380D02*
X232675118Y-102037380D01*
X232675118Y-102037380D02*
X232341785Y-101037380D01*
X239120952Y-179217619D02*
X238549524Y-179217619D01*
X238835238Y-179217619D02*
X238835238Y-178217619D01*
X238835238Y-178217619D02*
X238740000Y-178360476D01*
X238740000Y-178360476D02*
X238644762Y-178455714D01*
X238644762Y-178455714D02*
X238549524Y-178503333D01*
X239501905Y-178312857D02*
X239549524Y-178265238D01*
X239549524Y-178265238D02*
X239644762Y-178217619D01*
X239644762Y-178217619D02*
X239882857Y-178217619D01*
X239882857Y-178217619D02*
X239978095Y-178265238D01*
X239978095Y-178265238D02*
X240025714Y-178312857D01*
X240025714Y-178312857D02*
X240073333Y-178408095D01*
X240073333Y-178408095D02*
X240073333Y-178503333D01*
X240073333Y-178503333D02*
X240025714Y-178646190D01*
X240025714Y-178646190D02*
X239454286Y-179217619D01*
X239454286Y-179217619D02*
X240073333Y-179217619D01*
X240359048Y-178217619D02*
X240692381Y-179217619D01*
X240692381Y-179217619D02*
X241025714Y-178217619D01*
X242120953Y-178836666D02*
X242882858Y-178836666D01*
X244025715Y-178217619D02*
X244644762Y-178217619D01*
X244644762Y-178217619D02*
X244311429Y-178598571D01*
X244311429Y-178598571D02*
X244454286Y-178598571D01*
X244454286Y-178598571D02*
X244549524Y-178646190D01*
X244549524Y-178646190D02*
X244597143Y-178693809D01*
X244597143Y-178693809D02*
X244644762Y-178789047D01*
X244644762Y-178789047D02*
X244644762Y-179027142D01*
X244644762Y-179027142D02*
X244597143Y-179122380D01*
X244597143Y-179122380D02*
X244549524Y-179170000D01*
X244549524Y-179170000D02*
X244454286Y-179217619D01*
X244454286Y-179217619D02*
X244168572Y-179217619D01*
X244168572Y-179217619D02*
X244073334Y-179170000D01*
X244073334Y-179170000D02*
X244025715Y-179122380D01*
X245073334Y-179122380D02*
X245120953Y-179170000D01*
X245120953Y-179170000D02*
X245073334Y-179217619D01*
X245073334Y-179217619D02*
X245025715Y-179170000D01*
X245025715Y-179170000D02*
X245073334Y-179122380D01*
X245073334Y-179122380D02*
X245073334Y-179217619D01*
X246025714Y-178217619D02*
X245549524Y-178217619D01*
X245549524Y-178217619D02*
X245501905Y-178693809D01*
X245501905Y-178693809D02*
X245549524Y-178646190D01*
X245549524Y-178646190D02*
X245644762Y-178598571D01*
X245644762Y-178598571D02*
X245882857Y-178598571D01*
X245882857Y-178598571D02*
X245978095Y-178646190D01*
X245978095Y-178646190D02*
X246025714Y-178693809D01*
X246025714Y-178693809D02*
X246073333Y-178789047D01*
X246073333Y-178789047D02*
X246073333Y-179027142D01*
X246073333Y-179027142D02*
X246025714Y-179122380D01*
X246025714Y-179122380D02*
X245978095Y-179170000D01*
X245978095Y-179170000D02*
X245882857Y-179217619D01*
X245882857Y-179217619D02*
X245644762Y-179217619D01*
X245644762Y-179217619D02*
X245549524Y-179170000D01*
X245549524Y-179170000D02*
X245501905Y-179122380D01*
X246454286Y-178931904D02*
X246930476Y-178931904D01*
X246359048Y-179217619D02*
X246692381Y-178217619D01*
X246692381Y-178217619D02*
X247025714Y-179217619D01*
X222310476Y-102037380D02*
X222786666Y-102037380D01*
X222786666Y-102037380D02*
X222834285Y-101561190D01*
X222834285Y-101561190D02*
X222786666Y-101608809D01*
X222786666Y-101608809D02*
X222691428Y-101656428D01*
X222691428Y-101656428D02*
X222453333Y-101656428D01*
X222453333Y-101656428D02*
X222358095Y-101608809D01*
X222358095Y-101608809D02*
X222310476Y-101561190D01*
X222310476Y-101561190D02*
X222262857Y-101465952D01*
X222262857Y-101465952D02*
X222262857Y-101227857D01*
X222262857Y-101227857D02*
X222310476Y-101132619D01*
X222310476Y-101132619D02*
X222358095Y-101085000D01*
X222358095Y-101085000D02*
X222453333Y-101037380D01*
X222453333Y-101037380D02*
X222691428Y-101037380D01*
X222691428Y-101037380D02*
X222786666Y-101085000D01*
X222786666Y-101085000D02*
X222834285Y-101132619D01*
X221977142Y-102037380D02*
X221643809Y-101037380D01*
X221643809Y-101037380D02*
X221310476Y-102037380D01*
X220215237Y-101418333D02*
X219453333Y-101418333D01*
X218310475Y-102037380D02*
X217691428Y-102037380D01*
X217691428Y-102037380D02*
X218024761Y-101656428D01*
X218024761Y-101656428D02*
X217881904Y-101656428D01*
X217881904Y-101656428D02*
X217786666Y-101608809D01*
X217786666Y-101608809D02*
X217739047Y-101561190D01*
X217739047Y-101561190D02*
X217691428Y-101465952D01*
X217691428Y-101465952D02*
X217691428Y-101227857D01*
X217691428Y-101227857D02*
X217739047Y-101132619D01*
X217739047Y-101132619D02*
X217786666Y-101085000D01*
X217786666Y-101085000D02*
X217881904Y-101037380D01*
X217881904Y-101037380D02*
X218167618Y-101037380D01*
X218167618Y-101037380D02*
X218262856Y-101085000D01*
X218262856Y-101085000D02*
X218310475Y-101132619D01*
X217262856Y-101132619D02*
X217215237Y-101085000D01*
X217215237Y-101085000D02*
X217262856Y-101037380D01*
X217262856Y-101037380D02*
X217310475Y-101085000D01*
X217310475Y-101085000D02*
X217262856Y-101132619D01*
X217262856Y-101132619D02*
X217262856Y-101037380D01*
X216310476Y-102037380D02*
X216786666Y-102037380D01*
X216786666Y-102037380D02*
X216834285Y-101561190D01*
X216834285Y-101561190D02*
X216786666Y-101608809D01*
X216786666Y-101608809D02*
X216691428Y-101656428D01*
X216691428Y-101656428D02*
X216453333Y-101656428D01*
X216453333Y-101656428D02*
X216358095Y-101608809D01*
X216358095Y-101608809D02*
X216310476Y-101561190D01*
X216310476Y-101561190D02*
X216262857Y-101465952D01*
X216262857Y-101465952D02*
X216262857Y-101227857D01*
X216262857Y-101227857D02*
X216310476Y-101132619D01*
X216310476Y-101132619D02*
X216358095Y-101085000D01*
X216358095Y-101085000D02*
X216453333Y-101037380D01*
X216453333Y-101037380D02*
X216691428Y-101037380D01*
X216691428Y-101037380D02*
X216786666Y-101085000D01*
X216786666Y-101085000D02*
X216834285Y-101132619D01*
X215881904Y-101323095D02*
X215405714Y-101323095D01*
X215977142Y-101037380D02*
X215643809Y-102037380D01*
X215643809Y-102037380D02*
X215310476Y-101037380D01*
X210458095Y-178202619D02*
X211077142Y-178202619D01*
X211077142Y-178202619D02*
X210743809Y-178583571D01*
X210743809Y-178583571D02*
X210886666Y-178583571D01*
X210886666Y-178583571D02*
X210981904Y-178631190D01*
X210981904Y-178631190D02*
X211029523Y-178678809D01*
X211029523Y-178678809D02*
X211077142Y-178774047D01*
X211077142Y-178774047D02*
X211077142Y-179012142D01*
X211077142Y-179012142D02*
X211029523Y-179107380D01*
X211029523Y-179107380D02*
X210981904Y-179155000D01*
X210981904Y-179155000D02*
X210886666Y-179202619D01*
X210886666Y-179202619D02*
X210600952Y-179202619D01*
X210600952Y-179202619D02*
X210505714Y-179155000D01*
X210505714Y-179155000D02*
X210458095Y-179107380D01*
X211362857Y-178202619D02*
X211696190Y-179202619D01*
X211696190Y-179202619D02*
X212029523Y-178202619D01*
X213124762Y-178821666D02*
X213886667Y-178821666D01*
X215648571Y-179202619D02*
X215077143Y-179202619D01*
X215362857Y-179202619D02*
X215362857Y-178202619D01*
X215362857Y-178202619D02*
X215267619Y-178345476D01*
X215267619Y-178345476D02*
X215172381Y-178440714D01*
X215172381Y-178440714D02*
X215077143Y-178488333D01*
X216077143Y-179107380D02*
X216124762Y-179155000D01*
X216124762Y-179155000D02*
X216077143Y-179202619D01*
X216077143Y-179202619D02*
X216029524Y-179155000D01*
X216029524Y-179155000D02*
X216077143Y-179107380D01*
X216077143Y-179107380D02*
X216077143Y-179202619D01*
X216505714Y-178297857D02*
X216553333Y-178250238D01*
X216553333Y-178250238D02*
X216648571Y-178202619D01*
X216648571Y-178202619D02*
X216886666Y-178202619D01*
X216886666Y-178202619D02*
X216981904Y-178250238D01*
X216981904Y-178250238D02*
X217029523Y-178297857D01*
X217029523Y-178297857D02*
X217077142Y-178393095D01*
X217077142Y-178393095D02*
X217077142Y-178488333D01*
X217077142Y-178488333D02*
X217029523Y-178631190D01*
X217029523Y-178631190D02*
X216458095Y-179202619D01*
X216458095Y-179202619D02*
X217077142Y-179202619D01*
X217458095Y-178916904D02*
X217934285Y-178916904D01*
X217362857Y-179202619D02*
X217696190Y-178202619D01*
X217696190Y-178202619D02*
X218029523Y-179202619D01*
D12*
%TO.C,C14*%
X171937142Y-149577380D02*
X171889523Y-149625000D01*
X171889523Y-149625000D02*
X171746666Y-149672619D01*
X171746666Y-149672619D02*
X171651428Y-149672619D01*
X171651428Y-149672619D02*
X171508571Y-149625000D01*
X171508571Y-149625000D02*
X171413333Y-149529761D01*
X171413333Y-149529761D02*
X171365714Y-149434523D01*
X171365714Y-149434523D02*
X171318095Y-149244047D01*
X171318095Y-149244047D02*
X171318095Y-149101190D01*
X171318095Y-149101190D02*
X171365714Y-148910714D01*
X171365714Y-148910714D02*
X171413333Y-148815476D01*
X171413333Y-148815476D02*
X171508571Y-148720238D01*
X171508571Y-148720238D02*
X171651428Y-148672619D01*
X171651428Y-148672619D02*
X171746666Y-148672619D01*
X171746666Y-148672619D02*
X171889523Y-148720238D01*
X171889523Y-148720238D02*
X171937142Y-148767857D01*
X172889523Y-149672619D02*
X172318095Y-149672619D01*
X172603809Y-149672619D02*
X172603809Y-148672619D01*
X172603809Y-148672619D02*
X172508571Y-148815476D01*
X172508571Y-148815476D02*
X172413333Y-148910714D01*
X172413333Y-148910714D02*
X172318095Y-148958333D01*
X173746666Y-149005952D02*
X173746666Y-149672619D01*
X173508571Y-148625000D02*
X173270476Y-149339285D01*
X173270476Y-149339285D02*
X173889523Y-149339285D01*
D13*
%TO.C,R84*%
X233937500Y-145905000D02*
X232837500Y-145905000D01*
X232837500Y-144805000D02*
X233937500Y-144805000D01*
%TO.C,C65*%
X219700000Y-129795000D02*
X219700000Y-128695000D01*
X220800000Y-128695000D02*
X220800000Y-129795000D01*
D14*
%TO.C,U22*%
X227385000Y-103440000D02*
X224565000Y-103440000D01*
X227385000Y-103440000D02*
X228685000Y-105140000D01*
X224565000Y-103440000D02*
X223265000Y-105140000D01*
X228685000Y-105140000D02*
X228685000Y-113860000D01*
X223265000Y-105140000D02*
X223265000Y-113860000D01*
X228685000Y-113860000D02*
X223265000Y-113860000D01*
D13*
%TO.C,F4*%
X211325000Y-111525000D02*
X211325000Y-112825000D01*
X209475000Y-112825000D02*
X209475000Y-111525000D01*
%TO.C,R85*%
X240390000Y-145400000D02*
X240390000Y-146500000D01*
X239290000Y-146500000D02*
X239290000Y-145400000D01*
%TO.C,C26*%
X220380000Y-124480000D02*
X219080000Y-124480000D01*
X219080000Y-122980000D02*
X220380000Y-122980000D01*
%TO.C,R18*%
X174850000Y-144825000D02*
X174850000Y-143725000D01*
X175950000Y-143725000D02*
X175950000Y-144825000D01*
%TO.C,C29*%
X233245000Y-157310000D02*
X234345000Y-157310000D01*
X234345000Y-158410000D02*
X233245000Y-158410000D01*
D14*
%TO.C,U9*%
X202687800Y-133461701D02*
X203432760Y-133461701D01*
X207302240Y-133461701D02*
X208047200Y-133461701D01*
X208047200Y-133461701D02*
X208047200Y-132724742D01*
X202687800Y-132724742D02*
X202687800Y-133461701D01*
X208047200Y-129855260D02*
X208047200Y-129118301D01*
X202687800Y-129118301D02*
X202687800Y-129855260D01*
X203432760Y-129118301D02*
X202687800Y-129118301D01*
X208047200Y-129118301D02*
X207302240Y-129118301D01*
D13*
X202260801Y-130480500D02*
X202006801Y-130480500D01*
X202006801Y-130099500D01*
X202260801Y-130099500D01*
X202260801Y-130480500D01*
G36*
X202260801Y-130480500D02*
G01*
X202006801Y-130480500D01*
X202006801Y-130099500D01*
X202260801Y-130099500D01*
X202260801Y-130480500D01*
G37*
D14*
%TO.C,D16*%
X240925000Y-176375000D02*
X242325000Y-176375000D01*
X240925000Y-176375000D02*
X240925000Y-174275000D01*
X242325000Y-176375000D02*
X242325000Y-174275000D01*
%TO.C,D15*%
X242000000Y-103985000D02*
X240600000Y-103985000D01*
X242000000Y-103985000D02*
X242000000Y-106085000D01*
X240600000Y-103985000D02*
X240600000Y-106085000D01*
D13*
%TO.C,F1*%
X230100000Y-168775000D02*
X230100000Y-167475000D01*
X231950000Y-167475000D02*
X231950000Y-168775000D01*
D14*
%TO.C,Q1*%
X189235000Y-170960000D02*
X190645000Y-170960000D01*
X190645000Y-168640000D02*
X189145000Y-168640000D01*
X190645000Y-168640000D02*
X190645000Y-169300000D01*
X190645000Y-170300000D02*
X190645000Y-170960000D01*
D13*
%TO.C,R81*%
X221130000Y-127750000D02*
X221130000Y-126650000D01*
X222230000Y-126650000D02*
X222230000Y-127750000D01*
%TO.C,C31*%
X198672500Y-145325000D02*
X198672500Y-146425000D01*
X197572500Y-146425000D02*
X197572500Y-145325000D01*
%TO.C,R51*%
X190950000Y-137470000D02*
X189650000Y-137470000D01*
X189650000Y-135970000D02*
X190950000Y-135970000D01*
D14*
%TO.C,D2*%
X177625000Y-154425000D02*
X177625000Y-152425000D01*
X177625000Y-154425000D02*
X173775000Y-154425000D01*
X177625000Y-152425000D02*
X173775000Y-152425000D01*
D13*
%TO.C,R1*%
X172075000Y-156725000D02*
X170975000Y-156725000D01*
X170975000Y-155625000D02*
X172075000Y-155625000D01*
%TO.C,R45*%
X210550000Y-109150000D02*
X210550000Y-108050000D01*
X211650000Y-108050000D02*
X211650000Y-109150000D01*
%TO.C,C35*%
X204372500Y-143100000D02*
X204372500Y-144200000D01*
X203272500Y-144200000D02*
X203272500Y-143100000D01*
%TO.C,C58*%
X246460000Y-148400000D02*
X243260000Y-148400000D01*
X243260000Y-145600000D02*
X246460000Y-145600000D01*
%TO.C,C74*%
X241310000Y-148710000D02*
X242610000Y-148710000D01*
X242610000Y-150210000D02*
X241310000Y-150210000D01*
%TO.C,C69*%
X238100000Y-132900000D02*
X238100000Y-131800000D01*
X239200000Y-131800000D02*
X239200000Y-132900000D01*
%TO.C,C68*%
X219700000Y-132795000D02*
X219700000Y-131695000D01*
X220800000Y-131695000D02*
X220800000Y-132795000D01*
%TO.C,C55*%
X236060000Y-136665000D02*
X238360000Y-136665000D01*
X238360000Y-138915000D02*
X236060000Y-138915000D01*
D14*
%TO.C,U29*%
X221755300Y-133441699D02*
X222500260Y-133441699D01*
X226369740Y-133441699D02*
X227114700Y-133441699D01*
X227114700Y-133441699D02*
X227114700Y-132704740D01*
X221755300Y-132704740D02*
X221755300Y-133441699D01*
X227114700Y-129835258D02*
X227114700Y-129098299D01*
X221755300Y-129098299D02*
X221755300Y-129835258D01*
X222500260Y-129098299D02*
X221755300Y-129098299D01*
X227114700Y-129098299D02*
X226369740Y-129098299D01*
D13*
X221328301Y-130460498D02*
X221074301Y-130460498D01*
X221074301Y-130079498D01*
X221328301Y-130079498D01*
X221328301Y-130460498D01*
G36*
X221328301Y-130460498D02*
G01*
X221074301Y-130460498D01*
X221074301Y-130079498D01*
X221328301Y-130079498D01*
X221328301Y-130460498D01*
G37*
D14*
%TO.C,L2*%
X210617500Y-139265000D02*
X204677500Y-139265000D01*
X204677500Y-139265000D02*
X204677500Y-145175000D01*
X204677500Y-145175000D02*
X210617500Y-145175000D01*
X210617500Y-145175000D02*
X210617500Y-139265000D01*
D13*
%TO.C,C6*%
X209175000Y-148200000D02*
X205975000Y-148200000D01*
X205975000Y-145400000D02*
X209175000Y-145400000D01*
%TO.C,C73*%
X236762500Y-145930000D02*
X236762500Y-145330000D01*
X237612500Y-145330000D02*
X237612500Y-145930000D01*
%TO.C,R25*%
X190430000Y-173900000D02*
X189330000Y-173900000D01*
X189330000Y-172800000D02*
X190430000Y-172800000D01*
%TO.C,R77*%
X200322500Y-146525000D02*
X200322500Y-145425000D01*
X201422500Y-145425000D02*
X201422500Y-146525000D01*
D14*
%TO.C,U12*%
X221279700Y-139563300D02*
X220534740Y-139563300D01*
X216665260Y-139563300D02*
X215920300Y-139563300D01*
X215920300Y-139563300D02*
X215920300Y-140300259D01*
X221279700Y-140300259D02*
X221279700Y-139563300D01*
X215920300Y-143169741D02*
X215920300Y-143906700D01*
X221279700Y-143906700D02*
X221279700Y-143169741D01*
X220534740Y-143906700D02*
X221279700Y-143906700D01*
X215920300Y-143906700D02*
X216665260Y-143906700D01*
D13*
X221960699Y-142925501D02*
X221706699Y-142925501D01*
X221706699Y-142544501D01*
X221960699Y-142544501D01*
X221960699Y-142925501D01*
G36*
X221960699Y-142925501D02*
G01*
X221706699Y-142925501D01*
X221706699Y-142544501D01*
X221960699Y-142544501D01*
X221960699Y-142925501D01*
G37*
%TO.C,R62*%
X189250000Y-116600000D02*
X190350000Y-116600000D01*
X190350000Y-117700000D02*
X189250000Y-117700000D01*
%TO.C,C59*%
X228850000Y-129370000D02*
X228850000Y-130470000D01*
X227750000Y-130470000D02*
X227750000Y-129370000D01*
D14*
%TO.C,U17*%
X224565000Y-176860000D02*
X227385000Y-176860000D01*
X224565000Y-176860000D02*
X223265000Y-175160000D01*
X227385000Y-176860000D02*
X228685000Y-175160000D01*
X223265000Y-175160000D02*
X223265000Y-166440000D01*
X228685000Y-175160000D02*
X228685000Y-166440000D01*
X223265000Y-166440000D02*
X228685000Y-166440000D01*
D13*
%TO.C,R69*%
X242012500Y-107800000D02*
X242012500Y-109100000D01*
X240512500Y-109100000D02*
X240512500Y-107800000D01*
%TO.C,R59*%
X210175000Y-171150000D02*
X210175000Y-172250000D01*
X209075000Y-172250000D02*
X209075000Y-171150000D01*
%TO.C,R4*%
X196547500Y-145800000D02*
X195447500Y-145800000D01*
X195447500Y-144700000D02*
X196547500Y-144700000D01*
%TO.C,C21*%
X215090000Y-124910000D02*
X218290000Y-124910000D01*
X218290000Y-127710000D02*
X215090000Y-127710000D01*
D14*
%TO.C,J1*%
X168827500Y-130625000D02*
X168827500Y-129725000D01*
X170177500Y-130625000D02*
X168827500Y-130625000D01*
X172077500Y-129525000D02*
X172077500Y-125725000D01*
X168827500Y-124625000D02*
X168827500Y-125525000D01*
X170177500Y-124625000D02*
X168827500Y-124625000D01*
X168502500Y-130125000D02*
G75*
G03*
X168502500Y-130125000I-250000J0D01*
G01*
D13*
%TO.C,C28*%
X214200000Y-143635000D02*
X214200000Y-142535000D01*
X215300000Y-142535000D02*
X215300000Y-143635000D01*
%TO.C,C50*%
X195825000Y-123025000D02*
X197125000Y-123025000D01*
X197125000Y-124525000D02*
X195825000Y-124525000D01*
%TO.C,R83*%
X239510000Y-127730000D02*
X239510000Y-126630000D01*
X240610000Y-126630000D02*
X240610000Y-127730000D01*
%TO.C,C71*%
X224850000Y-127170000D02*
X224850000Y-127770000D01*
X224000000Y-127770000D02*
X224000000Y-127170000D01*
D14*
%TO.C,U20*%
X206610000Y-103440000D02*
X203790000Y-103440000D01*
X206610000Y-103440000D02*
X207910000Y-105140000D01*
X203790000Y-103440000D02*
X202490000Y-105140000D01*
X207910000Y-105140000D02*
X207910000Y-113860000D01*
X202490000Y-105140000D02*
X202490000Y-113860000D01*
X207910000Y-113860000D02*
X202490000Y-113860000D01*
D15*
%TO.C,Q10*%
X188575000Y-110287500D02*
X188575000Y-106987500D01*
X191875000Y-110287500D02*
X191875000Y-106987500D01*
D10*
X188925000Y-110987500D02*
G75*
G03*
X188925000Y-110987500I-100000J0D01*
G01*
D13*
%TO.C,C70*%
X243100000Y-127175000D02*
X243100000Y-127775000D01*
X242250000Y-127775000D02*
X242250000Y-127175000D01*
%TO.C,R28*%
X192525000Y-113100000D02*
X192525000Y-114200000D01*
X191425000Y-114200000D02*
X191425000Y-113100000D01*
%TO.C,R73*%
X221850000Y-145290000D02*
X221850000Y-146390000D01*
X220750000Y-146390000D02*
X220750000Y-145290000D01*
%TO.C,C52*%
X233410000Y-124830000D02*
X236610000Y-124830000D01*
X236610000Y-127630000D02*
X233410000Y-127630000D01*
%TO.C,R44*%
X209150000Y-109150000D02*
X209150000Y-108050000D01*
X210250000Y-108050000D02*
X210250000Y-109150000D01*
%TO.C,R8*%
X159700000Y-154825000D02*
X159700000Y-153725000D01*
X160800000Y-153725000D02*
X160800000Y-154825000D01*
%TO.C,R74*%
X204617500Y-126640000D02*
X204617500Y-127740000D01*
X203517500Y-127740000D02*
X203517500Y-126640000D01*
%TO.C,R55*%
X193950000Y-113100000D02*
X193950000Y-114200000D01*
X192850000Y-114200000D02*
X192850000Y-113100000D01*
D10*
%TO.C,U2*%
X180825000Y-168400000D02*
X181225000Y-168400000D01*
X180825000Y-170250000D02*
X180825000Y-168400000D01*
X180825000Y-171450000D02*
X180825000Y-173200000D01*
X180825000Y-173200000D02*
X181825000Y-173200000D01*
D13*
X182425000Y-174450000D02*
X182425000Y-174450000D01*
X182425000Y-174550000D02*
X182425000Y-174550000D01*
D10*
X186825000Y-168400000D02*
X187225000Y-168400000D01*
X187225000Y-168400000D02*
X187225000Y-170250000D01*
X187225000Y-171450000D02*
X187225000Y-173200000D01*
X187225000Y-173200000D02*
X186225000Y-173200000D01*
D13*
X182425000Y-174550000D02*
G75*
G03*
X182425000Y-174450000I0J50000D01*
G01*
X182425000Y-174450000D02*
G75*
G03*
X182425000Y-174550000I0J-50000D01*
G01*
%TO.C,C81*%
X161500000Y-124675000D02*
X160400000Y-124675000D01*
X160400000Y-123575000D02*
X161500000Y-123575000D01*
%TO.C,R7*%
X180550000Y-175400000D02*
X181650000Y-175400000D01*
X181650000Y-176500000D02*
X180550000Y-176500000D01*
D14*
%TO.C,D9*%
X211075000Y-104375000D02*
X209675000Y-104375000D01*
X211075000Y-104375000D02*
X211075000Y-106475000D01*
X209675000Y-104375000D02*
X209675000Y-106475000D01*
D13*
%TO.C,R12*%
X192675000Y-169300000D02*
X192675000Y-170400000D01*
X191575000Y-170400000D02*
X191575000Y-169300000D01*
%TO.C,C62*%
X225450000Y-127745000D02*
X225450000Y-126645000D01*
X226550000Y-126645000D02*
X226550000Y-127745000D01*
%TO.C,R76*%
X200047500Y-147675000D02*
X200047500Y-148775000D01*
X198947500Y-148775000D02*
X198947500Y-147675000D01*
%TO.C,R19*%
X174550000Y-143725000D02*
X174550000Y-144825000D01*
X173450000Y-144825000D02*
X173450000Y-143725000D01*
%TO.C,C49*%
X222680000Y-148430000D02*
X223980000Y-148430000D01*
X223980000Y-149930000D02*
X222680000Y-149930000D01*
%TO.C,C2*%
X171000000Y-153800000D02*
X172100000Y-153800000D01*
X172100000Y-154900000D02*
X171000000Y-154900000D01*
%TO.C,C33*%
X181525000Y-157625000D02*
X180425000Y-157625000D01*
X180425000Y-156525000D02*
X181525000Y-156525000D01*
%TO.C,C34*%
X178150000Y-147920000D02*
X178150000Y-146820000D01*
X179250000Y-146820000D02*
X179250000Y-147920000D01*
%TO.C,R68*%
X242825000Y-161625000D02*
X244125000Y-161625000D01*
X244125000Y-163125000D02*
X242825000Y-163125000D01*
%TO.C,C56*%
X232860000Y-122790000D02*
X234160000Y-122790000D01*
X234160000Y-124290000D02*
X232860000Y-124290000D01*
%TO.C,R93*%
X237587500Y-147555000D02*
X237587500Y-148655000D01*
X236487500Y-148655000D02*
X236487500Y-147555000D01*
%TO.C,R10*%
X159650000Y-150075000D02*
X159650000Y-148975000D01*
X160750000Y-148975000D02*
X160750000Y-150075000D01*
%TO.C,C9*%
X172100000Y-153475000D02*
X171000000Y-153475000D01*
X171000000Y-152375000D02*
X172100000Y-152375000D01*
D14*
%TO.C,D14*%
X244575000Y-164850000D02*
X244575000Y-163450000D01*
X244575000Y-164850000D02*
X242475000Y-164850000D01*
X244575000Y-163450000D02*
X242475000Y-163450000D01*
D13*
%TO.C,C42*%
X195925000Y-124950000D02*
X199125000Y-124950000D01*
X199125000Y-127750000D02*
X195925000Y-127750000D01*
%TO.C,R79*%
X219375000Y-146385000D02*
X219375000Y-145285000D01*
X220475000Y-145285000D02*
X220475000Y-146385000D01*
D14*
%TO.C,L3*%
X229445000Y-139250000D02*
X223505000Y-139250000D01*
X223505000Y-139250000D02*
X223505000Y-145160000D01*
X223505000Y-145160000D02*
X229445000Y-145160000D01*
X229445000Y-145160000D02*
X229445000Y-139250000D01*
%TO.C,U23*%
X245040000Y-176885000D02*
X247860000Y-176885000D01*
X245040000Y-176885000D02*
X243740000Y-175185000D01*
X247860000Y-176885000D02*
X249160000Y-175185000D01*
X243740000Y-175185000D02*
X243740000Y-166465000D01*
X249160000Y-175185000D02*
X249160000Y-166465000D01*
X243740000Y-166465000D02*
X249160000Y-166465000D01*
%TO.C,L4*%
X213630000Y-133825000D02*
X219570000Y-133825000D01*
X219570000Y-133825000D02*
X219570000Y-127915000D01*
X219570000Y-127915000D02*
X213630000Y-127915000D01*
X213630000Y-127915000D02*
X213630000Y-133825000D01*
D13*
%TO.C,R2*%
X208397500Y-127190000D02*
X209497500Y-127190000D01*
X209497500Y-128290000D02*
X208397500Y-128290000D01*
%TO.C,R94*%
X238962500Y-145405000D02*
X238962500Y-146505000D01*
X237862500Y-146505000D02*
X237862500Y-145405000D01*
%TO.C,R57*%
X198175000Y-113100000D02*
X198175000Y-114200000D01*
X197075000Y-114200000D02*
X197075000Y-113100000D01*
%TO.C,R82*%
X246275000Y-127175000D02*
X247375000Y-127175000D01*
X247375000Y-128275000D02*
X246275000Y-128275000D01*
%TO.C,R71*%
X203270000Y-147160000D02*
X203270000Y-146060000D01*
X204370000Y-146060000D02*
X204370000Y-147160000D01*
%TO.C,R98*%
X157200000Y-142475000D02*
X157200000Y-141375000D01*
X158300000Y-141375000D02*
X158300000Y-142475000D01*
%TO.C,R60*%
X229875000Y-109125000D02*
X229875000Y-108025000D01*
X230975000Y-108025000D02*
X230975000Y-109125000D01*
D14*
%TO.C,C5*%
X190191548Y-146260000D02*
G75*
G03*
X190191548Y-146260000I-291548J0D01*
G01*
X195400000Y-151000000D02*
G75*
G03*
X195400000Y-151000000I-5500000J0D01*
G01*
D13*
%TO.C,R3*%
X202130000Y-127740000D02*
X202130000Y-126640000D01*
X203230000Y-126640000D02*
X203230000Y-127740000D01*
D14*
%TO.C,L1*%
X194607500Y-133910000D02*
X200547500Y-133910000D01*
X200547500Y-133910000D02*
X200547500Y-128000000D01*
X200547500Y-128000000D02*
X194607500Y-128000000D01*
X194607500Y-128000000D02*
X194607500Y-133910000D01*
D13*
%TO.C,C48*%
X209400000Y-150050000D02*
X208100000Y-150050000D01*
X208100000Y-148550000D02*
X209400000Y-148550000D01*
D14*
%TO.C,U18*%
X214115000Y-176860000D02*
X216935000Y-176860000D01*
X214115000Y-176860000D02*
X212815000Y-175160000D01*
X216935000Y-176860000D02*
X218235000Y-175160000D01*
X212815000Y-175160000D02*
X212815000Y-166440000D01*
X218235000Y-175160000D02*
X218235000Y-166440000D01*
X212815000Y-166440000D02*
X218235000Y-166440000D01*
D13*
%TO.C,C64*%
X236062500Y-145405000D02*
X236062500Y-146505000D01*
X234962500Y-146505000D02*
X234962500Y-145405000D01*
%TO.C,R20*%
X171925000Y-144825000D02*
X171925000Y-143725000D01*
X173025000Y-143725000D02*
X173025000Y-144825000D01*
D15*
%TO.C,U1*%
X180975000Y-134700000D02*
X177675000Y-134700000D01*
X167975000Y-134700000D02*
X171275000Y-134700000D01*
X180975000Y-140100000D02*
X180975000Y-134700000D01*
X177675000Y-140100000D02*
X180975000Y-140100000D01*
X171275000Y-140100000D02*
X167975000Y-140100000D01*
X167975000Y-140100000D02*
X167975000Y-134700000D01*
D14*
X178060078Y-134150000D02*
G75*
G03*
X178060078Y-134150000I-160078J0D01*
G01*
D13*
%TO.C,F8*%
X242462500Y-111550000D02*
X242462500Y-112850000D01*
X240612500Y-112850000D02*
X240612500Y-111550000D01*
%TO.C,R32*%
X227511625Y-152773250D02*
X226411625Y-152773250D01*
X226411625Y-151673250D02*
X227511625Y-151673250D01*
%TO.C,R54*%
X196775000Y-113100000D02*
X196775000Y-114200000D01*
X195675000Y-114200000D02*
X195675000Y-113100000D01*
%TO.C,C36*%
X217700000Y-145260000D02*
X217700000Y-146360000D01*
X216600000Y-146360000D02*
X216600000Y-145260000D01*
%TO.C,C27*%
X206277500Y-127740000D02*
X206277500Y-126640000D01*
X207377500Y-126640000D02*
X207377500Y-127740000D01*
%TO.C,R15*%
X185750000Y-144500000D02*
X184650000Y-144500000D01*
X184650000Y-143400000D02*
X185750000Y-143400000D01*
%TO.C,R78*%
X219075000Y-147485000D02*
X219075000Y-148585000D01*
X217975000Y-148585000D02*
X217975000Y-147485000D01*
D14*
%TO.C,L5*%
X231905000Y-133785000D02*
X237845000Y-133785000D01*
X237845000Y-133785000D02*
X237845000Y-127875000D01*
X237845000Y-127875000D02*
X231905000Y-127875000D01*
X231905000Y-127875000D02*
X231905000Y-133785000D01*
D13*
%TO.C,R61*%
X231325000Y-109125000D02*
X231325000Y-108025000D01*
X232425000Y-108025000D02*
X232425000Y-109125000D01*
%TO.C,C4*%
X186350000Y-175400000D02*
X187450000Y-175400000D01*
X187450000Y-176500000D02*
X186350000Y-176500000D01*
%TO.C,C63*%
X243725000Y-127700000D02*
X243725000Y-126600000D01*
X244825000Y-126600000D02*
X244825000Y-127700000D01*
%TO.C,F7*%
X245450000Y-163725000D02*
X245450000Y-162425000D01*
X247300000Y-162425000D02*
X247300000Y-163725000D01*
%TO.C,C57*%
X239030000Y-124290000D02*
X237730000Y-124290000D01*
X237730000Y-122790000D02*
X239030000Y-122790000D01*
%TO.C,C14*%
X173130000Y-148360000D02*
X172030000Y-148360000D01*
X172030000Y-147260000D02*
X173130000Y-147260000D01*
D10*
%TO.C,U3*%
X180675000Y-112675000D02*
X181075000Y-112675000D01*
X180675000Y-114525000D02*
X180675000Y-112675000D01*
X180675000Y-115725000D02*
X180675000Y-117475000D01*
X180675000Y-117475000D02*
X181675000Y-117475000D01*
D13*
X182275000Y-118725000D02*
X182275000Y-118725000D01*
X182275000Y-118825000D02*
X182275000Y-118825000D01*
D10*
X186675000Y-112675000D02*
X187075000Y-112675000D01*
X187075000Y-112675000D02*
X187075000Y-114525000D01*
X187075000Y-115725000D02*
X187075000Y-117475000D01*
X187075000Y-117475000D02*
X186075000Y-117475000D01*
D13*
X182275000Y-118825000D02*
G75*
G03*
X182275000Y-118725000I0J50000D01*
G01*
X182275000Y-118725000D02*
G75*
G03*
X182275000Y-118825000I0J-50000D01*
G01*
%TO.C,R63*%
X175770000Y-124460000D02*
X174670000Y-124460000D01*
X174670000Y-123360000D02*
X175770000Y-123360000D01*
%TO.C,C45*%
X218250000Y-145835000D02*
X218250000Y-145235000D01*
X219100000Y-145235000D02*
X219100000Y-145835000D01*
%TO.C,R35*%
X215700000Y-152725000D02*
X214600000Y-152725000D01*
X214600000Y-151625000D02*
X215700000Y-151625000D01*
D14*
%TO.C,Q7*%
X175975000Y-127210000D02*
X177385000Y-127210000D01*
X177385000Y-124890000D02*
X175885000Y-124890000D01*
X177385000Y-124890000D02*
X177385000Y-125550000D01*
X177385000Y-126550000D02*
X177385000Y-127210000D01*
D13*
%TO.C,C40*%
X199222500Y-146025000D02*
X199222500Y-145425000D01*
X200072500Y-145425000D02*
X200072500Y-146025000D01*
%TO.C,R87*%
X239190000Y-125970000D02*
X239190000Y-127070000D01*
X238090000Y-127070000D02*
X238090000Y-125970000D01*
%TO.C,R31*%
X210600000Y-154125000D02*
X209500000Y-154125000D01*
X209500000Y-153025000D02*
X210600000Y-153025000D01*
D16*
%TO.C,SW1*%
X177835000Y-146315000D02*
X174615000Y-146315000D01*
X174615000Y-146315000D02*
X174615000Y-151535000D01*
X174615000Y-151535000D02*
X177835000Y-151535000D01*
X177835000Y-151535000D02*
X177835000Y-146315000D01*
D15*
%TO.C,U16*%
X150770000Y-122410000D02*
X164420000Y-122410000D01*
X167170000Y-122410000D02*
X177870000Y-122410000D01*
X177870000Y-122410000D02*
X177870000Y-120260000D01*
X171730000Y-116960000D02*
X171730000Y-117960000D01*
X177870000Y-109410000D02*
X177870000Y-114610000D01*
X171790000Y-107160000D02*
X171790000Y-106160000D01*
X171290000Y-106660000D02*
X172290000Y-106660000D01*
X177870000Y-103760000D02*
X177870000Y-101610000D01*
X150770000Y-101610000D02*
X150770000Y-122410000D01*
X164420000Y-101610000D02*
X150770000Y-101610000D01*
X177870000Y-101610000D02*
X167170000Y-101610000D01*
D13*
%TO.C,C46*%
X201810000Y-124600000D02*
X200510000Y-124600000D01*
X200510000Y-123100000D02*
X201810000Y-123100000D01*
%TO.C,C25*%
X195347500Y-143650000D02*
X195347500Y-142550000D01*
X196447500Y-142550000D02*
X196447500Y-143650000D01*
%TO.C,R46*%
X221025000Y-109150000D02*
X221025000Y-108050000D01*
X222125000Y-108050000D02*
X222125000Y-109150000D01*
%TO.C,R48*%
X232395000Y-152875000D02*
X232395000Y-153975000D01*
X231295000Y-153975000D02*
X231295000Y-152875000D01*
%TO.C,C7*%
X184425000Y-120700000D02*
X183325000Y-120700000D01*
X183325000Y-119600000D02*
X184425000Y-119600000D01*
D14*
%TO.C,Q2*%
X189150000Y-114860000D02*
X190560000Y-114860000D01*
X190560000Y-112540000D02*
X189060000Y-112540000D01*
X190560000Y-112540000D02*
X190560000Y-113200000D01*
X190560000Y-114200000D02*
X190560000Y-114860000D01*
D13*
%TO.C,R37*%
X206750000Y-152675000D02*
X205650000Y-152675000D01*
X205650000Y-151575000D02*
X206750000Y-151575000D01*
%TO.C,C18*%
X206410000Y-136435000D02*
X204110000Y-136435000D01*
X204110000Y-134185000D02*
X206410000Y-134185000D01*
%TO.C,C22*%
X205400000Y-158750000D02*
X204100000Y-158750000D01*
X204100000Y-157250000D02*
X205400000Y-157250000D01*
%TO.C,F6*%
X232050000Y-111500000D02*
X232050000Y-112800000D01*
X230200000Y-112800000D02*
X230200000Y-111500000D01*
%TO.C,C16*%
X214450000Y-158750000D02*
X213150000Y-158750000D01*
X213150000Y-157250000D02*
X214450000Y-157250000D01*
%TO.C,R56*%
X195375000Y-113100000D02*
X195375000Y-114200000D01*
X194275000Y-114200000D02*
X194275000Y-113100000D01*
%TO.C,C80*%
X181050000Y-146525000D02*
X181050000Y-147825000D01*
X179550000Y-147825000D02*
X179550000Y-146525000D01*
%TO.C,F5*%
X221725000Y-111525000D02*
X221725000Y-112825000D01*
X219875000Y-112825000D02*
X219875000Y-111525000D01*
%TO.C,F2*%
X219775000Y-168750000D02*
X219775000Y-167450000D01*
X221625000Y-167450000D02*
X221625000Y-168750000D01*
%TO.C,R21*%
X194075000Y-169300000D02*
X194075000Y-170400000D01*
X192975000Y-170400000D02*
X192975000Y-169300000D01*
%TO.C,R29*%
X228461625Y-154173250D02*
X227361625Y-154173250D01*
X227361625Y-153073250D02*
X228461625Y-153073250D01*
D17*
%TO.C,IC2*%
X170149239Y-149900761D02*
G75*
G03*
X170149239Y-149900761I-125000J0D01*
G01*
D13*
%TO.C,F9*%
X240675000Y-168725000D02*
X240675000Y-167425000D01*
X242525000Y-167425000D02*
X242525000Y-168725000D01*
%TO.C,C32*%
X200722500Y-130040000D02*
X200722500Y-128940000D01*
X201822500Y-128940000D02*
X201822500Y-130040000D01*
%TO.C,C37*%
X200722500Y-132900000D02*
X200722500Y-131800000D01*
X201822500Y-131800000D02*
X201822500Y-132900000D01*
%TO.C,R66*%
X201830000Y-125890000D02*
X201830000Y-126990000D01*
X200730000Y-126990000D02*
X200730000Y-125890000D01*
%TO.C,R14*%
X195475000Y-169300000D02*
X195475000Y-170400000D01*
X194375000Y-170400000D02*
X194375000Y-169300000D01*
%TO.C,C23*%
X209772500Y-129365000D02*
X209772500Y-130465000D01*
X208672500Y-130465000D02*
X208672500Y-129365000D01*
D15*
%TO.C,Q12*%
X195825000Y-102812500D02*
X195825000Y-106112500D01*
X192525000Y-102812500D02*
X192525000Y-106112500D01*
D10*
X195675000Y-102112500D02*
G75*
G03*
X195675000Y-102112500I-100000J0D01*
G01*
D13*
%TO.C,C53*%
X225330000Y-136425000D02*
X223030000Y-136425000D01*
X223030000Y-134175000D02*
X225330000Y-134175000D01*
D14*
%TO.C,U13*%
X232688900Y-153973752D02*
X232688900Y-155886248D01*
X235051100Y-155886248D02*
X235051100Y-153973752D01*
X234721600Y-152529801D02*
G75*
G03*
X234721600Y-152529801I-101600J0D01*
G01*
D13*
%TO.C,C1*%
X167675000Y-137775000D02*
X167675000Y-138875000D01*
X166575000Y-138875000D02*
X166575000Y-137775000D01*
D14*
%TO.C,IC1*%
X166100000Y-156685000D02*
X169550000Y-156685000D01*
X166100000Y-156685000D02*
X164150000Y-156685000D01*
X166100000Y-151565000D02*
X168050000Y-151565000D01*
X166100000Y-151565000D02*
X164150000Y-151565000D01*
D13*
%TO.C,R43*%
X220500000Y-171125000D02*
X220500000Y-172225000D01*
X219400000Y-172225000D02*
X219400000Y-171125000D01*
%TO.C,C13*%
X210250000Y-155275000D02*
X210250000Y-156575000D01*
X208750000Y-156575000D02*
X208750000Y-155275000D01*
%TO.C,C67*%
X241862500Y-143205000D02*
X241862500Y-144305000D01*
X240762500Y-144305000D02*
X240762500Y-143205000D01*
%TO.C,R67*%
X215375000Y-145835000D02*
X214275000Y-145835000D01*
X214275000Y-144735000D02*
X215375000Y-144735000D01*
%TO.C,R42*%
X221950000Y-171125000D02*
X221950000Y-172225000D01*
X220850000Y-172225000D02*
X220850000Y-171125000D01*
%TO.C,C54*%
X243860000Y-136425000D02*
X241560000Y-136425000D01*
X241560000Y-134175000D02*
X243860000Y-134175000D01*
%TO.C,R86*%
X220800000Y-125795000D02*
X220800000Y-126895000D01*
X219700000Y-126895000D02*
X219700000Y-125795000D01*
%TO.C,F3*%
X209425000Y-168750000D02*
X209425000Y-167450000D01*
X211275000Y-167450000D02*
X211275000Y-168750000D01*
%TO.C,R23*%
X190370000Y-116300000D02*
X189270000Y-116300000D01*
X189270000Y-115200000D02*
X190370000Y-115200000D01*
%TO.C,R13*%
X198275000Y-169300000D02*
X198275000Y-170400000D01*
X197175000Y-170400000D02*
X197175000Y-169300000D01*
%TO.C,R47*%
X219600000Y-109150000D02*
X219600000Y-108050000D01*
X220700000Y-108050000D02*
X220700000Y-109150000D01*
D15*
%TO.C,Q3*%
X195950000Y-158625000D02*
X195950000Y-161925000D01*
X192650000Y-158625000D02*
X192650000Y-161925000D01*
D10*
X195800000Y-157925000D02*
G75*
G03*
X195800000Y-157925000I-100000J0D01*
G01*
D15*
%TO.C,U4*%
X225286625Y-153400000D02*
X225886625Y-153400000D01*
X220886625Y-153400000D02*
X220886625Y-156600000D01*
X225286625Y-156600000D02*
X225886625Y-156600000D01*
X225001625Y-152850000D02*
G75*
G03*
X225001625Y-152850000I-65000J0D01*
G01*
D13*
%TO.C,C24*%
X217610000Y-136565000D02*
X219910000Y-136565000D01*
X219910000Y-138815000D02*
X217610000Y-138815000D01*
D14*
%TO.C,U24*%
X238137500Y-103440000D02*
X235317500Y-103440000D01*
X238137500Y-103440000D02*
X239437500Y-105140000D01*
X235317500Y-103440000D02*
X234017500Y-105140000D01*
X239437500Y-105140000D02*
X239437500Y-113860000D01*
X234017500Y-105140000D02*
X234017500Y-113860000D01*
X239437500Y-113860000D02*
X234017500Y-113860000D01*
%TO.C,D10*%
X221525000Y-104350000D02*
X220125000Y-104350000D01*
X221525000Y-104350000D02*
X221525000Y-106450000D01*
X220125000Y-104350000D02*
X220125000Y-106450000D01*
D13*
%TO.C,R36*%
X209625000Y-152675000D02*
X208525000Y-152675000D01*
X208525000Y-151575000D02*
X209625000Y-151575000D01*
%TO.C,R72*%
X204897500Y-125570000D02*
X204897500Y-124470000D01*
X205997500Y-124470000D02*
X205997500Y-125570000D01*
D14*
%TO.C,U31*%
X239792200Y-139673300D02*
X239047240Y-139673300D01*
X235177760Y-139673300D02*
X234432800Y-139673300D01*
X234432800Y-139673300D02*
X234432800Y-140410259D01*
X239792200Y-140410259D02*
X239792200Y-139673300D01*
X234432800Y-143279741D02*
X234432800Y-144016700D01*
X239792200Y-144016700D02*
X239792200Y-143279741D01*
X239047240Y-144016700D02*
X239792200Y-144016700D01*
X234432800Y-144016700D02*
X235177760Y-144016700D01*
D13*
X240473199Y-143035501D02*
X240219199Y-143035501D01*
X240219199Y-142654501D01*
X240473199Y-142654501D01*
X240473199Y-143035501D01*
G36*
X240473199Y-143035501D02*
G01*
X240219199Y-143035501D01*
X240219199Y-142654501D01*
X240473199Y-142654501D01*
X240473199Y-143035501D01*
G37*
%TO.C,C17*%
X161100000Y-153075000D02*
X161100000Y-151975000D01*
X162200000Y-151975000D02*
X162200000Y-153075000D01*
D14*
%TO.C,D6*%
X210450000Y-175975000D02*
X211850000Y-175975000D01*
X210450000Y-175975000D02*
X210450000Y-173875000D01*
X211850000Y-175975000D02*
X211850000Y-173875000D01*
%TO.C,U25*%
X235315000Y-176835000D02*
X238135000Y-176835000D01*
X235315000Y-176835000D02*
X234015000Y-175135000D01*
X238135000Y-176835000D02*
X239435000Y-175135000D01*
X234015000Y-175135000D02*
X234015000Y-166415000D01*
X239435000Y-175135000D02*
X239435000Y-166415000D01*
X234015000Y-166415000D02*
X239435000Y-166415000D01*
%TO.C,D1*%
X177600000Y-156900000D02*
X177600000Y-154900000D01*
X177600000Y-156900000D02*
X173750000Y-156900000D01*
X177600000Y-154900000D02*
X173750000Y-154900000D01*
D13*
%TO.C,C43*%
X223275000Y-140210000D02*
X223275000Y-141310000D01*
X222175000Y-141310000D02*
X222175000Y-140210000D01*
%TO.C,C38*%
X204397500Y-140200000D02*
X204397500Y-141300000D01*
X203297500Y-141300000D02*
X203297500Y-140200000D01*
D14*
%TO.C,D3*%
X185750000Y-159150000D02*
X185750000Y-157750000D01*
X185750000Y-159150000D02*
X183650000Y-159150000D01*
X185750000Y-157750000D02*
X183650000Y-157750000D01*
D13*
%TO.C,R40*%
X230900000Y-171150000D02*
X230900000Y-172250000D01*
X229800000Y-172250000D02*
X229800000Y-171150000D01*
%TO.C,C44*%
X203890000Y-148550000D02*
X205190000Y-148550000D01*
X205190000Y-150050000D02*
X203890000Y-150050000D01*
D15*
%TO.C,U6*%
X207400000Y-153376750D02*
X208000000Y-153376750D01*
X203000000Y-153376750D02*
X203000000Y-156576750D01*
X207400000Y-156576750D02*
X208000000Y-156576750D01*
X207115000Y-152826750D02*
G75*
G03*
X207115000Y-152826750I-65000J0D01*
G01*
D13*
%TO.C,C20*%
X214530000Y-122990000D02*
X215830000Y-122990000D01*
X215830000Y-124490000D02*
X214530000Y-124490000D01*
%TO.C,R90*%
X222650000Y-127745000D02*
X222650000Y-126645000D01*
X223750000Y-126645000D02*
X223750000Y-127745000D01*
%TO.C,R17*%
X177325000Y-143725000D02*
X177325000Y-144825000D01*
X176225000Y-144825000D02*
X176225000Y-143725000D01*
D14*
%TO.C,U11*%
X202427200Y-139603299D02*
X201682240Y-139603299D01*
X197812760Y-139603299D02*
X197067800Y-139603299D01*
X197067800Y-139603299D02*
X197067800Y-140340258D01*
X202427200Y-140340258D02*
X202427200Y-139603299D01*
X197067800Y-143209740D02*
X197067800Y-143946699D01*
X202427200Y-143946699D02*
X202427200Y-143209740D01*
X201682240Y-143946699D02*
X202427200Y-143946699D01*
X197067800Y-143946699D02*
X197812760Y-143946699D01*
D13*
X203108199Y-142965500D02*
X202854199Y-142965500D01*
X202854199Y-142584500D01*
X203108199Y-142584500D01*
X203108199Y-142965500D01*
G36*
X203108199Y-142965500D02*
G01*
X202854199Y-142965500D01*
X202854199Y-142584500D01*
X203108199Y-142584500D01*
X203108199Y-142965500D01*
G37*
%TO.C,C15*%
X223361625Y-158723250D02*
X222061625Y-158723250D01*
X222061625Y-157223250D02*
X223361625Y-157223250D01*
%TO.C,R70*%
X240875000Y-172525000D02*
X240875000Y-171225000D01*
X242375000Y-171225000D02*
X242375000Y-172525000D01*
D12*
%TO.C,J7*%
X151033200Y-139667400D02*
X151033200Y-138219600D01*
X152000000Y-139667400D02*
X151033200Y-139667400D01*
X154690800Y-139667400D02*
X163479200Y-139667400D01*
X151033200Y-138219600D02*
X151414200Y-138118000D01*
X151414200Y-138118000D02*
X152125400Y-136009800D01*
X165790600Y-136150000D02*
X165790600Y-138905400D01*
X152125400Y-136009800D02*
X153497000Y-136009800D01*
X153522400Y-136009800D02*
X153522400Y-127094400D01*
X165765200Y-128339000D02*
X165765200Y-134409600D01*
X153522400Y-127094400D02*
X150906200Y-127094400D01*
X150910000Y-127090000D02*
X150910000Y-125350000D01*
X154436800Y-125367200D02*
X154716200Y-125367200D01*
X156189400Y-125367200D02*
X163631600Y-125367200D01*
X165028600Y-125367200D02*
X165714400Y-125367200D01*
X165714400Y-125367200D02*
X165714400Y-126637200D01*
X150920000Y-125350000D02*
X151980000Y-125350000D01*
D13*
%TO.C,C60*%
X247125000Y-129350000D02*
X247125000Y-130450000D01*
X246025000Y-130450000D02*
X246025000Y-129350000D01*
D14*
%TO.C,D7*%
X231175000Y-175975000D02*
X232575000Y-175975000D01*
X231175000Y-175975000D02*
X231175000Y-173875000D01*
X232575000Y-175975000D02*
X232575000Y-173875000D01*
%TO.C,U14*%
X153518752Y-145906100D02*
X155431248Y-145906100D01*
X155431248Y-143543900D02*
X153518752Y-143543900D01*
X152176401Y-143975000D02*
G75*
G03*
X152176401Y-143975000I-101600J0D01*
G01*
D15*
%TO.C,Q4*%
X192000000Y-158625000D02*
X192000000Y-161925000D01*
X188700000Y-158625000D02*
X188700000Y-161925000D01*
D10*
X191850000Y-157925000D02*
G75*
G03*
X191850000Y-157925000I-100000J0D01*
G01*
D14*
%TO.C,D11*%
X231775000Y-104325000D02*
X230375000Y-104325000D01*
X231775000Y-104325000D02*
X231775000Y-106425000D01*
X230375000Y-104325000D02*
X230375000Y-106425000D01*
%TO.C,U10*%
X156550000Y-147070000D02*
X154630000Y-147070000D01*
X150915000Y-147070000D02*
X152620000Y-147070000D01*
X154630000Y-156230000D02*
X156550000Y-156230000D01*
X152620000Y-156230000D02*
X150915000Y-156230000D01*
X150915000Y-156230000D02*
X150915000Y-147070000D01*
D13*
%TO.C,C61*%
X232712500Y-143755000D02*
X232712500Y-142655000D01*
X233812500Y-142655000D02*
X233812500Y-143755000D01*
%TO.C,C10*%
X161100000Y-155975000D02*
X161100000Y-154875000D01*
X162200000Y-154875000D02*
X162200000Y-155975000D01*
%TO.C,C41*%
X223275000Y-143160000D02*
X223275000Y-144260000D01*
X222175000Y-144260000D02*
X222175000Y-143160000D01*
D15*
%TO.C,Q6*%
X192650000Y-166090000D02*
X192650000Y-162790000D01*
X195950000Y-166090000D02*
X195950000Y-162790000D01*
D10*
X193000000Y-166790000D02*
G75*
G03*
X193000000Y-166790000I-100000J0D01*
G01*
D13*
%TO.C,R91*%
X242325000Y-125525000D02*
X242325000Y-124425000D01*
X243425000Y-124425000D02*
X243425000Y-125525000D01*
%TO.C,C30*%
X156800000Y-145350000D02*
X156800000Y-144250000D01*
X157900000Y-144250000D02*
X157900000Y-145350000D01*
%TO.C,R22*%
X196875000Y-169300000D02*
X196875000Y-170400000D01*
X195775000Y-170400000D02*
X195775000Y-169300000D01*
%TO.C,R24*%
X180425000Y-119612500D02*
X181525000Y-119612500D01*
X181525000Y-120712500D02*
X180425000Y-120712500D01*
%TO.C,R53*%
X153225000Y-142125000D02*
X154325000Y-142125000D01*
X154325000Y-143225000D02*
X153225000Y-143225000D01*
D14*
%TO.C,D5*%
X186500000Y-143150000D02*
X186500000Y-141750000D01*
X186500000Y-143150000D02*
X184400000Y-143150000D01*
X186500000Y-141750000D02*
X184400000Y-141750000D01*
D13*
%TO.C,R30*%
X219575000Y-154125000D02*
X218475000Y-154125000D01*
X218475000Y-153025000D02*
X219575000Y-153025000D01*
D15*
%TO.C,U15*%
X150770000Y-178340000D02*
X164420000Y-178340000D01*
X167170000Y-178340000D02*
X177870000Y-178340000D01*
X177870000Y-178340000D02*
X177870000Y-176190000D01*
X171730000Y-172890000D02*
X171730000Y-173890000D01*
X177870000Y-165340000D02*
X177870000Y-170540000D01*
X171790000Y-163090000D02*
X171790000Y-162090000D01*
X171290000Y-162590000D02*
X172290000Y-162590000D01*
X177870000Y-159690000D02*
X177870000Y-157540000D01*
X150770000Y-157540000D02*
X150770000Y-178340000D01*
X164420000Y-157540000D02*
X150770000Y-157540000D01*
X177870000Y-157540000D02*
X167170000Y-157540000D01*
D13*
%TO.C,R49*%
X173915000Y-126600000D02*
X173915000Y-125500000D01*
X175015000Y-125500000D02*
X175015000Y-126600000D01*
%TO.C,C8*%
X186225000Y-119600000D02*
X187325000Y-119600000D01*
X187325000Y-120700000D02*
X186225000Y-120700000D01*
%TO.C,C3*%
X184550000Y-176500000D02*
X183450000Y-176500000D01*
X183450000Y-175400000D02*
X184550000Y-175400000D01*
%TO.C,C12*%
X219225000Y-155300000D02*
X219225000Y-156600000D01*
X217725000Y-156600000D02*
X217725000Y-155300000D01*
%TO.C,R34*%
X218600000Y-152725000D02*
X217500000Y-152725000D01*
X217500000Y-151625000D02*
X218600000Y-151625000D01*
D14*
%TO.C,D4*%
X185625000Y-103375000D02*
X185625000Y-101975000D01*
X185625000Y-103375000D02*
X183525000Y-103375000D01*
X185625000Y-101975000D02*
X183525000Y-101975000D01*
%TO.C,U19*%
X203790000Y-176860000D02*
X206610000Y-176860000D01*
X203790000Y-176860000D02*
X202490000Y-175160000D01*
X206610000Y-176860000D02*
X207910000Y-175160000D01*
X202490000Y-175160000D02*
X202490000Y-166440000D01*
X207910000Y-175160000D02*
X207910000Y-166440000D01*
X202490000Y-166440000D02*
X207910000Y-166440000D01*
D13*
%TO.C,R88*%
X240762500Y-147180000D02*
X240762500Y-146080000D01*
X241862500Y-146080000D02*
X241862500Y-147180000D01*
D14*
%TO.C,U21*%
X216935000Y-103440000D02*
X214115000Y-103440000D01*
X216935000Y-103440000D02*
X218235000Y-105140000D01*
X214115000Y-103440000D02*
X212815000Y-105140000D01*
X218235000Y-105140000D02*
X218235000Y-113860000D01*
X212815000Y-105140000D02*
X212815000Y-113860000D01*
X218235000Y-113860000D02*
X212815000Y-113860000D01*
D13*
%TO.C,C72*%
X241862500Y-140305000D02*
X241862500Y-141405000D01*
X240762500Y-141405000D02*
X240762500Y-140305000D01*
D14*
%TO.C,SP1*%
X192700000Y-128550000D02*
G75*
G03*
X192700000Y-128550000I-7200000J0D01*
G01*
D13*
%TO.C,R92*%
X240900000Y-127725000D02*
X240900000Y-126625000D01*
X242000000Y-126625000D02*
X242000000Y-127725000D01*
%TO.C,R33*%
X224636625Y-152773250D02*
X223536625Y-152773250D01*
X223536625Y-151673250D02*
X224636625Y-151673250D01*
%TO.C,R80*%
X227625000Y-127195000D02*
X228725000Y-127195000D01*
X228725000Y-128295000D02*
X227625000Y-128295000D01*
%TO.C,R38*%
X229775000Y-175175000D02*
X229775000Y-174075000D01*
X230875000Y-174075000D02*
X230875000Y-175175000D01*
%TO.C,R52*%
X202922500Y-145410000D02*
X202922500Y-146510000D01*
X201822500Y-146510000D02*
X201822500Y-145410000D01*
D14*
%TO.C,U34*%
X183359239Y-152575761D02*
X183359239Y-149125761D01*
X183359239Y-152575761D02*
X183359239Y-154525761D01*
X178239239Y-152575761D02*
X178239239Y-150625761D01*
X178239239Y-152575761D02*
X178239239Y-154525761D01*
D13*
%TO.C,R41*%
X219360000Y-175180000D02*
X219360000Y-174080000D01*
X220460000Y-174080000D02*
X220460000Y-175180000D01*
%TO.C,R75*%
X222150000Y-147210000D02*
X222150000Y-146110000D01*
X223250000Y-146110000D02*
X223250000Y-147210000D01*
D15*
%TO.C,U5*%
X216375000Y-153375000D02*
X216975000Y-153375000D01*
X211975000Y-153375000D02*
X211975000Y-156575000D01*
X216375000Y-156575000D02*
X216975000Y-156575000D01*
X216090000Y-152825000D02*
G75*
G03*
X216090000Y-152825000I-65000J0D01*
G01*
D14*
%TO.C,D8*%
X220750000Y-175925000D02*
X222150000Y-175925000D01*
X220750000Y-175925000D02*
X220750000Y-173825000D01*
X222150000Y-175925000D02*
X222150000Y-173825000D01*
D13*
%TO.C,R6*%
X190450000Y-172510000D02*
X189350000Y-172510000D01*
X189350000Y-171410000D02*
X190450000Y-171410000D01*
D15*
%TO.C,Q9*%
X192525000Y-110287500D02*
X192525000Y-106987500D01*
X195825000Y-110287500D02*
X195825000Y-106987500D01*
D10*
X192875000Y-110987500D02*
G75*
G03*
X192875000Y-110987500I-100000J0D01*
G01*
D13*
%TO.C,C51*%
X228225000Y-149950000D02*
X226925000Y-149950000D01*
X226925000Y-148450000D02*
X228225000Y-148450000D01*
%TO.C,R9*%
X181642500Y-103900000D02*
X181642500Y-102800000D01*
X182742500Y-102800000D02*
X182742500Y-103900000D01*
D14*
%TO.C,U30*%
X240055300Y-133446701D02*
X240800260Y-133446701D01*
X244669740Y-133446701D02*
X245414700Y-133446701D01*
X245414700Y-133446701D02*
X245414700Y-132709742D01*
X240055300Y-132709742D02*
X240055300Y-133446701D01*
X245414700Y-129840260D02*
X245414700Y-129103301D01*
X240055300Y-129103301D02*
X240055300Y-129840260D01*
X240800260Y-129103301D02*
X240055300Y-129103301D01*
X245414700Y-129103301D02*
X244669740Y-129103301D01*
D13*
X239628301Y-130465500D02*
X239374301Y-130465500D01*
X239374301Y-130084500D01*
X239628301Y-130084500D01*
X239628301Y-130465500D01*
G36*
X239628301Y-130465500D02*
G01*
X239374301Y-130465500D01*
X239374301Y-130084500D01*
X239628301Y-130084500D01*
X239628301Y-130465500D01*
G37*
%TO.C,R97*%
X159575000Y-142475000D02*
X159575000Y-141375000D01*
X160675000Y-141375000D02*
X160675000Y-142475000D01*
%TO.C,R89*%
X224025000Y-125545000D02*
X224025000Y-124445000D01*
X225125000Y-124445000D02*
X225125000Y-125545000D01*
%TO.C,R58*%
X211575000Y-171150000D02*
X211575000Y-172250000D01*
X210475000Y-172250000D02*
X210475000Y-171150000D01*
%TO.C,C47*%
X227950000Y-148125000D02*
X224750000Y-148125000D01*
X224750000Y-145325000D02*
X227950000Y-145325000D01*
D15*
%TO.C,Q11*%
X191900000Y-102825000D02*
X191900000Y-106125000D01*
X188600000Y-102825000D02*
X188600000Y-106125000D01*
D10*
X191750000Y-102125000D02*
G75*
G03*
X191750000Y-102125000I-100000J0D01*
G01*
D13*
%TO.C,R16*%
X209060000Y-175220000D02*
X209060000Y-174120000D01*
X210160000Y-174120000D02*
X210160000Y-175220000D01*
%TO.C,C19*%
X198660000Y-136615000D02*
X200960000Y-136615000D01*
X200960000Y-138865000D02*
X198660000Y-138865000D01*
%TO.C,C75*%
X246680000Y-150190000D02*
X245380000Y-150190000D01*
X245380000Y-148690000D02*
X246680000Y-148690000D01*
D15*
%TO.C,Q5*%
X188700000Y-166102500D02*
X188700000Y-162802500D01*
X192000000Y-166102500D02*
X192000000Y-162802500D01*
D10*
X189050000Y-166802500D02*
G75*
G03*
X189050000Y-166802500I-100000J0D01*
G01*
D13*
%TO.C,C39*%
X205747500Y-127215000D02*
X205747500Y-127815000D01*
X204897500Y-127815000D02*
X204897500Y-127215000D01*
%TO.C,C66*%
X238100000Y-130025000D02*
X238100000Y-128925000D01*
X239200000Y-128925000D02*
X239200000Y-130025000D01*
%TO.C,R39*%
X232350000Y-171150000D02*
X232350000Y-172250000D01*
X231250000Y-172250000D02*
X231250000Y-171150000D01*
%TO.C,R5*%
X181750000Y-159850000D02*
X181750000Y-158750000D01*
X182850000Y-158750000D02*
X182850000Y-159850000D01*
D14*
%TO.C,L6*%
X247957500Y-139370000D02*
X242017500Y-139370000D01*
X242017500Y-139370000D02*
X242017500Y-145280000D01*
X242017500Y-145280000D02*
X247957500Y-145280000D01*
X247957500Y-145280000D02*
X247957500Y-139370000D01*
D13*
%TO.C,C11*%
X228111625Y-155323250D02*
X228111625Y-156623250D01*
X226611625Y-156623250D02*
X226611625Y-155323250D01*
D14*
%TO.C,D12*%
X181425000Y-148750000D02*
X183425000Y-148750000D01*
X181425000Y-148750000D02*
X181425000Y-144900000D01*
X183425000Y-148750000D02*
X183425000Y-144900000D01*
%TD*%
M02*
