M48
; DRILL file {KiCad 7.0.1-0} date 2023 April 01, Saturday 19:34:16
; FORMAT={-:-/ absolute / metric / decimal}
; #@! TF.CreationDate,2023-04-01T19:34:16-07:00
; #@! TF.GenerationSoftware,Kicad,Pcbnew,7.0.1-0
; #@! TF.FileFunction,MixedPlating,1,4
FMAT,2
METRIC
; #@! TA.AperFunction,Plated,PTH,ViaDrill
T1C0.300
; #@! TA.AperFunction,Plated,PTH,ViaDrill
T2C0.400
; #@! TA.AperFunction,Plated,PTH,ViaDrill
T3C0.600
; #@! TA.AperFunction,Plated,PTH,ComponentDrill
T4C0.600
; #@! TA.AperFunction,Plated,PTH,ComponentDrill
T5C1.000
; #@! TA.AperFunction,Plated,PTH,ViaDrill
T6C1.200
; #@! TA.AperFunction,Plated,PTH,ComponentDrill
T7C2.000
; #@! TA.AperFunction,Plated,PTH,ComponentDrill
T8C2.700
; #@! TA.AperFunction,Plated,PTH,ComponentDrill
T9C3.000
; #@! TA.AperFunction,Plated,PTH,ComponentDrill
T10C3.900
; #@! TA.AperFunction,NonPlated,NPTH,ComponentDrill
T11C0.650
; #@! TA.AperFunction,NonPlated,NPTH,ComponentDrill
T12C1.000
%
G90
G05
T1
X151.481Y-131.375
X151.71Y-116.66
X151.77Y-114.54
X151.78Y-118.78
X151.88Y-120.93
X151.925Y-126.725
X152.125Y-144.475
X152.19Y-143.728
X153.612Y-146.05
X154.649Y-141.925
X154.8Y-143.525
X155.05Y-152.175
X156.129Y-127.02
X156.162Y-137.387
X156.25Y-138.175
X157.067Y-141.028
X157.28Y-126.747
X157.962Y-144.372
X158.25Y-145.581
X158.825Y-139.938
X158.825Y-140.75
X159.2Y-124.125
X159.275Y-147.75
X159.75Y-154.45
X160.15Y-140.625
X160.436Y-152.461
X160.9Y-154.325
X161.297Y-141.01
X161.625Y-157.1
X161.775Y-142.15
X161.8Y-144.075
X161.856Y-144.864
X162.208Y-153.854
X162.55Y-150.4
X162.7Y-124.125
X163.625Y-157.1
X164.076Y-141.78
X164.575Y-137.475
X164.825Y-141.75
X165.525Y-155.951
X165.717Y-140.979
X165.825Y-150.699
X165.974Y-141.954
X166.425Y-141.251
X167.12Y-138.41
X167.125Y-136.6
X167.808Y-151.203
X168.625Y-151.095
X168.85Y-125.35
X169.386Y-150.526
X170.05Y-151.375
X170.099Y-153.49
X170.512Y-148.688
X170.525Y-146.276
X170.56Y-142.52
X170.561Y-145.126
X170.599Y-143.802
X171.675Y-145.7
X172.375Y-155.475
X172.4Y-147.85
X172.4Y-152.28
X172.4Y-153.65
X172.425Y-157.675
X173.829Y-148.71
X173.98Y-143.965
X174.05Y-156.899
X174.06Y-142.52
X174.51Y-147.9
X174.799Y-156.933
X174.937Y-143.853
X175.12Y-123.92
X175.39Y-145.874
X175.42Y-150.075
X175.8Y-140.901
X176.49Y-150.93
X176.95Y-141.225
X178.11Y-143.7
X178.68Y-147.23
X178.776Y-123.598
X179.525Y-123.625
X179.55Y-155.051
X179.9Y-162.825
X179.9Y-163.625
X179.9Y-164.525
X179.925Y-162.05
X179.95Y-161.25
X180.0Y-105.425
X180.0Y-106.225
X180.0Y-107.0
X180.0Y-107.8
X180.0Y-108.6
X180.225Y-141.375
X180.3Y-146.94
X180.7Y-162.825
X180.7Y-163.625
X180.7Y-164.525
X180.725Y-162.05
X180.75Y-161.25
X180.775Y-105.425
X180.775Y-106.225
X180.775Y-107.0
X180.775Y-107.8
X180.775Y-108.6
X181.275Y-140.0
X181.45Y-162.825
X181.45Y-163.625
X181.45Y-164.525
X181.475Y-162.05
X181.5Y-161.25
X181.55Y-105.425
X181.55Y-106.225
X181.55Y-107.0
X181.55Y-107.8
X181.55Y-108.6
X181.86Y-140.64
X181.89Y-139.36
X182.01Y-146.64
X182.125Y-140.0
X182.25Y-162.825
X182.25Y-163.625
X182.25Y-164.525
X182.275Y-162.05
X182.3Y-161.25
X182.325Y-105.425
X182.325Y-106.225
X182.325Y-107.0
X182.325Y-107.8
X182.325Y-108.6
X183.05Y-162.825
X183.05Y-163.625
X183.05Y-164.525
X183.075Y-162.05
X183.1Y-105.425
X183.1Y-106.225
X183.1Y-107.0
X183.1Y-107.8
X183.1Y-108.6
X183.1Y-161.25
X184.825Y-107.0
X184.825Y-107.725
X184.825Y-108.475
X184.85Y-105.45
X184.85Y-106.225
X184.85Y-164.5
X184.875Y-162.1
X184.875Y-162.9
X184.875Y-163.675
X184.9Y-161.3
X185.6Y-107.0
X185.6Y-107.725
X185.6Y-108.475
X185.625Y-105.45
X185.625Y-106.225
X185.675Y-164.5
X185.7Y-162.1
X185.7Y-162.9
X185.7Y-163.675
X185.725Y-161.3
X186.375Y-107.0
X186.375Y-107.725
X186.375Y-108.475
X186.4Y-105.45
X186.4Y-106.225
X186.475Y-140.025
X186.5Y-164.5
X186.525Y-162.1
X186.525Y-162.9
X186.525Y-163.675
X186.55Y-161.3
X186.65Y-102.675
X186.65Y-158.425
X186.77Y-140.67
X186.78Y-139.37
X187.075Y-143.95
X187.08Y-142.45
X187.15Y-107.0
X187.15Y-107.725
X187.15Y-108.475
X187.175Y-105.45
X187.175Y-106.225
X187.325Y-140.025
X187.325Y-164.5
X187.35Y-162.1
X187.35Y-162.9
X187.35Y-163.675
X187.375Y-161.3
X187.925Y-107.0
X187.925Y-107.725
X187.925Y-108.475
X187.95Y-105.45
X187.95Y-106.225
X188.125Y-164.5
X188.15Y-162.1
X188.15Y-162.9
X188.15Y-163.675
X188.175Y-161.3
X188.53Y-158.825
X188.55Y-103.025
X189.03Y-118.12
X189.25Y-102.05
X189.25Y-111.05
X189.375Y-157.9
X189.375Y-166.875
X189.8Y-113.08
X189.8Y-117.08
X189.89Y-169.17
X189.89Y-173.28
X189.925Y-102.05
X189.925Y-111.05
X190.05Y-157.9
X190.05Y-166.875
X190.575Y-102.05
X190.575Y-111.05
X190.7Y-157.9
X190.7Y-166.875
X191.25Y-102.05
X191.25Y-111.05
X191.375Y-157.9
X191.375Y-166.875
X191.8Y-110.125
X191.8Y-165.925
X192.6Y-103.025
X192.7Y-158.875
X192.831Y-112.769
X192.973Y-168.815
X193.15Y-102.05
X193.175Y-111.05
X193.325Y-157.9
X193.325Y-166.875
X193.825Y-102.05
X193.85Y-111.05
X194.0Y-157.9
X194.0Y-166.875
X194.249Y-112.8
X194.475Y-102.05
X194.5Y-111.05
X194.65Y-157.9
X194.65Y-166.875
X194.925Y-168.3
X195.1Y-122.3
X195.15Y-102.05
X195.175Y-111.05
X195.325Y-157.9
X195.325Y-166.875
X195.725Y-110.1
X195.85Y-136.625
X195.85Y-137.45
X195.85Y-138.425
X195.875Y-139.325
X195.925Y-165.925
X196.0Y-122.275
X196.225Y-112.175
X196.325Y-168.3
X196.575Y-103.025
X196.575Y-103.7
X196.575Y-104.35
X196.575Y-105.025
X196.575Y-108.075
X196.575Y-108.75
X196.575Y-109.4
X196.575Y-110.075
X196.75Y-158.8
X196.75Y-159.475
X196.75Y-160.125
X196.75Y-160.8
X196.75Y-163.85
X196.75Y-164.525
X196.75Y-165.175
X196.75Y-165.85
X196.925Y-136.7
X196.925Y-137.4
X196.95Y-138.125
X196.95Y-138.825
X196.975Y-122.275
X197.275Y-103.05
X197.275Y-103.725
X197.275Y-104.375
X197.275Y-105.05
X197.275Y-108.1
X197.275Y-108.775
X197.275Y-109.425
X197.275Y-110.1
X197.45Y-158.825
X197.45Y-159.5
X197.45Y-160.15
X197.45Y-160.825
X197.45Y-163.875
X197.45Y-164.55
X197.45Y-165.2
X197.45Y-165.875
X197.625Y-112.175
X197.65Y-136.7
X197.675Y-137.4
X197.675Y-138.125
X197.7Y-138.825
X197.725Y-168.3
X197.8Y-122.275
X197.975Y-103.075
X197.975Y-103.75
X197.975Y-104.4
X197.975Y-105.075
X198.15Y-158.85
X198.15Y-159.525
X198.15Y-160.175
X198.15Y-160.85
X198.373Y-140.94
X198.373Y-141.79
X198.397Y-142.64
X198.675Y-103.075
X198.675Y-103.75
X198.675Y-104.4
X198.675Y-105.075
X198.675Y-108.125
X198.675Y-108.8
X198.675Y-109.45
X198.675Y-110.125
X198.85Y-158.85
X198.85Y-159.525
X198.85Y-160.175
X198.85Y-160.85
X198.85Y-163.9
X198.85Y-164.575
X198.85Y-165.225
X198.85Y-165.9
X199.197Y-140.94
X199.197Y-141.79
X199.222Y-142.64
X199.375Y-103.1
X199.375Y-103.775
X199.375Y-104.425
X199.375Y-105.1
X199.375Y-108.15
X199.375Y-108.825
X199.375Y-109.475
X199.375Y-110.15
X199.55Y-158.875
X199.55Y-159.55
X199.55Y-160.2
X199.55Y-160.875
X199.55Y-163.925
X199.55Y-164.6
X199.55Y-165.25
X199.55Y-165.925
X200.075Y-103.125
X200.075Y-103.8
X200.075Y-104.45
X200.075Y-105.125
X200.075Y-108.175
X200.075Y-108.85
X200.075Y-109.5
X200.075Y-110.175
X200.172Y-140.94
X200.172Y-141.79
X200.197Y-142.64
X200.25Y-158.9
X200.25Y-159.575
X200.25Y-160.225
X200.25Y-160.9
X200.25Y-163.95
X200.25Y-164.625
X200.25Y-165.275
X200.25Y-165.95
X201.072Y-140.915
X201.072Y-141.765
X201.097Y-142.615
X201.425Y-122.325
X201.63Y-120.035
X201.655Y-119.335
X201.675Y-164.375
X201.68Y-117.91
X201.68Y-118.635
X201.7Y-163.675
X201.705Y-117.21
X201.725Y-162.25
X201.725Y-162.975
X201.73Y-115.81
X201.73Y-116.51
X201.75Y-161.55
X201.775Y-160.15
X201.775Y-160.85
X202.305Y-120.035
X202.325Y-122.3
X202.33Y-119.335
X202.35Y-164.375
X202.355Y-117.91
X202.355Y-118.635
X202.375Y-163.675
X202.38Y-117.21
X202.4Y-162.25
X202.4Y-162.975
X202.405Y-115.81
X202.405Y-116.51
X202.425Y-161.55
X202.45Y-160.15
X202.45Y-160.85
X202.955Y-120.035
X202.98Y-119.335
X203.0Y-164.375
X203.005Y-117.91
X203.005Y-118.635
X203.025Y-163.675
X203.03Y-117.21
X203.05Y-162.25
X203.05Y-162.975
X203.055Y-115.81
X203.055Y-116.51
X203.075Y-161.55
X203.1Y-160.15
X203.1Y-160.85
X203.225Y-150.875
X203.3Y-122.3
X203.63Y-120.035
X203.655Y-119.335
X203.675Y-164.375
X203.68Y-117.91
X203.68Y-118.635
X203.7Y-163.675
X203.705Y-117.21
X203.725Y-162.25
X203.725Y-162.975
X203.73Y-115.81
X203.73Y-116.51
X203.75Y-161.55
X203.775Y-160.15
X203.775Y-160.85
X203.998Y-130.465
X204.022Y-131.315
X204.022Y-132.165
X204.125Y-122.3
X204.125Y-150.85
X204.897Y-130.44
X204.922Y-131.29
X204.922Y-132.14
X205.1Y-150.85
X205.873Y-130.44
X205.897Y-131.29
X205.897Y-132.14
X205.925Y-150.85
X206.655Y-120.035
X206.68Y-119.335
X206.697Y-130.44
X206.7Y-164.375
X206.705Y-117.91
X206.705Y-118.635
X206.722Y-131.29
X206.722Y-132.14
X206.725Y-163.675
X206.73Y-117.21
X206.75Y-162.25
X206.75Y-162.975
X206.755Y-115.81
X206.755Y-116.51
X206.775Y-161.55
X206.8Y-160.15
X206.8Y-160.85
X206.825Y-157.5
X206.825Y-158.2
X207.075Y-150.875
X207.33Y-120.035
X207.355Y-119.335
X207.375Y-164.375
X207.38Y-117.91
X207.38Y-118.635
X207.4Y-134.25
X207.4Y-134.95
X207.4Y-163.675
X207.405Y-117.21
X207.425Y-135.675
X207.425Y-136.375
X207.425Y-162.25
X207.425Y-162.975
X207.43Y-115.81
X207.43Y-116.51
X207.45Y-161.55
X207.475Y-160.15
X207.475Y-160.85
X207.525Y-157.5
X207.525Y-158.2
X207.975Y-150.85
X207.98Y-120.035
X208.005Y-119.335
X208.025Y-164.375
X208.03Y-117.91
X208.03Y-118.635
X208.05Y-163.675
X208.055Y-117.21
X208.075Y-162.25
X208.075Y-162.975
X208.08Y-115.81
X208.08Y-116.51
X208.1Y-161.55
X208.125Y-134.25
X208.125Y-160.15
X208.125Y-160.85
X208.15Y-134.95
X208.15Y-135.675
X208.175Y-136.375
X208.225Y-157.5
X208.225Y-158.2
X208.655Y-120.035
X208.68Y-119.335
X208.7Y-164.375
X208.705Y-117.91
X208.705Y-118.635
X208.725Y-163.675
X208.73Y-117.21
X208.75Y-162.25
X208.75Y-162.975
X208.755Y-115.81
X208.755Y-116.51
X208.775Y-161.55
X208.8Y-160.15
X208.8Y-160.85
X208.95Y-150.85
X209.35Y-133.925
X209.375Y-134.825
X209.375Y-135.8
X209.375Y-136.625
X209.775Y-150.85
X212.04Y-164.265
X212.05Y-120.035
X212.065Y-163.565
X212.075Y-119.335
X212.09Y-162.14
X212.09Y-162.865
X212.1Y-117.91
X212.1Y-118.635
X212.115Y-161.44
X212.125Y-117.21
X212.14Y-160.04
X212.14Y-160.74
X212.15Y-115.81
X212.15Y-116.51
X212.715Y-164.265
X212.725Y-120.035
X212.74Y-163.565
X212.75Y-119.335
X212.765Y-162.14
X212.765Y-162.865
X212.775Y-117.91
X212.775Y-118.635
X212.79Y-161.44
X212.8Y-117.21
X212.815Y-160.04
X212.815Y-160.74
X212.825Y-115.81
X212.825Y-116.51
X213.365Y-164.265
X213.375Y-120.035
X213.39Y-163.565
X213.4Y-119.335
X213.415Y-162.14
X213.415Y-162.865
X213.425Y-117.91
X213.425Y-118.635
X213.44Y-161.44
X213.45Y-117.21
X213.465Y-160.04
X213.465Y-160.74
X213.475Y-115.81
X213.475Y-116.51
X214.04Y-164.265
X214.05Y-120.035
X214.065Y-163.565
X214.075Y-119.335
X214.09Y-162.14
X214.09Y-162.865
X214.1Y-117.91
X214.1Y-118.635
X214.115Y-161.44
X214.125Y-117.21
X214.14Y-160.04
X214.14Y-160.74
X214.15Y-115.81
X214.15Y-116.51
X214.65Y-136.475
X214.65Y-137.3
X214.65Y-138.275
X214.675Y-139.175
X215.4Y-122.175
X215.775Y-136.675
X215.775Y-137.375
X215.775Y-157.5
X215.775Y-158.2
X215.8Y-138.1
X215.8Y-138.8
X216.3Y-122.15
X216.475Y-157.5
X216.475Y-158.2
X216.5Y-136.675
X216.525Y-137.375
X216.525Y-138.1
X216.55Y-138.8
X217.065Y-164.265
X217.075Y-120.035
X217.09Y-163.565
X217.1Y-119.335
X217.115Y-162.14
X217.115Y-162.865
X217.125Y-117.91
X217.125Y-118.635
X217.14Y-161.44
X217.15Y-117.21
X217.165Y-160.04
X217.165Y-160.74
X217.175Y-115.81
X217.175Y-116.51
X217.175Y-157.5
X217.175Y-158.2
X217.225Y-140.91
X217.225Y-141.76
X217.25Y-142.61
X217.275Y-122.15
X217.74Y-164.265
X217.75Y-120.035
X217.765Y-163.565
X217.775Y-119.335
X217.79Y-162.14
X217.79Y-162.865
X217.8Y-117.91
X217.8Y-118.635
X217.815Y-161.44
X217.825Y-117.21
X217.84Y-160.04
X217.84Y-160.74
X217.85Y-115.81
X217.85Y-116.51
X218.05Y-140.91
X218.05Y-141.76
X218.075Y-142.61
X218.1Y-122.15
X218.39Y-164.265
X218.4Y-120.035
X218.415Y-163.565
X218.425Y-119.335
X218.44Y-162.14
X218.44Y-162.865
X218.45Y-117.91
X218.45Y-118.635
X218.465Y-161.44
X218.475Y-117.21
X218.49Y-160.04
X218.49Y-160.74
X218.5Y-115.81
X218.5Y-116.51
X219.025Y-140.91
X219.025Y-141.76
X219.05Y-142.61
X219.065Y-164.265
X219.075Y-120.035
X219.09Y-163.565
X219.1Y-119.335
X219.115Y-162.14
X219.115Y-162.865
X219.125Y-117.91
X219.125Y-118.635
X219.14Y-161.44
X219.15Y-117.21
X219.165Y-160.04
X219.165Y-160.74
X219.175Y-115.81
X219.175Y-116.51
X219.925Y-140.885
X219.925Y-141.735
X219.95Y-142.585
X220.025Y-122.175
X220.925Y-122.15
X221.525Y-150.85
X221.9Y-122.15
X222.36Y-164.245
X222.38Y-120.065
X222.385Y-163.545
X222.405Y-119.365
X222.41Y-162.12
X222.41Y-162.845
X222.425Y-150.825
X222.43Y-117.94
X222.43Y-118.665
X222.435Y-161.42
X222.455Y-117.24
X222.46Y-160.02
X222.46Y-160.72
X222.48Y-115.84
X222.48Y-116.54
X222.725Y-122.15
X223.035Y-164.245
X223.05Y-130.455
X223.055Y-120.065
X223.06Y-163.545
X223.075Y-131.305
X223.075Y-132.155
X223.08Y-119.365
X223.085Y-162.12
X223.085Y-162.845
X223.105Y-117.94
X223.105Y-118.665
X223.11Y-161.42
X223.13Y-117.24
X223.135Y-160.02
X223.135Y-160.72
X223.155Y-115.84
X223.155Y-116.54
X223.4Y-150.825
X223.685Y-164.245
X223.705Y-120.065
X223.71Y-163.545
X223.73Y-119.365
X223.735Y-162.12
X223.735Y-162.845
X223.755Y-117.94
X223.755Y-118.665
X223.76Y-161.42
X223.78Y-117.24
X223.785Y-160.02
X223.785Y-160.72
X223.805Y-115.84
X223.805Y-116.54
X223.95Y-130.43
X223.975Y-131.28
X223.975Y-132.13
X224.225Y-150.825
X224.36Y-164.245
X224.38Y-120.065
X224.385Y-163.545
X224.405Y-119.365
X224.41Y-162.12
X224.41Y-162.845
X224.43Y-117.94
X224.43Y-118.665
X224.435Y-161.42
X224.455Y-117.24
X224.46Y-160.02
X224.46Y-160.72
X224.48Y-115.84
X224.48Y-116.54
X224.687Y-157.448
X224.687Y-158.148
X224.925Y-130.43
X224.95Y-131.28
X224.95Y-132.13
X225.387Y-157.448
X225.387Y-158.148
X225.75Y-130.43
X225.775Y-131.28
X225.775Y-132.13
X225.925Y-150.75
X226.087Y-157.448
X226.087Y-158.148
X226.425Y-134.225
X226.425Y-134.925
X226.45Y-135.65
X226.45Y-136.35
X226.825Y-150.725
X227.15Y-134.225
X227.175Y-134.925
X227.175Y-135.65
X227.2Y-136.35
X227.385Y-164.245
X227.405Y-120.065
X227.41Y-163.545
X227.43Y-119.365
X227.435Y-162.12
X227.435Y-162.845
X227.455Y-117.94
X227.455Y-118.665
X227.46Y-161.42
X227.48Y-117.24
X227.485Y-160.02
X227.485Y-160.72
X227.505Y-115.84
X227.505Y-116.54
X227.8Y-150.725
X228.06Y-164.245
X228.08Y-120.065
X228.085Y-163.545
X228.105Y-119.365
X228.11Y-162.12
X228.11Y-162.845
X228.13Y-117.94
X228.13Y-118.665
X228.135Y-161.42
X228.155Y-117.24
X228.16Y-160.02
X228.16Y-160.72
X228.18Y-115.84
X228.18Y-116.54
X228.325Y-133.975
X228.325Y-134.8
X228.325Y-135.775
X228.35Y-136.675
X228.625Y-150.725
X228.71Y-164.245
X228.73Y-120.065
X228.735Y-163.545
X228.755Y-119.365
X228.76Y-162.12
X228.76Y-162.845
X228.78Y-117.94
X228.78Y-118.665
X228.785Y-161.42
X228.805Y-117.24
X228.81Y-160.02
X228.81Y-160.72
X228.83Y-115.84
X228.83Y-116.54
X229.385Y-164.245
X229.405Y-120.065
X229.41Y-163.545
X229.43Y-119.365
X229.435Y-162.12
X229.435Y-162.845
X229.455Y-117.94
X229.455Y-118.665
X229.46Y-161.42
X229.48Y-117.24
X229.485Y-160.02
X229.485Y-160.72
X229.505Y-115.84
X229.505Y-116.54
X232.019Y-155.999
X232.9Y-122.1
X233.06Y-164.205
X233.085Y-163.505
X233.1Y-136.7
X233.1Y-137.525
X233.1Y-138.5
X233.11Y-162.08
X233.11Y-162.805
X233.125Y-139.4
X233.135Y-161.38
X233.16Y-159.98
X233.16Y-160.68
X233.21Y-120.085
X233.235Y-119.385
X233.26Y-117.96
X233.26Y-118.685
X233.285Y-117.26
X233.31Y-115.86
X233.31Y-116.56
X233.735Y-164.205
X233.76Y-163.505
X233.785Y-162.08
X233.785Y-162.805
X233.8Y-122.075
X233.81Y-161.38
X233.835Y-159.98
X233.835Y-160.68
X233.87Y-151.975
X233.885Y-120.085
X233.91Y-119.385
X233.935Y-117.96
X233.935Y-118.685
X233.96Y-117.26
X233.985Y-115.86
X233.985Y-116.56
X234.325Y-136.825
X234.325Y-137.525
X234.35Y-138.25
X234.35Y-138.95
X234.385Y-164.205
X234.41Y-163.505
X234.435Y-162.08
X234.435Y-162.805
X234.46Y-161.38
X234.485Y-159.98
X234.485Y-160.68
X234.535Y-120.085
X234.56Y-119.385
X234.585Y-117.96
X234.585Y-118.685
X234.61Y-117.26
X234.635Y-115.86
X234.635Y-116.56
X234.775Y-122.075
X234.97Y-152.024
X235.05Y-136.825
X235.06Y-164.205
X235.075Y-137.525
X235.075Y-138.25
X235.085Y-163.505
X235.1Y-138.95
X235.11Y-162.08
X235.11Y-162.805
X235.135Y-161.38
X235.16Y-159.98
X235.16Y-160.68
X235.21Y-120.085
X235.235Y-119.385
X235.26Y-117.96
X235.26Y-118.685
X235.285Y-117.26
X235.31Y-115.86
X235.31Y-116.56
X235.6Y-122.075
X235.748Y-141.03
X235.748Y-141.88
X235.772Y-142.73
X236.572Y-141.03
X236.572Y-141.88
X236.597Y-142.73
X236.75Y-122.05
X237.547Y-141.03
X237.547Y-141.88
X237.572Y-142.73
X237.65Y-122.025
X238.085Y-164.205
X238.11Y-163.505
X238.135Y-162.08
X238.135Y-162.805
X238.16Y-161.38
X238.185Y-159.98
X238.185Y-160.68
X238.235Y-120.085
X238.26Y-119.385
X238.285Y-117.96
X238.285Y-118.685
X238.31Y-117.26
X238.335Y-115.86
X238.335Y-116.56
X238.447Y-141.005
X238.447Y-141.855
X238.472Y-142.705
X238.625Y-122.025
X238.76Y-164.205
X238.785Y-163.505
X238.81Y-162.08
X238.81Y-162.805
X238.835Y-161.38
X238.86Y-159.98
X238.86Y-160.68
X238.91Y-120.085
X238.935Y-119.385
X238.96Y-117.96
X238.96Y-118.685
X238.985Y-117.26
X239.01Y-115.86
X239.01Y-116.56
X239.41Y-164.205
X239.435Y-163.505
X239.45Y-122.025
X239.46Y-162.08
X239.46Y-162.805
X239.485Y-161.38
X239.51Y-159.98
X239.51Y-160.68
X239.56Y-120.085
X239.585Y-119.385
X239.61Y-117.96
X239.61Y-118.685
X239.635Y-117.26
X239.66Y-115.86
X239.66Y-116.56
X239.975Y-151.0
X240.085Y-164.205
X240.11Y-163.505
X240.135Y-162.08
X240.135Y-162.805
X240.16Y-161.38
X240.185Y-159.98
X240.185Y-160.68
X240.235Y-120.085
X240.26Y-119.385
X240.285Y-117.96
X240.285Y-118.685
X240.31Y-117.26
X240.335Y-115.86
X240.335Y-116.56
X240.875Y-150.975
X241.375Y-130.435
X241.4Y-131.285
X241.4Y-132.135
X241.85Y-150.975
X242.275Y-130.41
X242.3Y-131.26
X242.3Y-132.11
X242.675Y-150.975
X243.25Y-130.41
X243.275Y-131.26
X243.275Y-132.11
X244.075Y-130.41
X244.1Y-131.26
X244.1Y-132.11
X244.65Y-151.025
X244.775Y-134.2
X244.775Y-134.9
X244.8Y-135.625
X244.8Y-136.325
X245.5Y-134.2
X245.525Y-134.9
X245.525Y-135.625
X245.55Y-136.325
X245.55Y-151.0
X246.525Y-151.0
X246.7Y-133.925
X246.7Y-134.75
X246.7Y-135.725
X246.725Y-136.625
X247.35Y-151.0
T2
X179.275Y-152.375
X180.15Y-152.375
T3
X168.66Y-162.67
X168.78Y-106.76
X168.93Y-117.54
X169.16Y-174.53
X174.475Y-127.85
X175.725Y-133.1
X178.075Y-135.25
X191.33Y-138.01
X204.375Y-152.125
X204.75Y-157.86
X210.825Y-152.125
X211.075Y-154.9
X213.3Y-152.175
X213.8Y-157.93
X219.775Y-152.175
X220.05Y-154.925
X222.162Y-152.223
X222.712Y-157.99
X228.662Y-152.248
X228.837Y-154.973
X245.075Y-164.175
T5
X181.7Y-128.55
X189.3Y-128.55
T6
X199.0Y-124.0
X199.025Y-120.475
X216.6Y-126.8
X229.575Y-123.75
X230.325Y-136.4
X236.05Y-123.875
X243.025Y-120.26
X243.875Y-152.425
X245.18Y-147.03
X245.925Y-160.4
T7
X189.9Y-148.5
X189.95Y-153.5
T8
X205.2Y-106.15
X205.2Y-111.15
X205.2Y-169.15
X205.2Y-174.15
X215.525Y-106.15
X215.525Y-111.15
X215.525Y-169.15
X215.525Y-174.15
X225.975Y-106.15
X225.975Y-111.15
X225.975Y-169.15
X225.975Y-174.15
X236.725Y-169.125
X236.725Y-174.125
X236.727Y-106.15
X236.727Y-111.15
X246.45Y-169.175
X246.45Y-174.175
T9
X194.525Y-118.45
X194.525Y-175.6
X245.9Y-108.565
X245.9Y-156.825
T10
X175.17Y-106.56
X175.17Y-117.46
X175.17Y-162.49
X175.17Y-173.39
T11
X157.305Y-148.76
X157.305Y-154.54
T12
X172.57Y-137.4
X176.38Y-137.4
T4
G00X153.925Y-147.33
M15
G01X153.325Y-147.33
M16
G05
G00X153.925Y-155.97
M15
G01X153.325Y-155.97
M16
G05
G00X158.355Y-147.33
M15
G01X157.255Y-147.33
M16
G05
G00X158.355Y-155.97
M15
G01X157.255Y-155.97
M16
G05
G00X166.27Y-102.56
M15
G01X165.27Y-102.56
M16
G05
G00X166.27Y-121.46
M15
G01X165.27Y-121.46
M16
G05
G00X166.27Y-158.49
M15
G01X165.27Y-158.49
M16
G05
G00X166.27Y-177.39
M15
G01X165.27Y-177.39
M16
G05
T0
M30
